<?xml version="1.0" encoding="utf-8"?>
<!-- Generator: Adobe Illustrator 21.0.0, SVG Export Plug-In . SVG Version: 6.00 Build 0)  -->
<svg version="1.1" id="Calque_1" xmlns="http://www.w3.org/2000/svg" xmlns:xlink="http://www.w3.org/1999/xlink" x="0px" y="0px"
	 viewBox="0 0 1366 768" style="enable-background:new 0 0 1366 768;" xml:space="preserve">
<style type="text/css">
	.st0{opacity:0.46;fill:url(#SVGID_1_);enable-background:new    ;}
	.st1{opacity:0.46;fill:url(#SVGID_2_);enable-background:new    ;}
	.st2{opacity:0.46;fill:url(#SVGID_3_);enable-background:new    ;}
	.st3{opacity:0.46;fill:url(#SVGID_4_);enable-background:new    ;}
	.st4{opacity:0.46;fill:url(#SVGID_5_);enable-background:new    ;}
	.st5{opacity:0.46;fill:url(#SVGID_6_);enable-background:new    ;}
	.st6{opacity:0.46;fill:url(#SVGID_7_);enable-background:new    ;}
	.st7{opacity:0.46;fill:url(#SVGID_8_);enable-background:new    ;}
	.st8{opacity:0.46;fill:url(#SVGID_9_);enable-background:new    ;}
	.st9{opacity:0.46;fill:url(#SVGID_10_);enable-background:new    ;}
	.st10{opacity:0.27;fill:url(#SVGID_11_);enable-background:new    ;}
	.st11{opacity:0.27;fill:url(#SVGID_12_);enable-background:new    ;}
	.st12{opacity:0.27;fill:url(#SVGID_13_);enable-background:new    ;}
	.st13{opacity:0.44;fill:#20E2E2;stroke:#A04100;stroke-miterlimit:10;enable-background:new    ;}
	.st14{opacity:0.38;fill:#20E2E2;stroke:#A04100;stroke-miterlimit:10;enable-background:new    ;}
	.st15{opacity:0.38;}
	.st16{fill:#20E2E2;}
	.st17{opacity:0.38;fill:#603209;stroke:#A04100;stroke-miterlimit:10;enable-background:new    ;}
	.st18{fill:#FF0B2E;}
	.st19{fill:#F9E2D9;}
	.st20{fill:#0C2259;}
	.st21{opacity:0.97;fill:#605C5C;enable-background:new    ;}
	.st22{fill:#F9E2D9;stroke:#0F0C0B;stroke-width:0.25;stroke-miterlimit:10;}
	.st23{fill:#939393;stroke:#070401;stroke-miterlimit:10;}
	.st24{fill:#603209;stroke:#A04100;stroke-miterlimit:10;}
	.st25{stroke:#000000;stroke-miterlimit:10;}
	.st26{fill:#890628;stroke:#000000;stroke-miterlimit:10;}
	.st27{fill:#DD1D6B;}
	.st28{fill:#FFFFFF;stroke:#000000;stroke-miterlimit:10;}
	.st29{fill:#F774BC;}
	.st30{fill:#F9D7C7;}
	.st31{fill:#939393;}
	.st32{fill:#070401;}
	.st33{fill:#D86100;stroke:#070401;stroke-width:0.25;stroke-miterlimit:10;}
	.st34{fill:#F978F0;stroke:#070401;stroke-width:0.25;stroke-miterlimit:10;}
	.st35{fill:#D86100;}
	.st36{fill:#EACE00;stroke:#070401;stroke-width:0.25;stroke-miterlimit:10;}
	.st37{fill:#FF08B3;}
	.st38{fill:#FFE10B;}
</style>
<g id="Calque_5">
	
		<linearGradient id="SVGID_1_" gradientUnits="userSpaceOnUse" x1="-93.0225" y1="1384.866" x2="177.0225" y2="917.1341" gradientTransform="matrix(1 0 0 1 0 -310)">
		<stop  offset="8.461538e-02" style="stop-color:#F15A24"/>
		<stop  offset="0.1043" style="stop-color:#EB572B"/>
		<stop  offset="0.2479" style="stop-color:#C54256"/>
		<stop  offset="0.377" style="stop-color:#AA3375"/>
		<stop  offset="0.486" style="stop-color:#992A88"/>
		<stop  offset="0.5615" style="stop-color:#93278F"/>
		<stop  offset="0.6639" style="stop-color:#96278E"/>
		<stop  offset="0.7535" style="stop-color:#A1268C"/>
		<stop  offset="0.8383" style="stop-color:#B32487"/>
		<stop  offset="0.9196" style="stop-color:#CC2181"/>
		<stop  offset="0.9987" style="stop-color:#EC1E79"/>
		<stop  offset="1" style="stop-color:#ED1E79"/>
	</linearGradient>
	<circle class="st0" cx="42" cy="841" r="270"/>
	
		<linearGradient id="SVGID_2_" gradientUnits="userSpaceOnUse" x1="-155.7621" y1="622.6616" x2="-11.2379" y2="372.3384" gradientTransform="matrix(1 0 0 1 0 -310)">
		<stop  offset="8.461538e-02" style="stop-color:#F15A24"/>
		<stop  offset="0.1043" style="stop-color:#EB572B"/>
		<stop  offset="0.2479" style="stop-color:#C54256"/>
		<stop  offset="0.377" style="stop-color:#AA3375"/>
		<stop  offset="0.486" style="stop-color:#992A88"/>
		<stop  offset="0.5615" style="stop-color:#93278F"/>
		<stop  offset="0.6639" style="stop-color:#96278E"/>
		<stop  offset="0.7535" style="stop-color:#A1268C"/>
		<stop  offset="0.8383" style="stop-color:#B32487"/>
		<stop  offset="0.9196" style="stop-color:#CC2181"/>
		<stop  offset="0.9987" style="stop-color:#EC1E79"/>
		<stop  offset="1" style="stop-color:#ED1E79"/>
	</linearGradient>
	<circle class="st1" cx="-83.5" cy="187.5" r="144.5"/>
	
		<linearGradient id="SVGID_3_" gradientUnits="userSpaceOnUse" x1="493.4764" y1="1370.1261" x2="776.5236" y2="879.8739" gradientTransform="matrix(1 0 0 1 0 -310)">
		<stop  offset="8.461538e-02" style="stop-color:#F15A24"/>
		<stop  offset="0.1043" style="stop-color:#EB572B"/>
		<stop  offset="0.2479" style="stop-color:#C54256"/>
		<stop  offset="0.377" style="stop-color:#AA3375"/>
		<stop  offset="0.486" style="stop-color:#992A88"/>
		<stop  offset="0.5615" style="stop-color:#93278F"/>
		<stop  offset="0.6639" style="stop-color:#96278E"/>
		<stop  offset="0.7535" style="stop-color:#A1268C"/>
		<stop  offset="0.8383" style="stop-color:#B32487"/>
		<stop  offset="0.9196" style="stop-color:#CC2181"/>
		<stop  offset="0.9987" style="stop-color:#EC1E79"/>
		<stop  offset="1" style="stop-color:#ED1E79"/>
	</linearGradient>
	<circle class="st2" cx="635" cy="815" r="283"/>
	
		<linearGradient id="SVGID_4_" gradientUnits="userSpaceOnUse" x1="939.2406" y1="682.9441" x2="1051.7594" y2="488.0559" gradientTransform="matrix(1 0 0 1 0 -310)">
		<stop  offset="8.461538e-02" style="stop-color:#F15A24"/>
		<stop  offset="0.1043" style="stop-color:#EB572B"/>
		<stop  offset="0.2479" style="stop-color:#C54256"/>
		<stop  offset="0.377" style="stop-color:#AA3375"/>
		<stop  offset="0.486" style="stop-color:#992A88"/>
		<stop  offset="0.5615" style="stop-color:#93278F"/>
		<stop  offset="0.6639" style="stop-color:#96278E"/>
		<stop  offset="0.7535" style="stop-color:#A1268C"/>
		<stop  offset="0.8383" style="stop-color:#B32487"/>
		<stop  offset="0.9196" style="stop-color:#CC2181"/>
		<stop  offset="0.9987" style="stop-color:#EC1E79"/>
		<stop  offset="1" style="stop-color:#ED1E79"/>
	</linearGradient>
	<circle class="st3" cx="995.5" cy="275.5" r="112.5"/>
	
		<linearGradient id="SVGID_5_" gradientUnits="userSpaceOnUse" x1="1038.724" y1="644.312" x2="1350.276" y2="104.688" gradientTransform="matrix(1 0 0 1 0 -310)">
		<stop  offset="8.461538e-02" style="stop-color:#F15A24"/>
		<stop  offset="0.1043" style="stop-color:#EB572B"/>
		<stop  offset="0.2479" style="stop-color:#C54256"/>
		<stop  offset="0.377" style="stop-color:#AA3375"/>
		<stop  offset="0.486" style="stop-color:#992A88"/>
		<stop  offset="0.5615" style="stop-color:#93278F"/>
		<stop  offset="0.6639" style="stop-color:#96278E"/>
		<stop  offset="0.7535" style="stop-color:#A1268C"/>
		<stop  offset="0.8383" style="stop-color:#B32487"/>
		<stop  offset="0.9196" style="stop-color:#CC2181"/>
		<stop  offset="0.9987" style="stop-color:#EC1E79"/>
		<stop  offset="1" style="stop-color:#ED1E79"/>
	</linearGradient>
	<circle class="st4" cx="1194.5" cy="64.5" r="311.5"/>
	
		<linearGradient id="SVGID_6_" gradientUnits="userSpaceOnUse" x1="1092.2252" y1="1269.3195" x2="1388.7748" y2="755.6806" gradientTransform="matrix(1 0 0 1 0 -310)">
		<stop  offset="8.461538e-02" style="stop-color:#F15A24"/>
		<stop  offset="0.1043" style="stop-color:#EB572B"/>
		<stop  offset="0.2479" style="stop-color:#C54256"/>
		<stop  offset="0.377" style="stop-color:#AA3375"/>
		<stop  offset="0.486" style="stop-color:#992A88"/>
		<stop  offset="0.5615" style="stop-color:#93278F"/>
		<stop  offset="0.6639" style="stop-color:#96278E"/>
		<stop  offset="0.7535" style="stop-color:#A1268C"/>
		<stop  offset="0.8383" style="stop-color:#B32487"/>
		<stop  offset="0.9196" style="stop-color:#CC2181"/>
		<stop  offset="0.9987" style="stop-color:#EC1E79"/>
		<stop  offset="1" style="stop-color:#ED1E79"/>
	</linearGradient>
	<circle class="st5" cx="1240.5" cy="702.5" r="296.5"/>
	
		<linearGradient id="SVGID_7_" gradientUnits="userSpaceOnUse" x1="-12.012" y1="443.7285" x2="132.012" y2="194.2715" gradientTransform="matrix(1 0 0 1 0 -310)">
		<stop  offset="8.461538e-02" style="stop-color:#F15A24"/>
		<stop  offset="0.1043" style="stop-color:#EB572B"/>
		<stop  offset="0.2479" style="stop-color:#C54256"/>
		<stop  offset="0.377" style="stop-color:#AA3375"/>
		<stop  offset="0.486" style="stop-color:#992A88"/>
		<stop  offset="0.5615" style="stop-color:#93278F"/>
		<stop  offset="0.6639" style="stop-color:#96278E"/>
		<stop  offset="0.7535" style="stop-color:#A1268C"/>
		<stop  offset="0.8383" style="stop-color:#B32487"/>
		<stop  offset="0.9196" style="stop-color:#CC2181"/>
		<stop  offset="0.9987" style="stop-color:#EC1E79"/>
		<stop  offset="1" style="stop-color:#ED1E79"/>
	</linearGradient>
	<circle class="st6" cx="60" cy="9" r="144"/>
	
		<linearGradient id="SVGID_8_" gradientUnits="userSpaceOnUse" x1="73.9783" y1="1384.2042" x2="334.0217" y2="933.7958" gradientTransform="matrix(1 0 0 1 0 -310)">
		<stop  offset="8.461538e-02" style="stop-color:#F15A24"/>
		<stop  offset="0.1043" style="stop-color:#EB572B"/>
		<stop  offset="0.2479" style="stop-color:#C54256"/>
		<stop  offset="0.377" style="stop-color:#AA3375"/>
		<stop  offset="0.486" style="stop-color:#992A88"/>
		<stop  offset="0.5615" style="stop-color:#93278F"/>
		<stop  offset="0.6639" style="stop-color:#96278E"/>
		<stop  offset="0.7535" style="stop-color:#A1268C"/>
		<stop  offset="0.8383" style="stop-color:#B32487"/>
		<stop  offset="0.9196" style="stop-color:#CC2181"/>
		<stop  offset="0.9987" style="stop-color:#EC1E79"/>
		<stop  offset="1" style="stop-color:#ED1E79"/>
	</linearGradient>
	<circle class="st7" cx="204" cy="849" r="260"/>
	
		<linearGradient id="SVGID_9_" gradientUnits="userSpaceOnUse" x1="-122.7602" y1="1051.6058" x2="-0.2398" y2="839.3942" gradientTransform="matrix(1 0 0 1 0 -310)">
		<stop  offset="8.461538e-02" style="stop-color:#F15A24"/>
		<stop  offset="0.1043" style="stop-color:#EB572B"/>
		<stop  offset="0.2479" style="stop-color:#C54256"/>
		<stop  offset="0.377" style="stop-color:#AA3375"/>
		<stop  offset="0.486" style="stop-color:#992A88"/>
		<stop  offset="0.5615" style="stop-color:#93278F"/>
		<stop  offset="0.6639" style="stop-color:#96278E"/>
		<stop  offset="0.7535" style="stop-color:#A1268C"/>
		<stop  offset="0.8383" style="stop-color:#B32487"/>
		<stop  offset="0.9196" style="stop-color:#CC2181"/>
		<stop  offset="0.9987" style="stop-color:#EC1E79"/>
		<stop  offset="1" style="stop-color:#ED1E79"/>
	</linearGradient>
	<circle class="st8" cx="-61.5" cy="635.5" r="122.5"/>
	
		<linearGradient id="SVGID_10_" gradientUnits="userSpaceOnUse" x1="1079.7461" y1="786.6431" x2="1127.2539" y2="704.3569" gradientTransform="matrix(1 0 0 1 0 -310)">
		<stop  offset="8.461538e-02" style="stop-color:#F15A24"/>
		<stop  offset="0.1043" style="stop-color:#EB572B"/>
		<stop  offset="0.2479" style="stop-color:#C54256"/>
		<stop  offset="0.377" style="stop-color:#AA3375"/>
		<stop  offset="0.486" style="stop-color:#992A88"/>
		<stop  offset="0.5615" style="stop-color:#93278F"/>
		<stop  offset="0.6639" style="stop-color:#96278E"/>
		<stop  offset="0.7535" style="stop-color:#A1268C"/>
		<stop  offset="0.8383" style="stop-color:#B32487"/>
		<stop  offset="0.9196" style="stop-color:#CC2181"/>
		<stop  offset="0.9987" style="stop-color:#EC1E79"/>
		<stop  offset="1" style="stop-color:#ED1E79"/>
	</linearGradient>
	<circle class="st9" cx="1103.5" cy="435.5" r="47.5"/>
	
		<linearGradient id="SVGID_11_" gradientUnits="userSpaceOnUse" x1="105.3164" y1="1547.1067" x2="508.0836" y2="849.4933" gradientTransform="matrix(1 0 0 1 0 -310)">
		<stop  offset="8.461538e-02" style="stop-color:#F15A24"/>
		<stop  offset="0.1043" style="stop-color:#EB572B"/>
		<stop  offset="0.2479" style="stop-color:#C54256"/>
		<stop  offset="0.377" style="stop-color:#AA3375"/>
		<stop  offset="0.486" style="stop-color:#992A88"/>
		<stop  offset="0.5615" style="stop-color:#93278F"/>
		<stop  offset="0.6639" style="stop-color:#96278E"/>
		<stop  offset="0.7535" style="stop-color:#A1268C"/>
		<stop  offset="0.8383" style="stop-color:#B32487"/>
		<stop  offset="0.9196" style="stop-color:#CC2181"/>
		<stop  offset="0.9987" style="stop-color:#EC1E79"/>
		<stop  offset="1" style="stop-color:#ED1E79"/>
	</linearGradient>
	<circle class="st10" cx="306.7" cy="888.3" r="402.7"/>
	
		<linearGradient id="SVGID_12_" gradientUnits="userSpaceOnUse" x1="294.0419" y1="1143.8544" x2="990.1581" y2="-61.8544" gradientTransform="matrix(1 0 0 1 0 -310)">
		<stop  offset="8.461538e-02" style="stop-color:#F15A24"/>
		<stop  offset="0.1043" style="stop-color:#EB572B"/>
		<stop  offset="0.2479" style="stop-color:#C54256"/>
		<stop  offset="0.377" style="stop-color:#AA3375"/>
		<stop  offset="0.486" style="stop-color:#992A88"/>
		<stop  offset="0.5615" style="stop-color:#93278F"/>
		<stop  offset="0.6639" style="stop-color:#96278E"/>
		<stop  offset="0.7535" style="stop-color:#A1268C"/>
		<stop  offset="0.8383" style="stop-color:#B32487"/>
		<stop  offset="0.9196" style="stop-color:#CC2181"/>
		<stop  offset="0.9987" style="stop-color:#EC1E79"/>
		<stop  offset="1" style="stop-color:#ED1E79"/>
	</linearGradient>
	<circle class="st11" cx="642.1" cy="231" r="696"/>
	
		<linearGradient id="SVGID_13_" gradientUnits="userSpaceOnUse" x1="305.3269" y1="1118.7031" x2="581.0731" y2="641.097" gradientTransform="matrix(1 0 0 1 0 -310)">
		<stop  offset="8.461538e-02" style="stop-color:#F15A24"/>
		<stop  offset="0.1043" style="stop-color:#EB572B"/>
		<stop  offset="0.2479" style="stop-color:#C54256"/>
		<stop  offset="0.377" style="stop-color:#AA3375"/>
		<stop  offset="0.486" style="stop-color:#992A88"/>
		<stop  offset="0.5615" style="stop-color:#93278F"/>
		<stop  offset="0.6639" style="stop-color:#96278E"/>
		<stop  offset="0.7535" style="stop-color:#A1268C"/>
		<stop  offset="0.8383" style="stop-color:#B32487"/>
		<stop  offset="0.9196" style="stop-color:#CC2181"/>
		<stop  offset="0.9987" style="stop-color:#EC1E79"/>
		<stop  offset="1" style="stop-color:#ED1E79"/>
	</linearGradient>
	<circle class="st12" cx="443.2" cy="569.9" r="275.7"/>
</g>
<g id="Calque_8">
	<path class="st13" d="M-1031.5-1"/>
	<path class="st14" d="M-661.7,792.6"/>
	<path class="st14" d="M-593.2-120.7"/>
	<g class="st15">
		<path class="st16" d="M1912.2-118.7c-15.6-42.9-56.1-89.4-104.3-91.9c-62.2-3.2-118.7,68.1-134.1,126.6
			c-8.1,31-5.5,61.3-12.4,62.1c-7.8,0.8-10.9-37.9-32.3-74.5c-25.2-43.1-81.8-93.2-129.9-82.8c-60.2,13.1-101.9,120-73.7,184.6
			c25,57.3,94.3,56.7,116.7,129.1c2.8,9.1,10.8,36.2,2.5,67c-17.2,63.4-87.8,83.7-84.4,91.9c5.8,14.2,237.4-1.7,375-173.8
			C1864.2,83.3,1947.7-21.2,1912.2-118.7z"/>
		<path class="st16" d="M859.6-1009.9c1.4,5.7,5.3,22.8,1.2,42.3c-8.3,40-42.6,52.7-41,57.9c2.8,9,115.3-1.1,182-109.5
			c14.1-22.9,54.6-88.8,37.4-150.2c-7.6-27-27.3-56.3-50.6-57.9c-30.2-2-57.6,42.9-65.1,79.8c-4,19.5-2.7,38.7-6,39.1
			c-3.8,0.5-5.3-23.9-15.7-46.9c-12.3-27.2-39.7-58.8-63.1-52.2c-29.2,8.3-49.5,75.6-35.8,116.3
			C815.1-1055.2,848.7-1055.6,859.6-1009.9z"/>
		<path class="st16" d="M1341.9,448.5c-52.2-2.7-99.6,57.1-112.5,106.2c-6.8,26-4.6,51.5-10.4,52.1c-6.5,0.7-9.1-31.8-27.1-62.5
			c-21.2-36.2-68.6-78.2-109-69.4c-50.5,11-85.5,100.6-61.8,154.8c21,48,79.1,47.5,97.9,108.3c2.4,7.6,9.1,30.4,2.1,56.2
			c-14.4,53.2-73.6,70.2-70.8,77.1c4.9,11.9,199.1-1.4,314.5-145.8c24.4-30.5,94.4-118.1,64.6-199.9
			C1416.2,489.6,1382.3,450.6,1341.9,448.5z"/>
		<path class="st16" d="M1313.8-838c1.4,6.8,5.5,27.2,1.3,50.4c-8.7,47.7-44.6,62.9-42.9,69.1c3,10.7,120.7-1.3,190.7-130.7
			c14.8-27.3,57.2-106,39.1-179.3c-8-32.3-28.5-67.2-53-69.1c-31.6-2.4-60.4,51.2-68.2,95.3c-4.1,23.3-2.8,46.1-6.3,46.7
			c-4,0.6-5.5-28.5-16.4-56c-12.8-32.4-41.6-70.1-66.1-62.3c-30.6,9.9-51.8,90.2-37.5,138.8C1267.2-892.1,1302.4-892.5,1313.8-838z"
			/>
		<path class="st16" d="M879.8,21c2.6,7.9,9.9,31.5,2.3,58.3c-15.7,55.2-80.1,72.8-77.1,79.9c5.3,12.4,216.8-1.5,342.3-151.2
			c26.5-31.6,102.7-122.6,70.3-207.4c-14.3-37.3-51.2-77.8-95.2-79.9c-56.8-2.8-108.4,59.2-122.4,110.2c-7.4,27-5,53.4-11.3,54
			c-7.1,0.7-9.9-33-29.5-64.8c-23-37.5-74.7-81.1-118.6-72c-54.9,11.4-93.1,104.4-67.3,160.6C796.1-41.5,859.3-42,879.8,21z"/>
		<path class="st16" d="M509.1-557.1c1.6,6.4,6.2,25.6,1.4,47.4c-9.8,44.9-50.2,59.2-48.3,65c3.3,10.1,135.8-1.2,214.4-123
			c16.6-25.7,64.4-99.7,44-168.7c-8.9-30.4-32.1-63.2-59.6-65c-35.6-2.3-67.9,48.2-76.7,89.6c-4.7,21.9-3.2,43.4-7.1,43.9
			c-4.4,0.6-6.2-26.8-18.5-52.7c-14.4-30.5-46.8-66-74.3-58.6c-34.4,9.3-58.3,84.9-42.1,130.6C456.7-608,496.3-608.4,509.1-557.1z"
			/>
		<path class="st16" d="M912.8,418.7c-15.5-40.4-55.5-84.2-103-86.5c-61.5-3-117.3,64.1-132.5,119.2c-8,29.2-5.5,57.8-12.3,58.5
			c-7.7,0.8-10.8-35.7-31.9-70.1c-24.9-40.6-80.9-87.8-128.4-77.9C445.3,374.2,404,474.8,432,535.6c24.7,53.9,93.1,53.4,115.3,121.6
			c2.8,8.5,10.7,34.1,2.5,63.1c-17,59.7-86.7,78.8-83.4,86.5c5.7,13.4,234.6-1.6,370.4-163.7C865.4,608.9,947.9,510.5,912.8,418.7z"
			/>
		<path class="st16" d="M1098,1087.9c-37.3-2.7-71.1,57.5-80.3,106.9c-4.9,26.2-3.3,51.8-7.4,52.4c-4.7,0.7-6.5-32-19.3-62.9
			c-15.1-36.4-49-78.7-77.8-69.9c-36,11.1-61.1,101.3-44.1,155.9c15,48.4,56.5,47.9,69.9,109c1.7,7.7,6.5,30.6,1.5,56.6
			c-10.3,53.5-52.6,70.7-50.6,77.6c3.5,12,142.2-1.4,224.6-146.8c17.4-30.7,67.4-118.9,46.1-201.3
			C1151.1,1129.3,1126.9,1090,1098,1087.9z"/>
		<path class="st16" d="M-382.6,270.2c-48.1-10.5-104.7,39.7-130,82.8c-21.4,36.6-24.5,75.3-32.3,74.5c-6.9-0.7-4.3-31.1-12.4-62.1
			c-15.4-58.6-71.9-129.8-134.1-126.6c-48.2,2.5-88.6,49-104.3,91.9c-35.6,97.5,47.9,202,77,238.4
			c137.5,172.1,369.1,188.1,375,173.8c3.3-8.2-67.2-28.5-84.4-91.9c-8.4-30.8-0.3-58,2.5-67c22.4-72.4,91.7-71.9,116.7-129.1
			C-280.7,390.1-322.4,283.3-382.6,270.2z"/>
		<path class="st16" d="M132.1-520.5c1.6-5.2-32.6-17.9-41-57.9c-4.1-19.4-0.2-36.5,1.2-42.3c10.9-45.7,44.5-45.3,56.7-81.4
			c13.7-40.7-6.5-108.1-35.8-116.3c-23.4-6.6-50.8,25-63.1,52.2c-10.4,23-11.9,47.5-15.7,46.9c-3.3-0.5-2.1-19.6-6-39.1
			c-7.5-36.9-34.9-81.8-65.1-79.8c-23.4,1.6-43,30.9-50.6,57.9C-104.6-718.8-64.1-652.9-50-630C16.8-521.5,129.2-511.5,132.1-520.5z
			"/>
		<path class="st16" d="M-317.2-90.8c23.7-54.2-11.3-143.8-61.8-154.8c-40.3-8.8-87.8,33.3-109,69.4c-17.9,30.7-20.5,63.2-27.1,62.5
			c-5.8-0.6-3.6-26.1-10.4-52.1C-538.4-214.9-585.8-274.7-638-272c-40.4,2.1-74.3,41.1-87.5,77.1C-755.2-113.1-685.2-25.5-660.8,5
			c115.3,144.4,309.6,157.7,314.5,145.8c2.8-6.9-56.4-23.9-70.8-77.1c-7-25.9-0.3-48.6,2.1-56.2C-396.2-43.3-338.2-42.8-317.2-90.8z
			"/>
		<path class="st16" d="M215.9,572.3c-24.5-7.9-53.2,29.8-66.1,62.3c-10.9,27.5-12.5,56.7-16.4,56c-3.5-0.5-2.2-23.4-6.3-46.7
			c-7.8-44.1-36.5-97.7-68.2-95.3c-24.5,1.9-45.1,36.8-53,69.1C-12.2,691.1,30.3,769.7,45,797c69.9,129.5,187.7,141.5,190.7,130.7
			c1.7-6.2-34.2-21.4-42.9-69.1c-4.3-23.2-0.2-43.6,1.3-50.4c11.4-54.5,46.6-54.1,59.3-97.1C267.7,662.5,246.5,582.2,215.9,572.3z"
			/>
		<path class="st16" d="M-330.5-404.3c3.1-7.1-61.4-24.8-77.1-79.9c-7.6-26.8-0.3-50.4,2.3-58.3c20.5-63,83.7-62.5,106.5-112.3
			C-273-711-311.1-804-366.1-815.4c-43.9-9.1-95.6,34.5-118.6,72c-19.5,31.8-22.4,65.5-29.5,64.8c-6.3-0.6-3.9-27-11.3-54
			c-14-51-65.6-113-122.4-110.2c-44,2.2-80.9,42.6-95.2,79.9c-32.5,84.9,43.8,175.8,70.3,207.4C-547.3-405.8-335.8-392-330.5-404.3z
			"/>
		<path class="st16" d="M392.8-917.3c1.9-5.8-38.4-20.1-48.3-65c-4.8-21.8-0.2-41,1.4-47.4c12.8-51.3,52.4-50.8,66.7-91.4
			c16.2-45.7-7.7-121.3-42.1-130.6c-27.5-7.4-59.9,28.1-74.3,58.6c-12.2,25.9-14,53.3-18.5,52.7c-3.9-0.5-2.4-22-7.1-43.9
			c-8.8-41.4-41.1-91.9-76.7-89.6c-27.5,1.8-50.7,34.7-59.6,65c-20.3,69,27.4,142.9,44,168.7C257-918.5,389.5-907.2,392.8-917.3z"/>
		<path class="st16" d="M375.2,278.1c3.3-7.7-66.4-26.8-83.4-86.5c-8.3-29-0.3-54.6,2.5-63.1c22.2-68.2,90.6-67.7,115.3-121.6
			c27.9-60.8-13.3-161.5-72.8-173.8c-47.5-9.9-103.4,37.3-128.4,77.9c-21.1,34.4-24.2,70.9-31.9,70.1c-6.8-0.7-4.2-29.3-12.3-58.5
			c-15.2-55.2-71-122.3-132.5-119.2c-47.6,2.3-87.6,46.1-103,86.5c-35.1,91.8,47.4,190.2,76,224.4
			C140.6,276.5,369.5,291.5,375.2,278.1z"/>
		<path class="st16" d="M532.7,1025.4c-28.8-8.8-62.7,33.5-77.8,69.9c-12.8,30.9-14.7,63.6-19.3,62.9c-4.1-0.6-2.6-26.2-7.4-52.4
			c-9.2-49.5-43-109.6-80.3-106.9c-28.8,2.1-53.1,41.4-62.5,77.6c-21.3,82.3,28.7,170.6,46.1,201.3
			c82.4,145.3,221.1,158.8,224.6,146.8c2-6.9-40.3-24-50.6-77.6c-5-26-0.2-49,1.5-56.6c13.4-61.2,54.9-60.7,69.9-109
			C593.8,1126.7,568.8,1036.5,532.7,1025.4z"/>
	</g>
	<path class="st17" d="M-266.5-18.5"/>
	<path class="st17" d="M-19.5,511.5"/>
	<path class="st17" d="M26.2-98.4"/>
	<g class="st15">
		<path class="st18" d="M1696.8-77.7c-10.3-28.2-36.8-58.7-68.5-60.3c-40.9-2.1-77.9,44.7-88,83.1c-5.3,20.4-3.6,40.3-8.1,40.7
			c-5.1,0.5-7.1-24.9-21.2-48.9c-16.6-28.3-53.7-61.2-85.3-54.3c-39.5,8.6-66.9,78.7-48.4,121.2c16.4,37.6,61.9,37.2,76.6,84.8
			c1.8,6,7.1,23.8,1.6,44c-11.3,41.6-57.6,54.9-55.4,60.3c3.8,9.3,155.9-1.1,246.1-114.1C1665.4,54.9,1720.2-13.7,1696.8-77.7z"/>
		<path class="st18" d="M1005.9-662.7c0.9,3.8,3.5,15,0.8,27.7c-5.5,26.2-28,34.6-26.9,38c1.9,5.9,75.7-0.7,119.5-71.9
			c9.3-15,35.9-58.3,24.5-98.6c-5-17.7-17.9-37-33.2-38c-19.8-1.3-37.8,28.2-42.7,52.4c-2.6,12.8-1.8,25.4-4,25.7
			c-2.5,0.3-3.5-15.7-10.3-30.8c-8-17.8-26.1-38.6-41.4-34.2c-19.2,5.4-32.5,49.6-23.5,76.4C976.7-692.4,998.8-692.6,1005.9-662.7z"
			/>
		<path class="st18" d="M1322.5,294.7c-34.3-1.8-65.4,37.5-73.8,69.7c-4.5,17.1-3,33.8-6.8,34.2c-4.3,0.5-6-20.9-17.8-41
			c-13.9-23.7-45.1-51.3-71.5-45.6c-33.1,7.2-56.1,66-40.6,101.6c13.8,31.5,51.9,31.2,64.3,71.1c1.5,5,6,19.9,1.4,36.9
			c-9.5,34.9-48.3,46.1-46.5,50.6c3.2,7.8,130.7-0.9,206.4-95.7c16-20,62-77.5,42.4-131.2C1371.3,321.6,1349,296,1322.5,294.7z"/>
		<path class="st18" d="M1304.1-549.8c0.9,4.5,3.6,17.9,0.8,33.1c-5.7,31.3-29.3,41.3-28.2,45.4c1.9,7,79.3-0.8,125.1-85.8
			c9.7-17.9,37.6-69.5,25.7-117.7c-5.2-21.2-18.7-44.1-34.8-45.4c-20.8-1.6-39.6,33.6-44.8,62.5c-2.7,15.3-1.8,30.3-4.1,30.7
			c-2.6,0.4-3.6-18.7-10.8-36.8c-8.4-21.3-27.3-46-43.4-40.9c-20.1,6.5-34,59.2-24.6,91.1C1273.5-585.3,1296.6-585.6,1304.1-549.8z"
			/>
		<path class="st18" d="M1019.2,14c1.7,5.2,6.5,20.7,1.5,38.3c-10.3,36.2-52.6,47.8-50.6,52.5c3.5,8.1,142.3-1,224.7-99.3
			c17.4-20.8,67.4-80.4,46.1-136.1c-9.4-24.5-33.6-51.1-62.5-52.5c-37.3-1.8-71.1,38.9-80.4,72.3c-4.9,17.7-3.3,35-7.4,35.5
			c-4.7,0.5-6.5-21.7-19.3-42.5c-15.1-24.6-49-53.3-77.9-47.3c-36.1,7.5-61.1,68.5-44.1,105.4C964.3-27,1005.7-27.3,1019.2,14z"/>
		<path class="st18" d="M775.9-365.5c1.1,4.2,4.1,16.8,0.9,31.1c-6.5,29.4-32.9,38.9-31.7,42.7c2.2,6.6,89.1-0.8,140.7-80.7
			c10.9-16.9,42.2-65.4,28.9-110.7c-5.9-19.9-21.1-41.5-39.1-42.7c-23.4-1.5-44.6,31.6-50.3,58.8c-3.1,14.4-2.1,28.5-4.7,28.8
			c-2.9,0.4-4.1-17.6-12.1-34.6c-9.5-20-30.7-43.3-48.8-38.4c-22.6,6.1-38.3,55.7-27.6,85.7C741.5-398.8,767.4-399.1,775.9-365.5z"
			/>
		<path class="st18" d="M1040.8,275.1c-10.1-26.5-36.4-55.2-67.6-56.8c-40.4-2-77,42.1-87,78.3c-5.3,19.2-3.6,37.9-8.1,38.4
			c-5,0.5-7.1-23.5-20.9-46c-16.4-26.6-53.1-57.6-84.3-51.2c-39,8.1-66.1,74.1-47.8,114.1c16.2,35.4,61.1,35,75.7,79.8
			c1.8,5.6,7,22.4,1.6,41.4c-11.2,39.2-56.9,51.7-54.7,56.8c3.8,8.8,154-1,243.1-107.4C1009.7,400,1063.9,335.4,1040.8,275.1z"/>
		<path class="st18" d="M1162.4,714.4c-24.5-1.8-46.7,37.7-52.7,70.2c-3.2,17.2-2.2,34-4.9,34.4c-3.1,0.5-4.3-21-12.7-41.3
			c-9.9-23.9-32.2-51.7-51.1-45.9c-23.7,7.3-40.1,66.5-29,102.3c9.8,31.7,37.1,31.4,45.9,71.6c1.1,5,4.3,20.1,1,37.2
			c-6.8,35.1-34.5,46.4-33.2,50.9c2.3,7.9,93.3-0.9,147.4-96.3c11.4-20.1,44.2-78.1,30.3-132.1
			C1197.3,741.5,1181.3,715.7,1162.4,714.4z"/>
		<path class="st18" d="M190.5,177.6c-31.6-6.9-68.7,26-85.3,54.3c-14,24-16.1,49.4-21.2,48.9c-4.5-0.5-2.8-20.4-8.1-40.7
			c-10.1-38.5-47.2-85.2-88-83.1c-31.6,1.6-58.2,32.1-68.5,60.3c-23.3,64,31.5,132.6,50.5,156.5c90.3,113,242.3,123.4,246.1,114.1
			c2.2-5.4-44.1-18.7-55.4-60.3c-5.5-20.2-0.2-38.1,1.6-44c14.7-47.5,60.2-47.2,76.6-84.8C257.4,256.3,230,186.2,190.5,177.6z"/>
		<path class="st18" d="M528.4-341.4c1.1-3.4-21.4-11.8-26.9-38c-2.7-12.8-0.1-24,0.8-27.7c7.1-30,29.2-29.7,37.2-53.4
			c9-26.7-4.3-70.9-23.5-76.4c-15.3-4.3-33.4,16.4-41.4,34.2c-6.8,15.1-7.8,31.2-10.3,30.8c-2.2-0.3-1.4-12.9-4-25.7
			c-4.9-24.2-22.9-53.7-42.7-52.4c-15.3,1-28.2,20.3-33.2,38c-11.3,40.3,15.3,83.6,24.5,98.6C452.7-342.1,526.5-335.5,528.4-341.4z"
			/>
		<path class="st18" d="M233.5-59.4c15.6-35.6-7.4-94.4-40.6-101.6c-26.5-5.8-57.6,21.8-71.5,45.6c-11.8,20.1-13.5,41.5-17.8,41
			c-3.8-0.4-2.4-17.1-6.8-34.2c-8.5-32.3-39.6-71.5-73.8-69.7c-26.5,1.4-48.8,27-57.4,50.6C-54-74-8.1-16.5,7.9,3.5
			C83.6,98.3,211.1,107,214.3,99.2c1.8-4.5-37-15.7-46.5-50.6c-4.6-17-0.2-31.9,1.4-36.9C181.6-28.1,219.7-27.8,233.5-59.4z"/>
		<path class="st18" d="M583.4,375.9c-16.1-5.2-34.9,19.6-43.4,40.9c-7.1,18-8.2,37.2-10.8,36.8c-2.3-0.4-1.4-15.3-4.1-30.7
			c-5.1-28.9-24-64.1-44.8-62.5c-16.1,1.2-29.6,24.2-34.8,45.4c-11.9,48.1,16,99.8,25.7,117.7c45.9,85,123.2,92.8,125.1,85.8
			c1.1-4-22.4-14.1-28.2-45.4c-2.8-15.2-0.1-28.6,0.8-33.1c7.5-35.8,30.6-35.5,39-63.8C617.4,435.1,603.5,382.4,583.4,375.9z"/>
		<path class="st18" d="M203.7-265.2c2-4.7-40.3-16.3-50.6-52.5c-5-17.6-0.2-33.1,1.5-38.3c13.4-41.4,54.9-41,69.9-73.7
			c16.9-36.9-8.1-97.9-44.1-105.4c-28.8-6-62.7,22.6-77.9,47.3c-12.8,20.9-14.7,43-19.3,42.5c-4.1-0.4-2.6-17.7-7.4-35.5
			c-9.2-33.5-43.1-74.2-80.4-72.3c-28.9,1.4-53.1,28-62.5,52.5C-88.4-444.9-38.4-385.2-21-364.4C61.5-266.1,200.3-257,203.7-265.2z"
			/>
		<path class="st18" d="M699.5-601.9c1.3-3.8-25.2-13.2-31.7-42.7c-3.1-14.3-0.1-26.9,0.9-31.1c8.4-33.6,34.4-33.4,43.8-60
			c10.6-30-5.1-79.6-27.6-85.7c-18.1-4.9-39.3,18.4-48.8,38.4c-8,17-9.2,35-12.1,34.6c-2.6-0.3-1.6-14.4-4.7-28.8
			c-5.8-27.2-27-60.3-50.3-58.8c-18.1,1.2-33.3,22.7-39.1,42.7c-13.3,45.3,18,93.8,28.9,110.7C610.4-602.6,697.3-595.2,699.5-601.9z
			"/>
		<path class="st18" d="M688,182.8c2.2-5.1-43.6-17.6-54.7-56.8c-5.4-19.1-0.2-35.8,1.6-41.4c14.5-44.8,59.4-44.4,75.7-79.8
			c18.3-39.9-8.7-106-47.8-114.1c-31.2-6.5-67.9,24.5-84.3,51.2c-13.9,22.6-15.9,46.5-20.9,46c-4.5-0.5-2.8-19.2-8.1-38.4
			c-10-36.2-46.6-80.2-87-78.3c-31.2,1.5-57.5,30.3-67.6,56.8C371.8-11.7,426,52.9,444.8,75.3C534,181.7,684.2,191.6,688,182.8z"/>
		<path class="st18" d="M791.3,673.3c-18.9-5.8-41.2,22-51.1,45.9c-8.4,20.3-9.6,41.7-12.7,41.3c-2.7-0.4-1.7-17.2-4.9-34.4
			c-6-32.5-28.2-72-52.7-70.2c-18.9,1.4-34.9,27.1-41,50.9c-14,54.1,18.8,112,30.3,132.1c54.1,95.4,145.1,104.2,147.4,96.3
			c1.3-4.5-26.4-15.8-33.2-50.9c-3.3-17.1-0.1-32.1,1-37.2c8.8-40.2,36-39.8,45.9-71.6C831.4,739.8,815,680.6,791.3,673.3z"/>
	</g>
</g>
<g id="Calque_6">
	<path class="st19" d="M355.4,466.5c-16.3-26.2-29.8-46.1-39.5-59.9c-8.9-12.7-15.6-21.2-15.3-33.6c0.4-17.2,13.6-29.5,20.1-35.4
		c24.3-22.5,61.7-29.4,66.5-21.2c3.3,5.5-8,18.4-13.2,23.4c-15.9,15.6-30.2,12.8-33.2,23c-1.9,6.3,3.5,14.6,14.2,31.1
		c11,16.9,14.9,18.1,17.2,25.2C375.1,428.1,374.3,442.7,355.4,466.5z"/>
	<path class="st20" d="M373.3,651c-5.9-1.8-6.6-3.9-14.6-8.8c-13.5-8.2-16.9-5.3-25.2-11.3c-12.2-8.9-12.5-20.8-16.8-20.5
		c-6.8,0.5-9.7,27-11.7,41.6c-10.3,74.2-42.3,121.1-32.9,126.4c3.1,1.8,5.8-3.9,17.2-7.7c24.3-8.1,38.1,8.9,53,1.8
		c1.3-0.6,2.4-1.3,3.3-2.1c12.1-10.6,10.4-22.5,19.3-50.5c1.9-6.1,0.2,0.2,15.7-31.8c1.2-2.5,3.5-7.3,6.6-7.3c3.3,0,5.7,5.6,7.3,9.5
		c6.6,16,9.9,24,11.3,34c4.1,28.3-2.3,31.7,2.9,40.2c11.6,18.9,49.8,24.2,62.8,10.2c7.8-8.4,0.6-17.4,2.9-54.1
		c1.2-20,3.5-20,5.8-45.3c2.5-27.2,5.2-57.4-3.7-60.6c-6.6-2.4-11.3,18.6-32.9,25.6c-9.7,3.1-12.2,0.1-28.9,4.7
		c-8.5,2.4-11.9,4.3-21.2,5.8C386.5,652.2,380.3,653.1,373.3,651z"/>
	<path class="st21" d="M352.5,470.2c0.5,1.1,1.1,2.8-0.9,7.3c-1.2,2.8-3.1,6.2-4.9,11c0,0-2.3,2-3.3,10.9
		c-1.3,12.1,5.5,20.4,1.1,38.7c-4.6,19.1-17.9,35.1-23.4,41.6c-9,10.8-13,12-13.9,18.3c-2.2,16,21.3,31.4,33.6,39.5
		c15.3,10,31.9,20.9,53.3,19.7c18-0.9,18.2-9.2,49.7-16.8c22.9-5.5,28.9-2.7,34.3-9.5c7.3-9.1,4.3-23.6-1.5-51.9
		c-1.5-7.3-2.9-13.6-6-28.5c-2.2-10.5-3.1-14.3-3.5-20.4c-0.8-13.6,2.6-12.6,1.5-22.6c-1.5-13.7-8.5-22.3-3.3-30.8
		c0-0.1,0.2-0.3,0.4-0.6c7.9-10.8,26.9-4.3,31.4-14.6c0.8-1.8,0.1-5.5-1.5-13.2c-1.8-8.5-4.1-19.6-10.2-21.2
		c-2.5-0.7-3.7,0.5-6.6-0.7c-4.2-1.7-4.3-5.3-6.5-6.7c-9.1-6.2-52.8,25.6-57,24.2c-0.7-0.2-1.5-0.5-1.5-0.5c-1.9-0.9-3-2.4-13.8-8.3
		c-12.8-6.8-14.9-6.8-20.5-11c-10.1-7.6-8.4-12.2-14.6-13.9c-7.2-2-24.7,6.7-32.1,21.2c-1.2,2.3-3,6.6-1.5,8.3
		c1.2,1.2,3.2-0.2,5.4,1c2,1.1,1.8,3,4.1,9.7c1.5,4.5,2.6,7.7,4.5,10.8c1.3,2.2,2.8,3.8,2.8,3.8
		C350.7,468.2,351.8,468.5,352.5,470.2z"/>
	<path class="st19" d="M496.9,469c3,1.7,1.6,6.7,1.5,21.2c-0.1,12.3,0.9,19.3,0.4,28.7c0,0.9-0.2,3.9-0.4,8
		c-0.2,4.3-0.2,6.3-0.2,7.9c-0.3,9.9-0.5,15.3-3.9,18.5c-3.2,3.1-8.1,2.8-15.3,2.3c-5.7-0.3-11-1.9-14.7-3c-3-0.9-5.3-1.7-6-2
		c-14.1-5.2-24.8-7.6-36.3-12.3c-11.6-4.8-31.8-14.7-30.5-21.6c1-5.3,14.6-6.6,16.1-6.8c9.7-0.9,16.8,1.9,30.5,7.6
		c14.9,6.2,26.1,10.9,31.9,13.4c-0.8-1.9-1.9-4.7-2.9-8.1c-1.5-4.9-2.2-8.8-3.1-15.2c-1.8-12.1-2.3-19.1-2.2-26.8
		c0.1-6.2,0.4-10.5,3-11c1.5-0.3,3.9,2,5.6,0.8c0.1-0.1,0.2-0.1,0.2-0.2c0,0,0,0,0.1-0.1c0.1-0.1,11.8,0.5,14.3,0.6
		C492.3,471.2,494.1,467.4,496.9,469z"/>
	<path class="st21" d="M460,472.3c1.6,2.6,6.7-0.5,20,0c12.8,0.4,18.3,3.7,20.7,0.7c2.2-2.8-0.3-8.1-3.3-14.7
		c-2.8-6.1-4.8-10.2-8.7-11.4c-4.2-1.2-8.2,1.6-12.7,4.8C467.9,457.4,457.5,468.2,460,472.3z"/>
	<path class="st19" d="M442.7,438c-1.7-3.5-18.3,6.5-35.3-1.3c-3.7-1.7-6.1-3.7-7.2-2.7c-2.5,2.1,2.4,18.7,14,22.5
		C428.9,461.3,444.6,441.8,442.7,438z"/>
	<g>
		<path class="st22" d="M424.3,445.2c-15.5,0-26.7-9.4-34.2-15.6l-0.9-0.7c-21.3-17.8-26.2-35-26.5-46.4c-0.4-15,6.4-31.2,18.3-43.5
			c12.1-12.4,27.8-19.2,44.4-19.2c16.8,0,32.8,7.1,45.1,20c11.7,12.3,18.3,28.2,17.6,42.7c-1.1,23.8-22,40.7-30.9,47.9
			c-8,6.4-17.9,14.4-31.8,14.9C425.1,445.2,424.7,445.2,424.3,445.2z"/>
	</g>
	<path class="st23" d="M467.5,343.4c-1.4-4.9,30.8-10.7,34.3-30c2.9-15.7-15.8-27.4-11-35.1c3.9-6.2,20.6-5.9,29.2,2.2
		c12.6,11.7,7.7,39.8-7.3,54.1C496.2,350.5,468.8,347.8,467.5,343.4z"/>
	<path class="st24" d="M436.5,350.2c-3.7-1.2-8.1,10.4-21.9,21.2c-4.8,3.8-11.2,7.8-12.4,6.6c-1.1-1.2,3.2-6.1,8-16.8
		c3.9-8.6,6-12.8,4.4-14.6c-2.3-2.5-10.6,0.7-16.1,5.1c-7.9,6.4-9.9,15.4-10.2,16.8c-3,14.2,5.8,25.3,2.9,27
		c-2,1.2-7.3-3.4-10.2-7.3c-3.4-4.7-4.3-9.6-5.1-14.6c-1.1-6.5-0.6-11-0.7-11c-0.3,0-4.4,20.7-0.7,43.8c4.5,28.5,19,43.1,16.8,44.6
		c-3.3,2.3-34.5-32.7-35.8-55.5c-0.1-1.5-0.2-6.7-0.7-16.8c-0.7-15.1-1-15.9-0.7-18.3c1.4-11.4,10.6-18.9,19.7-26.3
		c8.7-7.1,22.4-18.2,40.9-19c22-0.9,30.5,13.4,45.3,6.6c4.5-2.1,7.3-5,18.3-10.2c3.5-1.7,14.3-6.8,15.3-5.1
		c1.6,2.5-20.3,17.5-18.3,21.2c1.9,3.3,21.5-5.4,22.6-2.9c0.8,1.8-8.2,8.4-11.7,11c-6,4.4-7.4,4.5-8,6.6c-1.8,5.8,6.8,14,13.2,18.3
		c7.8,5.2,14.8,6.1,14.6,8c-0.2,2.2-9.8,0.2-13.2,5.1c-4.2,6,2,21,12.4,28.5c5.9,4.2,10.8,4.4,11,7.3c0.1,3.5-7,7.9-13.9,8
		c-5.1,0.1-7.3-2.9-9.5-1.5c-2.9,1.8-2.6,8.7-0.3,13.8c3.8,8.6,12.8,11.4,12.4,12.4c-0.4,0.8-8.2-0.9-15.9-6.2
		c-6.5-4.6-6.9-7.6-10-7.6c-4.8-0.1-7.1,7.1-16.1,19.7c-5.7,8-13,17.3-13.9,16.8c-1.3-0.8,15-21.5,21.9-52.6
		c4.8-21.4,1.8-33.1-0.7-39.5c-4-10.4-12-20.8-14.6-19.7c-1.8,0.7-1.4,7.1,0,11.7c2.3,7.7,7.4,11.5,6.6,12.4c-1,1.1-9.3-4.7-11-5.8
		c-4.6-3.2-6.9-4.8-8.8-7.3C437.1,357.2,439.1,351,436.5,350.2z"/>
	<path class="st24" d="M454.8,332.9c1.6,0.8,11.6-10,10.3-22.1c-0.3-2.5-0.9-4.3-1.6-6.1c-4.9-12.5-16.9-21-18.7-19.5
		c-2.3,1.9,15,17.8,12,38.2C456,328.9,454,332.5,454.8,332.9z"/>
	<path class="st24" d="M377.1,351.4c1.3-1.7-5.6-6.4-14.1-18.7c-10.8-15.6-11.9-25.8-14.1-25.3c-2.9,0.6-5.8,20.2,5.4,33.1
		C362.2,349.6,375.5,353.4,377.1,351.4z"/>
	<path class="st24" d="M405.8,334.3c1.3-1.3-3.9-6.4-9.5-18.3c-7.1-15.1-7-24.2-8.8-24.1c-2.4,0.2-7,17.2,0.7,30
		C393.7,331,404.2,335.9,405.8,334.3z"/>
	<path class="st24" d="M473.2,292.3c-1.7-0.8-1.8,6.7-6.2,17.6c-5.6,13.8-11.9,17.6-10.7,19.4c1.7,2.4,16.2-0.3,19.8-13.7
		C478.7,306,475.3,293.2,473.2,292.3z"/>
	<path class="st24" d="M428.9,331.1c-2.1-0.5-3.5,7.8-11.1,20.7c-9.6,16.3-18.3,21.7-17.1,23.4c1.7,2.4,20.7-3.2,27.8-18.8
		C433.5,345.4,431.4,331.8,428.9,331.1z"/>
	<path class="st24" d="M404.6,384.8c1.8-0.6-3.2-6.2-7.2-17.2c-5.1-14-3-21-5.1-21.5c-2.9-0.7-11.8,11.1-5.5,23.5
		C391.3,378.3,402.4,385.5,404.6,384.8z"/>
	<path class="st24" d="M359.9,347.1c-2.1-0.5-3.5,7.8-11.1,20.7c-9.6,16.3-18.4,21.7-17.1,23.4c1.7,2.4,20.7-3.2,27.8-18.8
		C364.5,361.4,362.4,347.8,359.9,347.1z"/>
	<path class="st24" d="M508.6,371.7c1.1-1.5-6.1-3.3-15.6-10.2c-12.1-8.7-14.2-15.7-16.3-14.9c-2.7,1.1-3.5,15.8,8.6,22.5
		C494,373.8,507.2,373.5,508.6,371.7z"/>
	<path class="st24" d="M399.9,434.9c1.4-1.3-5.5-4.2-13.9-12.5c-10.6-10.4-11.7-17.7-13.8-17.2c-2.9,0.6-5.9,15.1,5.1,23.6
		C385.1,434.8,398.3,436.5,399.9,434.9z"/>
	<path class="st24" d="M511.2,424.4c1.5-1.1-4.9-4.9-12.2-14.1c-9.2-11.7-9.3-19.1-11.5-18.9c-2.9,0.3-7.8,14.2,2.1,24
		C496.6,422.4,509.4,425.7,511.2,424.4z"/>
	<path class="st24" d="M415.6,338.3c-0.9-1.1-4.4,3.5-12.7,8.5c-10.5,6.4-16.9,6.3-16.8,7.9c0.1,2.2,12.1,6.1,21-0.8
		C413.4,349,416.8,339.7,415.6,338.3z"/>
	<path class="st25" d="M389.2,389.5c-0.2,0.8,19.6,8.6,21.8,5c1.1-1.8-2.4-5.8-5-7.9c-7-5.7-17.5-4.6-17.9-3
		c-0.4,1.9,12.3,5.6,11.9,6.9C399.8,391.7,389.4,389,389.2,389.5z"/>
	<path class="st25" d="M454.5,389.5c0.2,0.8-19.6,8.6-21.8,5c-1.1-1.8,2.4-5.8,5-7.9c7-5.7,17.5-4.6,17.9-3
		c0.4,1.9-12.3,5.6-11.9,6.9C443.9,391.7,454.3,389,454.5,389.5z"/>
	<path class="st26" d="M408,412.5c1.9-1.8,5.8,2.9,14.6,2.9c9.4,0,13.5-5.3,16.8-2.9c3.1,2.3,2.4,9.3,0,13.9
		c-3.3,6.2-10.8,10-17.5,8.8C409.7,432.9,404.9,415.4,408,412.5z"/>
	<path class="st27" d="M423.3,435.1c7.2,1.1,14.2-3.4,13.9-5.8c-0.6-4.1-23.5-6.2-24.8-2.2C411.6,429.3,417.1,434.2,423.3,435.1z"/>
	<path class="st28" d="M408,412.5c-0.3,0.8,7.4,7.3,16.8,6.6c7.7-0.6,13.5-5.8,13.2-6.6c-0.3-0.7-6.2,2.9-15.3,2.9
		C413.7,415.4,408.2,411.9,408,412.5z"/>
	<ellipse class="st29" cx="391.5" cy="401.5" rx="12.4" ry="6.2"/>
	<ellipse class="st29" cx="450.7" cy="403" rx="12.4" ry="6.2"/>
	<path class="st30" d="M217.2,773.7"/>
</g>
<g id="Calque_3">
	<g>
		<g>
			<path class="st31" d="M435.7,260.9c0-0.4,0-0.7,0-1c-4.3,1.1-6.6-1-16.1,0.7c-7.7,1.3-8.9,3.1-13.2,2.2c-4.7-1-6.6-3.9-11-7.3
				c-3.8-2.9-9.8-6.3-19-8c0.3,8.4,2,14.7,3.7,19c2,5.3,3.8,7.6,4.4,13.2c0.3,2.4,0.8,7-0.7,12.4c-1,3.5-2.1,4.7-2.2,8
				c-0.1,3.1,0.6,5.4,1.5,8c0,0,1.5,4.6,3.9,8.4c5.6,8.9,39.1,22.6,64.8,7.7c3.9-2.3,10.2-6,14-13.5c3.5-6.9,4.6-17.3,2-26.4
				c-0.1-0.3-0.2-0.6-0.3-0.9c-2.5,0.9-5.2,1.4-8,1.4C446.4,284.6,435.7,274,435.7,260.9z"/>
			<g>
				<path class="st32" d="M436.5,260.9c0-0.3,0-0.7,0-1c0-0.5-0.5-0.8-0.9-0.7c-4,0.9-8.3-0.2-12.5,0.2c-5,0.5-10.6,3.3-15.5,2.8
					c-5.8-0.6-9.9-6.5-14.7-9.4c-4.9-3.1-10.4-4.9-16.1-6c-0.5-0.1-1,0.2-0.9,0.7c0.4,7.2,1.6,14.2,4.3,20.9
					c3,7.5,5.1,14.4,3.2,22.6c-0.7,3.1-2.3,5.9-2.4,9.1c-0.1,3,0.7,5.9,1.7,8.7c1.4,4.1,3.2,8.3,6.6,11.2c7.8,6.8,19.4,10,29.5,11.1
					c13.2,1.5,26.5-1.2,37.6-8.8c12.8-8.8,16.3-24.8,12-39.2c-0.1-0.4-0.5-0.7-0.9-0.5C452.1,287.4,437,276.9,436.5,260.9
					c0-1-1.5-1-1.5,0c0.2,8.2,4,15.7,10.8,20.3c3.2,2.2,7,3.6,10.9,4c2.1,0.2,4.2,0.2,6.3-0.1c0.7-0.1,2.7-0.8,3.2-0.7
					c1.7,0.4,1.6,2.8,1.9,4.7c1.9,13.1-2.7,25.5-14,32.7c-9.3,6-20.1,8.5-31.1,8c-17.2-0.8-39.1-7.9-40.4-28.2
					c-0.3-5.1,2.6-9.8,3.1-14.9c0.4-4.5-0.1-9.3-1.6-13.6c-1.6-4.4-3.6-8.5-4.8-13c-0.7-2.8-1.8-6.3-1.6-9.2
					c0.2-2.7-0.4-2.5,2.3-2.2c1.4,0.1,3.3,0.9,4.7,1.4c6.1,2.2,10.4,5.8,15.3,9.8c3,2.4,6.4,4,10.2,3.5c5.4-0.7,10.2-2.8,15.8-3
					c0.9,0,9.1,0.5,9.1,0.3C435,261.8,436.5,261.8,436.5,260.9z"/>
			</g>
		</g>
		<path class="st33" d="M466,263.7c0.4-4,0.6-6.1,0.5-8.3c-0.1-2.4-0.5-6-2-10.3c-3.5,0.4-8.8,1.3-14.1,4.4
			c-6.5,3.8-6.7,6.9-12.4,9.5c-0.8,0.4-1.5,0.6-2.2,0.8c0,0.3,0,0.7,0,1c0,13.1,10.6,23.7,23.7,23.7c2.8,0,5.5-0.5,8-1.4
			c-1.3-4.4-2.3-6.9-2.5-9.8C464.7,270.9,465.4,270.2,466,263.7z"/>
	</g>
	<g>
		<g>
			<path class="st32" d="M407.7,313.9c5.7,4.5,12.8,3.3,16.5-3c-0.8,0.1-1.6,0.2-2.4,0.3c4.2,4.1,10.6,4.6,15.3,1.1
				c1.5-1.2,0-3.8-1.5-2.6c-3.5,2.7-8.5,2.5-11.7-0.6c-0.7-0.7-1.9-0.5-2.4,0.3c-2.7,4.6-7.6,5.7-11.8,2.4
				C408.3,310.6,406.2,312.7,407.7,313.9L407.7,313.9z"/>
		</g>
	</g>
	<g>
		<path class="st31" d="M395.6,325.6c-4.1-0.1-5.2,0.6-5.8,1.1c-3.4,3.1-1.9,12.2,2.5,14.7c6.5,3.7,19.7-6.8,18.6-11.5
			C410,325.9,397.6,325.6,395.6,325.6z"/>
		<g>
			<path class="st32" d="M395.6,324.8c-2.5,0-5.3-0.1-6.9,2c-1.9,2.4-1.7,6.2-0.9,9c2,7.2,8.1,8.4,14.2,5.3
				c3.4-1.7,12.1-7.5,9.3-12.3C408.8,324.6,399.8,324.9,395.6,324.8c-1,0-1,1.5,0,1.5c3.5,0.1,7,0.2,10.4,1.2c2.6,0.7,5,1.8,3.8,4.8
				c-0.9,2.2-3.1,4-4.9,5.4c-4.1,3.1-11,6.3-14.4,0.6c-1.4-2.3-2-5.4-1.5-8c0.8-3.8,3.3-3.9,6.7-4
				C396.6,326.3,396.6,324.8,395.6,324.8z"/>
		</g>
	</g>
	<g>
		<path class="st31" d="M450.4,330.3c-0.1,0.7-0.4,2.7,0.8,4.3c2.4,3.2,9.9,3.1,14.1-0.9c4.5-4.2,4.5-12.3,1.5-14.3
			C462.9,316.6,451.5,323,450.4,330.3z"/>
		<g>
			<path class="st32" d="M449.7,330.3c-0.8,5.9,4.7,8,9.8,7.1c6.3-1.2,10.6-6.8,10.2-13.2c-0.3-4.9-3.5-7.1-8.2-5.7
				c-5.3,1.6-10.7,6.1-11.7,11.7c-0.2,0.9,1.3,1.3,1.4,0.4c0.8-4.2,4.1-7.5,7.8-9.4c3.4-1.8,8.2-3,9.1,2.1c0.8,4.7-1.6,9.8-5.9,11.8
				c-4.2,2-11.8,1.8-10.9-4.7C451.3,329.4,449.8,329.4,449.7,330.3z"/>
		</g>
	</g>
	<path class="st34" d="M418.9,299.2c0.5-0.7,2.2,0.5,5.5,0c0.6-0.1,0.9-0.2,1.1,0c0.6,0.7-1.2,4.6-3.7,4.4
		C419.6,303.4,418.3,300.1,418.9,299.2z"/>
	<path class="st35" d="M418.9,286.4c0.8,3.1,1.4,5.6,0.4,8c-2,5-9.8,7.9-16.1,5.8c-8.2-2.7-9.7-12.5-9.9-13.9
		c-1.1-7.7,2.7-17.4,8.4-18.3c4.9-0.8,9.7,5.3,12.4,8.8C417.5,281.1,418.6,284.9,418.9,286.4z"/>
	<path class="st36" d="M408.7,280.2c-1.3-0.8-4.7,1.3-5.8,4.5c-1.3,3.9,1.3,8,2.9,8C408.3,292.5,411,281.6,408.7,280.2z"/>
	<path class="st36" d="M435.4,290.8c1.4,0.3,3.9-2.7,3.9-6c0-4.1-3.7-7.2-5.1-6.7C431.9,279,432.9,290.2,435.4,290.8z"/>
</g>
<g id="Calque_4">
	<path class="st24" d="M-1156.5,53.5"/>
	<path class="st37" d="M-1189.5-264.5c-30.5-52.1-98.9-112.7-157-100c-72.7,15.8-123.2,144.9-89,223c30.3,69.2,113.9,68.5,141,156
		c3.4,11,13.1,43.7,3,81c-20.8,76.6-106,101.1-102,111c7,17.2,286.9-2.1,453-210c35.1-43.9,136-170.2,93-288
		c-18.9-51.8-67.8-108-126-111c-75.2-3.9-143.4,82.2-162,153c-9.8,37.5-6.7,74.1-15,75C-1159.9-173.5-1163.7-220.3-1189.5-264.5z"/>
	<path class="st37" d="M668.4,174.7c-5.7-9.7-18.4-21-29.2-18.6c-13.5,2.9-22.9,27-16.6,41.5c5.6,12.9,21.2,12.8,26.3,29
		c0.6,2,2.4,8.1,0.6,15.1c-3.9,14.3-19.7,18.8-19,20.7c1.3,3.2,53.4-0.4,84.3-39.1c6.5-8.2,25.3-31.7,17.3-53.6
		c-3.5-9.6-12.6-20.1-23.5-20.7c-14-0.7-26.7,15.3-30.2,28.5c-1.8,7-1.2,13.8-2.8,14C673.9,191.7,673.2,183,668.4,174.7z"/>
	<path class="st37" d="M707.2,431.2c-2.3-4-7.6-8.6-12-7.6c-5.6,1.2-9.4,11.1-6.8,17c2.3,5.3,8.7,5.2,10.8,11.9
		c0.3,0.8,1,3.3,0.2,6.2c-1.6,5.9-8.1,7.7-7.8,8.5c0.5,1.3,21.9-0.2,34.6-16c2.7-3.4,10.4-13,7.1-22c-1.4-4-5.2-8.3-9.6-8.5
		c-5.7-0.3-11,6.3-12.4,11.7c-0.8,2.9-0.5,5.7-1.1,5.7C709.5,438.2,709.2,434.6,707.2,431.2z"/>
	<path class="st37" d="M632.1,344.7c-2.3-4-7.6-8.6-12-7.6c-5.6,1.2-9.4,11.1-6.8,17c2.3,5.3,8.7,5.2,10.8,11.9
		c0.3,0.8,1,3.3,0.2,6.2c-1.6,5.9-8.1,7.7-7.8,8.5c0.5,1.3,21.9-0.2,34.6-16c2.7-3.4,10.4-13,7.1-22c-1.4-4-5.2-8.3-9.6-8.5
		c-5.7-0.3-11,6.3-12.4,11.7c-0.8,2.9-0.5,5.7-1.1,5.7C634.4,351.6,634.1,348,632.1,344.7z"/>
	<path class="st37" d="M546.5,160c-2.3-4-7.6-8.6-12-7.6c-5.6,1.2-9.4,11.1-6.8,17c2.3,5.3,8.7,5.2,10.8,11.9c0.3,0.8,1,3.3,0.2,6.2
		c-1.6,5.9-8.1,7.7-7.8,8.5c0.5,1.3,21.9-0.2,34.6-16c2.7-3.4,10.4-13,7.1-22c-1.4-4-5.2-8.3-9.6-8.5c-5.7-0.3-11,6.3-12.4,11.7
		c-0.8,2.9-0.5,5.7-1.1,5.7C548.7,167,548.4,163.4,546.5,160z"/>
	<path class="st37" d="M597.8,557.3c-5.7-9.7-18.4-21-29.2-18.6c-13.5,2.9-22.9,27-16.6,41.5c5.6,12.9,21.2,12.8,26.3,29
		c0.6,2,2.4,8.1,0.6,15.1c-3.9,14.3-19.7,18.8-19,20.7c1.3,3.2,53.4-0.4,84.3-39.1c6.5-8.2,25.3-31.7,17.3-53.6
		c-3.5-9.6-12.6-20.1-23.5-20.7c-14-0.7-26.7,15.3-30.2,28.5c-1.8,7-1.2,13.8-2.8,14C603.3,574.2,602.6,565.5,597.8,557.3z"/>
	<path class="st37" d="M781.7,303.6c-4.4-7.6-14.4-16.4-22.9-14.6c-10.6,2.3-17.9,21.1-13,32.5c4.4,10.1,16.6,10,20.5,22.7
		c0.5,1.6,1.9,6.4,0.4,11.8c-3,11.2-15.4,14.7-14.8,16.2c1,2.5,41.8-0.3,66-30.6c5.1-6.4,19.8-24.8,13.5-41.9
		c-2.8-7.5-9.9-15.7-18.3-16.2c-10.9-0.6-20.9,12-23.6,22.3c-1.4,5.5-1,10.8-2.2,10.9C786,316.9,785.4,310,781.7,303.6z"/>
	<path class="st37" d="M169.8,182.7c5.7-9.7,18.4-21,29.2-18.6c13.5,2.9,22.9,27,16.6,41.5c-5.6,12.9-21.2,12.8-26.3,29
		c-0.6,2-2.4,8.1-0.6,15.1c3.9,14.3,19.7,18.8,19,20.7c-1.3,3.2-53.4-0.4-84.3-39.1c-6.5-8.2-25.3-31.7-17.3-53.6
		c3.5-9.6,12.6-20.1,23.5-20.7c14-0.7,26.7,15.3,30.2,28.5c1.8,7,1.2,13.8,2.8,14C164.3,199.6,164.9,190.9,169.8,182.7z"/>
	<path class="st37" d="M130.9,439.2c2.3-4,7.6-8.6,12-7.6c5.6,1.2,9.4,11.1,6.8,17c-2.3,5.3-8.7,5.2-10.8,11.9
		c-0.3,0.8-1,3.3-0.2,6.2c1.6,5.9,8.1,7.7,7.8,8.5c-0.5,1.3-21.9-0.2-34.6-16c-2.7-3.4-10.4-13-7.1-22c1.4-4,5.2-8.3,9.6-8.5
		c5.7-0.3,11,6.3,12.4,11.7c0.8,2.9,0.5,5.7,1.1,5.7C128.7,446.1,129,442.6,130.9,439.2z"/>
	<path class="st37" d="M206,352.6c2.3-4,7.6-8.6,12-7.6c5.6,1.2,9.4,11.1,6.8,17c-2.3,5.3-8.7,5.2-10.8,11.9c-0.3,0.8-1,3.3-0.2,6.2
		c1.6,5.9,8.1,7.7,7.8,8.5c-0.5,1.3-21.9-0.2-34.6-16c-2.7-3.4-10.4-13-7.1-22c1.4-4,5.2-8.3,9.6-8.5c5.7-0.3,11,6.3,12.4,11.7
		c0.8,2.9,0.5,5.7,1.1,5.7C203.8,359.6,204.1,356,206,352.6z"/>
	<path class="st37" d="M291.7,168c2.3-4,7.6-8.6,12-7.6c5.6,1.2,9.4,11.1,6.8,17c-2.3,5.3-8.7,5.2-10.8,11.9c-0.3,0.8-1,3.3-0.2,6.2
		c1.6,5.9,8.1,7.7,7.8,8.5c-0.5,1.3-21.9-0.2-34.6-16c-2.7-3.4-10.4-13-7.1-22c1.4-4,5.2-8.3,9.6-8.5c5.7-0.3,11,6.3,12.4,11.7
		c0.8,2.9,0.5,5.7,1.1,5.7C289.5,174.9,289.8,171.3,291.7,168z"/>
	<path class="st37" d="M240.4,565.2c5.7-9.7,18.4-21,29.2-18.6c13.5,2.9,22.9,27,16.6,41.5c-5.6,12.9-21.2,12.8-26.3,29
		c-0.6,2-2.4,8.1-0.6,15.1c3.9,14.3,19.7,18.8,19,20.7c-1.3,3.2-53.4-0.4-84.3-39.1c-6.5-8.2-25.3-31.7-17.3-53.6
		c3.5-9.6,12.6-20.1,23.5-20.7c14-0.7,26.7,15.3,30.2,28.5c1.8,7,1.2,13.8,2.8,14C234.9,582.2,235.6,573.5,240.4,565.2z"/>
	<path class="st37" d="M56.5,311.6c4.4-7.6,14.4-16.4,22.9-14.6c10.6,2.3,17.9,21.1,13,32.5c-4.4,10.1-16.6,10-20.5,22.7
		c-0.5,1.6-1.9,6.4-0.4,11.8c3,11.2,15.4,14.7,14.8,16.2c-1,2.5-41.8-0.3-66-30.6c-5.1-6.4-19.8-24.8-13.5-41.9
		c2.8-7.5,9.9-15.7,18.3-16.2c10.9-0.6,20.9,12,23.6,22.3c1.4,5.5,1,10.8,2.2,10.9C52.2,324.8,52.7,318,56.5,311.6z"/>
	<polygon class="st38" points="382.4,134.9 368.8,127.2 354.8,134.1 357.9,118.8 347,107.5 362.6,105.8 369.9,92 376.4,106.2 
		391.8,108.9 380.3,119.4 	"/>
	<polygon class="st38" points="242.8,276.3 215.3,268.2 193.1,286.4 192.3,257.7 168.2,242.2 195.1,232.5 202.4,204.8 220,227.5 
		248.6,225.9 232.5,249.6 	"/>
	<polygon class="st38" points="767.6,440.6 746.3,432.5 727.5,445.5 728.6,422.7 710.5,408.8 732.5,402.8 740.1,381.3 752.6,400.4 
		775.4,400.9 761.1,418.7 	"/>
	<polygon class="st38" points="578.6,274.5 564.7,272.8 555.4,283.4 552.7,269.6 539.8,264.1 552.1,257.3 553.3,243.3 563.6,252.8 
		577.3,249.8 571.4,262.5 	"/>
	<polygon class="st38" points="262.3,488.3 250.4,484.7 240.6,492.5 240.4,480 230,473.2 241.7,469.1 245,457.1 252.6,467 
		265,466.4 257.9,476.6 	"/>
	<polygon class="st38" points="129.8,638.5 77.6,633.5 43.9,673.6 32.5,622.5 -16.1,602.8 29,576.2 32.7,523.9 72,558.6 
		122.9,545.9 102,594 	"/>
	<polygon class="st38" points="590.9,735.7 575.7,731.4 563.6,741.5 563,725.7 549.6,717.3 564.4,711.8 568.3,696.5 578.1,708.9 
		593.8,707.9 585.1,721 	"/>
	<polygon class="st38" points="774.7,157.9 753.2,151.5 735.8,165.5 735.2,143.1 716.4,130.9 737.6,123.4 743.4,101.8 757.1,119.6 
		779.4,118.5 766.7,136.9 	"/>
	<polygon class="st38" points="131.5,120.8 109.8,117.8 95,134 91.1,112.4 71.1,103.3 90.4,92.9 92.9,71.1 108.7,86.3 130.2,81.9 
		120.7,101.7 	"/>
	<polygon class="st38" points="550.3,451.2 539.3,444.8 527.8,450.3 530.5,437.9 521.8,428.7 534.4,427.3 540.5,416.2 545.6,427.8 
		558.1,430.1 548.7,438.6 	"/>
	<polygon class="st38" points="707.5,654.4 676.7,636.9 644.8,652.4 651.9,617.7 627.2,592.1 662.5,588.1 679.2,556.8 693.9,589.1 
		728.8,595.3 702.6,619.3 	"/>
	<polygon class="st38" points="306.5,276.3 299.3,270.3 290.3,272.9 293.7,264.2 288.5,256.5 297.8,257 303.6,249.7 305.9,258.7 
		314.7,261.9 306.8,266.9 	"/>
	<polygon class="st38" points="239.3,652.6 218.9,644.4 200.5,656.5 202,634.6 184.8,620.9 206.2,615.5 213.9,594.9 225.6,613.6 
		247.6,614.5 233.4,631.4 	"/>
	<g>
		<path d="M-822.4,35c-10-18.9-34.2-39.1-64.2-42c-28.5-2.8-50.2,11.1-73.3,26c-7.4,4.8-25.4,17.2-41.2,38
			c-5.9,7.7-13.6,17.9-18.3,32c-8.1,24.1-4.4,50.2,4.6,66c32.3,56.7,178.4,58.6,208.5,16c20.6-29-3.4-92-3.4-92
			C-809.8,79-813.5,51.8-822.4,35z"/>
		<path d="M-1007-19c18.4,4,39.5-15.1,40-36c0.6-22.6-23.2-42.6-41.5-38c-14.2,3.5-21.8,20.8-22.5,34
			C-1031.9-43.1-1023.4-22.5-1007-19z"/>
		<path d="M-868.8-37.7c11.3-5.8,27.6-20.6,23.5-38.2c-3.2-13.5-17.1-22.2-29.7-23.2c-19.2-1.4-33.7,15.3-38,30
			c-0.8,2.6-5.8,19.6,4,30C-898.6-28-879.2-32.4-868.8-37.7z"/>
		<path d="M-753-72c-15.3-6.9-39.6,7.6-44,28c-4.5,20.7,12.1,44.1,29,44c15-0.1,26.6-18.8,29-34C-737-46.7-740-66.2-753-72z"/>
	</g>
	<g>
		<path d="M628.7,500.3c-2.2-4.2-7.6-8.7-14.3-9.4c-6.4-0.6-11.2,2.5-16.4,5.8c-1.7,1.1-5.7,3.8-9.2,8.5c-1.3,1.7-3,4-4.1,7.2
			c-1.8,5.4-1,11.2,1,14.8c7.2,12.7,39.9,13.1,46.6,3.6c4.6-6.5-0.8-20.6-0.8-20.6C631.5,510.2,630.7,504.1,628.7,500.3z"/>
		<path d="M587.4,488.3c4.1,0.9,8.8-3.4,8.9-8.1c0.1-5.1-5.2-9.5-9.3-8.5c-3.2,0.8-4.9,4.7-5,7.6
			C581.8,482.9,583.8,487.5,587.4,488.3z"/>
		<path d="M618.3,484.1c2.5-1.3,6.2-4.6,5.2-8.5c-0.7-3-3.8-5-6.6-5.2c-4.3-0.3-7.5,3.4-8.5,6.7c-0.2,0.6-1.3,4.4,0.9,6.7
			C611.7,486.2,616,485.3,618.3,484.1z"/>
		<path d="M644.2,476.4c-3.4-1.5-8.8,1.7-9.8,6.3c-1,4.6,2.7,9.9,6.5,9.8c3.4,0,6-4.2,6.5-7.6C647.8,482.1,647.1,477.7,644.2,476.4z
			"/>
	</g>
	<g>
		<path d="M272.7,295.4c-2.2-4.2-7.6-8.7-14.3-9.4c-6.4-0.6-11.2,2.5-16.4,5.8c-1.7,1.1-5.7,3.8-9.2,8.5c-1.3,1.7-3,4-4.1,7.2
			c-1.8,5.4-1,11.2,1,14.8c7.2,12.7,39.9,13.1,46.6,3.6c4.6-6.5-0.8-20.6-0.8-20.6C275.5,305.2,274.7,299.1,272.7,295.4z"/>
		<path d="M231.4,283.3c4.1,0.9,8.8-3.4,8.9-8.1c0.1-5.1-5.2-9.5-9.3-8.5c-3.2,0.8-4.9,4.7-5,7.6
			C225.8,277.9,227.7,282.5,231.4,283.3z"/>
		<path d="M262.3,279.1c2.5-1.3,6.2-4.6,5.2-8.5c-0.7-3-3.8-5-6.6-5.2c-4.3-0.3-7.5,3.4-8.5,6.7c-0.2,0.6-1.3,4.4,0.9,6.7
			C255.6,281.3,260,280.3,262.3,279.1z"/>
		<path d="M288.2,271.4c-3.4-1.5-8.8,1.7-9.8,6.3c-1,4.6,2.7,9.9,6.5,9.8c3.4,0,6-4.2,6.5-7.6C291.8,277.1,291.1,272.7,288.2,271.4z
			"/>
	</g>
	<g>
		<path d="M553.6,109.8c-2.2-4.2-7.6-8.7-14.3-9.4c-6.4-0.6-11.2,2.5-16.4,5.8c-1.7,1.1-5.7,3.8-9.2,8.5c-1.3,1.7-3,4-4.1,7.2
			c-1.8,5.4-1,11.2,1,14.8c7.2,12.7,39.9,13.1,46.6,3.6c4.6-6.5-0.8-20.6-0.8-20.6C556.4,119.7,555.6,113.6,553.6,109.8z"/>
		<path d="M512.3,97.8c4.1,0.9,8.8-3.4,8.9-8.1c0.1-5.1-5.2-9.5-9.3-8.5c-3.2,0.8-4.9,4.7-5,7.6C506.8,92.4,508.7,97,512.3,97.8z"/>
		<path d="M543.2,93.6c2.5-1.3,6.2-4.6,5.2-8.5c-0.7-3-3.8-5-6.6-5.2c-4.3-0.3-7.5,3.4-8.5,6.7c-0.2,0.6-1.3,4.4,0.9,6.7
			C536.6,95.8,540.9,94.8,543.2,93.6z"/>
		<path d="M569.1,85.9c-3.4-1.5-8.8,1.7-9.8,6.3c-1,4.6,2.7,9.9,6.5,9.8c3.4,0,6-4.2,6.5-7.6C572.7,91.6,572,87.2,569.1,85.9z"/>
	</g>
	<g>
		<path d="M173.2,726c-5.5-10.3-18.7-21.4-35.1-23c-15.6-1.5-27.5,6.1-40.1,14.2c-4.1,2.6-13.9,9.4-22.6,20.8
			c-3.2,4.2-7.4,9.8-10,17.5C61,768.7,63,783,67.9,791.6c17.6,31,97.6,32,114.1,8.8c11.3-15.9-1.9-50.3-1.9-50.3
			C180.1,750,178,735.1,173.2,726z"/>
		<path d="M72.2,696.4c10.1,2.2,21.6-8.3,21.9-19.7c0.3-12.4-12.7-23.3-22.7-20.8c-7.7,1.9-11.9,11.4-12.3,18.6
			C58.6,683.3,63.2,694.5,72.2,696.4z"/>
		<path d="M147.8,686.2c6.2-3.2,15.1-11.3,12.8-20.9c-1.8-7.4-9.3-12.2-16.2-12.7c-10.5-0.8-18.4,8.4-20.8,16.4
			c-0.4,1.4-3.2,10.7,2.2,16.4C131.5,691.5,142.1,689.1,147.8,686.2z"/>
		<path d="M211.1,667.4c-8.4-3.8-21.6,4.1-24.1,15.3c-2.5,11.3,6.6,24.1,15.9,24.1c8.2-0.1,14.6-10.3,15.9-18.6
			C219.9,681.3,218.2,670.6,211.1,667.4z"/>
	</g>
	<g>
		<path d="M547.4,662c-2.2-4.2-7.6-8.7-14.3-9.4c-6.4-0.6-11.2,2.5-16.4,5.8c-1.7,1.1-5.7,3.8-9.2,8.5c-1.3,1.7-3,4-4.1,7.2
			c-1.8,5.4-1,11.2,1,14.8c7.2,12.7,39.9,13.1,46.6,3.6c4.6-6.5-0.8-20.6-0.8-20.6C550.2,671.8,549.4,665.8,547.4,662z"/>
		<path d="M506.1,649.9c4.1,0.9,8.8-3.4,8.9-8.1c0.1-5.1-5.2-9.5-9.3-8.5c-3.2,0.8-4.9,4.7-5,7.6
			C500.6,644.6,502.5,649.1,506.1,649.9z"/>
		<path d="M537,645.8c2.5-1.3,6.2-4.6,5.2-8.5c-0.7-3-3.8-5-6.6-5.2c-4.3-0.3-7.5,3.4-8.5,6.7c-0.2,0.6-1.3,4.4,0.9,6.7
			C530.4,647.9,534.7,646.9,537,645.8z"/>
		<path d="M562.9,638.1c-3.4-1.5-8.8,1.7-9.8,6.3s2.7,9.9,6.5,9.8c3.4,0,6-4.2,6.5-7.6C566.5,643.7,565.8,639.4,562.9,638.1z"/>
	</g>
	<g>
		<path d="M107.5,146.1c-2.2-4.2-7.6-8.7-14.3-9.4c-6.4-0.6-11.2,2.5-16.4,5.8c-1.7,1.1-5.7,3.8-9.2,8.5c-1.3,1.7-3,4-4.1,7.2
			c-1.8,5.4-1,11.2,1,14.8c7.2,12.7,39.9,13.1,46.6,3.6c4.6-6.5-0.8-20.6-0.8-20.6C110.3,155.9,109.4,149.8,107.5,146.1z"/>
		<path d="M66.2,134c4.1,0.9,8.8-3.4,8.9-8.1c0.1-5.1-5.2-9.5-9.3-8.5c-3.2,0.8-4.9,4.7-5,7.6C60.6,128.6,62.5,133.2,66.2,134z"/>
		<path d="M97.1,129.8c2.5-1.3,6.2-4.6,5.2-8.5c-0.7-3-3.8-5-6.6-5.2c-4.3-0.3-7.5,3.4-8.5,6.7c-0.2,0.6-1.3,4.4,0.9,6.7
			C90.4,132,94.8,131,97.1,129.8z"/>
		<path d="M123,122.1c-3.4-1.5-8.8,1.7-9.8,6.3c-1,4.6,2.7,9.9,6.5,9.8c3.4,0,6-4.2,6.5-7.6C126.5,127.8,125.9,123.4,123,122.1z"/>
	</g>
	<path class="st24" d="M-2329.5,1378.9"/>
	<path class="st24" d="M-3896.5,1006.9"/>
	<path class="st24" d="M-3705.6,1416.6"/>
	<path class="st24" d="M-3670.2,945.1"/>
	<g>
		<path class="st37" d="M-2307.5,1100.5c-8.1-22.1-29-46.2-53.8-47.4c-32.1-1.7-61.3,35.1-69.2,65.4c-4.2,16-2.9,31.7-6.4,32.1
			c-4,0.4-5.6-19.6-16.7-38.5c-13-22.3-42.3-48.1-67.1-42.7c-31.1,6.8-52.6,61.9-38,95.3c12.9,29.6,48.7,29.3,60.3,66.7
			c1.5,4.7,5.6,18.7,1.3,34.6c-8.9,32.7-45.3,43.2-43.6,47.4c3,7.4,122.6-0.9,193.6-89.7
			C-2332.2,1204.8-2289.1,1150.8-2307.5,1100.5z"/>
		<path class="st37" d="M-2850.9,640.3c0.7,3,2.7,11.8,0.6,21.8c-4.3,20.6-22,27.2-21.2,29.9c1.5,4.6,59.5-0.6,94-56.6
			c7.3-11.8,28.2-45.8,19.3-77.6c-3.9-14-14.1-29.1-26.1-29.9c-15.6-1-29.8,22.1-33.6,41.2c-2,10.1-1.4,20-3.1,20.2
			c-2,0.3-2.7-12.3-8.1-24.2c-6.3-14-20.5-30.3-32.6-26.9c-15.1,4.3-25.5,39-18.5,60.1C-2873.9,617-2856.5,616.8-2850.9,640.3z"/>
		<path class="st37" d="M-2601.9,1393.3c-27-1.4-51.4,29.5-58.1,54.8c-3.5,13.4-2.4,26.6-5.4,26.9c-3.4,0.4-4.7-16.4-14-32.3
			c-10.9-18.7-35.4-40.4-56.3-35.8c-26.1,5.7-44.1,51.9-31.9,79.9c10.8,24.8,40.8,24.5,50.5,55.9c1.2,3.9,4.7,15.7,1.1,29
			c-7.4,27.5-38,36.2-36.6,39.8c2.5,6.2,102.8-0.7,162.4-75.3c12.6-15.7,48.7-61,33.3-103.2
			C-2563.5,1414.5-2581.1,1394.4-2601.9,1393.3z"/>
		<path class="st37" d="M-2616.4,729.1c0.7,3.5,2.8,14.1,0.7,26c-4.5,24.6-23,32.5-22.2,35.7c1.5,5.5,62.3-0.7,98.4-67.5
			c7.6-14.1,29.5-54.7,20.2-92.6c-4.1-16.7-14.7-34.7-27.4-35.7c-16.3-1.2-31.2,26.4-35.2,49.2c-2.1,12-1.5,23.8-3.3,24.1
			c-2,0.3-2.9-14.7-8.5-28.9c-6.6-16.7-21.5-36.2-34.1-32.1c-15.8,5.1-26.8,46.6-19.3,71.7C-2640.5,701.2-2622.3,701-2616.4,729.1z"
			/>
		<path class="st37" d="M-2840.5,1172.6c1.3,4.1,5.1,16.3,1.2,30.1c-8.1,28.5-41.4,37.6-39.8,41.3c2.7,6.4,111.9-0.8,176.7-78.1
			c13.7-16.3,53-63.3,36.3-107.1c-7.4-19.3-26.5-40.2-49.2-41.3c-29.3-1.4-56,30.6-63.2,56.9c-3.8,13.9-2.6,27.6-5.9,27.9
			c-3.7,0.4-5.1-17-15.2-33.5c-11.9-19.4-38.6-41.9-61.3-37.2c-28.4,5.9-48,53.9-34.7,82.9
			C-2883.7,1140.3-2851.1,1140.1-2840.5,1172.6z"/>
		<path class="st37" d="M-3031.9,874.1c0.8,3.3,3.2,13.2,0.7,24.5c-5.1,23.2-25.9,30.6-24.9,33.6c1.7,5.2,70.1-0.6,110.7-63.5
			c8.6-13.3,33.2-51.5,22.7-87.1c-4.6-15.7-16.6-32.7-30.8-33.6c-18.4-1.2-35,24.9-39.6,46.3c-2.4,11.3-1.6,22.4-3.7,22.7
			c-2.3,0.3-3.2-13.9-9.5-27.2c-7.5-15.8-24.2-34.1-38.4-30.2c-17.8,4.8-30.1,43.8-21.7,67.4
			C-3058.9,847.9-3038.5,847.7-3031.9,874.1z"/>
		<path class="st37" d="M-2823.5,1377.9c-8-20.9-28.6-43.5-53.2-44.7c-31.7-1.6-60.6,33.1-68.4,61.6c-4.2,15.1-2.8,29.8-6.3,30.2
			c-4,0.4-5.6-18.4-16.5-36.2c-12.9-21-41.7-45.3-66.3-40.2c-30.7,6.4-52,58.3-37.6,89.7c12.8,27.8,48.1,27.6,59.5,62.8
			c1.4,4.4,5.5,17.6,1.3,32.6c-8.8,30.8-44.8,40.7-43.1,44.7c3,6.9,121.1-0.8,191.3-84.5
			C-2847.9,1476.2-2805.3,1425.4-2823.5,1377.9z"/>
		<path class="st37" d="M-2727.8,1723.5c-19.2-1.4-36.7,29.7-41.5,55.2c-2.5,13.5-1.7,26.7-3.8,27.1c-2.4,0.4-3.4-16.5-10-32.5
			c-7.8-18.8-25.3-40.7-40.2-36.1c-18.6,5.7-31.5,52.3-22.8,80.5c7.7,25,29.2,24.7,36.1,56.3c0.9,4,3.4,15.8,0.8,29.2
			c-5.3,27.6-27.1,36.5-26.1,40.1c1.8,6.2,73.4-0.7,116-75.8c9-15.8,34.8-61.4,23.8-103.9
			C-2700.4,1744.8-2712.9,1724.6-2727.8,1723.5z"/>
		<path class="st37" d="M-3492.3,1301.3c-24.8-5.4-54.1,20.5-67.1,42.7c-11,18.9-12.6,38.9-16.7,38.5c-3.6-0.4-2.2-16-6.4-32.1
			c-7.9-30.2-37.1-67-69.2-65.4c-24.9,1.3-45.8,25.3-53.8,47.4c-18.4,50.3,24.8,104.3,39.7,123.1c71,88.9,190.6,97.1,193.6,89.7
			c1.7-4.2-34.7-14.7-43.6-47.4c-4.3-15.9-0.2-29.9,1.3-34.6c11.6-37.4,47.3-37.1,60.3-66.7
			C-3439.6,1363.2-3461.2,1308-3492.3,1301.3z"/>
		<path class="st37" d="M-3226.6,893.1c0.8-2.7-16.9-9.3-21.2-29.9c-2.1-10-0.1-18.9,0.6-21.8c5.6-23.6,23-23.4,29.3-42
			c7.1-21-3.4-55.8-18.5-60.1c-12.1-3.4-26.2,12.9-32.6,26.9c-5.4,11.9-6.1,24.5-8.1,24.2c-1.7-0.2-1.1-10.1-3.1-20.2
			c-3.9-19.1-18-42.3-33.6-41.2c-12.1,0.8-22.2,15.9-26.1,29.9c-8.9,31.7,12,65.7,19.3,77.6C-3286.1,892.5-3228,897.7-3226.6,893.1z
			"/>
		<path class="st37" d="M-3458.5,1114.9c12.2-28-5.8-74.3-31.9-79.9c-20.8-4.5-45.3,17.2-56.3,35.8c-9.3,15.8-10.6,32.6-14,32.3
			c-3-0.3-1.9-13.5-5.4-26.9c-6.7-25.4-31.1-56.2-58.1-54.8c-20.9,1.1-38.4,21.2-45.2,39.8c-15.4,42.2,20.8,87.5,33.3,103.2
			c59.5,74.5,159.8,81.4,162.4,75.3c1.4-3.5-29.1-12.3-36.6-39.8c-3.6-13.4-0.1-25.1,1.1-29
			C-3499.3,1139.4-3469.3,1139.7-3458.5,1114.9z"/>
		<path class="st37" d="M-3183.3,1457.3c-12.6-4.1-27.5,15.4-34.1,32.1c-5.6,14.2-6.4,29.3-8.5,28.9c-1.8-0.3-1.1-12.1-3.3-24.1
			c-4-22.8-18.9-50.4-35.2-49.2c-12.6,1-23.3,19-27.4,35.7c-9.3,37.9,12.6,78.5,20.2,92.6c36.1,66.8,96.9,73,98.4,67.5
			c0.9-3.2-17.7-11.1-22.2-35.7c-2.2-12-0.1-22.5,0.7-26c5.9-28.1,24.1-27.9,30.6-50.1C-3156.5,1503.8-3167.5,1462.3-3183.3,1457.3z
			"/>
		<path class="st37" d="M-3481.9,953c1.6-3.7-31.7-12.8-39.8-41.3c-3.9-13.9-0.2-26,1.2-30.1c10.6-32.5,43.2-32.3,55-58
			c13.3-29-6.4-77-34.7-82.9c-22.7-4.7-49.4,17.8-61.3,37.2c-10.1,16.4-11.5,33.8-15.2,33.5c-3.2-0.3-2-14-5.9-27.9
			c-7.2-26.3-33.9-58.3-63.2-56.9c-22.7,1.1-41.8,22-49.2,41.3c-16.8,43.8,22.6,90.8,36.3,107.1
			C-3593.8,952.2-3484.6,959.4-3481.9,953z"/>
		<path class="st37" d="M-3091.9,688.2c1-3-19.8-10.4-24.9-33.6c-2.5-11.3-0.1-21.2,0.7-24.5c6.6-26.5,27.1-26.3,34.5-47.2
			c8.3-23.6-4-62.6-21.7-67.4c-14.2-3.8-30.9,14.5-38.4,30.2c-6.3,13.4-7.2,27.5-9.5,27.2c-2-0.3-1.3-11.4-3.7-22.7
			c-4.5-21.4-21.2-47.4-39.6-46.3c-14.2,0.9-26.2,17.9-30.8,33.6c-10.5,35.6,14.2,73.8,22.7,87.1
			C-3162,687.6-3093.6,693.4-3091.9,688.2z"/>
		<path class="st37" d="M-3101,1305.3c1.7-4-34.3-13.8-43.1-44.7c-4.3-15-0.2-28.2,1.3-32.6c11.4-35.2,46.8-34.9,59.5-62.8
			c14.4-31.4-6.9-83.4-37.6-89.7c-24.5-5.1-53.4,19.3-66.3,40.2c-10.9,17.8-12.5,36.6-16.5,36.2c-3.5-0.4-2.2-15.1-6.3-30.2
			c-7.8-28.5-36.6-63.1-68.4-61.6c-24.6,1.2-45.2,23.8-53.2,44.7c-18.1,47.4,24.5,98.2,39.3,115.9
			C-3222.1,1304.5-3104,1312.3-3101,1305.3z"/>
		<path class="st37" d="M-3019.7,1691.2c-14.9-4.6-32.4,17.3-40.2,36.1c-6.6,15.9-7.6,32.8-10,32.5c-2.1-0.3-1.3-13.5-3.8-27.1
			c-4.8-25.5-22.2-56.6-41.5-55.2c-14.9,1.1-27.4,21.4-32.3,40.1c-11,42.5,14.8,88.1,23.8,103.9c42.5,75,114.2,82,116,75.8
			c1-3.6-20.8-12.4-26.1-40.1c-2.6-13.4-0.1-25.3,0.8-29.2c6.9-31.6,28.3-31.3,36.1-56.3
			C-2988.2,1743.5-3001.1,1696.9-3019.7,1691.2z"/>
	</g>
	<path class="st24" d="M-1284.5-1295.1"/>
	<path class="st24" d="M-1093.6-885.4"/>
	<path class="st24" d="M-1058.2-1356.9"/>
	<g>
		<path class="st37" d="M304.5-1201.5c-8.1-22.1-29-46.2-53.8-47.4c-32.1-1.7-61.3,35.1-69.2,65.4c-4.2,16-2.9,31.7-6.4,32.1
			c-4,0.4-5.6-19.6-16.7-38.5c-13-22.3-42.3-48.1-67.1-42.7c-31.1,6.8-52.6,61.9-38,95.3c12.9,29.6,48.7,29.3,60.3,66.7
			c1.5,4.7,5.6,18.7,1.3,34.6c-8.9,32.7-45.3,43.2-43.6,47.4c3,7.4,122.6-0.9,193.6-89.7C279.8-1097.2,322.9-1151.2,304.5-1201.5z"
			/>
		<path class="st37" d="M-238.9-1661.7c0.7,3,2.7,11.8,0.6,21.8c-4.3,20.6-22,27.2-21.2,29.9c1.5,4.6,59.5-0.6,94-56.6
			c7.3-11.8,28.2-45.8,19.3-77.6c-3.9-14-14.1-29.1-26.1-29.9c-15.6-1-29.8,22.1-33.6,41.2c-2,10.1-1.4,20-3.1,20.2
			c-2,0.3-2.7-12.3-8.1-24.2c-6.3-14-20.5-30.3-32.6-26.9c-15.1,4.3-25.5,39-18.5,60.1C-261.9-1685-244.5-1685.2-238.9-1661.7z"/>
		<path class="st37" d="M10.1-908.7c-27-1.4-51.4,29.5-58.1,54.8c-3.5,13.4-2.4,26.6-5.4,26.9c-3.4,0.4-4.7-16.4-14-32.3
			c-10.9-18.7-35.4-40.4-56.3-35.8c-26.1,5.7-44.1,51.9-31.9,79.9c10.8,24.8,40.8,24.5,50.5,55.9c1.2,3.9,4.7,15.7,1.1,29
			c-7.4,27.5-38,36.2-36.6,39.8c2.5,6.2,102.8-0.7,162.4-75.3c12.6-15.7,48.7-61,33.3-103.2C48.5-887.5,30.9-907.6,10.1-908.7z"/>
		<path class="st37" d="M-4.4-1572.9c0.7,3.5,2.8,14.1,0.7,26c-4.5,24.6-23,32.5-22.2,35.7c1.5,5.5,62.3-0.7,98.4-67.5
			c7.6-14.1,29.5-54.7,20.2-92.6C88.6-1688,78-1706,65.3-1707c-16.3-1.2-31.2,26.4-35.2,49.2c-2.1,12-1.5,23.8-3.3,24.1
			c-2,0.3-2.9-14.7-8.5-28.9c-6.6-16.7-21.5-36.2-34.1-32.1c-15.8,5.1-26.8,46.6-19.3,71.7C-28.5-1600.8-10.3-1601-4.4-1572.9z"/>
		<path class="st37" d="M-228.5-1129.4c1.3,4.1,5.1,16.3,1.2,30.1c-8.1,28.5-41.4,37.6-39.8,41.3c2.7,6.4,111.9-0.8,176.7-78.1
			c13.7-16.3,53-63.3,36.3-107.1c-7.4-19.3-26.5-40.2-49.2-41.3c-29.3-1.4-56,30.6-63.2,56.9c-3.8,13.9-2.6,27.6-5.9,27.9
			c-3.7,0.4-5.1-17-15.2-33.5c-11.9-19.4-38.6-41.9-61.3-37.2c-28.4,5.9-48,53.9-34.7,82.9C-271.7-1161.7-239.1-1161.9-228.5-1129.4
			z"/>
		<path class="st37" d="M-419.9-1427.9c0.8,3.3,3.2,13.2,0.7,24.5c-5.1,23.2-25.9,30.6-24.9,33.6c1.7,5.2,70.1-0.6,110.7-63.5
			c8.6-13.3,33.2-51.5,22.7-87.1c-4.6-15.7-16.6-32.7-30.8-33.6c-18.4-1.2-35,24.9-39.6,46.3c-2.4,11.3-1.6,22.4-3.7,22.7
			c-2.3,0.3-3.2-13.9-9.5-27.2c-7.5-15.8-24.2-34.1-38.4-30.2c-17.8,4.8-30.1,43.8-21.7,67.4
			C-446.9-1454.1-426.5-1454.3-419.9-1427.9z"/>
		<path class="st37" d="M-211.5-924.1c-8-20.9-28.6-43.5-53.2-44.7c-31.7-1.6-60.6,33.1-68.4,61.6c-4.2,15.1-2.8,29.8-6.3,30.2
			c-4,0.4-5.6-18.4-16.5-36.2c-12.9-21-41.7-45.3-66.3-40.2c-30.7,6.4-52,58.3-37.6,89.7c12.8,27.8,48.1,27.6,59.5,62.8
			c1.4,4.4,5.5,17.6,1.3,32.6c-8.8,30.8-44.8,40.7-43.1,44.7c3,6.9,121.1-0.8,191.3-84.5C-235.9-825.8-193.3-876.6-211.5-924.1z"/>
		<path class="st37" d="M-115.8-578.5c-19.2-1.4-36.7,29.7-41.5,55.2c-2.5,13.5-1.7,26.7-3.8,27.1c-2.4,0.4-3.4-16.5-10-32.5
			c-7.8-18.8-25.3-40.7-40.2-36.1c-18.6,5.7-31.5,52.3-22.8,80.5c7.7,25,29.2,24.7,36.1,56.3c0.9,4,3.4,15.8,0.8,29.2
			c-5.3,27.6-27.1,36.5-26.1,40.1c1.8,6.2,73.4-0.7,116-75.8c9-15.8,34.8-61.4,23.8-103.9C-88.4-557.2-100.9-577.4-115.8-578.5z"/>
		<path class="st37" d="M-880.3-1000.7c-24.8-5.4-54.1,20.5-67.1,42.7c-11,18.9-12.6,38.9-16.7,38.5c-3.6-0.4-2.2-16-6.4-32.1
			c-7.9-30.2-37.1-67-69.2-65.4c-24.9,1.3-45.8,25.3-53.8,47.4c-18.4,50.3,24.8,104.3,39.7,123.1c71,88.9,190.6,97.1,193.6,89.7
			c1.7-4.2-34.7-14.7-43.6-47.4c-4.3-15.9-0.2-29.9,1.3-34.6c11.6-37.4,47.3-37.1,60.3-66.7C-827.6-938.8-849.2-994-880.3-1000.7z"
			/>
		<path class="st37" d="M-614.6-1408.9c0.8-2.7-16.9-9.3-21.2-29.9c-2.1-10-0.1-18.9,0.6-21.8c5.6-23.6,23-23.4,29.3-42
			c7.1-21-3.4-55.8-18.5-60.1c-12.1-3.4-26.2,12.9-32.6,26.9c-5.4,11.9-6.1,24.5-8.1,24.2c-1.7-0.2-1.1-10.1-3.1-20.2
			c-3.9-19.1-18-42.3-33.6-41.2c-12.1,0.8-22.2,15.9-26.1,29.9c-8.9,31.7,12,65.7,19.3,77.6C-674.1-1409.5-616-1404.3-614.6-1408.9z
			"/>
		<path class="st37" d="M-846.5-1187.1c12.2-28-5.8-74.3-31.9-79.9c-20.8-4.5-45.3,17.2-56.3,35.8c-9.3,15.8-10.6,32.6-14,32.3
			c-3-0.3-1.9-13.5-5.4-26.9c-6.7-25.4-31.1-56.2-58.1-54.8c-20.9,1.1-38.4,21.2-45.2,39.8c-15.4,42.2,20.8,87.5,33.3,103.2
			c59.5,74.5,159.8,81.4,162.4,75.3c1.4-3.5-29.1-12.3-36.6-39.8c-3.6-13.4-0.1-25.1,1.1-29
			C-887.3-1162.6-857.3-1162.3-846.5-1187.1z"/>
		<path class="st37" d="M-571.3-844.7c-12.6-4.1-27.5,15.4-34.1,32.1c-5.6,14.2-6.4,29.3-8.5,28.9c-1.8-0.3-1.1-12.1-3.3-24.1
			c-4-22.8-18.9-50.4-35.2-49.2c-12.6,1-23.3,19-27.4,35.7c-9.3,37.9,12.6,78.5,20.2,92.6c36.1,66.8,96.9,73,98.4,67.5
			c0.9-3.2-17.7-11.1-22.2-35.7c-2.2-12-0.1-22.5,0.7-26c5.9-28.1,24.1-27.9,30.6-50.1C-544.5-798.2-555.5-839.7-571.3-844.7z"/>
		<path class="st37" d="M-869.9-1349c1.6-3.7-31.7-12.8-39.8-41.3c-3.9-13.9-0.2-26,1.2-30.1c10.6-32.5,43.2-32.3,55-58
			c13.3-29-6.4-77-34.7-82.9c-22.7-4.7-49.4,17.8-61.3,37.2c-10.1,16.4-11.5,33.8-15.2,33.5c-3.2-0.3-2-14-5.9-27.9
			c-7.2-26.3-33.9-58.3-63.2-56.9c-22.7,1.1-41.8,22-49.2,41.3c-16.8,43.8,22.6,90.8,36.3,107.1
			C-981.8-1349.8-872.6-1342.6-869.9-1349z"/>
		<path class="st37" d="M-479.9-1613.8c1-3-19.8-10.4-24.9-33.6c-2.5-11.3-0.1-21.2,0.7-24.5c6.6-26.5,27.1-26.3,34.5-47.2
			c8.3-23.6-4-62.6-21.7-67.4c-14.2-3.8-30.9,14.5-38.4,30.2c-6.3,13.4-7.2,27.5-9.5,27.2c-2-0.3-1.3-11.4-3.7-22.7
			c-4.5-21.4-21.2-47.4-39.6-46.3c-14.2,0.9-26.2,17.9-30.8,33.6c-10.5,35.6,14.2,73.8,22.7,87.1
			C-550-1614.4-481.6-1608.6-479.9-1613.8z"/>
		<path class="st37" d="M-489-996.7c1.7-4-34.3-13.8-43.1-44.7c-4.3-15-0.2-28.2,1.3-32.6c11.4-35.2,46.8-34.9,59.5-62.8
			c14.4-31.4-6.9-83.4-37.6-89.7c-24.5-5.1-53.4,19.3-66.3,40.2c-10.9,17.8-12.5,36.6-16.5,36.2c-3.5-0.4-2.2-15.1-6.3-30.2
			c-7.8-28.5-36.6-63.1-68.4-61.6c-24.6,1.2-45.2,23.8-53.2,44.7c-18.1,47.4,24.5,98.2,39.3,115.9C-610.1-997.5-492-989.7-489-996.7
			z"/>
		<path class="st37" d="M-407.7-610.8c-14.9-4.6-32.4,17.3-40.2,36.1c-6.6,15.9-7.6,32.8-10,32.5c-2.1-0.3-1.3-13.5-3.8-27.1
			c-4.8-25.5-22.2-56.6-41.5-55.2c-14.9,1.1-27.4,21.4-32.3,40.1c-11,42.5,14.8,88.1,23.8,103.9c42.5,75,114.2,82,116,75.8
			c1-3.6-20.8-12.4-26.1-40.1c-2.6-13.4-0.1-25.3,0.8-29.2c6.9-31.6,28.3-31.3,36.1-56.3C-376.2-558.5-389.1-605.1-407.7-610.8z"/>
	</g>
	<g>
		<path d="M953.1,242.8c-4.5-8.5-15.4-17.6-29-19c-12.9-1.3-22.6,5-33.1,11.7c-3.4,2.2-11.5,7.7-18.6,17.2
			c-2.6,3.5-6.1,8.1-8.3,14.4c-3.6,10.9-2,22.7,2.1,29.8c14.6,25.6,80.5,26.4,94.1,7.2c9.3-13.1-1.6-41.5-1.6-41.5
			C958.8,262.7,957.1,250.4,953.1,242.8z"/>
		<path d="M869.8,218.4c8.3,1.8,17.8-6.8,18.1-16.2c0.2-10.2-10.5-19.2-18.7-17.2c-6.4,1.6-9.8,9.4-10.2,15.3
			C858.6,207.6,862.4,216.9,869.8,218.4z"/>
		<path d="M932.2,210c5.1-2.6,12.5-9.3,10.6-17.2c-1.5-6.1-7.7-10-13.4-10.4c-8.6-0.6-15.2,6.9-17.2,13.5c-0.4,1.2-2.6,8.8,1.8,13.5
			C918.7,214.4,927.5,212.4,932.2,210z"/>
		<path d="M984.4,194.5c-6.9-3.1-17.9,3.4-19.9,12.6c-2,9.4,5.5,19.9,13.1,19.9c6.8,0,12-8.5,13.1-15.3
			C991.6,205.9,990.3,197.2,984.4,194.5z"/>
	</g>
</g>
<path class="st19" d="M396,529.8"/>
</svg>
