<?xml version="1.0" encoding="utf-8"?>
<!-- Generator: Adobe Illustrator 21.0.0, SVG Export Plug-In . SVG Version: 6.00 Build 0)  -->
<svg version="1.1" id="Calque_1" xmlns="http://www.w3.org/2000/svg" xmlns:xlink="http://www.w3.org/1999/xlink" x="0px" y="0px"
	 viewBox="0 0 1920 1080" style="enable-background:new 0 0 1920 1080;" xml:space="preserve">
<style type="text/css">
	.st0{display:none;}
	.st1{display:inline;opacity:0.25;}
	.st2{opacity:0.45;fill:#BB1E69;enable-background:new    ;}
	.st3{opacity:0.45;fill:#ED6D40;enable-background:new    ;}
	.st4{opacity:0.44;fill:#54C2E3;enable-background:new    ;}
	.st5{opacity:0.44;}
	.st6{fill:#54C2E3;}
	.st7{opacity:0.22;fill:#951B81;enable-background:new    ;}
	.st8{display:inline;opacity:0.37;}
	.st9{display:inline;opacity:0.46;}
</style>
<g id="Calque_2_1_">
</g>
<g id="Calque_1_2_">
	<g id="Calque_4_3_" class="st0">
		<g id="Calque_7_3_" class="st1">
			<circle class="st2" cx="-2115.1" cy="-150.2" r="134.4"/>
			<circle class="st2" cx="-1720" cy="-126.2" r="105.5"/>
			<circle class="st3" cx="-1195.3" cy="292.6" r="116"/>
			<circle class="st2" cx="-1516.9" cy="1330.8" r="94.8"/>
			<circle class="st3" cx="2195.7" cy="-121" r="144.8"/>
			<circle class="st3" cx="2899.2" cy="-247.4" r="152.8"/>
			<circle class="st3" cx="3463.1" cy="-490.1" r="258.3"/>
			<circle class="st3" cx="2817.6" cy="287.3" r="224"/>
			<circle class="st3" cx="2720.1" cy="745.7" r="196.7"/>
			<circle class="st3" cx="2043" cy="208.2" r="102.2"/>
			<circle class="st3" cx="1313.1" cy="213.4" r="105.5"/>
			<circle class="st3" cx="1660.7" cy="398.1" r="237.2"/>
			<circle class="st3" cx="-104.7" cy="714.1" r="277"/>
			<circle class="st3" cx="-347" cy="279.4" r="271.2"/>
			<circle class="st3" cx="114.1" cy="-226.6" r="142.4"/>
			<circle class="st3" cx="3492" cy="2250.9" r="384.1"/>
			<circle class="st3" cx="3684.3" cy="153" r="251.9"/>
			<circle class="st3" cx="2208.9" cy="-848.4" r="139.6"/>
			<circle class="st3" cx="2340.6" cy="827.6" r="73.6"/>
			<circle class="st3" cx="2048.2" cy="579.7" r="96.9"/>
			<circle class="st3" cx="3494.7" cy="772.1" r="93.3"/>
			<circle class="st2" cx="-1443.2" cy="-29" r="97.6"/>
			<circle class="st2" cx="-1617.2" cy="564.1" r="73.6"/>
			<circle class="st2" cx="-1422.1" cy="303" r="73.6"/>
			<circle class="st2" cx="-1298.1" cy="1359.6" r="50"/>
			<circle class="st3" cx="-987.3" cy="476.9" r="150.3"/>
		</g>
		<g id="Calque_3_4_" class="st1">
			<path class="st4" d="M-113.1-40.4c-39.8-23.3-86.4-14.8-117.1,7.5c-36.4,26.5-43,66.6-43.6,71.9c-0.8,6.2-6.2,49,23.4,82.8
				c32,36.5,90.2,46.5,133.9,21.8c31.3-17.4,54.7-52.1,54.9-92.2C-61.3,14.8-80.4-21.1-113.1-40.4z"/>
			
				<ellipse transform="matrix(0.9624 -0.2716 0.2716 0.9624 3.5048 59.9715)" class="st4" cx="218.4" cy="17.3" rx="73.8" ry="73.8"/>
			
				<ellipse transform="matrix(0.9624 -0.2716 0.2716 0.9624 199.2535 277.3235)" class="st4" cx="1101.5" cy="-581.2" rx="117.6" ry="117.6"/>
			
				<ellipse transform="matrix(0.9624 -0.2716 0.2716 0.9624 105.2709 309.2644)" class="st4" cx="1169.9" cy="-225.7" rx="100.4" ry="100.4"/>
			
				<ellipse transform="matrix(0.9624 -0.2716 0.2716 0.9624 120.8727 629.3862)" class="st4" cx="2334.2" cy="-122" rx="82" ry="82"/>
			
				<ellipse transform="matrix(0.9624 -0.2716 0.2716 0.9624 68.1116 637.7683)" class="st4" cx="2338.1" cy="72.8" rx="89" ry="89"/>
			
				<ellipse transform="matrix(0.9624 -0.2716 0.2716 0.9624 73.6498 435.988)" class="st4" cx="1611.9" cy="-48.1" rx="111.5" ry="111.5"/>
			
				<ellipse transform="matrix(0.9624 -0.2716 0.2716 0.9624 -93.1137 266.6628)" class="st4" cx="916.8" cy="469.7" rx="135.3" ry="135.3"/>
			
				<ellipse transform="matrix(0.9624 -0.2716 0.2716 0.9624 -424.9009 -213.8121)" class="st4" cx="-984.9" cy="1428.1" rx="336.1" ry="336.1"/>
			
				<ellipse transform="matrix(0.9624 -0.2716 0.2716 0.9624 -161.1238 -440.9256)" class="st4" cx="-1673.5" cy="361.6" rx="252.5" ry="252.5"/>
			
				<ellipse transform="matrix(0.9624 -0.2716 0.2716 0.9624 -66.5909 -390.2896)" class="st4" cx="-1443.3" cy="45.4" rx="223" ry="223"/>
			
				<ellipse transform="matrix(0.9624 -0.2716 0.2716 0.9624 -156.9746 -551.9443)" class="st4" cx="-2072.5" cy="291.1" rx="172.2" ry="172.2"/>
			
				<ellipse transform="matrix(0.9624 -0.2716 0.2716 0.9624 126.1158 5.0803)" class="st4" cx="81.4" cy="-453.1" rx="281.6" ry="281.6"/>
			
				<ellipse transform="matrix(0.9624 -0.2716 0.2716 0.9624 -97.1626 -106.9859)" class="st4" cx="-435.1" cy="297.5" rx="241.8" ry="241.8"/>
			
				<ellipse transform="matrix(0.9624 -0.2716 0.2716 0.9624 -0.9543 -128.2457)" class="st4" cx="-463.8" cy="-60.7" rx="206.2" ry="206.2"/>
			
				<ellipse transform="matrix(0.9624 -0.2716 0.2716 0.9624 1.929 130.5808)" class="st4" cx="472.7" cy="58.3" rx="334.9" ry="334.9"/>
			
				<ellipse transform="matrix(0.9624 -0.2716 0.2716 0.9624 -41.0904 46.3523)" class="st4" cx="146.9" cy="171.6" rx="181.6" ry="181.6"/>
			<g id="XMLID_4_" class="st5">
				<g>
					
						<ellipse transform="matrix(0.9624 -0.2716 0.2716 0.9624 -281.6453 124.6539)" class="st6" cx="309.5" cy="1079.8" rx="233.7" ry="233.7"/>
				</g>
			</g>
			
				<ellipse transform="matrix(0.9624 -0.2716 0.2716 0.9624 -539.7166 -310.8012)" class="st4" cx="-1392.7" cy="1794.4" rx="94.3" ry="94.3"/>
			
				<ellipse transform="matrix(0.9624 -0.2716 0.2716 0.9624 -595.3152 -325.7208)" class="st4" cx="-1474.4" cy="1987.8" rx="96.3" ry="96.3"/>
			
				<ellipse transform="matrix(0.9624 -0.2716 0.2716 0.9624 -596.6282 -438.0039)" class="st4" cx="-1880.7" cy="1936.4" rx="106.6" ry="106.6"/>
			
				<ellipse transform="matrix(0.9624 -0.2716 0.2716 0.9624 -494.5463 -406.626)" class="st4" cx="-1716.3" cy="1583.3" rx="106.6" ry="106.6"/>
			
				<ellipse transform="matrix(0.9624 -0.2716 0.2716 0.9624 -4.6226 889.2346)" class="st4" cx="3210.2" cy="461.3" rx="101.7" ry="101.7"/>
			
				<ellipse transform="matrix(0.9624 -0.2716 0.2716 0.9624 305.6993 636.8281)" class="st4" cx="2453.5" cy="-786" rx="316" ry="316"/>
			
				<ellipse transform="matrix(0.9624 -0.2716 0.2716 0.9624 504.2783 838.2321)" class="st4" cx="3280.4" cy="-1402.7" rx="148.8" ry="148.8"/>
			
				<ellipse transform="matrix(0.9624 -0.2716 0.2716 0.9624 -229.2146 -80.7099)" class="st4" cx="-406.2" cy="787.7" rx="136.5" ry="136.5"/>
			
				<ellipse transform="matrix(0.9624 -0.2716 0.2716 0.9624 -311.3378 -71.2816)" class="st4" cx="-413.2" cy="1089.1" rx="110.7" ry="110.7"/>
			
				<ellipse transform="matrix(0.9624 -0.2716 0.2716 0.9624 -411.2712 -52.9386)" class="st4" cx="-396.9" cy="1459.3" rx="123" ry="123"/>
			
				<ellipse transform="matrix(0.9624 -0.2716 0.2716 0.9624 -359.5068 37.2762)" class="st4" cx="-45.1" cy="1317.4" rx="90.2" ry="90.2"/>
			
				<ellipse transform="matrix(0.9624 -0.2716 0.2716 0.9624 -175.9475 167.9598)" class="st4" cx="518.8" cy="719.6" rx="120.1" ry="120.1"/>
			
				<ellipse transform="matrix(0.9624 -0.2716 0.2716 0.9624 -192.2117 26.2458)" class="st4" cx="-1.3" cy="707.5" rx="123" ry="123"/>
			
				<ellipse transform="matrix(0.9624 -0.2716 0.2716 0.9624 -240.7123 -236.7853)" class="st4" cx="-975.8" cy="751.2" rx="121.3" ry="121.3"/>
			
				<ellipse transform="matrix(0.9624 -0.2716 0.2716 0.9624 -297.3379 -208.3266)" class="st4" cx="-901.3" cy="970" rx="76.7" ry="76.7"/>
			
				<ellipse transform="matrix(0.9624 -0.2716 0.2716 0.9624 -187.728 -140.9541)" class="st4" cx="-603.1" cy="607.7" rx="57.4" ry="57.4"/>
			
				<ellipse transform="matrix(0.9624 -0.2716 0.2716 0.9624 -104.4544 -206.8716)" class="st4" cx="-799.6" cy="273.9" rx="91" ry="91"/>
			
				<ellipse transform="matrix(0.9624 -0.2716 0.2716 0.9624 -30.6979 -212.1525)" class="st4" cx="-781.8" cy="4.8" rx="87.3" ry="87.3"/>
			
				<ellipse transform="matrix(0.9624 -0.2716 0.2716 0.9624 -266.8056 462.0711)" class="st4" cx="1535.9" cy="1194.9" rx="185.7" ry="185.7"/>
			
				<ellipse transform="matrix(0.9624 -0.2716 0.2716 0.9624 -362.9813 291.1696)" class="st4" cx="870.4" cy="1456.9" rx="247.2" ry="247.2"/>
			
				<ellipse transform="matrix(0.9624 -0.2716 0.2716 0.9624 -284.9628 300.0801)" class="st4" cx="941.6" cy="1179.5" rx="143.9" ry="143.9"/>
			
				<ellipse transform="matrix(0.9624 -0.2716 0.2716 0.9624 -296.8762 500.9994)" class="st4" cx="1661.5" cy="1323" rx="318.5" ry="318.5"/>
			
				<ellipse transform="matrix(0.9624 -0.2716 0.2716 0.9624 -182.7898 351.3199)" class="st4" cx="1177.8" cy="836" rx="124.2" ry="124.2"/>
			
				<ellipse transform="matrix(0.9624 -0.2716 0.2716 0.9624 -197.0043 307.6151)" class="st4" cx="1012.8" cy="865.5" rx="99.6" ry="99.6"/>
			
				<ellipse transform="matrix(0.9624 -0.2716 0.2716 0.9624 -125.2267 502.4316)" class="st4" cx="1752.5" cy="703.6" rx="117.6" ry="117.6"/>
			
				<ellipse transform="matrix(0.9624 -0.2716 0.2716 0.9624 -158.0867 526.6044)" class="st4" cx="1823.4" cy="834.4" rx="109.4" ry="109.4"/>
			
				<ellipse transform="matrix(0.9624 -0.2716 0.2716 0.9624 -80.1078 573.83)" class="st4" cx="2033" cy="576.3" rx="99.6" ry="99.6"/>
			
				<ellipse transform="matrix(0.9624 -0.2716 0.2716 0.9624 -65.5352 399.7247)" class="st4" cx="1411.3" cy="436.6" rx="138.1" ry="138.1"/>
			
				<ellipse transform="matrix(0.9624 -0.2716 0.2716 0.9624 51.9641 346.7029)" class="st4" cx="1278.5" cy="-14.4" rx="110.7" ry="110.7"/>
			
				<ellipse transform="matrix(0.9624 -0.2716 0.2716 0.9624 -0.6841 365.6985)" class="st4" cx="1320.8" cy="185.3" rx="58.6" ry="58.6"/>
			
				<ellipse transform="matrix(0.9624 -0.2716 0.2716 0.9624 -101.5683 159.5758)" class="st4" cx="525.7" cy="446.7" rx="44.7" ry="44.7"/>
			
				<ellipse transform="matrix(0.9624 -0.2716 0.2716 0.9624 -152.6018 13.8441)" class="st4" cx="-26.3" cy="558.2" rx="76.2" ry="76.2"/>
			
				<ellipse transform="matrix(0.9624 -0.2716 0.2716 0.9624 -175.9967 -15.1935)" class="st4" cx="-142.9" cy="628.2" rx="112.3" ry="112.3"/>
			
				<ellipse transform="matrix(0.9624 -0.2716 0.2716 0.9624 -212.5393 -28.6259)" class="st4" cx="-209.7" cy="753.5" rx="94.3" ry="94.3"/>
			
				<ellipse transform="matrix(0.9624 -0.2716 0.2716 0.9624 -243.6743 -10.5877)" class="st4" cx="-160.1" cy="875" rx="74.2" ry="74.2"/>
			
				<ellipse transform="matrix(0.9624 -0.2716 0.2716 0.9624 -172.5778 87.1099)" class="st4" cx="228.4" cy="667" rx="73.8" ry="73.8"/>
			
				<ellipse transform="matrix(0.9624 -0.2716 0.2716 0.9624 -109.7287 -32.7801)" class="st4" cx="-173.3" cy="380" rx="57.4" ry="57.4"/>
			
				<ellipse transform="matrix(0.9624 -0.2716 0.2716 0.9624 -162.0058 -72.1026)" class="st4" cx="-341.5" cy="549.2" rx="64.4" ry="64.4"/>
			
				<ellipse transform="matrix(0.9624 -0.2716 0.2716 0.9624 -230.9725 -157.6115)" class="st4" cx="-684.9" cy="755.6" rx="80.8" ry="80.8"/>
			
				<ellipse transform="matrix(0.9624 -0.2716 0.2716 0.9624 -286.4327 -134.9329)" class="st4" cx="-630.7" cy="967.3" rx="64.4" ry="64.4"/>
			
				<ellipse transform="matrix(0.9624 -0.2716 0.2716 0.9624 -189.9104 -173.121)" class="st4" cx="-720.4" cy="599.5" rx="39.8" ry="39.8"/>
			
				<ellipse transform="matrix(0.9624 -0.2716 0.2716 0.9624 -165.1449 -210.9833)" class="st4" cx="-844.8" cy="491.1" rx="41" ry="41"/>
			
				<ellipse transform="matrix(0.9624 -0.2716 0.2716 0.9624 379.8951 914.517)" class="st4" cx="3493.8" cy="-915.2" rx="101.2" ry="101.2"/>
			
				<ellipse transform="matrix(0.9624 -0.2716 0.2716 0.9624 409.5992 984.3398)" class="st4" cx="3760.9" cy="-987.6" rx="64.4" ry="64.4"/>
			
				<ellipse transform="matrix(0.9624 -0.2716 0.2716 0.9624 -102.8107 1024.5891)" class="st4" cx="3650.1" cy="883.7" rx="326.3" ry="326.3"/>
			
				<ellipse transform="matrix(0.9624 -0.2716 0.2716 0.9624 177.1435 325.1706)" class="st4" cx="1263.3" cy="-477.4" rx="225" ry="225"/>
			
				<ellipse transform="matrix(0.9624 -0.2716 0.2716 0.9624 375.7979 854.7132)" class="st4" cx="3275.7" cy="-930.3" rx="258.2" ry="258.2"/>
			
				<ellipse transform="matrix(0.9624 -0.2716 0.2716 0.9624 163.3706 461.852)" class="st4" cx="1750.2" cy="-359.3" rx="98.4" ry="98.4"/>
			
				<ellipse transform="matrix(0.9624 -0.2716 0.2716 0.9624 226.2383 842.8889)" class="st4" cx="3158.2" cy="-395.9" rx="104.5" ry="104.5"/>
			
				<ellipse transform="matrix(0.9624 -0.2716 0.2716 0.9624 283.5381 967.7131)" class="st4" cx="3637.8" cy="-540.5" rx="119.7" ry="119.7"/>
			
				<ellipse transform="matrix(0.9624 -0.2716 0.2716 0.9624 177.4742 931.35)" class="st4" cx="3453.4" cy="-175.5" rx="113.5" ry="113.5"/>
			
				<ellipse transform="matrix(0.9624 -0.2716 0.2716 0.9624 171.8242 865.7271)" class="st4" cx="3213.5" cy="-187.9" rx="70.5" ry="70.5"/>
			
				<ellipse transform="matrix(0.9624 -0.2716 0.2716 0.9624 251.8833 907.9862)" class="st4" cx="3406.2" cy="-456" rx="64.4" ry="64.4"/>
			
				<ellipse transform="matrix(0.9624 -0.2716 0.2716 0.9624 267.3626 1048.4249)" class="st4" cx="3921.3" cy="-441.7" rx="95.1" ry="95.1"/>
			
				<ellipse transform="matrix(0.9624 -0.2716 0.2716 0.9624 458.8444 1084.2048)" class="st4" cx="4146.3" cy="-1115.5" rx="125.8" ry="125.8"/>
			
				<ellipse transform="matrix(0.9624 -0.2716 0.2716 0.9624 459.3957 1138.188)" class="st4" cx="4341.6" cy="-1090.5" rx="123" ry="123"/>
			
				<ellipse transform="matrix(0.9624 -0.2716 0.2716 0.9624 421.0689 1040.0233)" class="st4" cx="3967.8" cy="-1001.2" rx="107.4" ry="107.4"/>
			
				<ellipse transform="matrix(0.9624 -0.2716 0.2716 0.9624 506.228 938.3314)" class="st4" cx="3643" cy="-1359.7" rx="107.4" ry="107.4"/>
			
				<ellipse transform="matrix(0.9624 -0.2716 0.2716 0.9624 273.5232 774.3406)" class="st4" cx="2934.2" cy="-601" rx="101.2" ry="101.2"/>
			
				<ellipse transform="matrix(0.9624 -0.2716 0.2716 0.9624 24.5074 461.9164)" class="st4" cx="1681" cy="142.4" rx="86.1" ry="86.1"/>
			
				<ellipse transform="matrix(0.9624 -0.2716 0.2716 0.9624 6.194 516.7943)" class="st4" cx="1870.1" cy="236" rx="76.7" ry="76.7"/>
			
				<ellipse transform="matrix(0.9624 -0.2716 0.2716 0.9624 89.4627 505.2416)" class="st4" cx="1870" cy="-70.6" rx="67.6" ry="67.6"/>
			
				<ellipse transform="matrix(0.9624 -0.2716 0.2716 0.9624 -132.1795 108.2025)" class="st4" cx="324.8" cy="531.6" rx="76.7" ry="76.7"/>
			
				<ellipse transform="matrix(0.9624 -0.2716 0.2716 0.9624 222.8388 997.1232)" class="st4" cx="3713.7" cy="-306.5" rx="55.3" ry="55.3"/>
			
				<ellipse transform="matrix(0.9624 -0.2716 0.2716 0.9624 -43.6063 493.5706)" class="st4" cx="1761.3" cy="404.3" rx="73.8" ry="73.8"/>
		</g>
		<g id="Calque_4_4_" class="st1">
			<circle class="st7" cx="1523.2" cy="-492.1" r="143.3"/>
			<circle class="st7" cx="278.5" cy="-542.4" r="117.2"/>
			<circle class="st7" cx="-1679.5" cy="-349.5" r="170.3"/>
			<circle class="st7" cx="-1714.2" cy="1187" r="228.6"/>
			<circle class="st7" cx="1530.3" cy="1774.2" r="257.7"/>
			<circle class="st7" cx="2972.9" cy="1442.9" r="267.2"/>
			<circle class="st7" cx="62.2" cy="1261.2" r="229.2"/>
			<circle class="st7" cx="412" cy="1638.6" r="133.8"/>
			<circle class="st7" cx="867.6" cy="1160" r="101.2"/>
			<circle class="st7" cx="973.4" cy="1831.9" r="264.5"/>
			<circle class="st7" cx="593.6" cy="1010.3" r="92.3"/>
			<circle class="st7" cx="1063" cy="-639.4" r="130.1"/>
			<circle class="st7" cx="639.6" cy="-541.2" r="99.7"/>
			<circle class="st7" cx="2535.7" cy="-436.9" r="255.3"/>
			<circle class="st7" cx="-324.3" cy="53.1" r="166.3"/>
			<circle class="st7" cx="708.7" cy="-91.8" r="144.8"/>
			<circle class="st7" cx="1550.8" cy="-20.3" r="112.6"/>
			<circle class="st7" cx="3594.1" cy="89.9" r="292.1"/>
			<circle class="st7" cx="3594.1" cy="718.2" r="195.4"/>
			<circle class="st7" cx="2834.8" cy="833.3" r="216.3"/>
			<circle class="st7" cx="2135.3" cy="1348.7" r="158.6"/>
			<circle class="st7" cx="2190.5" cy="1680.6" r="131"/>
			<circle class="st7" cx="-1695.7" cy="798.6" r="82.8"/>
		</g>
		<g id="Calque_5_3_" class="st1">
			<circle class="st2" cx="-1846.2" cy="75.5" r="117.2"/>
			<circle class="st2" cx="-1501.4" cy="96" r="92"/>
			<circle class="st2" cx="-1043.3" cy="462.1" r="101.2"/>
			<circle class="st2" cx="-1324" cy="1368.7" r="82.8"/>
			<circle class="st2" cx="1918" cy="100.6" r="126.4"/>
			<circle class="st2" cx="2532.2" cy="-9.5" r="133.5"/>
			<circle class="st2" cx="3024.6" cy="-221.5" r="225.5"/>
			<circle class="st2" cx="2461" cy="457.5" r="195.4"/>
			<circle class="st2" cx="2375.7" cy="857.8" r="171.8"/>
			<circle class="st2" cx="1784.5" cy="388.4" r="89.3"/>
			<circle class="st2" cx="1147.3" cy="393" r="92"/>
			<circle class="st2" cx="1450.7" cy="554.1" r="207.1"/>
			<circle class="st2" cx="-90.7" cy="830.2" r="242.1"/>
			<circle class="st2" cx="-302.4" cy="450.4" r="236.9"/>
			<circle class="st2" cx="100.2" cy="8.6" r="124.3"/>
			<circle class="st2" cx="3050.1" cy="2172.2" r="335.6"/>
			<circle class="st2" cx="3217.9" cy="340" r="220"/>
			<circle class="st2" cx="1929.3" cy="-534.4" r="122.1"/>
			<circle class="st2" cx="2044.4" cy="929" r="64.4"/>
			<circle class="st2" cx="1789.1" cy="712.7" r="84.7"/>
			<circle class="st2" cx="3052.2" cy="880.8" r="81.3"/>
			<circle class="st2" cx="-1259.6" cy="181.3" r="85"/>
			<circle class="st2" cx="-1411.5" cy="698.9" r="64.4"/>
			<circle class="st2" cx="-1241.2" cy="471.3" r="64.4"/>
			<circle class="st2" cx="-1133.2" cy="1393.8" r="43.6"/>
			<circle class="st2" cx="-861.7" cy="623.1" r="131"/>
		</g>
	</g>
	<g id="Calque_3_2_" class="st0">
		<g id="Calque_7_2_" class="st8">
			
				<ellipse transform="matrix(0.7301 -0.6834 0.6834 0.7301 -839.9849 1775.282)" class="st2" cx="1827.2" cy="1950.9" rx="66.7" ry="66.7"/>
			
				<ellipse transform="matrix(0.7301 -0.6834 0.6834 0.7301 -770.6016 1648.8009)" class="st2" cx="1701.8" cy="1799.9" rx="52.4" ry="52.4"/>
			
				<ellipse transform="matrix(0.7301 -0.6834 0.6834 0.7301 -550.6748 1541.3014)" class="st3" cx="1675.7" cy="1467.7" rx="57.5" ry="57.5"/>
			
				<ellipse transform="matrix(0.7301 -0.6834 0.6834 0.7301 -258.661 1809.1685)" class="st2" cx="2160.8" cy="1232" rx="47" ry="47"/>
			
				<ellipse transform="matrix(0.7301 -0.6834 0.6834 0.7301 -157.9899 359.3037)" class="st3" cx="375.8" cy="379.6" rx="71.8" ry="71.8"/>
			
				<ellipse transform="matrix(0.7301 -0.6834 0.6834 0.7301 -89.8418 107.7807)" class="st3" cx="91.5" cy="167.6" rx="75.8" ry="75.8"/>
			
				<ellipse transform="matrix(0.7301 -0.6834 0.6834 0.7301 -81.8982 -115.8714)" class="st3" cx="-187.6" cy="45.7" rx="128.2" ry="128.2"/>
			
				<ellipse transform="matrix(0.7301 -0.6834 0.6834 0.7301 73.5852 218.1462)" class="st3" cx="312.9" cy="15.9" rx="111.1" ry="111.1"/>
			
				<ellipse transform="matrix(0.7301 -0.6834 0.6834 0.7301 209.4203 321.7924)" class="st3" cx="512" cy="-104.2" rx="97.6" ry="97.6"/>
			
				<ellipse transform="matrix(0.7301 -0.6834 0.6834 0.7301 -73.318 461.055)" class="st3" cx="547" cy="323.3" rx="50.7" ry="50.7"/>
			
				<ellipse transform="matrix(0.7301 -0.6834 0.6834 0.7301 -185.5157 702.4146)" class="st3" cx="796.4" cy="586" rx="52.4" ry="52.4"/>
			
				<ellipse transform="matrix(0.7301 -0.6834 0.6834 0.7301 -70.3408 616.6796)" class="st3" cx="745.4" cy="397.4" rx="117.7" ry="117.7"/>
			
				<ellipse transform="matrix(0.7301 -0.6834 0.6834 0.7301 -241.5994 1247.6989)" class="st3" cx="1458.6" cy="929.7" rx="137.5" ry="137.5"/>
			
				<ellipse transform="matrix(0.7301 -0.6834 0.6834 0.7301 -422.7012 1259.5861)" class="st3" cx="1383.1" cy="1164.9" rx="134.6" ry="134.6"/>
			
				<ellipse transform="matrix(0.7301 -0.6834 0.6834 0.7301 -517.4698 1028.8053)" class="st3" cx="1043.6" cy="1169.4" rx="70.6" ry="70.6"/>
			
				<ellipse transform="matrix(0.7301 -0.6834 0.6834 0.7301 825.8058 302.245)" class="st3" cx="795.5" cy="-894.2" rx="190.6" ry="190.6"/>
			
				<ellipse transform="matrix(0.7301 -0.6834 0.6834 0.7301 164.5618 -88.3689)" class="st3" cx="-29.6" cy="-252.5" rx="125" ry="125"/>
			
				<ellipse transform="matrix(0.7301 -0.6834 0.6834 0.7301 -395.5764 241.5654)" class="st3" cx="108" cy="621.5" rx="69.3" ry="69.3"/>
			
				<ellipse transform="matrix(0.7301 -0.6834 0.6834 0.7301 177.2066 459.6752)" class="st3" cx="670.5" cy="5.5" rx="36.5" ry="36.5"/>
			
				<ellipse transform="matrix(0.7301 -0.6834 0.6834 0.7301 49.9219 517.3408)" class="st3" cx="679.8" cy="195.5" rx="48.1" ry="48.1"/>
			
				<ellipse transform="matrix(0.7301 -0.6834 0.6834 0.7301 338.9315 70.6666)" class="st3" cx="258.9" cy="-393.7" rx="46.3" ry="46.3"/>
			
				<ellipse transform="matrix(0.7301 -0.6834 0.6834 0.7301 -695.283 1572.8291)" class="st2" cx="1643.3" cy="1666.5" rx="48.4" ry="48.4"/>
			
				<ellipse transform="matrix(0.7301 -0.6834 0.6834 0.7301 -526.9796 1722.6716)" class="st2" cx="1917.1" cy="1528.4" rx="36.5" ry="36.5"/>
			
				<ellipse transform="matrix(0.7301 -0.6834 0.6834 0.7301 -582.636 1617.5881)" class="st2" cx="1756.3" cy="1546.3" rx="36.5" ry="36.5"/>
			
				<ellipse transform="matrix(0.7301 -0.6834 0.6834 0.7301 -215.0935 1741.584)" class="st2" cx="2097" cy="1143.1" rx="24.8" ry="24.8"/>
			
				<ellipse transform="matrix(0.7301 -0.6834 0.6834 0.7301 -457.5303 1501.5234)" class="st3" cx="1671.9" cy="1329.9" rx="74.6" ry="74.6"/>
		</g>
		<g id="Calque_3_3_" class="st8">
			<path class="st4" d="M1187.8,1188.6c5.1,22.3,23.9,36.3,42.4,39.9c21.9,4.2,38.7-7,40.8-8.6c2.5-1.8,19.9-14.4,22.1-36.6
				c2.4-24-13.7-48.5-37.5-55.9c-16.9-5.5-37.4-2.2-52,11.4C1190.3,1151.1,1183.7,1170.2,1187.8,1188.6z"/>
			
				<ellipse transform="matrix(0.517 -0.856 0.856 0.517 -368.338 1445.1914)" class="st4" cx="1096.4" cy="1049" rx="36.6" ry="36.6"/>
			
				<ellipse transform="matrix(0.517 -0.856 0.856 0.517 -517.6137 946.7868)" class="st4" cx="580.1" cy="932.1" rx="58.4" ry="58.4"/>
			
				<ellipse transform="matrix(0.517 -0.856 0.856 0.517 -342.2228 967.0059)" class="st4" cx="685.8" cy="786.7" rx="49.8" ry="49.8"/>
			
				<ellipse transform="matrix(0.517 -0.856 0.856 0.517 -123.6718 440.5346)" class="st4" cx="328.5" cy="329.9" rx="40.7" ry="40.7"/>
			
				<ellipse transform="matrix(0.517 -0.856 0.856 0.517 -32.3634 467.2665)" class="st4" cx="397.9" cy="262.3" rx="44.1" ry="44.1"/>
			
				<ellipse transform="matrix(0.517 -0.856 0.856 0.517 -194.8758 787.4157)" class="st4" cx="600.3" cy="566.4" rx="55.3" ry="55.3"/>
			
				<ellipse transform="matrix(0.517 -0.856 0.856 0.517 -55.7389 1186.4717)" class="st4" cx="1023.5" cy="642.6" rx="67.1" ry="67.1"/>
			
				<ellipse transform="matrix(0.517 -0.856 0.856 0.517 112.017 2211.291)" class="st4" cx="2015.4" cy="1006.4" rx="166.8" ry="166.8"/>
			
				<ellipse transform="matrix(0.517 -0.856 0.856 0.517 -484.846 2375.5627)" class="st4" cx="1862.6" cy="1617.4" rx="125.3" ry="125.3"/>
			
				<ellipse transform="matrix(0.517 -0.856 0.856 0.517 -598.2891 2222.2654)" class="st4" cx="1670" cy="1641.3" rx="110.6" ry="110.6"/>
			
				<ellipse transform="matrix(0.517 -0.856 0.856 0.517 -576.0536 2550.8774)" class="st4" cx="1972.3" cy="1785.9" rx="85.4" ry="85.4"/>
			
				<ellipse transform="matrix(0.517 -0.856 0.856 0.517 -607.2036 1440.0126)" class="st4" cx="972.4" cy="1258.1" rx="139.7" ry="139.7"/>
			
				<ellipse transform="matrix(0.517 -0.856 0.856 0.517 -333.5686 1790.0956)" class="st4" cx="1419.4" cy="1190.6" rx="120" ry="120"/>
			
				<ellipse transform="matrix(0.517 -0.856 0.856 0.517 -504.3199 1751.0446)" class="st4" cx="1299.5" cy="1322.4" rx="102.3" ry="102.3"/>
			
				<ellipse transform="matrix(0.517 -0.856 0.856 0.517 -311.9126 1332.7952)" class="st4" cx="1025" cy="942.8" rx="166.2" ry="166.2"/>
			
				<ellipse transform="matrix(0.517 -0.856 0.856 0.517 -306.914 1501.03)" class="st4" cx="1176.6" cy="1022.5" rx="90.1" ry="90.1"/>
			<g id="XMLID_3_" class="st5">
				<g>
					
						<ellipse transform="matrix(0.517 -0.856 0.856 0.517 139.2486 1558.1606)" class="st6" cx="1450.3" cy="655.7" rx="115.9" ry="115.9"/>
				</g>
			</g>
			
				<ellipse transform="matrix(0.517 -0.856 0.856 0.517 222.6588 2454.4829)" class="st4" cx="2286.3" cy="1029.9" rx="46.8" ry="46.8"/>
			
				<ellipse transform="matrix(0.517 -0.856 0.856 0.517 300.8098 2520.8699)" class="st4" cx="2384.2" cy="993.9" rx="47.8" ry="47.8"/>
			
				<ellipse transform="matrix(0.517 -0.856 0.856 0.517 217.3605 2702.3262)" class="st4" cx="2503.2" cy="1158.6" rx="52.9" ry="52.9"/>
			
				<ellipse transform="matrix(0.517 -0.856 0.856 0.517 77.2309 2574.2185)" class="st4" cx="2319.6" cy="1218.7" rx="52.9" ry="52.9"/>
			
				<ellipse transform="matrix(0.517 -0.856 0.856 0.517 275.8863 118.3109)" class="st4" cx="242.8" cy="-185.3" rx="50.4" ry="50.4"/>
			
				<ellipse transform="matrix(0.517 -0.856 0.856 0.517 -415.1111 287.8156)" class="st4" cx="47.5" cy="511.7" rx="156.8" ry="156.8"/>
			
				<ellipse transform="matrix(0.517 -0.856 0.856 0.517 -580.9131 -186.9055)" class="st4" cx="-456.1" cy="421.3" rx="73.8" ry="73.8"/>
			
				<ellipse transform="matrix(0.517 -0.856 0.856 0.517 -101.3409 1848.2986)" class="st4" cx="1587.1" cy="1013.9" rx="67.7" ry="67.7"/>
			
				<ellipse transform="matrix(0.517 -0.856 0.856 0.517 37.8577 1895.731)" class="st4" cx="1698.7" cy="914.3" rx="54.9" ry="54.9"/>
			<ellipse transform="matrix(0.517 -0.856 0.856 0.517 212.4778 1942.1992)" class="st4" cx="1827.2" cy="782.8" rx="61" ry="61"/>
			
				<ellipse transform="matrix(0.517 -0.856 0.856 0.517 198.0074 1757.8473)" class="st4" cx="1656.6" cy="703.5" rx="44.7" ry="44.7"/>
			<ellipse transform="matrix(0.517 -0.856 0.856 0.517 2.3145 1408.1685)" class="st4" cx="1248.9" cy="702" rx="59.6" ry="59.6"/>
			<ellipse transform="matrix(0.517 -0.856 0.856 0.517 -79.3827 1648.2358)" class="st4" cx="1420.8" cy="894.5" rx="61" ry="61"/>
			
				<ellipse transform="matrix(0.517 -0.856 0.856 0.517 -201.5285 2107.9604)" class="st4" cx="1767.1" cy="1232.6" rx="60.2" ry="60.2"/>
			
				<ellipse transform="matrix(0.517 -0.856 0.856 0.517 -88.9192 2105.3125)" class="st4" cx="1821.1" cy="1131.4" rx="38" ry="38"/>
			
				<ellipse transform="matrix(0.517 -0.856 0.856 0.517 -213.7115 1913.6309)" class="st4" cx="1588.8" cy="1146.2" rx="28.5" ry="28.5"/>
			
				<ellipse transform="matrix(0.517 -0.856 0.856 0.517 -397.8353 1956.1544)" class="st4" cx="1534.4" cy="1330.6" rx="45.1" ry="45.1"/>
			
				<ellipse transform="matrix(0.517 -0.856 0.856 0.517 -520.428 1908.5135)" class="st4" cx="1430.9" cy="1415.4" rx="43.3" ry="43.3"/>
			
				<ellipse transform="matrix(0.517 -0.856 0.856 0.517 372.1424 1004.6022)" class="st4" cx="1076.3" cy="172.5" rx="92.1" ry="92.1"/>
			
				<ellipse transform="matrix(0.517 -0.856 0.856 0.517 396.7207 1352.3558)" class="st4" cx="1396.7" cy="324.6" rx="122.6" ry="122.6"/>
			
				<ellipse transform="matrix(0.517 -0.856 0.856 0.517 278.1054 1278.6823)" class="st4" cx="1272.1" cy="392.9" rx="71.4" ry="71.4"/>
			<ellipse transform="matrix(0.517 -0.856 0.856 0.517 450.2505 964.7517)" class="st4" cx="1080" cy="83.4" rx="158" ry="158"/>
			
				<ellipse transform="matrix(0.517 -0.856 0.856 0.517 152.7927 1118.6682)" class="st4" cx="1067.7" cy="423.9" rx="61.6" ry="61.6"/>
			
				<ellipse transform="matrix(0.517 -0.856 0.856 0.517 142.4867 1199.5603)" class="st4" cx="1134.2" cy="473.5" rx="49.4" ry="49.4"/>
			
				<ellipse transform="matrix(0.517 -0.856 0.856 0.517 175.3026 831.9332)" class="st4" cx="824.8" cy="260.6" rx="58.4" ry="58.4"/>
			
				<ellipse transform="matrix(0.517 -0.856 0.856 0.517 246.4499 818.0833)" class="st4" cx="848.1" cy="190.7" rx="54.3" ry="54.3"/>
			
				<ellipse transform="matrix(0.517 -0.856 0.856 0.517 157.2192 682.8056)" class="st4" cx="683.6" cy="202.1" rx="49.4" ry="49.4"/>
			<ellipse transform="matrix(0.517 -0.856 0.856 0.517 1.3289 951.5299)" class="st4" cx="843.8" cy="474.6" rx="68.5" ry="68.5"/>
			
				<ellipse transform="matrix(0.517 -0.856 0.856 0.517 -228.0057 947.3525)" class="st4" cx="725.5" cy="675.7" rx="54.9" ry="54.9"/>
			
				<ellipse transform="matrix(0.517 -0.856 0.856 0.517 -128.9809 956.9254)" class="st4" cx="783.4" cy="592.8" rx="29.1" ry="29.1"/>
			
				<ellipse transform="matrix(0.517 -0.856 0.856 0.517 -123.6249 1364.989)" class="st4" cx="1147.7" cy="792" rx="22.2" ry="22.2"/>
			
				<ellipse transform="matrix(0.517 -0.856 0.856 0.517 -152.5156 1638.0441)" class="st4" cx="1375.2" cy="954.2" rx="37.8" ry="37.8"/>
			
				<ellipse transform="matrix(0.517 -0.856 0.856 0.517 -136.9276 1702.493)" class="st4" cx="1440.1" cy="972.6" rx="55.7" ry="55.7"/>
			
				<ellipse transform="matrix(0.517 -0.856 0.856 0.517 -88.4821 1751.8798)" class="st4" cx="1508.1" cy="954.3" rx="46.8" ry="46.8"/>
			
				<ellipse transform="matrix(0.517 -0.856 0.856 0.517 -24.6294 1746.6478)" class="st4" cx="1535.4" cy="895.1" rx="36.8" ry="36.8"/>
			
				<ellipse transform="matrix(0.517 -0.856 0.856 0.517 -64.5878 1535.5317)" class="st4" cx="1328.3" cy="825" rx="36.6" ry="36.6"/>
			
				<ellipse transform="matrix(0.517 -0.856 0.856 0.517 -256.8804 1680.3408)" class="st4" cx="1360.5" cy="1067.8" rx="28.5" ry="28.5"/>
			
				<ellipse transform="matrix(0.517 -0.856 0.856 0.517 -202.7765 1783.3409)" class="st4" cx="1478.8" cy="1071.4" rx="31.9" ry="31.9"/>
			
				<ellipse transform="matrix(0.517 -0.856 0.856 0.517 -157.0775 1973.3087)" class="st4" cx="1670" cy="1125.8" rx="40.1" ry="40.1"/>
			
				<ellipse transform="matrix(0.517 -0.856 0.856 0.517 -50.5773 1979.0525)" class="st4" cx="1728.4" cy="1034.3" rx="31.9" ry="31.9"/>
			
				<ellipse transform="matrix(0.517 -0.856 0.856 0.517 -234.733 1967.0227)" class="st4" cx="1625.6" cy="1191.5" rx="19.7" ry="19.7"/>
			
				<ellipse transform="matrix(0.517 -0.856 0.856 0.517 -303.4211 2009.0292)" class="st4" cx="1628.5" cy="1273.4" rx="20.3" ry="20.3"/>
			
				<ellipse transform="matrix(0.517 -0.856 0.856 0.517 -322.9641 -214.8551)" class="st4" cx="-351.9" cy="178.8" rx="50.2" ry="50.2"/>
			
				<ellipse transform="matrix(0.517 -0.856 0.856 0.517 -317.5903 -349.7427)" class="st4" cx="-468.7" cy="106.5" rx="31.9" ry="31.9"/>
			
				<ellipse transform="matrix(0.517 -0.856 0.856 0.517 536.7281 -24.4025)" class="st4" cx="246.7" cy="-487.8" rx="161.9" ry="161.9"/>
			
				<ellipse transform="matrix(0.517 -0.856 0.856 0.517 -445.5196 886.7833)" class="st4" cx="563" cy="838.2" rx="111.7" ry="111.7"/>
			
				<ellipse transform="matrix(0.517 -0.856 0.856 0.517 -361.9243 -115.7383)" class="st4" cx="-283.5" cy="262.8" rx="128.1" ry="128.1"/>
			
				<ellipse transform="matrix(0.517 -0.856 0.856 0.517 -319.3903 677.4325)" class="st4" cx="440.6" cy="621.7" rx="48.8" ry="48.8"/>
			<ellipse transform="matrix(0.517 -0.856 0.856 0.517 -130.4094 17.1233)" class="st4" cx="-50" cy="124.1" rx="51.9" ry="51.9"/>
			
				<ellipse transform="matrix(0.517 -0.856 0.856 0.517 -127.6539 -227.1647)" class="st4" cx="-265.1" cy="-0.5" rx="59.4" ry="59.4"/>
			
				<ellipse transform="matrix(0.517 -0.856 0.856 0.517 15.2649 -87.9503)" class="st4" cx="-70.3" cy="-57.5" rx="56.3" ry="56.3"/>
			<ellipse transform="matrix(0.517 -0.856 0.856 0.517 -25.56 21.934)" class="st4" cx="6.7" cy="33.6" rx="35" ry="35"/>
			
				<ellipse transform="matrix(0.517 -0.856 0.856 0.517 -122.2693 -106.9395)" class="st4" cx="-155.9" cy="54.9" rx="31.9" ry="31.9"/>
			
				<ellipse transform="matrix(0.517 -0.856 0.856 0.517 -40.2025 -344.5849)" class="st4" cx="-325.4" cy="-136.7" rx="47.2" ry="47.2"/>
			
				<ellipse transform="matrix(0.517 -0.856 0.856 0.517 -320.6884 -547.8998)" class="st4" cx="-645.8" cy="10.2" rx="62.4" ry="62.4"/>
			<ellipse transform="matrix(0.517 -0.856 0.856 0.517 -280.6248 -634.9975)" class="st4" cx="-703" cy="-68.8" rx="61" ry="61"/>
			<ellipse transform="matrix(0.517 -0.856 0.856 0.517 -293.7 -447.952)" class="st4" cx="-543.8" cy="36.3" rx="53.3" ry="53.3"/>
			
				<ellipse transform="matrix(0.517 -0.856 0.856 0.517 -507.8955 -349.3091)" class="st4" cx="-563.5" cy="275.4" rx="53.3" ry="53.3"/>
			
				<ellipse transform="matrix(0.517 -0.856 0.856 0.517 -258.5957 91.311)" class="st4" cx="-48.4" cy="274.8" rx="50.2" ry="50.2"/>
			
				<ellipse transform="matrix(0.517 -0.856 0.856 0.517 -96.1533 783.0482)" class="st4" cx="645.8" cy="476.7" rx="42.7" ry="42.7"/>
			<ellipse transform="matrix(0.517 -0.856 0.856 0.517 -24.9453 708.7897)" class="st4" cx="615.6" cy="376.5" rx="38" ry="38"/>
			
				<ellipse transform="matrix(0.517 -0.856 0.856 0.517 -167.6227 663.9686)" class="st4" cx="504.5" cy="480.5" rx="33.6" ry="33.6"/>
			<ellipse transform="matrix(0.517 -0.856 0.856 0.517 -113.4708 1470.9279)" class="st4" cx="1246.7" cy="836" rx="38" ry="38"/>
			
				<ellipse transform="matrix(0.517 -0.856 0.856 0.517 -7.564 -228.2159)" class="st4" cx="-206" cy="-107.4" rx="27.5" ry="27.5"/>
			
				<ellipse transform="matrix(0.517 -0.856 0.856 0.517 37.3549 784.0659)" class="st4" cx="713.4" cy="358.9" rx="36.6" ry="36.6"/>
		</g>
		<g id="Calque_4_2_" class="st8">
			
				<ellipse transform="matrix(0.7301 -0.6834 0.6834 0.7301 -385.1703 522.994)" class="st7" cx="469.4" cy="749.1" rx="71.1" ry="71.1"/>
			
				<ellipse transform="matrix(0.7301 -0.6834 0.6834 0.7301 -595.9003 925.4135)" class="st7" cx="873.5" cy="1217" rx="58.1" ry="58.1"/>
			
				<ellipse transform="matrix(0.7301 -0.6834 0.6834 0.7301 -837.7108 1600.6479)" class="st7" cx="1607.3" cy="1860.7" rx="84.5" ry="84.5"/>
			
				<ellipse transform="matrix(0.7301 -0.6834 0.6834 0.7301 -336.8424 1851.7944)" class="st7" cx="2175.6" cy="1352.3" rx="113.4" ry="113.4"/>
			
				<ellipse transform="matrix(0.7301 -0.6834 0.6834 0.7301 362.7248 874.2938)" class="st7" cx="1288.1" cy="-22" rx="127.9" ry="127.9"/>
			
				<ellipse transform="matrix(0.7301 -0.6834 0.6834 0.7301 478.5284 347.2635)" class="st7" cx="678.8" cy="-432.1" rx="132.6" ry="132.6"/>
			
				<ellipse transform="matrix(0.7301 -0.6834 0.6834 0.7301 -35.3086 1278.0317)" class="st7" cx="1600.1" cy="683.7" rx="113.7" ry="113.7"/>
			
				<ellipse transform="matrix(0.7301 -0.6834 0.6834 0.7301 143.5661 1221.6698)" class="st7" cx="1618.2" cy="429.1" rx="66.4" ry="66.4"/>
			
				<ellipse transform="matrix(0.7301 -0.6834 0.6834 0.7301 56.9395 996.8148)" class="st7" cx="1290.3" cy="426.3" rx="50.2" ry="50.2"/>
			
				<ellipse transform="matrix(0.7301 -0.6834 0.6834 0.7301 294.8648 1066.8247)" class="st7" cx="1497.9" cy="160.2" rx="131.2" ry="131.2"/>
			
				<ellipse transform="matrix(0.7301 -0.6834 0.6834 0.7301 -35.1706 1063.7644)" class="st7" cx="1329" cy="576.4" rx="45.8" ry="45.8"/>
			
				<ellipse transform="matrix(0.7301 -0.6834 0.6834 0.7301 -505.5025 651.7662)" class="st7" cx="572.3" cy="965.8" rx="64.5" ry="64.5"/>
			
				<ellipse transform="matrix(0.7301 -0.6834 0.6834 0.7301 -539.1742 806.6154)" class="st7" cx="751.5" cy="1085.8" rx="49.5" ry="49.5"/>
			
				<ellipse transform="matrix(0.7301 -0.6834 0.6834 0.7301 -209.0453 198.0925)" class="st7" cx="146.2" cy="363.7" rx="126.6" ry="126.6"/>
			
				<ellipse transform="matrix(0.7301 -0.6834 0.6834 0.7301 -493.7618 1216.8756)" class="st7" cx="1293.5" cy="1233.5" rx="82.5" ry="82.5"/>
			
				<ellipse transform="matrix(0.7301 -0.6834 0.6834 0.7301 -380.3033 853.9946)" class="st7" cx="890.9" cy="908.4" rx="71.8" ry="71.8"/>
			
				<ellipse transform="matrix(0.7301 -0.6834 0.6834 0.7301 -225.3302 587.6978)" class="st7" cx="631.3" cy="579.1" rx="55.9" ry="55.9"/>
			
				<ellipse transform="matrix(0.7301 -0.6834 0.6834 0.7301 129.6574 -68.5131)" class="st7" cx="-21.9" cy="-198.4" rx="144.9" ry="144.9"/>
			
				<ellipse transform="matrix(0.7301 -0.6834 0.6834 0.7301 336.7533 29.5095)" class="st7" cx="205.7" cy="-411.5" rx="97" ry="97"/>
			
				<ellipse transform="matrix(0.7301 -0.6834 0.6834 0.7301 256.1229 297.6465)" class="st7" cx="504.8" cy="-175.4" rx="107.3" ry="107.3"/>
			
				<ellipse transform="matrix(0.7301 -0.6834 0.6834 0.7301 316.8435 608.576)" class="st7" cx="928.8" cy="-96.8" rx="78.7" ry="78.7"/>
			
				<ellipse transform="matrix(0.7301 -0.6834 0.6834 0.7301 434.8474 642.1995)" class="st7" cx="1030.3" cy="-229.3" rx="65" ry="65"/>
			
				<ellipse transform="matrix(0.7301 -0.6834 0.6834 0.7301 -462.0417 1785.0814)" class="st7" cx="2028.6" cy="1477.4" rx="41.1" ry="41.1"/>
		</g>
		<g id="Calque_5_2_" class="st8">
			
				<ellipse transform="matrix(0.7301 -0.6834 0.6834 0.7301 -723.7933 1721.8927)" class="st2" cx="1817.7" cy="1777.1" rx="58.1" ry="58.1"/>
			
				<ellipse transform="matrix(0.7301 -0.6834 0.6834 0.7301 -663.2034 1611.4447)" class="st2" cx="1708.2" cy="1645.2" rx="45.7" ry="45.7"/>
			
				<ellipse transform="matrix(0.7301 -0.6834 0.6834 0.7301 -471.1444 1517.6527)" class="st2" cx="1685.5" cy="1355.2" rx="50.2" ry="50.2"/>
			
				<ellipse transform="matrix(0.7301 -0.6834 0.6834 0.7301 -216.1291 1751.5664)" class="st2" cx="2109.1" cy="1149.4" rx="41.1" ry="41.1"/>
			
				<ellipse transform="matrix(0.7301 -0.6834 0.6834 0.7301 -128.3213 485.4512)" class="st2" cx="550.3" cy="405.2" rx="62.7" ry="62.7"/>
			
				<ellipse transform="matrix(0.7301 -0.6834 0.6834 0.7301 -68.7098 265.9149)" class="st2" cx="302.2" cy="219.9" rx="66.2" ry="66.2"/>
			
				<ellipse transform="matrix(0.7301 -0.6834 0.6834 0.7301 -61.7342 70.5319)" class="st2" cx="58.4" cy="113.4" rx="111.9" ry="111.9"/>
			<ellipse transform="matrix(0.7301 -0.6834 0.6834 0.7301 73.9879 362.161)" class="st2" cx="495.4" cy="87.4" rx="97" ry="97"/>
			
				<ellipse transform="matrix(0.7301 -0.6834 0.6834 0.7301 192.6501 452.7379)" class="st2" cx="669.4" cy="-17.5" rx="85.2" ry="85.2"/>
			
				<ellipse transform="matrix(0.7301 -0.6834 0.6834 0.7301 -54.2543 574.3624)" class="st2" cx="699.9" cy="355.9" rx="44.3" ry="44.3"/>
			
				<ellipse transform="matrix(0.7301 -0.6834 0.6834 0.7301 -152.1368 785.0233)" class="st2" cx="917.6" cy="585.1" rx="45.7" ry="45.7"/>
			
				<ellipse transform="matrix(0.7301 -0.6834 0.6834 0.7301 -51.7332 710.2137)" class="st2" cx="873.1" cy="420.6" rx="102.7" ry="102.7"/>
			
				<ellipse transform="matrix(0.7301 -0.6834 0.6834 0.7301 -201.2283 1261.0562)" class="st2" cx="1495.7" cy="885.2" rx="120.1" ry="120.1"/>
			
				<ellipse transform="matrix(0.7301 -0.6834 0.6834 0.7301 -359.3831 1271.6478)" class="st2" cx="1430" cy="1090.7" rx="117.5" ry="117.5"/>
			
				<ellipse transform="matrix(0.7301 -0.6834 0.6834 0.7301 -442.1606 1070.0946)" class="st2" cx="1133.5" cy="1094.7" rx="61.6" ry="61.6"/>
			
				<ellipse transform="matrix(0.7301 -0.6834 0.6834 0.7301 730.9865 435.5961)" class="st2" cx="916.9" cy="-707.5" rx="166.5" ry="166.5"/>
			
				<ellipse transform="matrix(0.7301 -0.6834 0.6834 0.7301 153.3641 94.5249)" class="st2" cx="196.3" cy="-146.9" rx="109.1" ry="109.1"/>
			
				<ellipse transform="matrix(0.7301 -0.6834 0.6834 0.7301 -335.797 382.6097)" class="st2" cx="316.4" cy="616.4" rx="60.6" ry="60.6"/>
			
				<ellipse transform="matrix(0.7301 -0.6834 0.6834 0.7301 164.3993 573.0366)" class="st2" cx="807.6" cy="78.4" rx="32" ry="32"/>
			
				<ellipse transform="matrix(0.7301 -0.6834 0.6834 0.7301 53.3006 623.3986)" class="st2" cx="815.8" cy="244.2" rx="42" ry="42"/>
			
				<ellipse transform="matrix(0.7301 -0.6834 0.6834 0.7301 305.7583 233.5052)" class="st2" cx="448.5" cy="-270.3" rx="40.3" ry="40.3"/>
			
				<ellipse transform="matrix(0.7301 -0.6834 0.6834 0.7301 -597.2653 1545.1002)" class="st2" cx="1657.2" cy="1528.6" rx="42.2" ry="42.2"/>
			
				<ellipse transform="matrix(0.7301 -0.6834 0.6834 0.7301 -450.5108 1675.8462)" class="st2" cx="1896.1" cy="1408.2" rx="32" ry="32"/>
			
				<ellipse transform="matrix(0.7301 -0.6834 0.6834 0.7301 -499.0339 1584.2751)" class="st2" cx="1755.9" cy="1423.8" rx="32" ry="32"/>
			
				<ellipse transform="matrix(0.7301 -0.6834 0.6834 0.7301 -178.1201 1692.616)" class="st2" cx="2053.5" cy="1071.8" rx="21.6" ry="21.6"/>
			
				<ellipse transform="matrix(0.7301 -0.6834 0.6834 0.7301 -389.64 1482.9117)" class="st2" cx="1682.3" cy="1234.7" rx="65" ry="65"/>
		</g>
	</g>
	<g id="Calque_2" class="st0">
		<g id="Calque_7_1_" class="st9">
			<circle class="st2" cx="-634.1" cy="126.2" r="66.7"/>
			<circle class="st2" cx="-438" cy="138.1" r="52.4"/>
			<circle class="st3" cx="-177.7" cy="345.9" r="57.5"/>
			<circle class="st2" cx="-337.2" cy="861" r="47"/>
			<circle class="st3" cx="1504.8" cy="140.7" r="71.8"/>
			<circle class="st3" cx="1853.8" cy="78" r="75.8"/>
			<circle class="st3" cx="2133.6" cy="-42.4" r="128.2"/>
			<circle class="st3" cx="1813.3" cy="343.3" r="111.1"/>
			<circle class="st3" cx="1764.9" cy="570.7" r="97.6"/>
			<circle class="st3" cx="1429" cy="304" r="50.7"/>
			<circle class="st3" cx="1066.8" cy="306.6" r="52.4"/>
			<circle class="st3" cx="1239.3" cy="398.2" r="117.7"/>
			<circle class="st3" cx="363.4" cy="555" r="137.5"/>
			<circle class="st3" cx="243.2" cy="339.3" r="134.6"/>
			<circle class="st3" cx="472" cy="88.3" r="70.6"/>
			<circle class="st3" cx="2147.9" cy="1317.5" r="190.6"/>
			<circle class="st3" cx="2243.4" cy="276.6" r="125"/>
			<circle class="st3" cx="1511.3" cy="-220.2" r="69.3"/>
			<circle class="st3" cx="1576.6" cy="611.4" r="36.5"/>
			<circle class="st3" cx="1431.6" cy="488.4" r="48.1"/>
			<circle class="st3" cx="2149.3" cy="583.8" r="46.3"/>
			<circle class="st2" cx="-300.7" cy="186.4" r="48.4"/>
			<circle class="st2" cx="-387" cy="480.6" r="36.5"/>
			<circle class="st2" cx="-290.2" cy="351.1" r="36.5"/>
			<circle class="st2" cx="-228.7" cy="875.3" r="24.8"/>
			<circle class="st3" cx="-74.5" cy="437.4" r="74.6"/>
		</g>
		<g id="Calque_3_1_" class="st9">
			<path class="st4" d="M311,151.8c-19.7-11.5-42.9-7.3-58.1,3.7c-18.1,13.1-21.3,33.1-21.6,35.7c-0.4,3.1-3.1,24.3,11.6,41.1
				c15.9,18.1,44.8,23.1,66.5,10.8c15.5-8.6,27.2-25.8,27.2-45.7C336.7,179.3,327.2,161.4,311,151.8z"/>
			
				<ellipse transform="matrix(0.9624 -0.2716 0.2716 0.9624 -31.1559 135.9346)" class="st4" cx="475.5" cy="180.5" rx="36.6" ry="36.6"/>
			
				<ellipse transform="matrix(0.9624 -0.2716 0.2716 0.9624 65.978 243.7583)" class="st4" cx="913.6" cy="-116.5" rx="58.4" ry="58.4"/>
			
				<ellipse transform="matrix(0.9624 -0.2716 0.2716 0.9624 19.3455 259.6238)" class="st4" cx="947.6" cy="59.9" rx="49.8" ry="49.8"/>
			
				<ellipse transform="matrix(0.9624 -0.2716 0.2716 0.9624 27.0706 418.4353)" class="st4" cx="1525.2" cy="111.4" rx="40.7" ry="40.7"/>
			
				<ellipse transform="matrix(0.9624 -0.2716 0.2716 0.9624 0.909 422.6103)" class="st4" cx="1527.2" cy="208" rx="44.1" ry="44.1"/>
			
				<ellipse transform="matrix(0.9624 -0.2716 0.2716 0.9624 3.6579 322.4702)" class="st4" cx="1166.8" cy="148" rx="55.3" ry="55.3"/>
			
				<ellipse transform="matrix(0.9624 -0.2716 0.2716 0.9624 -79.0776 238.4796)" class="st4" cx="822" cy="404.9" rx="67.1" ry="67.1"/>
			
				<ellipse transform="matrix(0.9624 -0.2716 0.2716 0.9624 -243.6933 7.189621e-02)" class="st4" cx="-121.6" cy="880.4" rx="166.8" ry="166.8"/>
			
				<ellipse transform="matrix(0.9624 -0.2716 0.2716 0.9624 -112.8308 -112.5956)" class="st4" cx="-463.2" cy="351.3" rx="125.3" ry="125.3"/>
			
				<ellipse transform="matrix(0.9624 -0.2716 0.2716 0.9624 -65.924 -87.4769)" class="st4" cx="-349" cy="194.4" rx="110.6" ry="110.6"/>
			
				<ellipse transform="matrix(0.9624 -0.2716 0.2716 0.9624 -110.7642 -167.6607)" class="st4" cx="-661.1" cy="316.3" rx="85.4" ry="85.4"/>
			
				<ellipse transform="matrix(0.9624 -0.2716 0.2716 0.9624 29.6796 108.6924)" class="st4" cx="407.5" cy="-52.9" rx="139.7" ry="139.7"/>
			
				<ellipse transform="matrix(0.9624 -0.2716 0.2716 0.9624 -81.0984 53.0799)" class="st4" cx="151.2" cy="319.5" rx="120" ry="120"/>
			
				<ellipse transform="matrix(0.9624 -0.2716 0.2716 0.9624 -33.3691 42.5434)" class="st4" cx="137" cy="141.8" rx="102.3" ry="102.3"/>
			
				<ellipse transform="matrix(0.9624 -0.2716 0.2716 0.9624 -31.9253 170.974)" class="st4" cx="601.7" cy="200.8" rx="166.2" ry="166.2"/>
			
				<ellipse transform="matrix(0.9624 -0.2716 0.2716 0.9624 -53.2673 129.1687)" class="st4" cx="440" cy="257" rx="90.1" ry="90.1"/>
			<g id="XMLID_2_" class="st5">
				<g>
					
						<ellipse transform="matrix(0.9624 -0.2716 0.2716 0.9624 -172.6168 168.0251)" class="st6" cx="520.7" cy="707.6" rx="115.9" ry="115.9"/>
				</g>
			</g>
			
				<ellipse transform="matrix(0.9624 -0.2716 0.2716 0.9624 -300.6747 -48.039)" class="st4" cx="-323.9" cy="1062.2" rx="46.8" ry="46.8"/>
			
				<ellipse transform="matrix(0.9624 -0.2716 0.2716 0.9624 -328.271 -55.4302)" class="st4" cx="-364.4" cy="1158.2" rx="47.8" ry="47.8"/>
			
				<ellipse transform="matrix(0.9624 -0.2716 0.2716 0.9624 -328.8961 -111.1466)" class="st4" cx="-566" cy="1132.6" rx="52.9" ry="52.9"/>
			
				<ellipse transform="matrix(0.9624 -0.2716 0.2716 0.9624 -278.2719 -95.5664)" class="st4" cx="-484.4" cy="957.5" rx="52.9" ry="52.9"/>
			
				<ellipse transform="matrix(0.9624 -0.2716 0.2716 0.9624 -35.1936 547.3514)" class="st4" cx="1959.8" cy="400.8" rx="50.4" ry="50.4"/>
			
				<ellipse transform="matrix(0.9624 -0.2716 0.2716 0.9624 118.7881 422.1283)" class="st4" cx="1584.4" cy="-218.1" rx="156.8" ry="156.8"/>
			
				<ellipse transform="matrix(0.9624 -0.2716 0.2716 0.9624 217.3209 522.0634)" class="st4" cx="1994.7" cy="-524.1" rx="73.8" ry="73.8"/>
			
				<ellipse transform="matrix(0.9624 -0.2716 0.2716 0.9624 -146.6105 66.1331)" class="st4" cx="165.6" cy="562.7" rx="67.7" ry="67.7"/>
			
				<ellipse transform="matrix(0.9624 -0.2716 0.2716 0.9624 -187.3459 70.8023)" class="st4" cx="162.1" cy="712.2" rx="54.9" ry="54.9"/>
			
				<ellipse transform="matrix(0.9624 -0.2716 0.2716 0.9624 -236.9344 79.9075)" class="st4" cx="170.2" cy="895.9" rx="61" ry="61"/>
			
				<ellipse transform="matrix(0.9624 -0.2716 0.2716 0.9624 -211.2507 124.6826)" class="st4" cx="344.8" cy="825.5" rx="44.7" ry="44.7"/>
			
				<ellipse transform="matrix(0.9624 -0.2716 0.2716 0.9624 -120.1799 189.4996)" class="st4" cx="624.5" cy="528.9" rx="59.6" ry="59.6"/>
			
				<ellipse transform="matrix(0.9624 -0.2716 0.2716 0.9624 -128.2488 119.2013)" class="st4" cx="366.5" cy="522.9" rx="61" ry="61"/>
			
				<ellipse transform="matrix(0.9624 -0.2716 0.2716 0.9624 -152.3174 -11.3014)" class="st4" cx="-117" cy="544.6" rx="60.2" ry="60.2"/>
			<ellipse transform="matrix(0.9624 -0.2716 0.2716 0.9624 -180.4227 2.8299)" class="st4" cx="-80" cy="653.2" rx="38" ry="38"/>
			
				<ellipse transform="matrix(0.9624 -0.2716 0.2716 0.9624 -126.0291 36.241)" class="st4" cx="67.9" cy="473.4" rx="28.5" ry="28.5"/>
			
				<ellipse transform="matrix(0.9624 -0.2716 0.2716 0.9624 -84.7172 3.5347)" class="st4" cx="-29.6" cy="307.8" rx="45.1" ry="45.1"/>
			
				<ellipse transform="matrix(0.9624 -0.2716 0.2716 0.9624 -48.1278 0.9064)" class="st4" cx="-20.8" cy="174.3" rx="43.3" ry="43.3"/>
			
				<ellipse transform="matrix(0.9624 -0.2716 0.2716 0.9624 -165.279 335.4435)" class="st4" cx="1129.2" cy="764.8" rx="92.1" ry="92.1"/>
			
				<ellipse transform="matrix(0.9624 -0.2716 0.2716 0.9624 -212.9719 250.6445)" class="st4" cx="799" cy="894.7" rx="122.6" ry="122.6"/>
			
				<ellipse transform="matrix(0.9624 -0.2716 0.2716 0.9624 -174.2727 255.0593)" class="st4" cx="834.3" cy="757.1" rx="71.4" ry="71.4"/>
			
				<ellipse transform="matrix(0.9624 -0.2716 0.2716 0.9624 -180.1835 354.7515)" class="st4" cx="1191.5" cy="828.3" rx="158" ry="158"/>
			
				<ellipse transform="matrix(0.9624 -0.2716 0.2716 0.9624 -123.5868 280.4855)" class="st4" cx="951.5" cy="586.7" rx="61.6" ry="61.6"/>
			
				<ellipse transform="matrix(0.9624 -0.2716 0.2716 0.9624 -130.6304 258.7904)" class="st4" cx="869.6" cy="601.3" rx="49.4" ry="49.4"/>
			
				<ellipse transform="matrix(0.9624 -0.2716 0.2716 0.9624 -95.0254 355.4489)" class="st4" cx="1236.6" cy="521" rx="58.4" ry="58.4"/>
			
				<ellipse transform="matrix(0.9624 -0.2716 0.2716 0.9624 -111.3291 367.4487)" class="st4" cx="1271.8" cy="585.9" rx="54.3" ry="54.3"/>
			
				<ellipse transform="matrix(0.9624 -0.2716 0.2716 0.9624 -72.6276 390.8802)" class="st4" cx="1375.8" cy="457.8" rx="49.4" ry="49.4"/>
			
				<ellipse transform="matrix(0.9624 -0.2716 0.2716 0.9624 -65.4022 304.4863)" class="st4" cx="1067.3" cy="388.5" rx="68.5" ry="68.5"/>
			
				<ellipse transform="matrix(0.9624 -0.2716 0.2716 0.9624 -7.0953 278.1752)" class="st4" cx="1001.4" cy="164.7" rx="54.9" ry="54.9"/>
			
				<ellipse transform="matrix(0.9624 -0.2716 0.2716 0.9624 -33.2215 287.604)" class="st4" cx="1022.4" cy="263.8" rx="29.1" ry="29.1"/>
			
				<ellipse transform="matrix(0.9624 -0.2716 0.2716 0.9624 -83.2773 185.3334)" class="st4" cx="627.9" cy="393.5" rx="22.2" ry="22.2"/>
			
				<ellipse transform="matrix(0.9624 -0.2716 0.2716 0.9624 -108.6201 113.0243)" class="st4" cx="354" cy="448.9" rx="37.8" ry="37.8"/>
			
				<ellipse transform="matrix(0.9624 -0.2716 0.2716 0.9624 -120.2175 98.6303)" class="st4" cx="296.2" cy="483.6" rx="55.7" ry="55.7"/>
			
				<ellipse transform="matrix(0.9624 -0.2716 0.2716 0.9624 -138.3556 91.9786)" class="st4" cx="263.1" cy="545.8" rx="46.8" ry="46.8"/>
			
				<ellipse transform="matrix(0.9624 -0.2716 0.2716 0.9624 -153.7809 100.9231)" class="st4" cx="287.7" cy="606" rx="36.8" ry="36.8"/>
			
				<ellipse transform="matrix(0.9624 -0.2716 0.2716 0.9624 -118.508 149.3809)" class="st4" cx="480.4" cy="502.8" rx="36.6" ry="36.6"/>
			
				<ellipse transform="matrix(0.9624 -0.2716 0.2716 0.9624 -87.3239 89.8982)" class="st4" cx="281.1" cy="360.4" rx="28.5" ry="28.5"/>
			
				<ellipse transform="matrix(0.9624 -0.2716 0.2716 0.9624 -113.2736 70.4044)" class="st4" cx="197.7" cy="444.4" rx="31.9" ry="31.9"/>
			
				<ellipse transform="matrix(0.9624 -0.2716 0.2716 0.9624 -147.4907 27.9729)" class="st4" cx="27.3" cy="546.8" rx="40.1" ry="40.1"/>
			
				<ellipse transform="matrix(0.9624 -0.2716 0.2716 0.9624 -174.9974 39.2262)" class="st4" cx="54.2" cy="651.8" rx="31.9" ry="31.9"/>
			
				<ellipse transform="matrix(0.9624 -0.2716 0.2716 0.9624 -127.1033 20.2799)" class="st4" cx="9.7" cy="469.3" rx="19.7" ry="19.7"/>
			
				<ellipse transform="matrix(0.9624 -0.2716 0.2716 0.9624 -114.8104 1.4997)" class="st4" cx="-52" cy="415.5" rx="20.3" ry="20.3"/>
			
				<ellipse transform="matrix(0.9624 -0.2716 0.2716 0.9624 155.6015 559.9189)" class="st4" cx="2100.6" cy="-282.2" rx="50.2" ry="50.2"/>
			
				<ellipse transform="matrix(0.9624 -0.2716 0.2716 0.9624 170.3326 594.5563)" class="st4" cx="2233.1" cy="-318.1" rx="31.9" ry="31.9"/>
			
				<ellipse transform="matrix(0.9624 -0.2716 0.2716 0.9624 -83.888 614.5172)" class="st4" cx="2178.1" cy="610.3" rx="161.9" ry="161.9"/>
			
				<ellipse transform="matrix(0.9624 -0.2716 0.2716 0.9624 55.009 267.5039)" class="st4" cx="993.9" cy="-65" rx="111.7" ry="111.7"/>
			
				<ellipse transform="matrix(0.9624 -0.2716 0.2716 0.9624 153.5712 530.2498)" class="st4" cx="1992.4" cy="-289.7" rx="128.1" ry="128.1"/>
			
				<ellipse transform="matrix(0.9624 -0.2716 0.2716 0.9624 48.1751 335.3253)" class="st4" cx="1235.5" cy="-6.4" rx="48.8" ry="48.8"/>
			
				<ellipse transform="matrix(0.9624 -0.2716 0.2716 0.9624 79.3513 524.3843)" class="st4" cx="1934.1" cy="-24.5" rx="51.9" ry="51.9"/>
			
				<ellipse transform="matrix(0.9624 -0.2716 0.2716 0.9624 107.7953 586.2988)" class="st4" cx="2172" cy="-96.3" rx="59.4" ry="59.4"/>
			
				<ellipse transform="matrix(0.9624 -0.2716 0.2716 0.9624 55.1691 568.2552)" class="st4" cx="2080.5" cy="84.8" rx="56.3" ry="56.3"/>
			
				<ellipse transform="matrix(0.9624 -0.2716 0.2716 0.9624 52.3524 535.7054)" class="st4" cx="1961.5" cy="78.7" rx="35" ry="35"/>
			
				<ellipse transform="matrix(0.9624 -0.2716 0.2716 0.9624 92.096 556.6674)" class="st4" cx="2057.1" cy="-54.4" rx="31.9" ry="31.9"/>
			
				<ellipse transform="matrix(0.9624 -0.2716 0.2716 0.9624 99.7757 626.3552)" class="st4" cx="2312.7" cy="-47.3" rx="47.2" ry="47.2"/>
			
				<ellipse transform="matrix(0.9624 -0.2716 0.2716 0.9624 194.7669 644.0989)" class="st4" cx="2424.3" cy="-381.6" rx="62.4" ry="62.4"/>
			
				<ellipse transform="matrix(0.9624 -0.2716 0.2716 0.9624 195.0415 670.883)" class="st4" cx="2521.2" cy="-369.2" rx="61" ry="61"/>
			
				<ellipse transform="matrix(0.9624 -0.2716 0.2716 0.9624 176.0367 622.1666)" class="st4" cx="2335.7" cy="-324.9" rx="53.3" ry="53.3"/>
			
				<ellipse transform="matrix(0.9624 -0.2716 0.2716 0.9624 218.2983 571.7247)" class="st4" cx="2174.6" cy="-502.8" rx="53.3" ry="53.3"/>
			
				<ellipse transform="matrix(0.9624 -0.2716 0.2716 0.9624 102.8206 490.3557)" class="st4" cx="1822.9" cy="-126.3" rx="50.2" ry="50.2"/>
			
				<ellipse transform="matrix(0.9624 -0.2716 0.2716 0.9624 -20.7464 335.3417)" class="st4" cx="1201.1" cy="242.6" rx="42.7" ry="42.7"/>
			<ellipse transform="matrix(0.9624 -0.2716 0.2716 0.9624 -29.8192 362.5894)" class="st4" cx="1295" cy="289" rx="38" ry="38"/>
			
				<ellipse transform="matrix(0.9624 -0.2716 0.2716 0.9624 11.515 356.8412)" class="st4" cx="1294.9" cy="136.8" rx="33.6" ry="33.6"/>
			
				<ellipse transform="matrix(0.9624 -0.2716 0.2716 0.9624 -98.4594 159.8373)" class="st4" cx="528.2" cy="435.6" rx="38" ry="38"/>
			
				<ellipse transform="matrix(0.9624 -0.2716 0.2716 0.9624 77.6796 600.9028)" class="st4" cx="2209.7" cy="19.8" rx="27.5" ry="27.5"/>
			
				<ellipse transform="matrix(0.9624 -0.2716 0.2716 0.9624 -54.5277 351.0618)" class="st4" cx="1241" cy="372.5" rx="36.6" ry="36.6"/>
		</g>
		<g id="Calque_4_1_" class="st9">
			<circle class="st7" cx="1171.1" cy="-43.4" r="71.1"/>
			<circle class="st7" cx="553.6" cy="-68.4" r="58.1"/>
			<circle class="st7" cx="-417.9" cy="27.3" r="84.5"/>
			<circle class="st7" cx="-435.1" cy="789.7" r="113.4"/>
			<circle class="st7" cx="1174.6" cy="1081" r="127.9"/>
			<circle class="st7" cx="1890.4" cy="916.6" r="132.6"/>
			<circle class="st7" cx="446.2" cy="826.5" r="113.7"/>
			<circle class="st7" cx="619.8" cy="1013.7" r="66.4"/>
			<circle class="st7" cx="845.8" cy="776.3" r="50.2"/>
			<circle class="st7" cx="898.3" cy="1109.6" r="131.2"/>
			<circle class="st7" cx="709.9" cy="702" r="45.8"/>
			<circle class="st7" cx="942.8" cy="-116.5" r="64.5"/>
			<circle class="st7" cx="732.7" cy="-67.8" r="49.5"/>
			<circle class="st7" cx="1673.4" cy="-16" r="126.6"/>
			<circle class="st7" cx="254.4" cy="227.1" r="82.5"/>
			<circle class="st7" cx="767" cy="155.2" r="71.8"/>
			<circle class="st7" cx="1184.8" cy="190.7" r="55.9"/>
			<circle class="st7" cx="2198.6" cy="245.3" r="144.9"/>
			<circle class="st7" cx="2198.6" cy="557.1" r="97"/>
			<circle class="st7" cx="1821.9" cy="614.2" r="107.3"/>
			<circle class="st7" cx="1474.8" cy="869.9" r="78.7"/>
			<circle class="st7" cx="1502.2" cy="1034.6" r="65"/>
			<circle class="st7" cx="-426" cy="597" r="41.1"/>
		</g>
		<g id="Calque_5_1_" class="st9">
			<circle class="st2" cx="-500.6" cy="238.2" r="58.1"/>
			<circle class="st2" cx="-329.5" cy="248.4" r="45.7"/>
			<circle class="st2" cx="-102.3" cy="430" r="50.2"/>
			<circle class="st2" cx="-241.5" cy="879.8" r="41.1"/>
			<circle class="st2" cx="1367" cy="250.7" r="62.7"/>
			<circle class="st2" cx="1671.7" cy="196" r="66.2"/>
			<circle class="st2" cx="1916" cy="90.8" r="111.9"/>
			<circle class="st2" cx="1636.4" cy="427.7" r="97"/>
			<circle class="st2" cx="1594.1" cy="626.3" r="85.2"/>
			<circle class="st2" cx="1300.7" cy="393.5" r="44.3"/>
			<circle class="st2" cx="984.6" cy="395.7" r="45.7"/>
			<circle class="st2" cx="1135.1" cy="475.6" r="102.7"/>
			<circle class="st2" cx="370.4" cy="612.6" r="120.1"/>
			<circle class="st2" cx="265.3" cy="424.2" r="117.5"/>
			<circle class="st2" cx="465.1" cy="205" r="61.6"/>
			<circle class="st2" cx="1928.7" cy="1278.5" r="166.5"/>
			<circle class="st2" cx="2011.9" cy="369.4" r="109.1"/>
			<circle class="st2" cx="1372.6" cy="-64.4" r="60.6"/>
			<circle class="st2" cx="1429.7" cy="661.7" r="32"/>
			<circle class="st2" cx="1303" cy="554.3" r="42"/>
			<circle class="st2" cx="1929.7" cy="637.8" r="40.3"/>
			<circle class="st2" cx="-209.6" cy="290.7" r="42.2"/>
			<circle class="st2" cx="-284.9" cy="547.5" r="32"/>
			<circle class="st2" cx="-200.4" cy="434.5" r="32"/>
			<circle class="st2" cx="-146.9" cy="892.3" r="21.6"/>
			<circle class="st2" cx="-12.1" cy="509.9" r="65"/>
		</g>
	</g>
	<g id="Calque_1_1_">
		<g id="Calque_7">
			<circle class="st2" cx="167.4" cy="118.1" r="43.8"/>
			<circle class="st2" cx="296.2" cy="125.9" r="34.4"/>
			<circle class="st3" cx="467.2" cy="262.4" r="37.8"/>
			<circle class="st2" cx="362.4" cy="600.8" r="30.9"/>
			<circle class="st3" cx="733.5" cy="238.8" r="47.2"/>
			<circle class="st3" cx="962.8" cy="197.6" r="49.8"/>
			<circle class="st3" cx="1146.6" cy="118.5" r="84.2"/>
			<circle class="st3" cx="936.2" cy="371.9" r="73"/>
			<circle class="st3" cx="904.4" cy="521.3" r="64.1"/>
			<circle class="st3" cx="683.7" cy="346.1" r="33.3"/>
			<circle class="st3" cx="445.8" cy="347.8" r="34.4"/>
			<circle class="st3" cx="559.1" cy="408" r="77.3"/>
			<circle class="st3" cx="-16.3" cy="511" r="90.3"/>
			<circle class="st3" cx="207.5" cy="307.3" r="88.4"/>
			<circle class="st3" cx="55" cy="204.4" r="46.4"/>
			<circle class="st3" cx="1204.8" cy="823.1" r="79.1"/>
			<circle class="st3" cx="1218.7" cy="328.1" r="82.1"/>
			<circle class="st3" cx="692.3" cy="56.5" r="45.5"/>
			<circle class="st3" cx="780.7" cy="548" r="24"/>
			<circle class="st3" cx="685.4" cy="467.2" r="31.6"/>
			<circle class="st3" cx="1156.9" cy="529.9" r="30.4"/>
			<circle class="st2" cx="386.4" cy="157.6" r="31.8"/>
			<circle class="st2" cx="329.7" cy="350.9" r="24"/>
			<circle class="st2" cx="393.3" cy="265.8" r="24"/>
			<circle class="st2" cx="433.7" cy="610.2" r="16.3"/>
			<circle class="st3" cx="554" cy="330.9" r="49"/>
		</g>
		<g id="Calque_3">
			<path class="st4" d="M717.5,391.3c-7.8-8.1-19.3-9.2-28-6c-10.3,3.8-14.5,12.8-15,14c-0.6,1.4-4.7,11.1,0,21
				c5.1,10.7,18.1,16.9,30,14c8.5-2,16.3-8.6,19-18C726,407.7,723.9,398,717.5,391.3z"/>
			<circle class="st4" cx="791.5" cy="426.8" r="18"/>
			<circle class="st4" cx="1038.5" cy="344.8" r="28.7"/>
			<circle class="st4" cx="1031" cy="432.8" r="24.5"/>
			<circle class="st4" cx="1297.5" cy="534.3" r="20"/>
			<circle class="st4" cx="1285.5" cy="580.3" r="21.7"/>
			<circle class="st4" cx="1123" cy="503.8" r="27.2"/>
			<circle class="st4" cx="925.5" cy="579.3" r="33"/>
			<circle class="st4" cx="415.5" cy="678.3" r="82"/>
			<circle class="st4" cx="324.5" cy="382.3" r="61.6"/>
			<circle class="st4" cx="399.5" cy="323.3" r="54.4"/>
			<circle class="st4" cx="235.5" cy="339.3" r="42"/>
			<circle class="st4" cx="790.5" cy="307.3" r="68.7"/>
			<circle class="st4" cx="619.5" cy="449.3" r="59"/>
			<circle class="st4" cx="636.5" cy="363.3" r="50.3"/>
			<circle class="st4" cx="848.5" cy="453.3" r="81.7"/>
			<circle class="st4" cx="764.5" cy="458.3" r="44.3"/>
			<g id="XMLID_1_" class="st5">
				<g>
					<circle class="st6" cx="742.5" cy="682.3" r="57"/>
				</g>
			</g>
			<circle class="st4" cx="295.5" cy="737.3" r="23"/>
			<circle class="st4" cx="263.5" cy="777.3" r="23.5"/>
			<circle class="st4" cx="171.5" cy="738.3" r="26"/>
			<circle class="st4" cx="233.5" cy="666.3" r="26"/>
			<circle class="st4" cx="1464.5" cy="729.3" r="24.8"/>
			<circle class="st4" cx="1369.5" cy="386.3" r="77.1"/>
			<circle class="st4" cx="1604.5" cy="296.3" r="36.3"/>
			<circle class="st4" cx="593.8" cy="566.3" r="33.3"/>
			<circle class="st4" cx="572.2" cy="636.6" r="27"/>
			<circle class="st4" cx="551.5" cy="724.6" r="30"/>
			<circle class="st4" cx="643.5" cy="714.6" r="22"/>
			<circle class="st4" cx="815.5" cy="611.6" r="29.3"/>
			<circle class="st4" cx="694.2" cy="574.3" r="30"/>
			<circle class="st4" cx="462.5" cy="520" r="29.6"/>
			<circle class="st4" cx="465.5" cy="576.3" r="18.7"/>
			<circle class="st4" cx="559.5" cy="511" r="14"/>
			<circle class="st4" cx="535.5" cy="419.6" r="22.2"/>
			<circle class="st4" cx="557.5" cy="357.6" r="21.3"/>
			<circle class="st4" cx="1031" cy="754.6" r="45.3"/>
			<circle class="st4" cx="849.2" cy="808" r="60.3"/>
			<circle class="st4" cx="884.3" cy="747.6" r="35.1"/>
			<circle class="st4" cx="1044.3" cy="823.1" r="77.7"/>
			<circle class="st4" cx="962.5" cy="682.6" r="30.3"/>
			<circle class="st4" cx="921.8" cy="678.6" r="24.3"/>
			<circle class="st4" cx="1106.2" cy="689.6" r="28.7"/>
			<circle class="st4" cx="1114.2" cy="725" r="26.7"/>
			<circle class="st4" cx="1180.5" cy="678.3" r="24.3"/>
			<circle class="st4" cx="1043.8" cy="604.3" r="33.7"/>
			<circle class="st4" cx="1042.5" cy="489.6" r="27"/>
			<circle class="st4" cx="1039.2" cy="539.3" r="14.3"/>
			<circle class="st4" cx="835.2" cy="548" r="10.9"/>
			<circle class="st4" cx="698.2" cy="537.6" r="18.6"/>
			<circle class="st4" cx="666.2" cy="546.3" r="27.4"/>
			<circle class="st4" cx="642.2" cy="571.3" r="23"/>
			<circle class="st4" cx="645.8" cy="603.1" r="18.1"/>
			<circle class="st4" cx="750.8" cy="580" r="18"/>
			<circle class="st4" cx="675.5" cy="486" r="14"/>
			<circle class="st4" cx="624.8" cy="514.6" r="15.7"/>
			<circle class="st4" cx="530.5" cy="540.3" r="19.7"/>
			<circle class="st4" cx="529.2" cy="593.6" r="15.7"/>
			<circle class="st4" cx="532.5" cy="501.3" r="9.7"/>
			<circle class="st4" cx="510.5" cy="467.6" r="10"/>
			<circle class="st4" cx="1622.3" cy="424.9" r="24.7"/>
			<circle class="st4" cx="1689.8" cy="425.6" r="15.7"/>
			<circle class="st4" cx="1512.6" cy="816" r="52.3"/>
			<circle class="st4" cx="1069.6" cy="379.9" r="54.9"/>
			<circle class="st4" cx="1572.1" cy="406.9" r="63"/>
			<circle class="st4" cx="1176.1" cy="439.9" r="24"/>
			<circle class="st4" cx="1509.1" cy="524.6" r="25.5"/>
			<circle class="st4" cx="1631.3" cy="522.4" r="29.2"/>
			<circle class="st4" cx="1563.8" cy="595.9" r="27.7"/>
			<circle class="st4" cx="1508.3" cy="577.1" r="17.2"/>
			<circle class="st4" cx="1571.3" cy="526.9" r="15.7"/>
			<circle class="st4" cx="1691.3" cy="564.4" r="23.2"/>
			<circle class="st4" cx="1788.8" cy="421.1" r="30.7"/>
			<circle class="st4" cx="1833" cy="439.9" r="30"/>
			<circle class="st4" cx="1739.3" cy="436.1" r="26.2"/>
			<circle class="st4" cx="1686.8" cy="330.4" r="26.2"/>
			<circle class="st4" cx="1470.1" cy="461.6" r="24.7"/>
			<circle class="st4" cx="1126.6" cy="553.1" r="21"/>
			<circle class="st4" cx="1164.8" cy="587.6" r="18.7"/>
			<circle class="st4" cx="1185.1" cy="515.6" r="16.5"/>
			<circle class="st4" cx="782.4" cy="554.6" r="18.7"/>
			<circle class="st4" cx="1633.6" cy="582.4" r="13.5"/>
			<circle class="st4" cx="1128.1" cy="619.9" r="18"/>
		</g>
		<g id="Calque_4">
			<circle class="st7" cx="1154.3" cy="192.4" r="46.7"/>
			<circle class="st7" cx="748.6" cy="176" r="38.2"/>
			<circle class="st7" cx="110.4" cy="238.9" r="55.5"/>
			<circle class="st7" cx="99.1" cy="739.7" r="74.5"/>
			<circle class="st7" cx="1569.8" cy="793.3" r="57.3"/>
			<circle class="st7" cx="678.1" cy="763.9" r="74.7"/>
			<circle class="st7" cx="752.8" cy="835.9" r="43.6"/>
			<circle class="st7" cx="940.6" cy="730.9" r="33"/>
			<circle class="st7" cx="881.4" cy="866.8" r="22.9"/>
			<circle class="st7" cx="851.3" cy="682.1" r="30.1"/>
			<circle class="st7" cx="1004.3" cy="144.4" r="42.4"/>
			<circle class="st7" cx="866.3" cy="176.4" r="32.5"/>
			<circle class="st7" cx="1484.3" cy="210.4" r="83.2"/>
			<circle class="st7" cx="552.1" cy="370.1" r="54.2"/>
			<circle class="st7" cx="888.8" cy="322.9" r="47.2"/>
			<circle class="st7" cx="1163.3" cy="346.2" r="36.7"/>
			<circle class="st7" cx="1829.3" cy="382.1" r="95.2"/>
			<circle class="st7" cx="1829.3" cy="586.9" r="63.7"/>
			<circle class="st7" cx="1581.8" cy="624.4" r="70.5"/>
			<circle class="st7" cx="1353.8" cy="792.4" r="51.7"/>
			<circle class="st7" cx="1317.7" cy="875.5" r="31.3"/>
			<circle class="st7" cx="105.1" cy="613.1" r="27"/>
		</g>
		<g id="Calque_6">
		</g>
		<g id="Calque_5">
			<circle class="st2" cx="68.6" cy="423.4" r="38.2"/>
			<circle class="st2" cx="181" cy="430.1" r="30"/>
			<circle class="st2" cx="330.3" cy="549.4" r="33"/>
			<circle class="st2" cx="238.8" cy="844.9" r="27"/>
			<circle class="st2" cx="1295.5" cy="431.6" r="41.2"/>
			<circle class="st2" cx="1495.7" cy="395.7" r="43.5"/>
			<circle class="st2" cx="1656.2" cy="326.6" r="73.5"/>
			<circle class="st2" cx="1472.5" cy="547.9" r="63.7"/>
			<circle class="st2" cx="1444.7" cy="678.4" r="56"/>
			<circle class="st2" cx="1252" cy="525.4" r="29.1"/>
			<circle class="st2" cx="1044.3" cy="526.9" r="30"/>
			<circle class="st2" cx="1143.2" cy="579.4" r="67.5"/>
			<circle class="st2" cx="640.8" cy="669.4" r="78.9"/>
			<circle class="st2" cx="571.8" cy="545.6" r="77.2"/>
			<circle class="st2" cx="703" cy="401.6" r="40.5"/>
			<circle class="st2" cx="1719.2" cy="509.6" r="71.7"/>
			<circle class="st2" cx="1299.2" cy="224.6" r="39.8"/>
			<circle class="st2" cx="1336.7" cy="701.6" r="21"/>
			<circle class="st2" cx="1253.5" cy="631.1" r="27.6"/>
			<circle class="st2" cx="1665.2" cy="685.9" r="26.5"/>
			<circle class="st2" cx="259.8" cy="457.9" r="27.7"/>
			<circle class="st2" cx="210.3" cy="626.6" r="21"/>
			<circle class="st2" cx="265.8" cy="552.4" r="21"/>
			<circle class="st2" cx="301" cy="853.1" r="14.2"/>
			<circle class="st2" cx="389.5" cy="601.9" r="42.7"/>
		</g>
	</g>
</g>
<circle class="st4" cx="550.2" cy="176" r="68.7"/>
</svg>
