<?xml version="1.0" encoding="utf-8"?>
<!-- Generator: Adobe Illustrator 21.0.0, SVG Export Plug-In . SVG Version: 6.00 Build 0)  -->
<svg version="1.1" id="Calque_1" xmlns="http://www.w3.org/2000/svg" xmlns:xlink="http://www.w3.org/1999/xlink" x="0px" y="0px"
	 viewBox="0 0 1920 1080" style="enable-background:new 0 0 1920 1080;" xml:space="preserve">
<style type="text/css">
	.st0{display:none;}
	.st1{display:inline;opacity:0.54;}
	.st2{fill:#1D1D1C;stroke:#000000;stroke-width:0.25;stroke-miterlimit:10;}
	.st3{fill:#EB5894;}
	.st4{fill:#58C1EB;}
	.st5{opacity:0.85;fill:#EDEEAC;enable-background:new    ;}
	.st6{fill:#EDEEAC;}
	.st7{fill:#F9D7C7;}
	.st8{fill:#615E5D;}
	.st9{fill:#5F3313;stroke:#A24317;stroke-width:6;stroke-miterlimit:10;}
	.st10{fill:#010202;stroke:#000000;stroke-miterlimit:10;}
	.st11{fill:#010202;}
	.st12{fill:#060505;stroke:#000000;stroke-miterlimit:10;}
	.st13{fill:none;}
	.st14{opacity:0.44;fill:#4A494A;enable-background:new    ;}
	.st15{font-family:'MyriadPro-Regular';}
	.st16{font-size:5.3354px;}
	.st17{fill:#F6F6F6;}
	.st18{fill:#F6F6F5;}
	.st19{fill:#FFEEA6;stroke:#000000;stroke-miterlimit:10;}
	.st20{fill:#F5D7E9;}
	.st21{stroke:#000000;stroke-width:0.25;stroke-miterlimit:10;}
</style>
<g id="Calque_3" class="st0">
</g>
<g id="Calque_1_1_" class="st0">
	<g class="st1">
		<g>
			<path d="M1112.8,765c66.7,0,133.4,3.4,199.3,14c3.1,0.5,4.5-4.3,1.3-4.8c-66.4-10.7-133.5-14.1-200.7-14.2
				C1109.6,760,1109.6,765,1112.8,765L1112.8,765z"/>
		</g>
	</g>
	<g class="st1">
		<g>
			<path d="M1102.6,766.8c-16.9,12.2-11.1,37.3-5,53.8c8.8,23.6,28,41.2,50.1,52.5c25,12.8,54.4,19.9,82.3,22.2
				c12.6,1,25.7,1.3,37.6-3.7c9.8-4.1,17.8-11.3,24.8-19.1c9.1-10.1,19.2-20.7,25.9-32.6c7-12.6,10.2-26.8,16-39.9
				c-0.7,0.4-1.4,0.8-2.2,1.2c14.7,1.4,29.4-2.5,44-0.3c3.1,0.5,4.5-4.3,1.3-4.8c-15.2-2.3-30.2,1.6-45.4,0.1
				c-0.8-0.1-1.8,0.5-2.2,1.2c-4.7,10.5-7.7,21.6-12.2,32.1c-4.9,11.3-12.6,20.2-20.5,29.5c-6.6,7.8-13.1,16-21.4,22
				c-8.7,6.4-18.9,9.5-29.7,9.7c-26.9,0.7-54.2-5.9-79.4-15c-22.8-8.3-44.9-22.1-57.9-43.1c-5.7-9.3-9.5-20.1-11.4-30.9
				c-1.9-10.5-2-23.8,7.6-30.7C1107.7,769.2,1105.2,764.9,1102.6,766.8L1102.6,766.8z"/>
		</g>
	</g>
	<g class="st1">
		<g>
			<path d="M1387.2,798.4c-0.7,14.8,8.3,28,18.4,38c10.7,10.7,23.8,19.6,37.8,25.2c26.6,10.8,61.1,8,86.2-5.6
				c11.2-6,21-14.8,25.6-27c5-13.3,6.5-28.3,6.2-42.3c-0.2-10.8-1-25.1-8.9-33.4c-8.7-9.1-24-9.9-35.8-9.7
				c-17,0.4-32.4,4.7-48.4,9.8c-23.9,7.7-47.9,15.8-72.9,19.3c-3.2,0.4-1.8,5.3,1.3,4.8c20-2.8,39.3-8.5,58.5-14.7
				c14.6-4.7,29.2-10.4,44.4-12.8c12.5-2,26.4-2.9,38.7,0.8c5.2,1.5,10.1,4.1,12.9,8.9c2.7,4.5,3.8,10.1,4.5,15.2
				c1.8,13.3,1,27.4-1.8,40.5c-2.5,12.1-6.9,21.8-16.8,29.7c-21.5,17.3-54.8,21.3-81.1,15.1c-15-3.5-29-11.9-40.7-21.8
				c-11.7-9.9-23.9-23.8-23.1-40.2C1392.4,795.2,1387.4,795.2,1387.2,798.4L1387.2,798.4z"/>
		</g>
	</g>
	<g class="st1">
		<g>
			<path d="M1373.1,772.9c-23.5,2.1-47-1.2-70.5-1.3c-3.2,0-3.2,5,0,5c23.5,0.1,47,3.4,70.5,1.3
				C1376.2,777.6,1376.3,772.6,1373.1,772.9L1373.1,772.9z"/>
		</g>
	</g>
	<g class="st1">
		<g>
			<path d="M1004.6,850.2c5.8,4.5,12.7,5.3,19.9,5.1c9.5-0.2,18.4-0.2,27.9,1.2c21.1,3.2,41.7,7.2,63.2,7.8
				c22,0.6,43.9-0.6,65.9,0.1c21.8,0.7,43.6,3,65.3,5.1c25.3,2.4,50.5,5.3,75.6,9.5c3.1,0.5,4.5-4.3,1.3-4.8
				c-42-7-84.4-10.6-126.8-13.9c-21.6-1.7-43.2-0.9-64.9-0.9c-21.7,0.1-42.8-1.7-64.2-5.4c-10.4-1.8-21.2-4.2-31.8-4.2
				c-8.9,0-20.2,2.7-27.8-3.2C1005.6,844.7,1002.1,848.2,1004.6,850.2L1004.6,850.2z"/>
		</g>
	</g>
	<g class="st1">
		<g>
			<path d="M1329.6,883.7c-2.7,12.5-1,25.2,0.7,37.7c1.9,13.5,2.6,26.9,2.8,40.5c0.2,26.5-0.7,53.8,6.7,79.5
				c0.9,3.1,5.7,1.8,4.8-1.3c-7.4-25.3-6.3-52.1-6.6-78.2c-0.1-12-0.5-23.9-2.1-35.9c-1.8-13.5-4.6-27.5-1.6-41
				C1335.1,881.9,1330.3,880.5,1329.6,883.7L1329.6,883.7z"/>
		</g>
	</g>
	<g class="st1">
		<g>
			<path d="M1347.9,895.4c-0.9-0.9-1.7-1.7-2.6-2.6c-0.9-0.9-2.6-1-3.5,0s-1,2.5,0,3.5c0.9,0.9,1.7,1.7,2.6,2.6c0.9,0.9,2.6,1,3.5,0
				S1348.9,896.4,1347.9,895.4L1347.9,895.4z"/>
		</g>
	</g>
	<g class="st1">
		<g>
			<path d="M1347.3,894.6c0.1-2.6,9.3-4.2,11.1-4.6c7.6-1.7,15.5-2.5,23.3-3.2c13.2-1.1,26.7-1.9,40-1.3c3.2,0.2,3.2-4.8,0-5
				c-15.4-0.7-31.2,0.3-46.5,1.9c-7.8,0.8-15.9,1.7-23.4,4.1c-3.9,1.2-9.3,3.2-9.5,8C1342.2,897.8,1347.2,897.8,1347.3,894.6
				L1347.3,894.6z"/>
		</g>
	</g>
	<g class="st1">
		<g>
			<path d="M1428.3,879.8c-4.2,21.9,7,43.3,12.1,64.1c5.6,22.8,10.6,45.8,18,68.1c1,3,5.8,1.7,4.8-1.3c-7-21.1-11.8-42.8-17.1-64.4
				c-2.5-10.4-5.6-20.6-8.8-30.8c-3.6-11.2-6.4-22.6-4.2-34.3C1433.8,878,1428.9,876.7,1428.3,879.8L1428.3,879.8z"/>
		</g>
	</g>
	<g class="st1">
		<g>
			<path d="M1432.8,871c0.2,0.1,0.1,0.1-0.4,0.2c-1.1,0.5-1.7,1.2-1.8,2.4c-1.1,11.1,37.1-1.8,41.7-3.3c18.8-5.8,38.1-9.7,57.1-14.9
				s37.7-11.2,57-15.2c19.7-4.1,39.7-6.6,59.8-7.3c3.2-0.1,3.2-5.1,0-5c-36.8,1.3-71.8,9.4-107,19.6c-18.2,5.2-36.5,9.8-54.8,14.4
				c-16.3,4.1-33.4,12.6-50.6,10.7c0.7,0.4,1.4,0.8,2.2,1.2c-0.1-0.1-0.2-0.1-0.3-0.2c-0.6,0.8-1.2,1.6-1.8,2.4
				c1.1-0.4,1.8-0.6,2.6-1.5C1438.5,872.2,1435,868.6,1432.8,871L1432.8,871z"/>
		</g>
	</g>
	<g class="st1">
		<g>
			<path d="M1635.9,827.9c-0.7,14.1,2.1,28.1,4.6,42c2.9,16.4,4.7,32.9,6.2,49.5c3.2,34,4.8,68,4.6,102.1c0,3.2,5,3.2,5,0
				c0.2-34.1-1.4-68.2-4.6-102.1c-1.5-15.6-3-31.2-5.7-46.7c-2.5-14.8-5.9-29.7-5.1-44.8C1641.1,824.7,1636.1,824.7,1635.9,827.9
				L1635.9,827.9z"/>
		</g>
	</g>
	<g class="st1">
		<g>
			<path d="M1646.3,1078.6c0.9,3.4,0.7,6.6-1,9.6c-1.6,2.8,2.7,5.3,4.3,2.5c2.4-4.2,2.8-8.8,1.5-13.5
				C1650.3,1074.2,1645.4,1075.5,1646.3,1078.6L1646.3,1078.6z"/>
		</g>
	</g>
	<g class="st1">
		<g>
			<path d="M1024.3,865.5c-2.6-1.3-4-2-6.9-1.3c-1.1,0.3-1.7,1.3-1.8,2.4c-0.8,8.6,1.6,16.6,3.4,24.9c2.1,9.8,3.2,19.7,3.9,29.7
				c1.4,19.4,2.8,38.9,3.4,58.4c1.3,39.6-0.6,79.3-0.7,118.9c0,3.2,5,3.2,5,0c0.1-39.6,2.1-79.3,0.7-118.9c-0.7-19.5-2-39-3.4-58.4
				c-0.7-9.2-1.6-18.3-3.4-27.4c-1.7-9.1-4.9-17.8-4-27.2c-0.6,0.8-1.2,1.6-1.8,2.4c1.1-0.1,2.1,0.2,3,0.8
				C1024.7,871.3,1027.2,867,1024.3,865.5L1024.3,865.5z"/>
		</g>
	</g>
	<g class="st1">
		<g>
			<path d="M1285.9,1059.6c0.9,0.4,1.7,0.9,2.6,1.3c1.2,0.6,2.8,0.3,3.4-0.9c0.6-1.1,0.4-2.8-0.9-3.4c-0.9-0.4-1.7-0.9-2.6-1.3
				c-1.2-0.6-2.8-0.3-3.4,0.9C1284.4,1057.3,1284.6,1058.9,1285.9,1059.6L1285.9,1059.6z"/>
		</g>
	</g>
	<g class="st1">
		<g>
			<path d="M1328.2,1031.8c0.1,6.8,1.5,13.4,3.1,20c1.8,7.6,3,15.2,3.8,23c1.5,14.6,2.3,29.2,4.8,43.6c0.5,3.2,5.4,1.8,4.8-1.3
				c-2.5-14.6-3.2-29.5-4.8-44.2c-0.7-6.6-1.6-13.1-3.1-19.6c-1.6-7.1-3.4-14.1-3.5-21.4C1333.2,1028.6,1328.2,1028.5,1328.2,1031.8
				L1328.2,1031.8z"/>
		</g>
	</g>
	<g class="st1">
		<g>
			<path d="M1461.3,1028.8c-1,18.1-2.9,38.1,7,54.2c1.7,2.7,6,0.2,4.3-2.5c-9.4-15.3-7.3-34.5-6.3-51.7
				C1466.5,1025.6,1461.5,1025.6,1461.3,1028.8L1461.3,1028.8z"/>
		</g>
	</g>
	<g class="st1">
		<g>
			<path d="M1090.3,805c-7.8,2-15.9-0.5-23.3-3c-7.3-2.4-14.6-4.8-22-7c-16.4-4.7-32.9-9.7-47.1-19.4c-0.4,1.6-0.8,3.1-1.3,4.7
				c1.1,0.1,2.3,0.2,3.4,0.1c3.2-0.1,3.2-5.1,0-5c-1.1,0.1-2.3,0.1-3.4-0.1c-2.7-0.2-3.1,3.4-1.3,4.7c15,10.2,32.6,15.4,49.9,20.3
				c14.4,4.1,31.2,13.4,46.4,9.5C1094.8,809,1093.5,804.2,1090.3,805L1090.3,805z"/>
		</g>
	</g>
	<g class="st1">
		<g>
			<path d="M1061.5,788.1c4,0.1,7.8,0.4,11.7,1.3c2.7,0.6,4.5-3.2,1.9-4.6c-10.5-5.6-23.2-7.7-34.9-9.2c-10.6-1.4-23.9-3.2-33.9,1.5
				c-2.9,1.4-0.4,5.7,2.5,4.3c9.2-4.3,22.7-2,32.3-0.7c10.4,1.5,22,3.4,31.4,8.4c0.6-1.5,1.3-3,1.9-4.6c-4.3-1-8.6-1.3-13.1-1.4
				C1058.3,783,1058.3,788,1061.5,788.1L1061.5,788.1z"/>
		</g>
	</g>
	<g class="st1">
		<g>
			<path d="M1241,667.3c0,0,1.5,0.8,1.5,0.6c0.2-0.8,0.4-1.6,0.6-2.4c-31.5,29.1-75.8,46.8-118.5,48.3c0.4,1.6,0.8,3.1,1.3,4.7
				c20.8-11.5,37-27.7,51.5-46.4c2-2.5-1.6-6.1-3.5-3.5c-14.3,18.3-30.1,34.2-50.5,45.6c-2.1,1.2-1.2,4.7,1.3,4.7
				c44.1-1.5,89.6-19.7,122.1-49.7c0.6-0.6,0.9-1.6,0.6-2.4c-0.8-2.4-1.6-2.6-3.8-3.6C1240.6,661.6,1238.1,665.9,1241,667.3
				L1241,667.3z"/>
		</g>
	</g>
	<g class="st1">
		<g>
			<path d="M1168.3,666.4c-32.9,47.7-98.9,59.8-152.8,63.9c-15,1.1-30,1.6-45.1,1.6c-3.2,0-3.2,5,0,5c28.7,0,57.5-1.6,85.8-6.5
				c29-5,58.4-13.5,83.3-29.7c13-8.4,24.3-19,33.1-31.7C1174.5,666.3,1170.1,663.8,1168.3,666.4L1168.3,666.4z"/>
		</g>
	</g>
	<g class="st1">
		<g>
			<path d="M960.2,740.7c11.8-0.2,23.8-1.5,34.7-6.1s19.6-12.3,26.4-22c1.8-2.6-2.5-5.1-4.3-2.5c-13.5,19.2-34.3,25.3-56.8,25.7
				C957,735.7,957,740.7,960.2,740.7L960.2,740.7z"/>
		</g>
	</g>
	<g class="st1">
		<g>
			<path d="M1030.8,730.9c-38.6,19.2-26.9,76.5-6,104.7c1.9,2.6,6.2,0.1,4.3-2.5c-19.2-26-31.8-80,4.2-97.9
				C1036.2,733.8,1033.6,729.5,1030.8,730.9L1030.8,730.9z"/>
		</g>
	</g>
	<g class="st1">
		<g>
			<path d="M1032.7,846c-12.9-2.7-25-7.5-35.9-15c-10.8-7.3-20.2-16.5-29.6-25.4c-2.3-2.2-5.9,1.3-3.5,3.5
				c9.8,9.2,19.5,18.6,30.6,26.2c11.3,7.7,23.8,12.7,37.1,15.5C1034.5,851.5,1035.8,846.7,1032.7,846L1032.7,846z"/>
		</g>
	</g>
	<g class="st1">
		<g>
			<path d="M962.9,806.1c0.3,27.1-13.8,49-26.6,71.8c-1.6,2.8,2.7,5.3,4.3,2.5c13.3-23.6,27.5-46.3,27.3-74.3
				C967.8,802.9,962.8,802.9,962.9,806.1L962.9,806.1z"/>
		</g>
	</g>
	<g class="st1">
		<g>
			<path d="M1250.1,682.4c-1.5,10.9-14.1,16.7-21.8,23c-1.7,1.4-0.3,4.3,1.8,4.3c33.3,0.1,66.8-1.5,97.7-15.2
				c17.2-7.6,32.8-18.7,47.7-30.1c15.1-11.5,29.6-23.9,44-36.4c6.4-5.6,13.1-9.8,20.1-14.4c5-3.3,10.7-7.1,12.7-13.1
				c0.5-1.6-0.9-3.1-2.4-3.2c-1.2-0.1-2.5-0.1-3.7-0.2c-3.2-0.1-3.2,4.9,0,5c1.2,0,2.5,0.1,3.7,0.2c-0.8-1.1-1.6-2.1-2.4-3.2
				c-1.9,5.6-9,9.3-13.7,12.2c-5,3.1-9.8,6.1-14.2,10c-13.7,12-27.5,23.9-41.9,35.1c-14.6,11.4-29.7,22.6-46.3,30.8
				c-14.4,7.1-29.9,11.7-45.7,14.2c-18.3,2.9-36.9,3.2-55.4,3.1c0.6,1.4,1.2,2.8,1.8,4.3c8.5-7,21.4-13.2,23.1-25.2
				C1255.4,680.6,1250.6,679.2,1250.1,682.4L1250.1,682.4z"/>
		</g>
	</g>
	<g class="st1">
		<g>
			<path d="M1440.5,605.6c-30.2,25.6-36.3,73.8-75.8,89.1c-3,1.1-1.7,6,1.3,4.8c19.3-7.5,32.1-22.6,42.5-39.9
				c10.6-17.7,19.5-36.8,35.5-50.4C1446.5,607.1,1443,603.6,1440.5,605.6L1440.5,605.6z"/>
		</g>
	</g>
	<g class="st1">
		<g>
			<path d="M1374.3,702.2c29.9,0.8,59.8-3.4,87.6-15c27.2-11.4,51.1-29.1,71.9-49.8c2.3-2.3-1.3-5.8-3.5-3.5
				c-20.5,20.4-44.1,38-71,49.1c-27,11.1-55.9,15-84.9,14.3C1371.1,697.1,1371.1,702.1,1374.3,702.2L1374.3,702.2z"/>
		</g>
	</g>
	<g class="st1">
		<g>
			<path d="M1532.4,667.6c28,45.8,71.2,85.3,121.3,105.4c14,5.6,28.7,9.5,43.7,11.2c3.2,0.4,3.2-4.6,0-5
				c-33.7-3.8-65.1-19.4-92.1-39.4c-27.2-20.2-50.9-45.8-68.6-74.7C1535.1,662.4,1530.8,664.9,1532.4,667.6L1532.4,667.6z"/>
		</g>
	</g>
	<g class="st1">
		<g>
			<path d="M1561.5,457.8c-12.7-8.6-24.2-18.8-36.3-28.1c-11.7-8.9-24.2-16.4-36.8-24c-24.1-14.4-47.8-31-63-55.2
				c-8.1-13-12.3-27.5-11.4-42.9c-1.7,0-3.3,0-5,0c1.5,30.3-17.1,56.2-26.8,83.7c-1.1,3,3.8,4.3,4.8,1.3c9.9-28,28.6-54.1,27-85
				c-0.2-3.2-4.8-3.2-5,0c-1.5,27.4,12.7,50.5,31.6,69.2c21.7,21.5,49.4,34,74.1,51.4c15.2,10.7,28.8,23.5,44.2,33.9
				C1561.6,463.9,1564.1,459.6,1561.5,457.8L1561.5,457.8z"/>
		</g>
	</g>
	<g class="st1">
		<g>
			<path d="M1365.3,415.5c-19.9-9.2-38.9-20.2-59.3-28.1c-20.5-7.9-42.2-11.5-64.1-8.3c-48.7,7.1-90.5,33.8-128.8,63
				c-21.4,16.2-43.2,32.5-68.9,41.2c-3,1-1.7,5.9,1.3,4.8c43.8-14.8,76-50,115.2-73.1c21.2-12.5,44-22.5,67.9-28.2
				c22.8-5.4,45.2-4.9,67.5,2.4c23.3,7.6,44.5,20.4,66.7,30.7C1365.7,421.2,1368.3,416.9,1365.3,415.5L1365.3,415.5z"/>
		</g>
	</g>
	<g class="st1">
		<g>
			<path d="M1016.2,500.5c-4.8,5.6-10.7,9.8-16.7,14c-6.1,4.2-12,8.6-18.9,11.5c-12.9,5.4-27.2,5.7-40.9,7.1c-3.2,0.3-3.2,5.3,0,5
				c14.4-1.5,29.3-1.8,42.8-7.5c7.1-3,13.2-7.4,19.5-11.8c6.3-4.4,12.7-8.9,17.7-14.8C1021.8,501.6,1018.2,498.1,1016.2,500.5
				L1016.2,500.5z"/>
		</g>
	</g>
	<g class="st1">
		<g>
			<path d="M897.8,527.9c1.3,1.7,2.6,3.4,3.8,5.1c0.8,1.1,2.2,1.6,3.4,0.9c1.1-0.6,1.7-2.3,0.9-3.4c-1.3-1.7-2.6-3.4-3.8-5.1
				c-0.8-1.1-2.2-1.6-3.4-0.9C897.6,525.1,897,526.8,897.8,527.9L897.8,527.9z"/>
		</g>
	</g>
	<g class="st1">
		<g>
			<path d="M923.8,556.6c8.9,9.1,18.1,17.7,28.7,24.7c2.7,1.8,5.2-2.6,2.5-4.3c-10.3-6.8-19.1-15.1-27.7-24
				C925.1,550.8,921.6,554.3,923.8,556.6L923.8,556.6z"/>
		</g>
	</g>
	<g class="st1">
		<g>
			<path d="M950.8,590.3c-12.1,12.1-24.7,24-39,33.6c-14.4,9.7-30.3,16.6-47.1,20.9c-3.1,0.8-1.8,5.6,1.3,4.8
				c17.2-4.4,33.6-11.4,48.3-21.4c14.6-9.9,27.5-21.9,40-34.4C956.6,591.5,953.1,588,950.8,590.3L950.8,590.3z"/>
		</g>
	</g>
	<g class="st1">
		<g>
			<path d="M770.6,659.4c17.7,54.3,55.4,102.3,105,131c2.8,1.6,5.3-2.7,2.5-4.3c-48.5-28-85.4-74.9-102.7-128
				C774.5,655,769.6,656.3,770.6,659.4L770.6,659.4z"/>
		</g>
	</g>
	<g class="st1">
		<g>
			<path d="M881.5,782.6c-21.1,26.3-32.4,57.6-36.4,90.9c-3.4,28.4-3.8,62.6,19.4,83.3c14.2,12.7,33.4,18,52.1,19.8
				c3.2,0.3,3.2-4.7,0-5c-16.3-1.6-33.2-6-46.2-16.4c-11-8.8-17.3-21.3-20-34.9c-2.8-13.7-2.1-28-0.7-41.9
				c1.5-15.4,4.6-30.8,9.6-45.4c5.8-17,14.6-32.8,25.8-46.9C887.1,783.6,883.6,780.1,881.5,782.6L881.5,782.6z"/>
		</g>
	</g>
	<g class="st1">
		<g>
			<path d="M919.2,977c-8.4-6.3-18.4-9.9-21.9-20.8c-3.4-10.7,3.2-19.8,10.8-26.6c2.4-2.1-1.1-5.7-3.5-3.5c-8.6,7.7-15.5,18-12.5,30
				c3.3,13.3,14.6,17.7,24.6,25.2C919.2,983.3,921.7,979,919.2,977L919.2,977z"/>
		</g>
	</g>
	<g class="st1">
		<g>
			<path d="M1742.7,725.3c16.6,23.4,25.1,52,28.2,80.3c3.1,28.2,1.1,57.6-9.2,84.1c1.6,0.2,3.3,0.4,4.9,0.7
				c1.9-14.4,9.2-28.6,5.6-43.3c-2.3-9.5-6.8-20.8-14.5-27.2c-5.9-4.9-15.5-4.6-16,4.6c-0.3,5,1.4,10,2.8,14.7
				c1.5,5.2,1.9,9.8,1.4,15.2c-1.6,16.1-9.6,32.3-23.9,40.6c-2.8,1.6-0.3,5.9,2.5,4.3c10-5.8,17.2-15,21.6-25.6
				c3.8-9.2,6.6-21,4.5-30.9c-0.8-3.8-8.7-24.2,0.9-20.9c8.4,3,13,16.6,15.2,24.2c4.3,14.9-3.1,29.6-5.1,44.3c-0.4,3,4,3.1,4.9,0.7
				c10.7-27.4,12.6-58,9.3-87c-3.3-28.6-11.9-57.6-28.7-81.3C1745.2,720.2,1740.8,722.7,1742.7,725.3L1742.7,725.3z"/>
		</g>
	</g>
	<g class="st1">
		<g>
			<path d="M993.6,1003.5c14,0.1,19.4-17.2,29.4-24.1c14.5-10.1,35.3-13.2,50.1-2.1c21.6,16.2,11.2,48.1-0.3,67.1
				c-6.9,11.4-16.1,22.5-27.9,28.9c-2.8,1.5-0.3,5.8,2.5,4.3c11.2-6,20-16,27-26.4c7.7-11.5,13.7-24.7,15.6-38.5
				c1.7-12.2-0.2-25.1-8.6-34.6c-11.1-12.6-29-15.3-44.5-10.8c-8.8,2.6-17.2,6.9-23.2,13.8c-5.1,5.9-11.2,17.3-20.1,17.3
				C990.3,998.5,990.3,1003.5,993.6,1003.5L993.6,1003.5z"/>
		</g>
	</g>
	<g class="st1">
		<g>
			<path d="M1050.9,970.3c-6.9-9.7-15.8-15.2-27.8-15.4c-11.9-0.3-23.6,2.5-34.7-3.4c-2.8-1.5-5.4,2.8-2.5,4.3
				c9.5,5.1,19.5,4.8,30,4.3c4.9-0.3,9.9-0.5,14.7,0.7c6.9,1.7,11.9,6.4,15.9,12C1048.4,975.4,1052.7,972.9,1050.9,970.3
				L1050.9,970.3z"/>
		</g>
	</g>
	<g class="st1">
		<g>
			<path d="M991,944.7c-9.9,0-20.1,0.8-29.1,5.2c-9.2,4.4-16,12.5-21.1,21.1c-12,20.1-16.9,44.8-18.5,67.9
				c-0.9,12.8-0.5,25.8,2.2,38.4c0.7,3.1,5.5,1.8,4.8-1.3c-5.8-27-1.9-57.3,7.1-83.2c4.2-12.1,10.1-24.8,20-33.3
				c9.7-8.4,22.3-9.8,34.6-9.8C994.2,949.6,994.2,944.6,991,944.7L991,944.7z"/>
		</g>
	</g>
	<g class="st1">
		<g>
			<path d="M1610.2,971.5c10.8-12.3,28.8-12.2,43.8-9.8c16,2.6,31.7,8.1,45.6,16.5c27.2,16.4,50.9,46.6,54,79
				c0.8,8.7-0.2,17.6-3.2,25.8c-1.7,4.6-4.1,9.7-7.4,13.4c-2.7,3.1-6.2,7.4-10.2,8.6c-3.1,0.9-1.8,5.8,1.3,4.8
				c3.8-1.2,6.2-3.5,8.8-6.4c3-3.2,5.7-6.1,8-10c4.4-7.7,7-16.3,7.8-25.1c1.5-17.7-4.7-35.4-13.5-50.5
				c-18.7-32.1-50.4-53.4-86.7-60.4c-17.4-3.4-39-4-51.7,10.5C1604.5,970.3,1608,973.9,1610.2,971.5L1610.2,971.5z"/>
		</g>
	</g>
	<g class="st1">
		<g>
			<path d="M1623,1028.3c-15.8-8-19.3-28.6-17.9-44.6c0.3-3.2-4.7-3.2-5,0c-1.5,17.8,3,40.2,20.4,48.9
				C1623.4,1034.1,1625.9,1029.8,1623,1028.3L1623,1028.3z"/>
		</g>
	</g>
	<g class="st1">
		<g>
			<path d="M1598.8,1022.2c7.7,45,32.6,85.7,69.1,113c2.6,1.9,5.1-2.4,2.5-4.3c-35.5-26.6-59.3-66.4-66.8-110
				C1603.1,1017.7,1598.3,1019,1598.8,1022.2L1598.8,1022.2z"/>
		</g>
	</g>
	<g class="st1">
		<g>
			<path d="M1672.9,905.5c-1-2.4-2.5-5.1,0.8-5.1c3.5,0,7.5,2,10.6,3.5c6.2,2.8,12.6,6.2,18.1,10.3c9.9,7.4,19.4,18.5,27.4,28.7
				c9.6,12.2,18.1,25.4,25.1,39.3c7.5,14.7,13.6,30.6,15.7,47.1c0.4,3.2,5.4,3.2,5,0c-4.2-33-22-64.2-42.3-89.9
				c-14.2-18.1-30.7-34.7-53-42.4c-3.2-1.1-7.9-2.6-11.1-0.6c-3.7,2.3-2.5,7.1-1.2,10.5C1669.3,909.7,1674.1,908.5,1672.9,905.5
				L1672.9,905.5z"/>
		</g>
	</g>
	<g class="st1">
		<g>
			<path d="M957.3,943.3c5.6-8.4,13.5-14.9,20.1-22.6c2.1-2.4-1.4-6-3.5-3.5c-6.9,8-15,14.8-20.9,23.6
				C951.2,943.4,955.5,946,957.3,943.3L957.3,943.3z"/>
		</g>
	</g>
	<g class="st1">
		<g>
			<path d="M1716.6,663.4c51.9-22.8,60.7-84.5,81.1-130.9c0.9-2-0.6-4.2-2.8-3.7c-14.6,3.5-27.7,12.3-41.2,18.4
				c-14,6.3-32,12.7-45.6,2c-2.5-2-6.1,1.5-3.5,3.5c28.8,22.7,63.6-12.4,91.7-19.1c-0.9-1.2-1.9-2.4-2.8-3.7
				c-20.1,45.5-28.5,106.8-79.3,129.1C1711.2,660.4,1713.7,664.7,1716.6,663.4L1716.6,663.4z"/>
		</g>
	</g>
	<g class="st1">
		<g>
			<path d="M1712.4,513.8c10.2-22.9,0.9-49.2-9.4-70.4c-12.2-25-28.7-48.3-46.5-69.5c-11.8-14.1-24.7-27.3-39.1-38.8
				c-2.5-2-6,1.4-3.5,3.5c6.7,5.8,13.5,12.8,15.1,21.9c1.3,7.5-1.6,14.6-5.6,20.8c-9.2,14-23.3,24.5-35.3,35.9
				c-2.3,2.2,1.2,5.7,3.5,3.5c13.4-12.6,30-24.5,38.6-41.2c3.4-6.5,5-13.7,3.5-20.9c-2-9.6-9-17.3-16.3-23.5
				c-1.2,1.2-2.4,2.4-3.5,3.5c24.2,19.3,44.2,43.3,61.7,68.7c13.5,19.6,26.4,40.7,32.9,63.8c3.7,13,5.2,27.4-0.4,40.2
				C1706.8,514.2,1711.1,516.7,1712.4,513.8L1712.4,513.8z"/>
		</g>
	</g>
	<g class="st1">
		<g>
			<path d="M1554.2,717.7c-6.4,14.6,6.3,31.2,12.8,43.5c1.5,2.8,5.8,0.3,4.3-2.5c-3.1-5.8-6.6-11.5-9.4-17.5
				c-2.9-6.1-6.4-14.3-3.5-21C1559.8,717.3,1555.5,714.7,1554.2,717.7L1554.2,717.7z"/>
		</g>
	</g>
	<g class="st1">
		<g>
			<path d="M1561.7,751.7c3.5,11.1,16.4,15,24.3,22.4c10.6,10,17.3,22.7,19.2,37.2c0.4,3.1,5.4,3.2,5,0
				c-1.8-13.2-6.7-25.2-15.4-35.3c-4.2-4.8-9-9.1-14.4-12.5c-5.3-3.4-11.9-6.6-13.9-13.1C1565.5,747.3,1560.7,748.6,1561.7,751.7
				L1561.7,751.7z"/>
		</g>
	</g>
	<g class="st1">
		<g>
			<path d="M1599.5,800.2c9.7,12.1,13.2,26.2,16,41.2c0.6,3.2,5.4,1.8,4.8-1.3c-3-16-7-30.5-17.3-43.4
				C1601,794.2,1597.5,797.7,1599.5,800.2L1599.5,800.2z"/>
		</g>
	</g>
	<g class="st1">
		<g>
			<path d="M1189.2,792.5c12.4,14.9,27.7,32.4,47.4,37.1c1.2,0.3,2.8-0.4,3.1-1.7c1.6-7.6-5-12.3-9.1-17.7c-0.7,1.3-1.4,2.5-2.2,3.8
				c11.8-0.3,23.8,6.1,34.7,10c6.2,2.2,12.4,3.8,18.3,6.9c7.3,4,14.1,8.9,21.1,13.4c2.7,1.7,5.2-2.6,2.5-4.3
				c-7.3-4.6-14.3-9.7-21.9-13.8c-6-3.2-12.4-4.8-18.7-7c-11.4-4.1-23.7-10.5-36.1-10.2c-1.7,0-3.4,2.2-2.2,3.8
				c2.8,3.7,9.7,8.7,8.6,13.9c1-0.6,2.1-1.2,3.1-1.7c-18.8-4.4-33.4-21.5-45.2-35.8C1190.7,786.5,1187.2,790.1,1189.2,792.5
				L1189.2,792.5z"/>
		</g>
	</g>
	<g class="st1">
		<g>
			<path d="M1449.5,787.4c7.9,9.3,19.6,21.3,32.1,23.6c1.7,0.3,3-0.7,3.2-2.4c0.5-4.4,1.7-9.9,7.1-9.7c4.9,0.2,9.9,3.6,13.8,6.3
				c8.9,6.1,16.4,13.8,24.6,20.7c2.5,2.1,6-1.5,3.5-3.5c-10.2-8.5-19.5-18.6-31.4-25c-4.4-2.3-9.9-4.7-14.9-2.8
				c-5.7,2.1-7.2,8.7-7.8,14.1c1.1-0.8,2.1-1.6,3.2-2.4c-11.7-2.2-22.5-13.6-29.9-22.3C1450.9,781.4,1447.4,784.9,1449.5,787.4
				L1449.5,787.4z"/>
		</g>
	</g>
	<g class="st1">
		<g>
			<path d="M1176.9,877.9c3.2,0,3.2-5,0-5C1173.7,872.9,1173.7,877.9,1176.9,877.9L1176.9,877.9z"/>
		</g>
	</g>
	<g class="st1">
		<g>
			<path d="M1578.5,1021.1c12-3.8,23.1-11.8,24-25.2c0.2-3.2-4.8-3.2-5,0c-0.8,11.1-10.7,17.3-20.3,20.4
				C1574.1,1017.2,1575.4,1022.1,1578.5,1021.1L1578.5,1021.1z"/>
		</g>
	</g>
	<g class="st1">
		<g>
			<path d="M1093.6,926.6c24.1,0,48,1.1,71.9,4.2c11.9,1.5,23.8,3,35.7,4.3c5.4,0.6,10.8,1.3,16.3,1.3c5.9,0,11.8-0.5,17.1,2.6
				c2.8,1.6,5.3-2.7,2.5-4.3c-8.8-5.2-20.3-3.1-30.2-4.1c-12.6-1.2-25.1-2.8-37.6-4.4c-25.2-3.2-50.4-4.7-75.8-4.7
				C1090.3,921.6,1090.3,926.6,1093.6,926.6L1093.6,926.6z"/>
		</g>
	</g>
	<g class="st1">
		<g>
			<path d="M1129.5,955.7c10,5.5,22.2,4,33.2,4.2c6.2,0.1,12.3,0.1,18.5,0c2.5,0,3.4-3.4,1.3-4.7c-0.5-0.3-1.1-0.3-1.7-0.3
				c-3.2,0-3.2,5,0,5c0.7,0,0.4-0.1-0.8-0.3c0.4-1.6,0.8-3.1,1.3-4.7c-5.8,0.1-11.7,0.1-17.5,0c-10.2-0.2-22.4,1.6-31.7-3.5
				C1129.2,949.9,1126.7,954.2,1129.5,955.7L1129.5,955.7z"/>
		</g>
	</g>
	<g class="st1">
		<g>
			<path d="M1094.2,1006c30.8,4.6,61.8,7.4,92.8,10.9c15.4,1.8,30.8,3.8,46.2,5.3c7.2,0.7,14.5,1.4,21.7,1.6c5.8,0.2,14-1.8,19,2.1
				c2.5,1.9,6.1-1.6,3.5-3.5c-4.3-3.4-9.3-3.8-14.7-3.7c-6.7,0.1-13.3-0.1-19.9-0.6c-16-1.3-32-3.3-48-5.2
				c-33.1-3.9-66.3-6.6-99.3-11.6C1092.4,1000.7,1091,1005.5,1094.2,1006L1094.2,1006z"/>
		</g>
	</g>
	<g class="st1">
		<g>
			<path d="M1134.6,1067.6c33.8-0.1,68.5-4.7,101.9,2.5c3.1,0.7,4.5-4.1,1.3-4.8c-33.9-7.2-68.9-2.7-103.2-2.7
				C1131.4,1062.6,1131.4,1067.6,1134.6,1067.6L1134.6,1067.6z"/>
		</g>
	</g>
	<g class="st1">
		<g>
			<path d="M1058.5,459.5c-13.2,12.5-31.4,5.5-44.3-3.7c-12.7-9.1-25.6-22.9-29.6-38.4c-1.5,0.6-3,1.3-4.6,1.9
				c7.1,10,9.6,22,13.2,33.4c3,9.5,6.8,18.9,11.7,27.6c9.1,16.5,22.8,28.1,40,35.7c2.9,1.3,5.5-3,2.5-4.3
				c-17.3-7.7-30.6-19.3-39.4-36.2c-4.8-9.1-8.4-18.8-11.3-28.7c-3.1-10.4-5.9-21.1-12.3-30c-1.6-2.2-5.3-1-4.6,1.9
				c4.5,17.5,19.3,33,33.8,42.8c14.7,9.9,34.1,15,48.4,1.6C1064.3,460.8,1060.8,457.3,1058.5,459.5L1058.5,459.5z"/>
		</g>
	</g>
	<g class="st1">
		<g>
			<path d="M1128.2,27.9c0,79.5,1.3,159,1.3,238.5c0,3.2,5,3.2,5,0c0-79.5-1.3-159-1.3-238.5C1133.2,24.7,1128.2,24.7,1128.2,27.9
				L1128.2,27.9z"/>
		</g>
	</g>
	<g class="st1">
		<g>
			<path d="M1148.7,49.7c13.2-0.2,25.7,4.2,38.8,5.1c12.9,0.9,26-2.3,38.7,1.2c3.1,0.9,4.4-4,1.3-4.8c-12.6-3.5-25.5-0.7-38.3-1.3
				c-13.7-0.6-26.8-5.4-40.5-5.2C1145.5,44.7,1145.5,49.7,1148.7,49.7L1148.7,49.7z"/>
		</g>
	</g>
	<g class="st1">
		<g>
			<path d="M1154.6,158.2c-2.2,2.2-3.6,4.3-4.3,7.3c-0.3,1.3,0.4,2.8,1.7,3.1c36.6,7.8,74,9.6,111.2,13
				c37.8,3.5,75.4,8.7,113.2,12.3c8.4,0.8,16.8,1,25.2,1.4c8.6,0.4,17.6,1.1,25.3,5.3c2.8,1.5,5.4-2.8,2.5-4.3
				c-12.4-6.8-27.3-5.8-40.9-6.4c-18.3-0.8-36.6-3.4-54.8-5.4c-38.2-4.2-76.3-8.2-114.6-11.6c-22-2-44.1-4.5-65.7-9.1
				c0.6,1,1.2,2.1,1.7,3.1c0.5-2,1.6-3.6,3-5.1C1160.4,159.5,1156.9,155.9,1154.6,158.2L1154.6,158.2z"/>
		</g>
	</g>
	<g class="st1">
		<g>
			<path d="M1192.2,166.4c-0.2-24.6-6.6-49.3-1.4-73.7c0.7-3.1-4.1-4.5-4.8-1.3c-5.3,25,1,49.9,1.2,75
				C1187.2,169.6,1192.2,169.6,1192.2,166.4L1192.2,166.4z"/>
		</g>
	</g>
	<g class="st1">
		<g>
			<path d="M1210.2,176.6c-0.1-30.3-5.7-62.2,3.8-91.6c1-3.1-3.8-4.4-4.8-1.3c-9.6,29.9-4,62.2-3.9,93
				C1205.2,179.9,1210.2,179.9,1210.2,176.6L1210.2,176.6z"/>
		</g>
	</g>
	<g class="st1">
		<g>
			<path d="M1260.1,174.7c-6.7-20-3.8-41.5-3.8-62.2c0-3.2-5-3.2-5,0c-0.1,21.1-2.9,43.1,3.9,63.5
				C1256.3,179.1,1261.1,177.8,1260.1,174.7L1260.1,174.7z"/>
		</g>
	</g>
	<g class="st1">
		<g>
			<path d="M1155.8,24.2c-2.9-1.1-5.8-2-6.8,2.3c-0.7,3.1,0.1,7.2,0,10.4c-0.1,3.9-0.2,7.8-0.4,11.6c-0.7,15.6-2.6,31.1-6.2,46.2
				c1.6,0.2,3.3,0.4,4.9,0.7c0-1.2,0-2.3,0-3.5c0-3.2-5-3.2-5,0c0,1.2,0,2.3,0,3.5c0,2.8,4.2,3.4,4.9,0.7
				c2.9-12.1,4.7-24.4,5.7-36.7c0.5-6.3,0.8-12.6,1-19c0.1-2.9,0.1-5.9,0.1-8.8c0-2.3,0.7-3.3-1.6-3.6c0.5,0.1,1.6,0.8,2,1
				C1157.4,30.2,1158.7,25.4,1155.8,24.2L1155.8,24.2z"/>
		</g>
	</g>
	<g class="st1">
		<g>
			<path d="M1146.1,67.6c19.7-1,38.9,7,58.2,9.7c22.4,3.1,44.8,5.9,67,10.2c21.8,4.2,43.2,8.8,65.4,11c22.4,2.2,44.9,3.4,67.2,6.2
				c25.7,3.3,51.1,8.6,76.9,11.6c3.2,0.4,3.2-4.6,0-5c-22.9-2.7-45.6-7.2-68.5-10.5c-21.9-3.1-44-4.5-66-6.5
				c-11.9-1-23.9-2.3-35.7-4.1c-10.8-1.7-21.5-4.3-32.2-6.4c-22.1-4.5-44.6-7.4-67-10.5c-11.4-1.6-22.5-3.9-33.7-6.5
				c-10.3-2.4-20.9-4.7-31.5-4.2C1142.9,62.8,1142.9,67.8,1146.1,67.6L1146.1,67.6z"/>
		</g>
	</g>
	<g class="st1">
		<g>
			<path d="M1224.4,51.9c8.4,6.4,20.9,7,30.9,9.7c13.6,3.7,27.4,6.9,41.2,9.8c27.1,5.6,54.8,7.6,81.9,12.9
				c13.6,2.7,26.3,7.5,39.6,11.4c13.1,3.9,26.5,6.5,39.9,9.4c27.6,6,54.8,13.8,82.7,18.4c31.6,5.3,63.4,8.8,94.7,15.7
				c3.1,0.7,4.5-4.1,1.3-4.8c-27.5-6.1-55.5-9.7-83.3-13.9c-27.7-4.2-54.6-11.1-81.9-17.5c-13.2-3.1-26.5-5.6-39.6-8.8
				c-13.3-3.3-26-8.4-39.3-11.9c-26.6-7-54.4-8.2-81.4-13.2c-15.1-2.8-30.2-6.2-45.1-10c-6.8-1.7-13.6-3.8-20.5-5.2
				c-6.4-1.3-13.2-2.3-18.5-6.4C1224.3,45.6,1221.8,49.9,1224.4,51.9L1224.4,51.9z"/>
		</g>
	</g>
	<g class="st1">
		<g>
			<path d="M1164.7,193.2c32,11.7,66.2,15.2,99.8,18.8c37.7,4,75.2,9.3,112.7,15.1c38.7,6,77.4,11.7,116,18.1
				c19.4,3.2,38.8,6.6,58.2,10.2c18.3,3.4,36.6,7.4,55.1,10c39,5.6,79.9,5.2,116.6,21.1c2.9,1.3,5.5-3,2.5-4.3
				c-31.7-13.7-66.4-15.7-100.2-19.4c-38-4.2-75.6-13-113.3-19.5c-38.9-6.7-77.9-12.3-116.9-18.4c-37.8-6-75.7-11.9-113.8-16.1
				c-38.7-4.3-78.5-7-115.3-20.4C1163,187.2,1161.7,192.1,1164.7,193.2L1164.7,193.2z"/>
		</g>
	</g>
	<g class="st1">
		<g>
			<path d="M1169.4,191.4c-7.3,20.4-2.9,42.7-2.6,63.8c0.4,26.1-5,51.8-3.9,77.9c0.1,3.2,5.1,3.2,5,0c-1.1-25.6,4.1-50.9,3.9-76.5
				c-0.1-21.1-5-43.5,2.4-63.9C1175.3,189.7,1170.4,188.4,1169.4,191.4L1169.4,191.4z"/>
		</g>
	</g>
	<g class="st1">
		<g>
			<path d="M1293.5,160c0.1-19-1.1-39.1,6.3-57c1.2-3-3.6-4.3-4.8-1.3c-7.5,18.3-6.4,39-6.5,58.4
				C1288.5,163.2,1293.5,163.2,1293.5,160L1293.5,160z"/>
		</g>
	</g>
	<g class="st1">
		<g>
			<path d="M1319.7,163c5.4-5.6,5-15.3,4.9-22.4c-0.2-9-1.5-17.9-1.6-26.8c0-3.2-5-3.2-5,0c0.1,7.7,1.2,15.4,1.5,23.1
				c0.3,6.4,1.6,17.4-3.3,22.6C1313.9,161.8,1317.5,165.3,1319.7,163L1319.7,163z"/>
		</g>
	</g>
	<g class="st1">
		<g>
			<path d="M1408.3,200.8c26,10.4,54.6,11.6,82.2,14.2c31.6,2.9,62.9,9.1,94,15c64.4,12.1,129.4,24.1,191.6,45
				c16.3,5.5,32.3,11.5,48.9,16.1c16.1,4.5,32.3,9,46.9,17.2c2.8,1.6,5.3-2.7,2.5-4.3c-12.5-7-26.1-11.5-39.8-15.4
				c-14.1-4-28.1-8.1-41.9-13.1c-30.7-11.1-62.2-20-94.1-27.3c-32.6-7.4-65.4-13.9-98.2-20.2c-31.5-6.1-63.3-12.6-95.2-16.4
				c-31.8-3.8-65.2-3.4-95.4-15.5C1406.6,194.8,1405.3,199.7,1408.3,200.8L1408.3,200.8z"/>
		</g>
	</g>
	<g class="st1">
		<g>
			<path d="M1710.8,281.6c30.2,12.3,63.3,12.7,94.4,21.4c33.3,9.3,63.8,27.3,94.7,42.4c2.9,1.4,5.4-2.9,2.5-4.3
				c-30.8-15-61.1-32.8-94.2-42.4c-31.6-9.2-65.4-9.4-96.1-21.9C1709.2,275.6,1707.9,280.4,1710.8,281.6L1710.8,281.6z"/>
		</g>
	</g>
	<g class="st1">
		<g>
			<path d="M1638.4,148.4c40.1,0.6,80.2,8.4,118.4,20.5c40.3,12.7,77.5,33.5,117.6,46.6c22,7.2,44.7,12,67.2,17.4
				c3.1,0.8,4.5-4.1,1.3-4.8c-20.1-4.9-40.4-9.2-60.2-15.3c-20.9-6.3-40.7-15.3-60.7-24c-37.8-16.4-76-30.3-116.5-38.2
				c-22.1-4.3-44.6-7-67.1-7.3C1635.2,143.3,1635.2,148.3,1638.4,148.4L1638.4,148.4z"/>
		</g>
	</g>
	<g class="st1">
		<g>
			<path d="M1453.8,116.3c29.8,3.6,58.4,12.9,87.1,21.4c29.3,8.7,58.9,15.9,88.6,22.8c29.6,6.9,59.3,13.5,89.1,19.6
				c30,6.2,60.3,10.5,90.2,17.2c16.5,3.7,32.3,8.2,47.7,15.2c13.7,6.3,27.1,13.2,41.5,17.8c3.1,1,4.4-3.9,1.3-4.8
				c-13.7-4.3-26.5-10.9-39.5-16.9c-12.8-5.9-25.7-10.3-39.4-13.7c-30-7.4-60.7-11.9-91-17.8c-30.4-5.9-60.7-12.9-90.9-19.8
				c-29.9-6.8-59.8-13.9-89.2-22.4c-31.5-9.2-62.8-19.7-95.4-23.6C1450.6,110.9,1450.7,115.9,1453.8,116.3L1453.8,116.3z"/>
		</g>
	</g>
	<g class="st1">
		<g>
			<path d="M1133.4,198.4c-1,28.1,3.9,56.1,5.2,84.1c1.3,29.6,1.2,59.3,1.2,89c0,3.2,5,3.2,5,0c0-29.7,0.1-59.3-1.2-89
				c-1.3-28-6.2-56-5.2-84.1C1138.5,195.2,1133.5,195.2,1133.4,198.4L1133.4,198.4z"/>
		</g>
	</g>
	<g class="st1">
		<g>
			<path d="M1183.3,311.2c3.2,0,3.2-5,0-5C1180.1,306.2,1180.1,311.2,1183.3,311.2L1183.3,311.2z"/>
		</g>
	</g>
	<g class="st1">
		<g>
			<path d="M1184.6,306.5c-5-2.4-11-3.3-14.4,2.1c-3.3,5.3-2.8,12.7-2.6,18.6c0.9,22.6-2.4,45.7,3.1,68c0.8,3.1,5.6,1.8,4.8-1.3
				c-4.9-20.1-1.6-40.3-2.6-60.7c-0.2-5.2-0.8-10.5-0.2-15.7c0.7-6.1,3-9.6,9.3-6.6C1184.9,312.2,1187.5,307.9,1184.6,306.5
				L1184.6,306.5z"/>
		</g>
	</g>
	<g class="st1">
		<g>
			<path d="M1212.4,343.3c-6-13-7.9-28.1-8.8-42.3c-0.9-14.2-0.7-29,2.6-43c0.8-3.1-4.1-4.5-4.8-1.3c-3.6,14.8-3.7,30.6-2.7,45.8
				c1,14.6,3.1,29.9,9.3,43.3C1209.4,348.8,1213.7,346.2,1212.4,343.3L1212.4,343.3z"/>
		</g>
	</g>
	<g class="st1">
		<g>
			<path d="M1230.7,363.8c0-33.8-1.3-67.5-1.3-101.3c0-3.2-5-3.2-5,0c0,33.8,1.3,67.5,1.3,101.3C1225.7,367,1230.7,367,1230.7,363.8
				L1230.7,363.8z"/>
		</g>
	</g>
	<g class="st1">
		<g>
			<path d="M1316.5,356.7c-5.5-30.2-11.2-63.4-2.6-93.5c0.9-3.1-3.9-4.4-4.8-1.3c-8.9,31.1-3.1,65.1,2.6,96.2
				C1312.2,361.2,1317.1,359.9,1316.5,356.7L1316.5,356.7z"/>
		</g>
	</g>
	<g class="st1">
		<g>
			<path d="M1527.8,325.4c-9-17.2-5-37.8-11.3-55.8c-1.1-3-5.9-1.7-4.8,1.3c6.5,18.5,2.5,39.3,11.8,57
				C1524.9,330.8,1529.3,328.2,1527.8,325.4L1527.8,325.4z"/>
		</g>
	</g>
	<g class="st1">
		<g>
			<path d="M1443.2,174.1c4.8-11,3-22.9,2.9-34.6c0-3.2-5-3.2-5,0c0.1,10.6,2.1,22.1-2.2,32.1C1437.6,174.5,1441.9,177,1443.2,174.1
				L1443.2,174.1z"/>
		</g>
	</g>
	<g class="st1">
		<g>
			<path d="M1353.7,55.5c-4.8-14.2,1.1-29.7,1.4-44.2c0.1-3.2-4.9-3.2-5,0c-0.2,15-6.2,30.8-1.2,45.5
				C1349.9,59.8,1354.7,58.5,1353.7,55.5L1353.7,55.5z"/>
		</g>
	</g>
	<g class="st1">
		<g>
			<path d="M1266.6,56.1c0.1-17.1,1.2-34.2,1.3-51.3c0-3.2-5-3.2-5,0c-0.1,17.1-1.2,34.2-1.3,51.3
				C1261.6,59.3,1266.6,59.3,1266.6,56.1L1266.6,56.1z"/>
		</g>
	</g>
	<g class="st1">
		<g>
			<path d="M533.3,271.4c97.7,0,195.4-2.3,293.2-3.4c27.9-0.3,55.8-0.5,83.8-0.5c3.2,0,3.2-5,0-5c-97.7,0-195.4,2.3-293.1,3.4
				c-27.9,0.3-55.9,0.5-83.8,0.5C530.1,266.4,530.1,271.4,533.3,271.4L533.3,271.4z"/>
		</g>
	</g>
	<g class="st1">
		<g>
			<path d="M907.7,267.6c27.2-0.2,54.3,5.2,81.4,3.6c9.6-0.5,19.1-1.6,28.7-1.7c9.4-0.1,20.2,0.1,28.3,5.4c2.7,1.8,5.2-2.6,2.5-4.3
				c-7.6-5-17.2-5.9-26-6.1c-10.4-0.2-20.8,0.9-31.2,1.5c-27.9,1.9-55.8-3.7-83.7-3.5C904.5,262.6,904.4,267.6,907.7,267.6
				L907.7,267.6z"/>
		</g>
	</g>
	<g class="st1">
		<g>
			<path d="M915.2,264.5c0.4-2.4-0.1-4.6-1.9-6.3c-1-0.9-2.6-1-3.5,0s-1,2.6,0,3.5c0.1,0.1,0.6,0.8,0.4,0.4c0.1,0.1,0.2,0.2,0.2,0.4
				c-0.1-0.2-0.1-0.3,0-0.1c0,0.2,0.1,0.8,0.1,0.3c0,0.1,0,0.3,0,0.4c0.1-0.3,0.1-0.3,0,0c-0.2,1.3,0.4,2.8,1.7,3.1
				C913.4,266.5,914.9,265.9,915.2,264.5L915.2,264.5z"/>
		</g>
	</g>
	<g class="st1">
		<g>
			<path d="M851.2,265.1c-0.1-16-1.9-32.2,1.2-48.1c0.6-3.1-4.2-4.5-4.8-1.3c-3.1,16.3-1.4,32.9-1.4,49.4
				C846.2,268.3,851.2,268.3,851.2,265.1L851.2,265.1z"/>
		</g>
	</g>
	<g class="st1">
		<g>
			<path d="M857.7,221.4c23.9-0.2,47.5-4.6,71.2-6.8c24.3-2.2,48.1,0.8,72.4,1.6c3.2,0.1,3.2-4.9,0-5c-24.3-0.8-48-3.9-72.4-1.6
				c-23.8,2.2-47.3,6.6-71.2,6.8C854.5,216.5,854.4,221.5,857.7,221.4L857.7,221.4z"/>
		</g>
	</g>
	<g class="st1">
		<g>
			<path d="M1005.2,221.5c0.1,16.7,1.2,33.3,1.3,50c0,3.2,5,3.2,5,0c0-16.7-1.2-33.3-1.3-50C1010.2,218.3,1005.2,218.3,1005.2,221.5
				L1005.2,221.5z"/>
		</g>
	</g>
	<g class="st1">
		<g>
			<path d="M911.4,211.3c0-9.8,0-19.7,0-29.5c0-3.2-5-3.2-5,0c0,9.8,0,19.7,0,29.5C906.4,214.5,911.4,214.5,911.4,211.3L911.4,211.3
				z"/>
		</g>
	</g>
	<g class="st1">
		<g>
			<path d="M912.8,180.4c15.1-0.2,29.9-3.8,44.7-6.2s31.3-4.8,45.7,1c3,1.2,4.3-3.6,1.3-4.8c-13.8-5.5-29.5-3.8-43.8-1.7
				c-15.9,2.3-31.8,6.5-47.9,6.7C909.6,175.5,909.6,180.5,912.8,180.4L912.8,180.4z"/>
		</g>
	</g>
	<g class="st1">
		<g>
			<path d="M998.8,177.3c2.2,12.1,3.7,24.2,3.8,36.5c0,3.2,5,3.2,5,0c-0.1-12.7-1.7-25.3-3.9-37.8
				C1003.1,172.8,998.3,174.2,998.8,177.3L998.8,177.3z"/>
		</g>
	</g>
	<g class="st1">
		<g>
			<path d="M946.1,168.9c0-7.7,0-15.4,0-23.1c0-3.2-5-3.2-5,0c0,7.7,0,15.4,0,23.1C941.1,172.2,946.1,172.2,946.1,168.9L946.1,168.9
				z"/>
		</g>
	</g>
	<g class="st1">
		<g>
			<path d="M934.6,147.1c11.5,0,23.1,0,34.6,0c3.2,0,3.2-5,0-5c-11.5,0-23.1,0-34.6,0C931.4,142.1,931.4,147.1,934.6,147.1
				L934.6,147.1z"/>
		</g>
	</g>
	<g class="st1">
		<g>
			<path d="M971.7,139.5c0.3-5.9-0.7-11.7-1.5-17.6c-0.2-1.4-1.9-1.9-3.1-1.7c-20,3.1-40.4,4.1-60.6,4.2c-1,0-2.2,0.8-2.4,1.8
				c-0.7,4.5-0.7,8.9,0,13.4c0.1,0.8,1,1.6,1.7,1.7c10.1,2.6,20.6,1.9,30.6,4.4c3.1,0.7,4.5-4.1,1.3-4.8
				c-10.1-2.4-20.6-1.8-30.6-4.4c0.6,0.6,1.2,1.2,1.7,1.7c-0.5-3.6-0.5-7.2,0-10.8c-0.8,0.6-1.6,1.2-2.4,1.8
				c20.7-0.1,41.5-1.2,61.9-4.4c-1-0.6-2.1-1.2-3.1-1.7c0.8,5.4,1.6,10.8,1.3,16.3C966.5,142.7,971.5,142.7,971.7,139.5L971.7,139.5
				z"/>
		</g>
	</g>
	<g class="st1">
		<g>
			<path d="M834.9,86.8c-5.2-18.3-22.1-26.7-40.2-26.5c-19.4,0.2-40.3,10.9-38.3,33.1c0.3,3.2,5.3,3.2,5,0
				C759.6,73.2,779,65,796.2,65.2c15.3,0.2,29.5,7.3,33.9,22.9C831,91.2,835.8,89.9,834.9,86.8L834.9,86.8z"/>
		</g>
	</g>
	<g class="st1">
		<g>
			<path d="M758.1,110c-8.1,11.6,0.5,27,8.4,36.3c8.8,10.3,22.7,16.6,36.2,12.5c27-8.1,37.9-46.7,32.5-71.3
				c-0.7-3.1-5.5-1.8-4.8,1.3c4.7,21.2-3.9,53.1-24.9,63.5c-11,5.4-23.7,2-32.3-6.2c-7.8-7.6-18.2-22.9-10.8-33.6
				C764.2,109.9,759.9,107.4,758.1,110L758.1,110z"/>
		</g>
	</g>
	<g class="st1">
		<g>
			<path d="M777.1,152.9c-5.1,12.9-5.6,27.3-5.5,41c0.1,14.8,1.5,29.5,1.5,44.2c0,3.2,5,3.2,5,0c0-14.2-1.3-28.4-1.5-42.7
				c-0.2-13.8,0.1-28.3,5.3-41.3C783.1,151.2,778.2,149.9,777.1,152.9L777.1,152.9z"/>
		</g>
	</g>
	<g class="st1">
		<g>
			<path d="M822.2,148.4c3.3,4.6,3.8,11.4,4.4,16.8c0.8,7.1,1.1,14.3,1.4,21.5c0.8,19.7,0.3,39.4,0.2,59.1c0,3.2,5,3.2,5,0
				c0-20.5,0.5-40.9-0.3-61.4c-0.3-7.5-0.7-14.9-1.7-22.4c-0.7-5.4-1.5-11.7-4.7-16.2C824.6,143.3,820.3,145.8,822.2,148.4
				L822.2,148.4z"/>
		</g>
	</g>
	<g class="st1">
		<g>
			<path d="M762.8,189.1c8,4.6,18.5,5.3,27.4,3.9c1.1-0.2,1.8-1.4,1.8-2.4c0.2-5,0.2-10,0-15c-0.1-1.4-1.1-2.4-2.5-2.5
				c-9.7-0.4-19.4,0.1-29.1,1.3c-1.7,0.2-2.7,1.4-2.4,3.2c0.7,4.8,2.7,9,5.2,13.2c1.6,2.8,6,0.3,4.3-2.5c-2.3-3.9-4-7.6-4.7-12
				c-0.8,1.1-1.6,2.1-2.4,3.2c9.7-1.2,19.3-1.7,29.1-1.3c-0.8-0.8-1.7-1.7-2.5-2.5c0.2,5,0.2,10,0,15c0.6-0.8,1.2-1.6,1.8-2.4
				c-7.6,1.1-16.8,0.5-23.5-3.4C762.5,183.1,760,187.5,762.8,189.1L762.8,189.1z"/>
		</g>
	</g>
	<g class="st1">
		<g>
			<path d="M771.8,75.4c-0.3,10.2-14.6,16.2-21.3,22.1c-2.4,2.2,1.1,5.6,3.5,3.5c1.4-1.2,2.8-2,4.3-2.9c-1.3-0.7-2.5-1.4-3.8-2.2
				c0.7,13.7-7,27.9-13.2,39.7c-1.5,2.8,2.8,5.4,4.3,2.5c6.7-12.5,14.7-27.6,13.9-42.2c-0.1-1.8-2.1-3.2-3.8-2.2
				c-1.9,1.1-3.6,2.3-5.3,3.7c1.2,1.2,2.4,2.4,3.5,3.5c8.1-7.2,22.4-13.2,22.7-25.7C776.9,72.1,771.9,72.1,771.8,75.4L771.8,75.4z"
				/>
		</g>
	</g>
	<g class="st1">
		<g>
			<path d="M821.6,73.5c1.5-9.3-1.4-17.8-8.7-23.9c-5.9-4.9-14.3-8.7-22.1-8.6c-10.2,0.1-31.7,6.7-21.6,20.5
				c0.7-1.3,1.4-2.5,2.2-3.8c-6.3,0-13.4,0.4-17.6,5.8c-3.6,4.7-4.4,11-7.2,16.2c-5.1,9.5-15.7,25.2,1.3,29.1
				c-0.5-1.2-1-2.4-1.5-3.7c-2.2,4.5-4.8,10.2-3,15.2c1.9,5.4,7.9,6.3,12.9,6.3c3.2,0,3.2-5,0-5c-3.4,0-8.1-0.2-8.5-4.5
				c-0.3-3.2,1.5-6.8,2.9-9.6c0.7-1.4,0.2-3.3-1.5-3.7c-7.4-1.7-6.5-6.6-3.7-12.3c2-3.9,4.6-7.5,6.4-11.5c1.8-4,2.7-8.6,4.9-12.4
				c3-5.1,9.2-5.1,14.5-5.1c1.8,0,3.3-2.2,2.2-3.8c-7.2-9.9,11.6-13.1,18.1-13c13.6,0.3,27.5,12,25.2,26.3
				C816.3,75.3,821.1,76.6,821.6,73.5L821.6,73.5z"/>
		</g>
	</g>
	<g class="st1">
		<g>
			<path d="M771.8,222.8c0,15-1.3,29.9-1.3,44.9c0,3.2,5,3.2,5,0c0-15,1.2-29.9,1.3-44.9C776.8,219.6,771.8,219.6,771.8,222.8
				L771.8,222.8z"/>
		</g>
	</g>
	<g class="st1">
		<g>
			<path d="M827,227.9c0.1,12,2.1,23.9,1.3,35.9c-0.2,3.2,4.8,3.2,5,0c0.8-12-1.2-23.9-1.3-35.9C831.9,224.7,826.9,224.7,827,227.9
				L827,227.9z"/>
		</g>
	</g>
	<g class="st1">
		<g>
			<path d="M580.7,263.8c0-5.6,0-11.1,0-16.7c0-3.2-5-3.2-5,0c0,5.6,0,11.1,0,16.7C575.7,267,580.7,267,580.7,263.8L580.7,263.8z"/>
		</g>
	</g>
	<g class="st1">
		<g>
			<path d="M586.5,245.7c47.2,12.1,96.7-6.9,143.6,7.7c3.1,1,4.4-3.9,1.3-4.8c-47-14.6-96.4,4.4-143.6-7.7
				C584.7,240.1,583.4,244.9,586.5,245.7L586.5,245.7z"/>
		</g>
	</g>
	<g class="st1">
		<g>
			<path d="M733.4,251c-0.2,2.3,0.9,7.9-1.3,9.4c-2.7,1.8-0.2,6.1,2.5,4.3c4.7-3.1,3.3-8.9,3.8-13.7
				C738.7,247.8,733.7,247.8,733.4,251L733.4,251z"/>
		</g>
	</g>
	<g class="st1">
		<g>
			<path d="M630.7,247.2c-0.1-10.8-1-21.8,1.4-32.5c-0.8,0.6-1.6,1.2-2.4,1.8c26.3,3,52.7,4,79.1,5.1c-0.8-0.6-1.6-1.2-2.4-1.8
				c1.6,8.5,2.2,17.1,4,25.5c0.7,3.1,5.5,1.8,4.8-1.3c-1.9-8.4-2.5-17-4-25.5c-0.2-1.1-1.4-1.8-2.4-1.8c-26.4-1.1-52.8-2.1-79.1-5.1
				c-1-0.1-2.2,0.9-2.4,1.8c-2.5,11.1-1.6,22.5-1.6,33.8C625.7,250.4,630.7,250.4,630.7,247.2L630.7,247.2z"/>
		</g>
	</g>
	<g class="st1">
		<g>
			<path d="M660.2,210c-1.6-16,38.7-14.4,36.1,4.5c-0.4,3.1,4.4,4.5,4.8,1.3c3.7-26.7-48.2-28.7-45.9-5.8
				C655.5,213.1,660.5,213.2,660.2,210L660.2,210z"/>
		</g>
	</g>
	<g class="st1">
		<g>
			<path d="M523.1,261.3c0,32.5-17.7,62.2-16.7,94.9c0.1,3.2,5.1,3.2,5,0c-1-32.6,16.7-62.3,16.7-94.9
				C528.1,258,523.1,258,523.1,261.3L523.1,261.3z"/>
		</g>
	</g>
	<g class="st1">
		<g>
			<path d="M1041.2,283.7c-3.6,13.5-0.8,27.3,0.8,40.9c1.7,15.5,1.7,31.4,1.7,46.9c0,3.2,5,3.2,5,0c0-15,0-30.3-1.5-45.3
				c-1.4-13.6-4.7-27.7-1.1-41.2C1046.8,281.9,1042,280.6,1041.2,283.7L1041.2,283.7z"/>
		</g>
	</g>
	<g class="st1">
		<g>
			<path d="M770.6,195.9c0.2,19.3,7,40.7,0.4,59.5c1.6,0.2,3.3,0.4,4.9,0.7c-0.7-21.1-15.1-37.3-23.4-55.6
				c-8.2-18.1-17.6-36.2-34.5-47.7c-2.7-1.8-5.2,2.5-2.5,4.3c16.1,10.9,24.9,28.7,32.7,45.9c7.9,17.4,22.1,33.1,22.8,53.1
				c0.1,2.9,4,3.3,4.9,0.7c6.8-19.3,0-41-0.2-60.8C775.5,192.7,770.5,192.6,770.6,195.9L770.6,195.9z"/>
		</g>
	</g>
	<g class="st1">
		<g>
			<path d="M713.6,154c2.8,2.6,8.4,4.9,9.6-0.6c0.9-4.2-1.8-9.1-5-11.6c-3.9-3.2-11.6-4.3-14.7,0.6c-3.3,5.1,1.4,11.9,4.9,15.5
				c2.2,2.3,5.8-1.2,3.5-3.5c-1.8-1.8-5.3-5.8-4.5-8.7c0.8-2.7,5.6-1.4,7.2-0.3c1.8,1.3,3.3,3.7,3.6,6c0.1,0.4,0.1,2.1,0.4,0.7
				c0.1-0.7,0.4,0.4,0.2-0.2c-0.1-0.2-1.6-1.2-1.8-1.4C714.8,148.3,711.2,151.9,713.6,154L713.6,154z"/>
		</g>
	</g>
	<g class="st1">
		<g>
			<path d="M716.2,140.8c-2.9-5.9-7.9-10.3-13.3-13.8c-0.6,1.5-1.3,3-1.9,4.6c4.3,0.8,7.8,3.3,9.4,7.3c1.2,3,6,1.7,4.8-1.3
				c-2.3-5.7-6.8-9.7-12.9-10.8c-2.7-0.5-4.4,3-1.9,4.6c4.8,3.1,9,6.9,11.5,12C713.3,146.2,717.6,143.6,716.2,140.8L716.2,140.8z"/>
		</g>
	</g>
	<g class="st1">
		<g>
			<path d="M775.6,238.2c0.1-12.9,4-25.3,3.8-38.2c-1.7,0-3.3,0-5,0c0.9,11.8-0.7,23.7-5.1,34.6c1.6,0.2,3.3,0.4,4.9,0.7
				c0.2-15.3-1.4-30.8,1.3-46.1c-1.6-0.2-3.3-0.4-4.9-0.7c0,6.7,0,13.4,0,20.1c0,3.2,5,3.2,5,0c0-6.7,0-13.4,0-20.1
				c0-2.7-4.4-3.5-4.9-0.7c-2.7,15.7-1.3,31.6-1.4,47.4c0,3,3.9,3.1,4.9,0.7c4.6-11.3,6.2-23.8,5.3-36c-0.2-3.2-5-3.3-5,0
				c0.1,12.9-3.7,25.3-3.8,38.2C770.5,241.4,775.5,241.4,775.6,238.2L775.6,238.2z"/>
		</g>
	</g>
	<g class="st1">
		<g>
			<path d="M946.1,56.1c0.4,0,0.9,0,1.3,0c1.3,0,2.6-1.1,2.5-2.5s-1.1-2.5-2.5-2.5c-0.4,0-0.9,0-1.3,0c-1.3,0-2.6,1.1-2.5,2.5
				C943.7,54.9,944.7,56.1,946.1,56.1L946.1,56.1z"/>
		</g>
	</g>
	<g class="st1">
		<g>
			<path d="M961.5,56.1c0.9,0,1.7,0,2.6,0c1.3,0,2.6-1.1,2.5-2.5s-1.1-2.5-2.5-2.5c-0.9,0-1.7,0-2.6,0c-1.3,0-2.6,1.1-2.5,2.5
				C959.1,54.9,960.1,56.1,961.5,56.1L961.5,56.1z"/>
		</g>
	</g>
	<g class="st1">
		<g>
			<path d="M984.5,49.7c0-0.4,0-0.9,0-1.3c0-1.3-1.1-2.6-2.5-2.5s-2.5,1.1-2.5,2.5c0,0.4,0,0.9,0,1.3c0,1.3,1.1,2.6,2.5,2.5
				C983.4,52.2,984.5,51.1,984.5,49.7L984.5,49.7z"/>
		</g>
	</g>
	<g class="st1">
		<g>
			<path d="M510.8,334.5c-4.3,1.7-5.6,6.5-6.4,10.7c-1.4,7.2-1.4,14.7-1.3,22c0.2,13.9,2,27.7,2.1,41.5c0,3.2,5,3.2,5,0
				c-0.1-12-1.6-24-2-36c-0.2-7-0.3-14,0.3-20.9c0.2-2.6,0.5-11.2,3.6-12.5C515.1,338.1,513.8,333.3,510.8,334.5L510.8,334.5z"/>
		</g>
	</g>
	<g class="st1">
		<g>
			<path d="M1049.4,362.7c-6.1-1.2-4.8,9-4.7,12.4c0.4,11.1,0.3,22.2,0.2,33.2c0,3,4,3.2,4.9,0.7c3.5-9.4,1.5-19.7,2.7-29.5
				c-1.7,0-3.3,0-5,0c0,13.6,0,27.2,0,40.8c0,3.2,5,3.2,5,0c0-13.6,0-27.2,0-40.8c0-3.3-4.6-3.1-5,0c-1.1,9.3,0.8,19.2-2.5,28.2
				c1.6,0.2,3.3,0.4,4.9,0.7c0.1-8.9,0.2-17.8,0.1-26.6c0-2.6-0.2-5.2-0.3-7.8c0-1.2-0.1-2.4-0.1-3.5c0-0.7,0-1.4,0.1-2.1
				c0.5-1.3-0.1-1.5-1.6-0.7C1051.2,368.1,1052.5,363.3,1049.4,362.7L1049.4,362.7z"/>
		</g>
	</g>
	<g class="st1">
		<g>
			<path d="M781.5,70.7c5.6,6.3,13,2.1,20,2.5c6.9,0.4,11.7,0.2,13.7-7.4c0.8-3.1-4-4.4-4.8-1.3c-1.6,6-6.2,3.6-10.9,3.7
				c-4.8,0.2-10.7,3.3-14.4-1C782.9,64.8,779.4,68.3,781.5,70.7L781.5,70.7z"/>
		</g>
	</g>
	<g class="st1">
		<g>
			<path d="M782.8,101.8c-0.3,0.4-0.6,0.8-0.9,1.1c-0.1,0.1-0.2,0.2-0.3,0.3l-0.1,0.1c0.3-0.5,1.6-0.8,2.3-0.5
				c0.4,0.2,0.7,0.4,1.1,0.6c0.3,0.2,0.8,1.1,0.7,1.6v-0.1c0-0.1,0-0.4,0-0.4s-0.1,0.8,0,0.3c0-0.1,0-0.2,0-0.3
				c0-0.3,0.1-0.6,0.1-0.9c-1.6-0.2-3.3-0.4-4.9-0.7c0,0.5,0,1-0.1,1.6c0,0.3,0.1-0.7,0-0.3c0,0.1,0,0.1,0,0.2v0.1
				c0.1-0.4,0.7-1.1,1.1-1.4c0.4-0.1,0.8-0.2,1.3-0.3l0,0c0.4,0.1,0.8,0.2,1.3,0.3l0,0c0.3,0.3,0.6,0.6,0.9,0.9
				c0.3,0.4,0.2,0.5,0.3,0.8c0.1,0.6,0,0.3,0,0.2c0,0,0-0.1,0-0.2c0-0.2,0.2-0.4-0.1,0.4c0.1-0.4,0.2-0.8,0.3-1.1
				c0.4-1.3-0.5-2.8-1.7-3.1c-1.4-0.3-2.7,0.4-3.1,1.7c-0.2,0.7-0.4,1.4-0.4,2.2c-0.1,1.5,1,2.8,2.5,2.8c2.6,0,2.8-2.9,2.8-4.8
				c0-1.2-1-2.3-2.2-2.5c-1.1-0.1-2.6,0.6-2.7,1.8c-0.1,0.8-0.3,1.7-0.4,2.5c-0.1,1.2,0.6,2.5,1.9,2.8c1.9,0.5,2.9-1.1,3.9-2.3
				c0.9-1,1-2.6,0-3.5C785.4,100.9,783.7,100.7,782.8,101.8L782.8,101.8z"/>
		</g>
	</g>
	<g class="st1">
		<g>
			<path d="M815.4,99.8c-2.2-0.2-4,1.6-3.8,3.8c0.1,1.3,1.1,2.6,2.5,2.5c1.3-0.1,2.6-1.1,2.5-2.5c0-0.3,0.1-0.7-0.1,0.1
				c0.1-0.2,0-0.1-0.2,0.3c-0.3,0.4-0.4,0.5-0.3,0.3c0.1-0.1,0-0.1-0.3,0.3c-0.5,0.2-0.6,0.2-0.3,0.2c-0.8,0.2-0.4,0-0.1,0.1
				c1.3,0.1,2.6-1.2,2.5-2.5C817.8,100.8,816.8,99.9,815.4,99.8L815.4,99.8z"/>
		</g>
	</g>
	<g class="st1">
		<g>
			<path d="M787.2,128.3c0.7-0.3-0.8-0.3-1.1-0.2c-0.7,0.1-1.3,0.4-1.8,1c-1.1,1.2-1.2,2.6-0.8,4.1c1,3.1,3.3,5.7,6.3,6.9
				c5.9,2.3,12.9-0.4,16.2-5.7c1.7-2.7-2.6-5.3-4.3-2.5c-3.2,5.2-11.7,5.7-13.6-0.8c-0.1,0.6-0.2,1.3-0.3,1.9
				c-0.1-0.1-0.1-0.1-0.2-0.2c-0.6,0.1-1.3,0.2-1.9,0.3c1.6,0.3,2.4,0.4,3.9-0.3C792.6,131.3,790.1,127,787.2,128.3L787.2,128.3z"/>
		</g>
	</g>
	<g class="st1">
		<g>
			<path d="M874.3,95.9c0-0.4,0-0.9,0-1.3c0-1.3-1.1-2.6-2.5-2.5s-2.5,1.1-2.5,2.5c0,0.4,0,0.9,0,1.3c0,1.3,1.1,2.6,2.5,2.5
				C873.1,98.3,874.3,97.3,874.3,95.9L874.3,95.9z"/>
		</g>
	</g>
	<g class="st1">
		<g>
			<path d="M897.3,92c0-1.3,0-2.6,0-3.8c0-1.3-1.1-2.6-2.5-2.5s-2.5,1.1-2.5,2.5c0,1.3,0,2.6,0,3.8c0,1.3,1.1,2.6,2.5,2.5
				C896.2,94.5,897.3,93.4,897.3,92L897.3,92z"/>
		</g>
	</g>
	<g class="st1">
		<g>
			<path d="M924.3,86.9C924.2,87.5,924.3,86.9,924.3,86.9C924.5,86.6,924.5,86.6,924.3,86.9C924.3,87,924.3,87,924.3,86.9
				C924.5,86.6,924.5,86.6,924.3,86.9C924.3,87,924.3,87,924.3,86.9C924.6,86.7,924.5,86.7,924.3,86.9
				C924.2,86.9,924.2,86.9,924.3,86.9C924.8,86.6,923.9,86.9,924.3,86.9c0.2-0.1,0.2-0.1,0.3-0.1C924.9,86.7,924.8,86.8,924.3,86.9
				c0.1-0.1,0.5-0.1,0.6-0.1c0.7,0-0.3-0.1,0.2,0c1.3,0.3,2.8-0.4,3.1-1.7c0.3-1.2-0.4-2.8-1.7-3.1c-1.6-0.3-3.2-0.3-4.6,0.6
				c-1.6,1-2.1,2.6-2.4,4.4c-0.2,1.3,1.3,2.6,2.5,2.5C923.3,89.3,924.1,88.3,924.3,86.9L924.3,86.9z"/>
		</g>
	</g>
	<g class="st1">
		<g>
			<path d="M962.4,88.2c0.2-0.3,0.3-0.7,0.5-1c0.1-0.2,0.2-0.4,0.3-0.5c0.1-0.2,0.4-0.4-0.2,0.2c0,0,0-0.1,0.1-0.1
				c-0.4,0.4-1,0.6-1.6,0.7c-0.4-0.1-0.8-0.2-1.3-0.3c-0.7-0.4-1.1-1-1.1-1.7c0-0.3,0-0.4,0-0.2c0,0.2-0.1,0.6,0-0.3
				c-0.1,0.7-0.1,1.3,0.3,1.9c0.3,0.5,0.9,1,1.5,1.1c1.2,0.3,2.9-0.4,3.1-1.7c0.2-1.1,0.2-2.2-0.7-3.1c-1.1-1.1-2.7-0.9-3.8,0.1
				c-0.6,0.6-1,1.5-1.4,2.3c-0.6,1.1-0.3,2.8,0.9,3.4C960.1,89.7,961.7,89.4,962.4,88.2L962.4,88.2z"/>
		</g>
	</g>
	<g class="st1">
		<g>
			<path d="M778.3,201.7c3.1,12.2,7.5,23.9,7.9,36.6c0.3,8.2-0.7,18.3,3.8,25.6c1.7,2.7,6,0.2,4.3-2.5c-4.6-7.4-2.8-18.7-3.3-27
				c-0.8-11.7-5.1-22.7-7.9-33.9C782.4,197.2,777.5,198.5,778.3,201.7L778.3,201.7z"/>
		</g>
	</g>
	<g class="st1">
		<g>
			<path d="M784.5,207.4c-0.5-5.8-2.4-11.4-2.6-17.3c-0.1-3.2-5-3.2-5,0c0,7.1,0,14.3,0,21.4c0,3.2,5,3.2,5,0c0-3.5,0-7,0-10.5
				c0-3.2-5-3.2-5,0c0,3.5,0,7,0,10.5c0,3.2,5,3.2,5,0c0-7.1,0-14.3,0-21.4c-1.7,0-3.3,0-5,0c0.1,5.9,2.1,11.4,2.6,17.3
				C779.8,210.6,784.8,210.6,784.5,207.4L784.5,207.4z"/>
		</g>
	</g>
	<g class="st1">
		<g>
			<path d="M777.8,245.9c-9.8-17.3-19.6-34.6-28.2-52.6c-1.4-2.9-5.7-0.4-4.3,2.5c8.6,17.9,18.4,35.2,28.2,52.6
				C775,251.2,779.4,248.7,777.8,245.9L777.8,245.9z"/>
		</g>
	</g>
	<g class="st1">
		<g>
			<path d="M750.9,203.6c-6.4-12.6-11.6-26.5-22.2-36.4c-2.3-2.2-5.9,1.3-3.5,3.5c10.2,9.6,15.2,23.2,21.4,35.4
				C748,209,752.3,206.5,750.9,203.6L750.9,203.6z"/>
		</g>
	</g>
	<g class="st1">
		<g>
			<path d="M820.4,201c0.2-4.3,0.6-8.5,1.2-12.8c-1.6-0.2-3.3-0.4-4.9-0.7c0,19.4-3.6,38.6-2.6,58c0.1,2.6,4.4,3.6,4.9,0.7
				c0.4-2.6-0.1-3.4-1.5-5.5c-1.8-2.6-6.2-0.1-4.3,2.5c0.2,0.3,1.1,1.2,1,1.6c1.6,0.2,3.3,0.4,4.9,0.7c-1-19.4,2.5-38.6,2.6-58
				c0-2.7-4.5-3.5-4.9-0.7c-0.7,4.7-1.2,9.4-1.4,14.1C815.3,204.2,820.3,204.2,820.4,201L820.4,201z"/>
		</g>
	</g>
	<g class="st1">
		<g>
			<path d="M821.6,195.3c2.4-11.6,2.6-23.4,2.7-35.3c0-3.2-5-3.2-5,0c0,11.4-0.2,22.8-2.5,34C816.1,197.1,821,198.4,821.6,195.3
				L821.6,195.3z"/>
		</g>
	</g>
	<g class="st1">
		<g>
			<path d="M825.6,168.9c0-3.4,0-6.8,0-10.3c0-3.2-5-3.2-5,0c0,3.4,0,6.8,0,10.3C820.6,172.2,825.6,172.2,825.6,168.9L825.6,168.9z"
				/>
		</g>
	</g>
	<g class="st1">
		<g>
			<path d="M816.7,224.1c0,9.3,0,18.5,0,27.8c0,3.2,5,3.2,5,0c0-1.6,0-3.2,0-4.7c0-3.2-5-3.2-5,0c0,1.6,0,3.2,0,4.7c0,3.2,5,3.2,5,0
				c0-9.3,0-18.5,0-27.8C821.7,220.9,816.7,220.9,816.7,224.1L816.7,224.1z"/>
		</g>
	</g>
	<g class="st1">
		<g>
			<path d="M815.5,233.7c2.6,13.4,5.3,26.7,5,40.4c-0.1,3.2,4.9,3.2,5,0c0.3-14.1-2.6-27.9-5.2-41.7
				C819.7,229.2,814.9,230.6,815.5,233.7L815.5,233.7z"/>
		</g>
	</g>
	<g class="st1">
		<g>
			<path d="M795,232.4c-2.2,9.6,0.6,19.7-2.6,29.1c1.6,0.2,3.3,0.4,4.9,0.7c0.1-1.2,0.2-2.3,0.1-3.5c-0.2-3.2-5.2-3.2-5,0
				c0.1,1.2,0,2.3-0.1,3.5c-0.2,2.9,4,3.2,4.9,0.7c3.3-9.5,0.4-19.5,2.6-29.1C800.6,230.6,795.7,229.2,795,232.4L795,232.4z"/>
		</g>
	</g>
	<g class="st1">
		<g>
			<path d="M791.1,244.6c0,5.1,0,10.3,0,15.4c0,3.2,5,3.2,5,0c0-5.1,0-10.3,0-15.4C796.1,241.4,791.1,241.4,791.1,244.6L791.1,244.6
				z"/>
		</g>
	</g>
	<g class="st1">
		<g>
			<path d="M826,251c3.9,7.4-7.5,12-12.1,16c-7.5,6.4-13.6,14.3-18.8,22.7c-1.7,2.7,2.6,5.3,4.3,2.5c6.4-10.4,14.2-19.1,24.1-26.2
				c6.2-4.4,10.8-9.9,6.7-17.5C828.8,245.6,824.5,248.1,826,251L826,251z"/>
		</g>
	</g>
	<g class="st1">
		<g>
			<path d="M687.2,316.3c3.2,0,3.2-5,0-5C683.9,311.3,683.9,316.3,687.2,316.3L687.2,316.3z"/>
		</g>
	</g>
	<g class="st1">
		<g>
			<path d="M829.3,163.2c-1.7-4.7-2.6-9.4-2.5-14.4c-1.7,0-3.3,0-5,0c0.1,3.9,0.7,7.7,1.4,11.5c0.5,2.7,5.1,2.2,4.9-0.7
				c-0.3-3.8-0.8-7.6-1.4-11.4c-0.5-2.8-5-2.1-4.9,0.7c0.1,3.2-0.2,6.3-0.3,9.5c1.6-0.2,3.3-0.4,4.9-0.7c-0.9-2.8-1.7-5.7-2.3-8.6
				c-0.6-3.2-5.4-1.8-4.8,1.3c0.5,2.9,1.4,5.8,2.3,8.6c0.9,2.7,4.8,2.2,4.9-0.7c0.1-3.2,0.3-6.3,0.3-9.5c-1.6,0.2-3.3,0.4-4.9,0.7
				c0.5,3.3,0.9,6.7,1.2,10.1c1.6-0.2,3.3-0.4,4.9-0.7c-0.6-3.4-1.1-6.7-1.2-10.2c-0.1-3.2-4.9-3.2-5,0c-0.2,5.4,0.8,10.6,2.7,15.7
				C825.6,167.5,830.4,166.2,829.3,163.2L829.3,163.2z"/>
		</g>
	</g>
	<g class="st1">
		<g>
			<path d="M711.5,161.2c3.2,0,3.2-5,0-5S708.3,161.2,711.5,161.2L711.5,161.2z"/>
		</g>
	</g>
	<g class="st1">
		<g>
			<path d="M788.4,131.7c5.4-0.4,10.7,0.2,16,1.2c3.1,0.6,4.5-4.2,1.3-4.8c-5.7-1.1-11.5-1.8-17.3-1.4
				C785.2,126.9,785.2,131.9,788.4,131.7L788.4,131.7z"/>
		</g>
	</g>
	<g class="st1">
		<g>
			<path d="M799.5,290.3c-6.4,6.3-8.6,17.8-2.5,24.9c1.1,1.3,3.1,0.7,3.9-0.5c6-8.8,8.1-20.4,6.1-30.8c-0.4-2.3-3.5-2.2-4.6-0.6
				c-3.6,5.5-5.5,13.7-4.9,20.2c0.3,3.2,5.3,3.2,5,0c-0.5-5.7,1.1-12.9,4.2-17.7c-1.5-0.2-3-0.4-4.6-0.6c1.8,9.1-0.3,19.2-5.6,26.9
				c1.3-0.2,2.6-0.3,3.9-0.5c-4.3-5.1-1.8-13.7,2.5-17.9C805.3,291.5,801.8,288,799.5,290.3L799.5,290.3z"/>
		</g>
	</g>
	<g class="st1">
		<g>
			<path d="M799.1,290.8c-1.5,3.3-2.5,6.6-2.9,10.2c-0.2,1.4,1.3,2.5,2.5,2.5c1.5,0,2.3-1.2,2.5-2.5c0.3-2.7,1.1-5.3,2.2-7.7
				C804.8,290.4,800.5,287.9,799.1,290.8L799.1,290.8z"/>
		</g>
	</g>
	<g class="st1">
		<g>
			<path d="M547.6,304.2c-4.8,14.4-3.7,30.5-3,45.5c0.7,13.2,3.4,28.9-0.9,41.7c-1,3.1,3.8,4.4,4.8,1.3c4.2-12.5,1.9-27.4,1.2-40.2
				c-0.8-15.4-2.3-32.1,2.6-46.9C553.4,302.5,548.6,301.1,547.6,304.2L547.6,304.2z"/>
		</g>
	</g>
	<g class="st1">
		<g>
			<path d="M565.4,300.6c18.4,11.9,43.1,9.9,63.9,9.4c29.6-0.7,59-5.1,88.6-5.2c3.2,0,3.2-5,0-5c-28.8,0.1-57.3,4.6-86.1,5.2
				c-20.7,0.4-45.7,3.1-63.9-8.7C565.2,294.5,562.7,298.9,565.4,300.6L565.4,300.6z"/>
		</g>
	</g>
	<g class="st1">
		<g>
			<path d="M838.5,317.3c24.9,12.6,51.4,20.4,78.7,25.8c25.7,5.1,51.1,16.3,77.7,14.2c3.2-0.2,3.2-5.2,0-5c-26.2,2-51.1-9-76.4-14.1
				c-26.9-5.4-52.9-12.9-77.5-25.3C838.1,311.5,835.6,315.8,838.5,317.3L838.5,317.3z"/>
		</g>
	</g>
	<g class="st1">
		<g>
			<path d="M996.3,370.9c1.7,9.1,2.6,18.4,2.4,27.7c-0.2,9.2-1,20.1-6.9,27.6c-2,2.5,1.6,6.1,3.5,3.5c6.3-8,7.8-18.5,8.2-28.4
				c0.5-10.6-0.5-21.3-2.5-31.7C1000.5,366.4,995.7,367.7,996.3,370.9L996.3,370.9z"/>
		</g>
	</g>
	<g class="st1">
		<g>
			<path d="M605.7,407.3c42.5,13.8,88,16.3,132.3,19.2c24.8,1.6,49.4,2.9,74.3,2.8c25.6-0.1,51.4-0.8,76.9,1.8
				c26.9,2.8,51.8,14.7,78.7,17.4c3.2,0.3,3.2-4.7,0-5c-23.7-2.4-45.8-12.1-69.1-16.1c-24.8-4.2-50.6-3.4-75.7-3.2
				c-47.4,0.3-94.9-2.1-142-7.2c-25-2.7-50.1-6.7-74.1-14.5C604,401.4,602.7,406.3,605.7,407.3L605.7,407.3z"/>
		</g>
	</g>
	<g class="st1">
		<g>
			<path d="M589.6,341.4c0.6-4.3,7.3-6.4,10.9-6.4c8.4-0.1,4.2,9.2,1.7,13.6c-3.1,5.4-10.5,12-3.2,17.4c7.7,5.7,19.2,4,23.7-4.7
				c1.5-2.9-2.8-5.4-4.3-2.5c-1.5,3-4,5-7.3,5.5c-2.5,0.4-8.4-0.3-9.8-2.9c-1.5-2.8,4.6-8.9,6-11.5c2.6-4.9,5.8-12.7,1-17.3
				c-6.1-6-22.2-1.2-23.5,7.5C584.3,343.2,589.1,344.6,589.6,341.4L589.6,341.4z"/>
		</g>
	</g>
	<g class="st1">
		<g>
			<path d="M627,352.3c0.1,6.8,3.7,12.8,3.8,19.5c1.7,0,3.3,0,5,0c-0.7-5.5-2.7-10.8-3.4-16.3c-0.3-2.8-1-7.9,3.5-7.3
				c3.7,0.5,6.7,5.2,7.6,8.4c0.8-1.1,1.6-2.1,2.4-3.2c-4.9,0.2-9.9,0.7-14.6-1c-3-1.1-4.3,3.7-1.3,4.8c5.1,1.9,10.6,1.4,15.9,1.2
				c1.6-0.1,2.9-1.5,2.4-3.2c-2-7.3-13.7-18.4-19.9-8.4c-4.4,7,1.4,17.7,2.3,24.9c0.4,3.1,5.1,3.3,5,0c-0.1-6.8-3.7-12.8-3.8-19.5
				C631.9,349.1,626.9,349.1,627,352.3L627,352.3z"/>
		</g>
	</g>
	<g class="st1">
		<g>
			<path d="M649.1,342c-6.3,10.5,12.5,21.3,18.8,12c3.1-4.6,0.9-11.7-3.9-14.1c-4.6-2.4-10.7-0.9-14.6,2.2c-5.5,4.4-4.8,11.1,0,15.8
				c2.3,2.3,5.8-1.3,3.5-3.5c-3.2-3.1-3.4-6.6,0.6-9.1c2.7-1.7,7.7-2.6,9.8,0.6c0.9,1.4,1.4,4.1,0.3,5.5c-1,1.3-3.1,1.1-4.5,0.9
				c-3.5-0.7-8.2-3.7-5.8-7.6C655.1,341.8,650.7,339.3,649.1,342L649.1,342z"/>
		</g>
	</g>
	<g class="st1">
		<g>
			<path d="M680.1,337.1c-6.3,1.8-5.1,8.6,0,11c8.7,4.2,9.2-7.4,8.2-12.7c-1.6,0.4-3.2,0.9-4.8,1.3c2.6,11.4,9.8,19.9,22.3,18
				c3.2-0.5,1.8-5.3-1.3-4.8c-9.7,1.4-14.3-6.2-16.2-14.5c-0.7-3.2-5.4-1.8-4.8,1.3c0.2,1.4,1.7,7.4-1,7c-0.6-0.1-1.4-0.9-1.7-1.4
				c-0.4-0.6-0.5-0.1,0.6-0.4C684.5,341,683.2,336.2,680.1,337.1L680.1,337.1z"/>
		</g>
	</g>
	<g class="st1">
		<g>
			<path d="M711.5,347.2c-4.2-0.5-3.5-6.9-2.6-9.6c1.6-4.9,5.6-8.3,10.9-7.3c3.1,0.6,4.5-4.2,1.3-4.8c-8.3-1.6-15.2,3.4-17.3,11.5
				c-1.7,6.4,0.1,14.4,7.7,15.2C714.7,352.6,714.7,347.6,711.5,347.2L711.5,347.2z"/>
		</g>
	</g>
	<g class="st1">
		<g>
			<path d="M766.7,315.1c-0.2,6.9-2,14.6,0.3,21.3c2.7,8.2,10.3,5,15.3,1.1c-1.4-0.6-2.8-1.2-4.3-1.8c0.3,6.2-0.2,12.4,1.6,18.5
				c0.9,3.1,5.7,1.8,4.8-1.3c-1.7-5.6-1.2-11.4-1.4-17.2c-0.1-2.3-2.6-3.1-4.3-1.8c-1.6,1.2-4.6,3.9-6.5,2.2c-1.4-1.2-1.2-5-1.3-6.6
				c-0.1-4.9,0.5-9.7,0.7-14.5C771.8,311.9,766.8,311.9,766.7,315.1L766.7,315.1z"/>
		</g>
	</g>
	<g class="st1">
		<g>
			<path d="M820.5,351.1c-0.3,0-0.5,0-0.8,0c-3.2,0-3.2,5,0,5c0.3,0,0.5,0,0.8,0C823.7,356.1,823.7,351.1,820.5,351.1
				c-0.3,0-0.5,0-0.8,0c-3.2,0-3.2,5,0,5c0.3,0,0.5,0,0.8,0C823.7,356.1,823.7,351.1,820.5,351.1L820.5,351.1z"/>
		</g>
	</g>
	<g class="st1">
		<g>
			<path d="M855.7,357.6c-0.8,0.2-1.6,0.7-2.1,1.4c-0.6,1.1-0.4,2.4,0.5,3.2c0.8,0.8,1.9,1.1,2.9,1.4c1.2,0.4,2.8-0.5,3.1-1.7
				c0.3-1.4-0.4-2.6-1.7-3.1c-0.3-0.1-0.7-0.2-1-0.4c-0.3-0.1,0.5,0.3,0.3,0.1c-0.1,0-0.1-0.1-0.2-0.1c-0.1,0-0.3-0.2,0.1,0.1
				c0.3,0.2,0.7,0.7,0.7,1.1s0,0.9,0,1.3c-0.3,0.8-0.7,1.3-1.4,1.5c0.1,0,0.2-0.1,0.3-0.1c1.3-0.3,2.2-1.8,1.7-3.1
				C858.4,358,857.1,357.2,855.7,357.6L855.7,357.6z"/>
		</g>
	</g>
	<g class="st1">
		<g>
			<path d="M889.7,371.4c0.4,0,0.9,0,1.3,0c1.3,0,2.6-1.1,2.5-2.5s-1.1-2.5-2.5-2.5c-0.4,0-0.9,0-1.3,0c-1.3,0-2.6,1.1-2.5,2.5
				S888.3,371.4,889.7,371.4L889.7,371.4z"/>
		</g>
	</g>
	<g class="st1">
		<g>
			<path d="M889.7,1026.6c3.2,0,3.2-5,0-5S886.5,1026.6,889.7,1026.6L889.7,1026.6z"/>
		</g>
	</g>
	<g class="st1">
		<g>
			<path d="M523.2,406.7c-3.6,23.9-9.3,47.7-3.8,71.8c0.7,3.1,5.5,1.8,4.8-1.3c-5.3-23.2,0.4-46.2,3.8-69.2
				C528.5,404.9,523.7,403.6,523.2,406.7L523.2,406.7z"/>
		</g>
	</g>
	<g class="st1">
		<g>
			<path d="M516.7,476.2c24,15.1,50.2,24.8,78.3,29c32.7,5,66,5.6,98.9,8.5c19.9,1.7,39.7,4.1,59.3,7.6c3.1,0.6,4.5-4.3,1.3-4.8
				c-32.8-5.8-66-8.3-99.2-10.7c-31-2.2-62.5-3.5-92.3-13.1c-15.5-5-30-12.2-43.8-20.8C516.5,470.2,513.9,474.5,516.7,476.2
				L516.7,476.2z"/>
		</g>
	</g>
	<g class="st1">
		<g>
			<path d="M1046.1,459.9c11.6-0.1,23.1-2,34.6-2.6c3.2-0.2,3.2-5.2,0-5c-11.6,0.6-23,2.5-34.6,2.6
				C1042.9,454.9,1042.9,459.9,1046.1,459.9L1046.1,459.9z"/>
		</g>
	</g>
	<g class="st1">
		<g>
			<path d="M1473.2,146.5c-5.3,13.2-7.3,27.6-7.8,41.7c-0.1,3.2,4.9,3.2,5,0c0.5-13.7,2.5-27.6,7.6-40.4
				C1479.2,144.8,1474.4,143.5,1473.2,146.5L1473.2,146.5z"/>
		</g>
	</g>
	<g class="st1">
		<g>
			<path d="M1547.5,43.3c0,15-1.2,29.9-1.3,44.9c0,3.2,5,3.2,5,0c0.1-15,1.3-29.9,1.3-44.9C1552.5,40.1,1547.5,40.1,1547.5,43.3
				L1547.5,43.3z"/>
		</g>
	</g>
	<g class="st1">
		<g>
			<path d="M1600.1,42.7c4.6,22.6-1.1,45.9-2.7,68.6c-0.2,3.2,4.8,3.2,5,0c1.6-23.2,7.2-46.7,2.5-69.9
				C1604.3,38.2,1599.5,39.5,1600.1,42.7L1600.1,42.7z"/>
		</g>
	</g>
	<g class="st1">
		<g>
			<path d="M1651.3,174.1c0.1,10.3,1.8,20.5,2.6,30.8c0.2,3.2,5.2,3.2,5,0c-0.7-10.3-2.4-20.5-2.6-30.8
				C1656.3,170.9,1651.3,170.9,1651.3,174.1L1651.3,174.1z"/>
		</g>
	</g>
	<g class="st1">
		<g>
			<path d="M1875.7,260c-0.7,12.2,1.7,24.4-1.2,36.5c-0.7,3.1,4.1,4.5,4.8,1.3c3-12.6,0.6-25.2,1.4-37.8
				C1880.9,256.8,1875.9,256.8,1875.7,260L1875.7,260z"/>
		</g>
	</g>
	<g class="st1">
		<g>
			<path d="M1809,320.2c-0.1,30.8-5.3,61.1-9.7,91.5c-4.4,30.1-5.9,60.4-9.5,90.6c-0.4,3.2,4.6,3.2,5,0c3.7-31,5.3-62.2,9.9-93.1
				c4.4-29.5,9.3-59,9.4-89C1814,317,1809,317,1809,320.2L1809,320.2z"/>
		</g>
	</g>
	<g class="st1">
		<g>
			<path d="M1745,463.2c3,9.3,14,13.4,21.9,17.5c13.3,6.8,25.6,15.7,38.5,23.2c27.5,16.1,57.9,26,85.6,41.6c2.8,1.6,5.3-2.7,2.5-4.3
				c-26-14.6-54.6-23.9-80.5-38.7c-13.4-7.6-26.2-16.1-39.5-23.9c-7.3-4.3-20.9-7.8-23.7-16.7C1748.8,458.8,1744,460.1,1745,463.2
				L1745,463.2z"/>
		</g>
	</g>
	<g class="st1">
		<g>
			<path d="M1747.8,485.6c4.5,8,12.8,13.4,20.8,17.6c9.7,5.1,20.1,9,30.5,12.6c10.1,3.5,20.1,7.3,30.3,10.4
				c14,4.3,28.5,7.8,41.1,15.4c2.8,1.7,5.3-2.6,2.5-4.3c-11.6-7-24.7-10.7-37.5-14.5c-10.3-3.1-20.3-6.7-30.4-10.2
				c-10.3-3.5-20.7-7.2-30.5-12c-8.4-4.1-17.7-9.2-22.4-17.5C1750.6,480.3,1746.2,482.8,1747.8,485.6L1747.8,485.6z"/>
		</g>
	</g>
	<g class="st1">
		<g>
			<path d="M1889.8,395.9c2,43.2-15.5,84.2-26.8,125c-0.9,3.1,4,4.4,4.8,1.3c11.5-41.3,29-82.7,27-126.3
				C1894.6,392.7,1889.6,392.6,1889.8,395.9L1889.8,395.9z"/>
		</g>
	</g>
	<g class="st1">
		<g>
			<path d="M1456.5,997.8c5.5,24.6,7.8,50.2,10.4,75.2c2.4,24.1,3.4,49.5,14.3,71.6c1.4,2.9,5.7,0.4,4.3-2.5
				c-11.2-22.7-11.3-49-14.1-73.6c-2.7-24-4.8-48.4-10-72C1460.7,993.4,1455.8,994.7,1456.5,997.8L1456.5,997.8z"/>
		</g>
	</g>
	<g class="st1">
		<g>
			<path d="M1127.1,787.5c-3,9,0.3,18.2,0.1,27.4c0,1.5,1.6,3,3.2,2.4c9-3.2,14.8-12,21.3-18.5c0.7-0.7,1-2.1,0.4-3
				c-6.2-8.9-6.2-21.9-3.4-32c-1.6-0.2-3.3-0.4-4.9-0.7c0,6.5-0.7,13.9-7.9,16.1c-6.3,1.9-13.6,1.2-20.1,1.6
				c-2.3,0.1-3.7,3.5-1.3,4.7c8.6,4.1,18.2,7.1,18.9,18.1c0.2,3.2,5.2,3.2,5,0c-0.9-13.2-10.7-17.4-21.4-22.4
				c-0.4,1.6-0.8,3.1-1.3,4.7c7.7-0.5,17.1,0.7,24.2-2.8c7.5-3.7,8.7-12.3,8.7-19.8c0-2.8-4.2-3.4-4.9-0.7
				c-3.1,11.3-3,25.9,3.9,35.9c0.1-1,0.3-2,0.4-3c-5.7,5.7-11.2,14.4-19,17.2c1.1,0.8,2.1,1.6,3.2,2.4c0.1-8.7-3.1-17.6-0.3-26.1
				C1132.9,785.8,1128.1,784.5,1127.1,787.5L1127.1,787.5z"/>
		</g>
	</g>
	<g class="st1">
		<g>
			<path d="M1851.4,767c-1.9,5.5-1.5,11.2-1.2,17c0.1,1.5,1.6,3,3.2,2.4c13.3-5.1,23.8-15.3,35.8-22.7c2.2-1.4,1.2-4.5-1.3-4.7
				c-7.2-0.6-15.2-1.5-21.4-5.4c-7.7-4.8-6.8-13.1-3.5-20.5c1.2-2.6-1.7-4.8-3.9-3c-9.6,7.6-20.9,12.2-32.5,15.9
				c-1.9,0.6-2.7,3.6-0.6,4.6c9,4,19.6,7.5,22.9,17.8c1,3.1,5.8,1.7,4.8-1.3c-3.8-11.9-14.7-16.1-25.2-20.8c-0.2,1.5-0.4,3-0.6,4.6
				c12.5-3.9,24.4-9,34.7-17.2c-1.3-1-2.6-2-3.9-3c-3.8,8.5-5.4,18.5,2.4,25.3c7.1,6.2,17.7,7.4,26.8,8.2c-0.4-1.6-0.8-3.1-1.3-4.7
				c-11.6,7.1-21.8,17.3-34.6,22.2c1.1,0.8,2.1,1.6,3.2,2.4c-0.2-5.3-0.7-10.5,1.1-15.6C1857.3,765.3,1852.4,764,1851.4,767
				L1851.4,767z"/>
		</g>
	</g>
	<g class="st1">
		<g>
			<path d="M787.2,786.9c0.1,8.1,2.5,15.8,4.9,23.5c0.7,2.3,4.2,2.5,4.8,0c2.6-9.9,5-29.3,17.6-31.2c-1.1-0.8-2.1-1.6-3.2-2.4
				c0.1,3,0.6,4.1-2,1.8c-1.6-1.5-3-3.4-4-5.3c-3.1-5.7-2.1-12.7-4.2-18.8c-0.6-1.6-2.9-2.7-4.2-1.1c-7.9,10-20.8,12.6-31,19.5
				c-1.7,1.1-1.6,4.1,0.6,4.6c8.1,1.9,13.4,7.9,18.8,13.7c2.2,2.4,5.7-1.2,3.5-3.5c-6-6.5-12.1-13-21-15c0.2,1.5,0.4,3,0.6,4.6
				c10.6-7.1,23.8-9.9,32-20.3c-1.4-0.4-2.8-0.7-4.2-1.1c2.1,5.9,1.4,12.5,3.9,18.3c1.3,3.1,3.5,6.1,6,8.4
				c5.9,5.4,10.5,1.6,10.2-5.7c-0.1-1.8-1.5-2.7-3.2-2.4c-14.9,2.2-18.1,22.9-21.1,34.6c1.6,0,3.2,0,4.8,0
				c-2.3-7.3-4.7-14.5-4.7-22.1C792.2,783.7,787.2,783.7,787.2,786.9L787.2,786.9z"/>
		</g>
	</g>
	<g class="st1">
		<g>
			<path d="M730.8,30.9c-6.8,5.2-4.3,19.5-3.6,26.6c1,10.8,2.5,21.7,5.1,32.2c0.6,2.6,4,2.1,4.8,0c1.2-2.9,2.8-5.6,3.8-8.6
				c1-3.1-3.8-4.4-4.8-1.3c-1,3-2.6,5.7-3.8,8.6c1.6,0,3.2,0,4.8,0c-2.2-9-3.6-18.3-4.5-27.5c-0.6-5.2-1-10.5-0.9-15.8
				c0-2.3-0.4-8.4,1.7-10C735.8,33.3,733.3,28.9,730.8,30.9L730.8,30.9z"/>
		</g>
	</g>
</g>
<g id="Calque_7">
	<rect x="-72.3" y="-73.7" class="st2" width="2139.2" height="1291.6"/>
</g>
<g id="Calque_8">
	<polygon class="st3" points="247.8,458.8 154.1,455.5 98.3,530.9 72.5,440.7 -16.4,410.9 61.3,358.4 62.3,264.8 136.1,322.5 
		225.5,294.3 193.5,382.4 	"/>
	<polygon class="st3" points="273.8,844.6 243.4,822 207.5,834.1 219.6,798.2 197,767.9 234.8,768.3 256.7,737.3 268.1,773.6 
		304.2,784.8 273.3,806.7 	"/>
	<polygon class="st3" points="592,554 664.2,601.8 744.4,569.4 721.4,652.7 776.9,719 690.6,722.8 644.7,796.2 614.3,715.1 
		530.4,694.2 598.1,640.4 	"/>
	<polygon class="st3" points="507.4,246.6 305.1,171.5 128.5,295.6 137.3,80.1 -35.2,-49.5 172.6,-107.7 242.5,-311.9 362,-132.2 
		577.8,-128.9 443.9,40.4 	"/>
	<polygon class="st3" points="879.5,222.8 942.6,245.6 997.1,206.6 994.9,273.7 1048.9,313.5 984.4,332.1 963.2,395.7 925.6,340.2 
		858.6,339.7 899.7,286.7 	"/>
	<polygon class="st3" points="271.3,338 291.3,296.8 268.6,256.9 314,263.2 344.9,229.3 353,274.5 394.8,293.4 354.3,315 
		349.2,360.6 316.2,328.8 	"/>
	<polygon class="st3" points="1091.8,85.8 1004.5,-26.7 862.4,-18.5 942.4,-136.3 890.7,-268.9 1027.4,-229.3 1137.6,-319.4 
		1142.1,-177.1 1261.9,-100.2 1128,-51.9 	"/>
	<polygon class="st3" points="1885.6,200.1 1765.7,154.6 1660.3,227.5 1666.6,99.4 1564.7,21.7 1688.4,-11.9 1730.9,-132.9 
		1801,-25.6 1929.2,-22.6 1848.8,77.3 	"/>
	<polygon class="st3" points="1266.5,1066.7 1090.5,1051.5 978.3,1187.8 938.4,1015.8 774,951.2 925.3,860.1 935.9,683.8 
		1069.3,799.5 1240.3,755.2 1171.5,917.8 	"/>
	<polygon class="st3" points="1408.7,341.8 1319.8,324.1 1254.8,387.4 1244.1,297.4 1163.9,255.2 1246.2,217.2 1261.5,127.9 
		1323.1,194.3 1412.8,181.4 1368.6,260.4 	"/>
	<polygon class="st3" points="1618.3,446 1672.8,476.1 1728.6,448.2 1716.8,509.4 1760.6,553.9 1698.6,561.6 1669.9,616.9 
		1643.5,560.4 1582,550.2 1627.5,507.6 	"/>
	<polygon class="st3" points="1225.3,660.5 995.3,597 812.6,750.4 802,512.1 599.6,385.8 822.9,302 880.5,70.5 1029.2,257.1 
		1267.2,240.3 1135.8,439.3 	"/>
	<polygon class="st3" points="1603.1,1128.9 1686.2,1132.7 1736.3,1066.4 1758.4,1146.6 1836.9,1173.9 1767.5,1219.6 1765.8,1302.7 
		1700.9,1250.8 1621.3,1274.9 1650.6,1197 	"/>
	<polygon class="st3" points="766.1,1152.8 641.2,1134.2 555,1226.5 534.2,1101.9 419.7,1048.5 531.7,990.1 547.2,864.9 
		637.3,953.4 761.2,929.3 704.9,1042.3 	"/>
</g>
<g id="Calque_9">
	<polygon class="st4" points="197,554 307.8,558.2 373.9,469.2 404.3,575.8 509.4,611.3 417.4,673.2 416.1,784.1 328.9,715.5 
		223,748.7 261.1,644.5 	"/>
	<polygon class="st4" points="1518.3,379.8 1636.2,327.1 1659.9,200.1 1746.4,296.1 1874.5,279.3 1809.9,391.1 1865.5,507.8 
		1739.1,481 1645.4,570 1631.8,441.4 	"/>
	<polygon class="st4" points="898.3,917.5 815.6,907 760,969.3 744.4,887.4 668.1,853.8 741.1,813.6 749.5,730.6 810.3,787.7 
		891.8,770 856.3,845.4 	"/>
	<polygon class="st4" points="653.7,246.6 621.8,244.7 602.1,269.9 594.1,239 564,228.1 590.9,210.9 592,178.9 616.7,199.2 
		647.4,190.4 635.8,220.1 	"/>
	<polygon class="st4" points="182.9,975.7 221.4,999 262.5,980.6 252.1,1024.5 282.3,1057.8 237.4,1061.5 215,1100.5 197.7,1059 
		153.6,1049.7 187.8,1020.4 	"/>
	<polygon class="st4" points="1885.6,844.6 1773.1,885.4 1743,1001.2 1669.5,906.8 1550,913.9 1617,814.9 1573.4,703.4 
		1688.3,736.6 1780.8,660.6 1784.8,780.2 	"/>
	<polygon class="st4" points="858.6,364.3 788.8,345.6 733.9,392.4 730.2,320.3 668.7,282.5 736.1,256.7 753.1,186.6 798.4,242.7 
		870.4,237.2 831,297.6 	"/>
	<polygon class="st4" points="1204.5,127.9 1137.8,118.3 1092.1,167.9 1080.5,101.4 1019.3,73.2 1078.9,41.7 1086.8,-25.2 
		1135.2,21.8 1201.3,8.6 1171.6,69.1 	"/>
	<polygon class="st4" points="933.4,274 953.8,275.4 966.5,259.4 971.5,279.2 990.6,286.3 973.3,297.2 972.5,317.6 956.8,304.5 
		937.1,310 944.7,291 	"/>
	<polygon class="st4" points="1238.6,690.9 1136.7,623.1 1023,668.6 1056.1,550.8 977.7,456.7 1100,451.7 1165.2,348.1 
		1207.7,462.9 1326.4,492.9 1230.4,568.8 	"/>
	<polygon class="st4" points="49.7,885 2,887.4 -23.1,928.1 -40.2,883.4 -86.6,872.2 -49.4,842.1 -53.1,794.5 -13,820.6 31.2,802.4 
		18.8,848.5 	"/>
	<polygon class="st4" points="218,115.5 159.9,110.8 123.1,155.9 109.7,99.3 55.4,78.2 105.1,47.9 108.4,-10.2 152.5,27.7 
		208.9,12.8 186.4,66.6 	"/>
	<polygon class="st4" points="1720,85.8 1691.6,71.3 1663.6,86.4 1668.6,55 1645.6,33 1677,28.1 1690.8,-0.6 1705.2,27.7 1736.8,32 
		1714.2,54.5 	"/>
</g>
<g id="Calque_5">
	<polygon class="st5" points="911.6,1081.6 959.5,1140 1034.7,1133.5 994.1,1197 1023.5,1266.5 950.5,1247.6 893.5,1297 
		888.9,1221.7 824.3,1182.8 894.5,1155.2 	"/>
	<polygon class="st5" points="1090.3,609.2 1053.6,587.6 1015,605.6 1024.2,564 995.2,532.8 1037.6,528.8 1058.3,491.6 
		1075.3,530.6 1117,538.7 1085.1,566.9 	"/>
	<polygon class="st5" points="864.9,992.5 850.3,988.7 839,998.5 838.1,983.5 825.3,975.8 839.3,970.4 842.7,955.8 852.2,967.4 
		867.1,966.1 859.1,978.7 	"/>
	<polygon class="st5" points="1489.4,565.7 1451.4,544.4 1412.3,563.6 1420.8,520.9 1390.4,489.7 1433.7,484.5 1454,446 
		1472.2,485.5 1515.2,493 1483.2,522.6 	"/>
	<polygon class="st5" points="873.1,660.5 880.9,676.4 898.3,678.9 885.7,691.2 888.7,708.5 873.1,700.4 857.4,708.5 860.5,691.2 
		847.8,678.9 865.3,676.4 	"/>
	<polygon class="st5" points="1671.9,721.2 1684.4,746.7 1712.7,750.8 1692.3,770.7 1697.1,798.9 1671.9,785.5 1646.6,798.9 
		1651.5,770.7 1631.1,750.8 1659.3,746.7 	"/>
	<polygon class="st5" points="731.6,903.1 741.1,922.3 762.3,925.3 747,940.3 750.6,961.3 731.6,951.4 712.7,961.3 716.3,940.3 
		701,925.3 722.2,922.3 	"/>
	<polygon class="st5" points="1541.4,338.4 1554.8,365.7 1585.1,370.1 1563.2,391.4 1568.3,421.5 1541.4,407.3 1514.4,421.5 
		1519.5,391.4 1497.7,370.1 1527.9,365.7 	"/>
	<polygon class="st5" points="1006.3,310.3 1023.9,345.9 1063.2,351.6 1034.8,379.3 1041.5,418.5 1006.3,400 971.2,418.5 
		977.9,379.3 949.5,351.6 988.7,345.9 	"/>
	<polygon class="st5" points="1749,952.1 1762.1,978.7 1791.4,983 1770.2,1003.7 1775.2,1032.9 1749,1019.1 1722.8,1032.9 
		1727.8,1003.7 1706.6,983 1735.8,978.7 	"/>
	<polygon class="st5" points="1188.1,344.5 1199.6,367.8 1225.3,371.6 1206.7,389.7 1211.1,415.4 1188.1,403.3 1165,415.4 
		1169.4,389.7 1150.8,371.6 1176.6,367.8 	"/>
	<polygon class="st5" points="572.3,506 584.5,530.9 611.8,534.7 592,554 596.7,581.3 572.3,568.5 547.8,581.3 552.5,554 
		532.7,534.7 560,530.9 	"/>
	<polygon class="st5" points="762.3,421.5 758.4,392.6 732.3,379.5 758.6,366.8 763.1,338 783.2,359.1 811.9,354.5 798.2,380.2 
		811.4,406.1 782.8,400.8 	"/>
	<polygon class="st5" points="1343.2,246.6 1318.6,241.4 1300.3,258.7 1297.7,233.7 1275.6,221.8 1298.5,211.6 1303,186.8 
		1319.9,205.5 1344.8,202.1 1332.3,223.9 	"/>
	<polygon class="st5" points="1729.9,543.7 1749.9,533.8 1753.2,511.6 1768.8,527.7 1790.9,523.8 1780.5,543.7 1790.9,563.5 
		1768.8,559.7 1753.2,575.8 1749.9,553.6 	"/>
	<polygon class="st5" points="611.8,902.6 563,886.4 522,917.5 522.3,866.1 480.2,836.7 529.1,821 544,771.9 574,813.6 625.4,812.5 
		595,854 	"/>
	<polygon class="st5" points="751.4,635.9 775.2,646.9 797.7,633.5 794.6,659.5 814.3,676.8 788.7,681.9 778.3,705.9 765.5,683.1 
		739.3,680.7 757.2,661.5 	"/>
	<polygon class="st5" points="572.3,310.3 512.4,301.7 471.3,346.3 460.9,286.6 405.9,261.3 459.4,232.9 466.4,172.8 509.9,214.9 
		569.3,203.1 542.6,257.4 	"/>
	<polygon class="st5" points="1671.9,285.5 1669.7,266.8 1653,257.8 1670.2,250 1673.5,231.4 1686.3,245.3 1705,242.7 1695.7,259.1 
		1704,276.1 1685.5,272.4 	"/>
	<polygon class="st5" points="873.1,259.5 837.7,249.7 809.7,273.3 808,236.7 776.9,217.3 811.2,204.4 820.1,168.8 842.9,197.5 
		879.5,194.9 859.3,225.5 	"/>
	<polygon class="st5" points="995.3,511.6 981.8,511.8 974.4,523 970.1,510.3 957.1,506.6 967.8,498.6 967.3,485.1 978.3,492.8 
		990.9,488.1 986.9,501 	"/>
	<polygon class="st5" points="1570,285.5 1595.2,291.4 1614.4,274 1616.5,299.8 1639,312.6 1615.1,322.6 1609.9,348 1593,328.4 
		1567.2,331.2 1580.6,309.1 	"/>
	<polygon class="st5" points="625.4,421.5 588.1,425.7 570.5,458.8 554.9,424.6 518,418.1 545.7,392.7 540.6,355.5 573.2,374 
		607,357.7 599.5,394.4 	"/>
	<polygon class="st5" points="480.2,669.7 500.6,697.7 535.2,696.8 514.9,724.9 526.5,757.5 493.5,746.9 466,768 466,733.4 
		437.4,713.7 470.3,703 	"/>
	<polygon class="st5" points="1653,458.8 1653.3,431 1630.5,415.1 1657,406.8 1665.1,380.2 1681.2,402.8 1709,402.4 1692.5,424.7 
		1701.5,450.9 1675.2,442.1 	"/>
	<polygon class="st5" points="1476.3,246.6 1435.4,222.5 1392.4,242.5 1402.7,196.2 1370.4,161.5 1417.6,157 1440.6,115.5 
		1459.5,159 1506.1,168 1470.5,199.5 	"/>
	<polygon class="st5" points="1402.9,415.4 1362.7,382.7 1313.1,397.3 1331.7,349 1302.5,306.3 1354.2,309.1 1385.7,268.1 
		1399,318.1 1447.8,335.5 1404.3,363.6 	"/>
	<polygon class="st5" points="1090.3,285.5 1066.3,277.4 1045.8,292.6 1046.2,267.2 1025.4,252.5 1049.6,245 1057.2,220.6 
		1071.9,241.4 1097.3,241.1 1082.1,261.4 	"/>
	<polygon class="st5" points="611.8,1024.4 630.6,1041.9 655.6,1036.4 644.7,1059.7 657.7,1081.8 632.3,1078.6 615.2,1097.7 
		610.4,1072.6 586.8,1062.3 609.3,1049.9 	"/>
	<polygon class="st5" points="701,768 705.3,776.4 714.6,777.8 707.9,784.5 709.4,793.8 701,789.3 692.7,793.8 694.3,784.5 
		687.5,777.8 696.9,776.4 	"/>
	<polygon class="st5" points="762.3,485.1 736.3,478.4 716.1,496 714.4,469.3 691.4,455.5 716.3,445.6 722.4,419.5 739.4,440.2 
		766.1,437.9 751.7,460.4 	"/>
	<polygon class="st5" points="405.9,504 431.6,509 450.2,490.5 453.6,516.6 476.9,528.6 453.2,539.8 448.9,565.7 431,546.6 
		405,550.5 417.6,527.5 	"/>
	<polygon class="st5" points="1815.5,747.5 1770.5,739 1737.9,771.3 1732.1,725.8 1691.4,704.8 1732.8,685.3 1740.1,640 
		1771.6,673.3 1816.9,666.4 1794.9,706.6 	"/>
	<polygon class="st5" points="1749,1097.7 1773,1112.8 1799,1101.5 1792.1,1129 1810.8,1150.2 1782.6,1152.1 1768.2,1176.5 
		1757.6,1150.3 1729.9,1144.2 1751.6,1125.9 	"/>
	<polygon class="st6" points="653.7,58.8 597,6.7 522,23.9 554,-46 514.5,-112 590.9,-103.2 641.5,-161.2 656.7,-85.8 727.5,-55.6 
		660.5,-17.8 	"/>
	<polygon class="st6" points="218,705.6 173.4,712 153.4,752.3 133.6,711.9 89.1,705.3 121.4,674 113.9,629.6 153.7,650.7 
		193.6,629.8 185.8,674.2 	"/>
	<polygon class="st6" points="1614.7,115.5 1564.5,98.3 1521.8,129.9 1522.7,76.8 1479.4,46 1530.2,30.4 1546.2,-20.3 1576.7,23.2 
		1629.8,22.7 1597.8,65.2 	"/>
</g>
<g id="Calque_2">
	<path class="st7" d="M1126.2,888.5c-35.9,29.8-85.2,90.5-69.4,133.5c4.3,11.5,19,37.6,45.7,44.7c5.9,1.5,16,4.3,26.3,0
		c6.1-2.5,19-10.1,33.3-66c10.7-41.7,6.1-41.7,11.6-47.6c26.7-28.5,91.6,30.3,164.5,3.6c25.7-9.5,25.6-19.7,60-30.7
		c43.8-13.9,79-8.5,87-7.2c23.1,3.9,49.2,5.2,53.5,18.5c4.3,13.3-17.9,21.9-21.2,42.5c-6.7,42.7,74.5,100.3,92.9,86.9
		c6.7-4.9,4-18.3-1.7-45c-10-46.8-29.1-91.8-44.4-114C1498.3,811.8,1255.9,780.7,1126.2,888.5z"/>
	<path class="st8" d="M1163.1,985c9.5-3.4,14.1-10.8,16.3-14.4c17.7-28.7-6.5-81.2-34.7-85.4c-42.9-6.2-99,98.2-87,106.4
		c5.6,3.9,20.9-16.5,50.6-15.7C1132.8,976.6,1145.9,991.2,1163.1,985z"/>
	<path class="st8" d="M1508.2,954.9c4.7,17.9,0.1,27.1,5.6,29.8c6.9,3.5,14.8-10.7,32.1-16.5c32.2-10.7,68.6,16.7,71.4,12
		c1.1-1.9-4.7-6.1-12.7-14.4c-13.4-14.1-18.2-24.5-23.7-32.3c-20.3-29.1-68.5-49.8-82.6-38.7c-6.5,5.1-5.3,16.6-4.5,24
		C1495.5,934.7,1503.3,936.9,1508.2,954.9z"/>
	<path class="st7" d="M1333.2,717.5c29.2-2.1,77.3-4.8,120,26.7c43.1,31.8,73.3,92.8,58.4,147.3c-24.1,88-150.2,101.6-167.7,103.5
		c-107,11.6-239.5-45.8-245.5-118.4C1092.1,800.6,1226.4,725.2,1333.2,717.5z"/>
	<path class="st9" d="M1405.2,745.5c-0.5-0.7-18.5,12.4-38,27.3c-23.5,18.1-21.3,17.4-27.3,21.3c-35.7,23.8-78,22.5-79.4,18.1
		c-0.6-1.9,10.5-4.9,15-16.1c2.5-6.3,2.4-14,0.3-14.7c-2.1-0.7-4.7,5.9-10,12c-8.8,10.1-21.5,13.6-46.6,20.1
		c-7.2,1.9-28.1,7.3-29.1,4.7c-0.7-1.8,8.9-5,20.5-15.2c10.7-9.4,17.6-19.8,17.1-20.3s-8.3,10.9-22.7,22
		c-13.7,10.5-34.7,26.8-57.4,23.3c-8.7-1.3-17.3-5.5-24.7-0.7c-3.4,2.3-4.3,6.3-7.3,9.3c-2.1,2.1-5.5,10-6,20
		c-0.7,13.7,5.2,30.2,17.7,38c8.9,5.5,17.7,4.5,17.7,6.3c-0.1,2.1-11.1,4.3-21.3,3c-4.3-0.5-10.4-1.3-16-5.5c-5-3.8-6.2-7.7-7.6-7.3
		c-2.3,0.7,1.5,11.4,0.6,26.4c-0.5,7.7-1.7,8.9-5.6,34.1c-1.3,8.3-1.5,10.3-0.3,13c5.1,11.5,26.2,9.9,26.3,12.7
		c0,3.8-31.1,16.5-54,1.7c-12.3-7.9-17.2-20.7-18.7-24.3c-2.5-6.3-5.8-14.9-3-24c3.5-11.3,12.5-10.3,15.3-20.7
		c2.9-10.6-3.3-22.6-6.7-29.3c-4.7-9.1-9.2-12.5-7.7-16c2.5-5.8,18.3-4.8,18.4-4.1c0.1,1.1-25.7,9.8-47.4,0.8
		c-8.1-3.4-14.5-9-25.7-21.5c-12.9-14.5-19.3-21.8-24.4-33.3c-1.5-3.3-3.5-9.9-7.7-23.3c-3.2-10.3-3.3-11.5-2.7-12.7
		c4.3-7.7,29.3,6,57.4,4c31.2-2.2,64-23.8,63.6-41.9c-0.4-20.3-42.9-35.9-40.9-39.5c0.8-1.5,7.7,1.7,20.7,3.3l0,0
		c0,0,9.8,1.9,20.7,0.7c0,0,0.9-0.1,1.6-0.2c11.5-1.6,38.8-13.1,38.4-25.8c-0.2-5.3-5.1-5.6-12-14.7c-12.5-16.3-12.9-36.8-11.2-37.3
		c1.2-0.4,2.9,9.2,11.3,18.5c0,0,10.1,11.2,25.6,15.2c25.1,6.5,41-20.3,91.6-43c27.7-12.5,42.3-19,61.4-15.7
		c29.9,5.2,39.6,29.3,58.5,24.1c17.4-4.9,26.6-30.3,29.5-38.5c6.7-18.6,5.1-33.9,8.3-34.2c3.3-0.3,3.7,15.9,13.7,32.9
		c8.4,14.4,19.2,22,35.5,33.2c27,18.5,40.5,27.8,55.8,24.8c20.3-4,36.8-25.1,37.8-44c0.8-15.5-9-25.9-6.7-27.5
		c3.5-2.3,25.2,22.1,42.7,48.1c14.1,20.9,21.1,31.5,21.8,44.9c1.1,22.9-17.3,34.7-10.9,45.2c5.4,8.9,22.8,8.3,31.8,6.7
		c22.2-4,33.8-21.5,37.5-18.7c1.3,0.9,1.7,4.2-8,25.3c-11.9,26.1-17.9,39.1-28.4,50.4c-11.6,12.4-16.9,11.9-18.9,19.7
		c-4,14.7,12.3,26.7,23.3,44.2c28,44.3,9.6,103.4,8,103.4c-1.3,0,3.1-44.3-6.3-46.5c-7.5-1.7-24.8,22.6-19.7,41.5
		c4.3,15.9,22.9,22,21.3,25.3c-1.6,3.2-20.6,1.1-36-10.7c-16.4-12.5-13.4-24.3-25.3-30.7c-21.8-11.5-56.8,14.6-58.5,11.5
		c-1.3-2.3,22.1-10.8,26.1-29c3.2-14.7-7.3-31.5-18.3-41c-7.9-6.8-9.9-3.1-16.5-9.5c-3.7-3.5-7.2-8.7-16.1-49.9
		c-3.6-16.9-1.3-7.7-2.7-14c-0.9-3.9-1.4-5.8-1.3-8.9c0.3-5.9,2.7-8.6,2-9.3c-1.9-1.9-19.2,15.8-36.2,26.8
		c-33.2,21.5-73.1,22.8-75.2,17.2c-0.9-2.6,7.2-4.7,17.4-17.6c8.9-11.1,7.6-15.7,16.9-27.5C1397.1,751.3,1405.6,746,1405.2,745.5z"
		/>
	<path class="st9" d="M1522,793.9c9.5,14.8,8.8,19.6,19.9,33c8,9.7,20.5,24.4,38.7,26.7c11.8,1.5,21.1-3,21.3-2
		c0.3,1.2-13.7,9.3-29.7,10.5c-22.5,1.8-39.7-10.4-58.9-24.1c-19.7-14-38.7-27.5-45.7-52.2c-3.5-12.3-5.3-32.5,2.3-36.3
		C1480.3,744.3,1506.8,770.3,1522,793.9z"/>
	<path class="st9" d="M1229.8,754.9c-7.8-10.5-36.6-4-55.6,6.1c-6.9,3.7-15.4,10.9-32.4,25.3c0,0-4.7,3.9-28.7,25.3l0,0
		c0,0-13.5,5.1-24,8c-18,4.9-28.6,3.8-28.7,5.3c-0.1,2.3,25.1,9.3,54,8.7c40-0.9,95-16.4,112.7-54.7
		C1229.2,774.4,1235,761.9,1229.8,754.9z"/>
	<path class="st9" d="M1358.5,654.8c7.3-6.7-18.3-33.1-27.3-87.4c-4.8-28.8-1.2-42.7-4.7-43.4c-7.5-1.3-40.9,60.8-16,102
		C1324,648.6,1352.1,660.6,1358.5,654.8z"/>
	<path class="st10" d="M1102.8,854.2c0.5-2.5,15.3-2.1,27.5-0.4c22.9,3.3,33.3,11.5,39.7,6.3c4.7-3.8,2.3-10.5,8.9-15
		c3.8-2.5,8.1-2.6,10.3-2.6c26.9,0.1,45.1,2.7,45.1,2.7c17,2.5,30.7,3,48.3,3.7c16.1,0.7,18.8,0.1,29.7,1.3c8.7,1,15,2.2,26.3,2.5
		c1.7,0.1,6.9,0.2,15-0.2c0,0,18.2-0.8,35.1-3.5c43.8-7.2,64.3-25.6,80.6-16.3c13.3,7.6,16.9,29.9,11.3,45.8
		c-8.7,24.9-38.9,31.9-57.4,31.3c-21.3-0.8-47.4-12.8-51-28.7c-1-4.5-0.6-10.7-5.3-13.7c-2.9-1.9-5.5-1-15.1-0.5
		c-14.3,0.7-15.7-1-19.3,0.9c-6.8,3.5-7.1,11.7-10,20.1c0,0-6.4,18.3-27.9,32.4c-33.5,22-83.1-4-96.5-11
		c-9.7-5.1-20.7-11.1-23.3-21.7c-1.3-5.4-0.9-13.9-3.6-14.3c-1.3-0.2-2,1.6-4.4,2.4c-3.8,1.1-7.7-1.6-9.1-2.5
		c-7.3-4.7-12.5-2.3-30.2-7.5C1118.2,862.8,1102.2,856.8,1102.8,854.2z"/>
	<g>
		<path class="st11" d="M1290.9,831.5c-13.5,8.5-29.1,6.8-32.7,6.4c-42.7-4.5-79.2-0.6-79.2-3.9c0-3.1,32.1-0.1,89.6-9.1
			c10.4-1.6,28.4-4.7,29.7-1C1299,826.4,1292.1,830.8,1290.9,831.5z"/>
		<g>
			<path d="M1290.1,830.1c-8.4,5.1-18.1,7-27.9,6.5c-10.2-0.5-20.3-1.8-30.6-2.2c-10.3-0.4-20.5-0.5-30.8-0.5
				c-6.2,0-12.7,0.5-18.8-0.3c-0.3-0.1-1.5-0.5-1.7-0.3c0.3-0.2,0.3,2.1,0,1.8c0,0,1.7-0.4,2.2-0.5c4.3-0.6,8.7-0.6,13-0.8
				c17.6-0.8,35.1-2.1,52.6-4.3c11.8-1.5,23.5-3.7,35.2-5c2.4-0.3,4.7-0.5,7.1-0.6c1.4-0.1,4.2-0.5,5.4,0.3c0.7,0.5,0.7-0.1,0.5,0.7
				c-0.1,0.7-1.4,1.6-1.9,2.1C1293,828.1,1291.6,829.1,1290.1,830.1c-1.8,1.1-0.1,4,1.7,2.9c3.1-2,13.2-9.6,4.9-11.9
				c-3.7-1.1-7.9-0.5-11.7-0.1c-4.9,0.5-9.8,1.3-14.7,2c-22.9,3.6-46,6-69.2,7.1c-5.9,0.3-11.7,0.4-17.5,0.9
				c-1.9,0.2-6.2,0.2-6.3,2.9c-0.1,3.7,7.9,3.1,10.1,3.1c9.5,0.2,18.9,0,28.4,0.1c14.7,0.2,29.2,1.1,43.8,2.5
				c11.1,1,22.5-0.9,32.2-6.8C1293.6,831.8,1291.9,829,1290.1,830.1z"/>
		</g>
	</g>
	<g>
		<path class="st11" d="M1357.6,828.8c0.8,3.6,8,5.7,12.7,5.9c5.9,0.3,10.5-2.3,13.5-4c3.4-1.9,6.2-4.5,11.8-9.7
			c2.6-2.4,4.1-3.9,4.5-4.3c10.5-9.7,51.6,11.5,52.8,9.3c0.9-1.7-19.1-23.9-47.2-23.9C1380,802.2,1355.9,821.1,1357.6,828.8z"/>
		<g>
			<path d="M1356,829.2c1.2,3.8,5.4,5.4,8.9,6.3c4.9,1.2,9.9,1,14.5-0.9c8.5-3.5,14.7-10.3,21.3-16.5c4.5-4.1,11.9-2.5,17.3-1.4
				c7.5,1.6,14.7,4.2,21.9,6.9c2.7,1,5.4,2.1,8.1,3c1.3,0.5,3.1,1.3,4.5,1.1c4.9-0.5-0.5-6.3-1.8-7.7
				c-12.3-12.9-30.9-20.7-48.8-19.5c-11.9,0.9-23.8,5.2-33.7,12.1C1363.5,815.9,1354.8,822.2,1356,829.2c0.4,2.1,3.6,1.2,3.2-0.9
				c-0.4-2.1,1.7-4.5,2.9-6c2.5-2.9,5.5-5.3,8.6-7.3c8.1-5.4,17.3-9.1,26.9-10.6c17.4-2.7,35.3,3.9,48.2,15.6
				c1.6,1.5,3.3,3.1,4.6,4.9c0.2,0.3,0.8,1.2,0.7,1.2c-0.2,0,1.1-1.8,1.2-1.5c0-0.1-0.4,0.1-0.6-0.1c-1.3-0.9-3.7-1.1-5.2-1.7
				c-2.5-0.9-5-1.9-7.5-2.8c-6.3-2.3-12.6-4.5-19.1-6c-5.2-1.2-11.2-2.3-16.5-0.9c-2.3,0.7-4,1.9-5.7,3.6
				c-3.6,3.5-7.3,7.1-11.2,10.2c-3.7,2.9-8.3,5.5-13,6.1c-3.7,0.5-12.8-0.1-14.2-4.5C1358.5,826.3,1355.3,827.2,1356,829.2z"/>
		</g>
	</g>
	<g>
		<path class="st12" d="M1328,950.8c-0.7-3.2-2-6.2-4-9.2c-8.5-12.5-18.7-7.2-66.4-10.1c-60.1-3.7-94-15.3-98.8-1
			c-1,3-0.1,5.2,1.6,12c3.5,14.4,4,29.8,5,60.6c1.7,51.2-7.5,58.8-0.2,69.8c7.7,11.3,18.2,4.1,58.4,8.5c23.2,2.5,26.6,5.8,58,9.1
			c36.1,3.9,43.6,0.9,47.8-5.3c0.9-1.3,1.5-2.7,1.9-4.1c-2.2-6.1-3.2-16.7-4.7-43.4C1323.3,980.5,1324,959.3,1328,950.8z"/>
		<path class="st12" d="M1386.2,974.4c-4.3-15.5-6.1-23.7-5.3-29.3c-1.2-1.4-2.6-2.6-4.4-3.4c-6.4-2.9-12.1,1.3-30.7,3.4
			c-19.5,2.2-21.3-1.5-27.3,1.2c-2.1,0.9-4,2.3-5.5,4.6c5.5,16.7-9.3,39,0.3,90.6c3.7,20,8.5,31.2,4.6,39.7c1.2,2.3,2.7,3.9,4.5,5.5
			c20.7,18.4,70.1,16.8,86.8-2.6c2.3-2.7,3.7-5.4,4.5-8.3c-2.8-6.4-5-16.5-10.1-36.7C1395.8,1022.6,1386.9,1001.9,1386.2,974.4z"/>
		<path class="st12" d="M1529.8,999.6c0.5-64.8,3.1-83.3-10.7-90.1c-12.5-6.2-22.5,5.3-63.7,14.4c-55.3,12.2-77.4,0.4-90.1,14.9
			c-2,2.3-3.1,4.5-3.6,7.5c5.7,6.8,5.3,19.4,5.2,24.5c0,1.6,0,3.2,0.1,4.8c2.5,9.2,5.9,21.1,9.9,36.5c2.9,11.1,5.3,20.3,7.3,28.1
			c6.9,15.1,12.8,26.7,10.1,36.7c1.9,4.4,4.1,7.1,7.6,10.2c29,25.7,92.2,28.5,118.8,4C1532.3,1080.5,1529.3,1071.7,1529.8,999.6z"/>
	</g>
	
		<rect x="1191.5" y="940.6" transform="matrix(9.865071e-02 -0.9951 0.9951 9.865071e-02 119.0526 2147.3027)" class="st13" width="106.7" height="134.7"/>
	<text transform="matrix(1 0 0 1 1182.4602 958.3593)" class="st14 st15 st16">Lorem ipsum dolor sit amet, </text>
	<text transform="matrix(1 0 0 1 1181.7932 964.7616)" class="st14 st15 st16">consectetuer adipiscing elit, sed diam nonummy nibh </text>
	<text transform="matrix(1 0 0 1 1181.1936 971.1639)" class="st14 st15 st16">euismod tincidunt ut laoreet dolore magna aliquam erat </text>
	<text transform="matrix(1 0 0 1 1180.5266 977.5663)" class="st14 st15 st16">volutpat. Ut wisi enim ad minim veniam, quis nostrud exerci </text>
	<text transform="matrix(1 0 0 1 1179.926 983.9696)" class="st14 st15 st16">tation ullamcorper suscipit lobortis nisl ut aliquip ex ea </text>
	<text transform="matrix(1 0 0 1 1179.259 990.3719)" class="st14 st15 st16">commodo consequat. Duis autem vel eum iriure dolor in </text>
	<text transform="matrix(1 0 0 1 1178.6594 996.7743)" class="st14 st15 st16">hendrerit in vulputate velit esse molestie consequat, vel </text>
	<text transform="matrix(1 0 0 1 1177.9915 1003.1766)" class="st14 st15 st16">illum dolore eu feugiat nulla facilisis at vero eros et </text>
	<text transform="matrix(1 0 0 1 1177.3918 1009.579)" class="st14 st15 st16">accumsan et iusto odio dignissim qui blandit praesent </text>
	<path class="st7" d="M1111.8,1076.3c24.5,19.2,58.6,8.5,75.7-9.6c16.1-17,23.5-47,10.3-64.4c-7.6-10.1-19.5-12.5-28.8-14.5
		c-8.2-1.7-51.2-10.6-69.8,19.3C1086,1028.2,1090.7,1059.7,1111.8,1076.3z"/>
	<g>
		<g>
			<path class="st17" d="M1435,1052.8c2.1,0,2.1-3.3,0-3.3C1432.8,1049.5,1432.8,1052.8,1435,1052.8L1435,1052.8z"/>
		</g>
	</g>
	<g>
		<g>
			<path class="st17" d="M1487.1,1043.1c2.1,0,2.1-3.3,0-3.3C1484.9,1039.8,1484.9,1043.1,1487.1,1043.1L1487.1,1043.1z"/>
		</g>
	</g>
	<g>
		<g>
			<path class="st17" d="M1494.1,1048.6c2.1,0,2.1-3.3,0-3.3S1492,1048.6,1494.1,1048.6L1494.1,1048.6z"/>
		</g>
	</g>
	<g>
		<g>
			<path class="st17" d="M1490.1,1053.1c2.1,0,2.1-3.3,0-3.3C1488,1049.8,1488,1053.1,1490.1,1053.1L1490.1,1053.1z"/>
		</g>
	</g>
	<g>
		<g>
			<path class="st17" d="M1485.5,1055.5c2.1,0,2.1-3.3,0-3.3C1483.3,1052.2,1483.3,1055.5,1485.5,1055.5L1485.5,1055.5z"/>
		</g>
	</g>
	<g>
		<g>
			<path class="st17" d="M1438.6,1057.3c2.1,0,2.1-3.3,0-3.3C1436.4,1054,1436.4,1057.3,1438.6,1057.3L1438.6,1057.3z"/>
		</g>
	</g>
	<g>
		<g>
			<path class="st17" d="M1443,1061.1c2.1,0,2.1-3.3,0-3.3C1440.8,1057.8,1440.8,1061.1,1443,1061.1L1443,1061.1z"/>
		</g>
	</g>
	<g>
		<g>
			<path class="st17" d="M1444.6,1048.6c2.1,0,2.1-3.3,0-3.3C1442.4,1045.3,1442.4,1048.6,1444.6,1048.6L1444.6,1048.6z"/>
		</g>
	</g>
	<g>
		<g>
			<path class="st17" d="M1437.4,1046c2.1,0,2.1-3.3,0-3.3S1435.3,1046,1437.4,1046L1437.4,1046z"/>
		</g>
	</g>
	<g>
		<g>
			<path class="st17" d="M1443.4,1052.6c2.1,0,2.1-3.3,0-3.3C1441.3,1049.3,1441.3,1052.6,1443.4,1052.6L1443.4,1052.6z"/>
		</g>
	</g>
	<g>
		<g>
			<path class="st17" d="M1485.5,1049.8c2.1,0,2.1-3.3,0-3.3C1483.3,1046.4,1483.3,1049.8,1485.5,1049.8L1485.5,1049.8z"/>
		</g>
	</g>
	<g>
		<g>
			<path class="st17" d="M1481.9,1044.4c2.1,0,2.1-3.3,0-3.3S1479.8,1044.4,1481.9,1044.4L1481.9,1044.4z"/>
		</g>
	</g>
	<g>
		<g>
			<path class="st17" d="M1429.7,1049.4c-4.6,0.5-9,1.5-13.5,2.7c-3.6,0.9-7.7,1.5-10.9,3.4c-0.5,0.3-0.1,1,0.4,0.7
				c3.1-1.9,7.3-2.4,10.7-3.3c4.4-1.1,8.7-2.1,13.3-2.6C1430.2,1050.2,1430.2,1049.4,1429.7,1049.4L1429.7,1049.4z"/>
		</g>
	</g>
	<g>
		<g>
			<path class="st17" d="M1434.2,1051.7c-4.3,1.4-8.1,3.8-12.1,6c-4.4,2.4-9.2,3.8-13.7,5.9c-0.5,0.2-0.1,0.9,0.4,0.7
				c4.2-1.9,8.7-3.2,12.7-5.3c4.3-2.2,8.3-4.9,12.9-6.4C1435,1052.3,1434.8,1051.5,1434.2,1051.7L1434.2,1051.7z"/>
		</g>
	</g>
	<g>
		<g>
			<path class="st17" d="M1435.8,1056.6c-5.5,7.5-14.7,10.2-22.1,15.2c-0.5,0.3,0,1,0.4,0.7c7.6-5.1,16.7-7.9,22.4-15.5
				C1436.8,1056.5,1436.1,1056.1,1435.8,1056.6L1435.8,1056.6z"/>
		</g>
	</g>
	<g>
		<g>
			<path class="st17" d="M1441.5,1060.9c-5.7,2.8-9.7,8-14.9,11.5c-0.5,0.3,0,1,0.4,0.7c5.2-3.6,9.2-8.7,14.9-11.5
				C1442.4,1061.3,1442,1060.6,1441.5,1060.9L1441.5,1060.9z"/>
		</g>
	</g>
	<g>
		<g>
			<path class="st17" d="M1486.4,1056.3c4.7,2.5,8.1,6.7,11.7,10.4c0.4,0.4,0.9-0.2,0.6-0.6c-3.7-3.8-7.1-8-11.9-10.5
				C1486.3,1055.3,1485.9,1056,1486.4,1056.3L1486.4,1056.3z"/>
		</g>
	</g>
	<g>
		<g>
			<path class="st17" d="M1490.9,1051.2c3.5,1,6.9,3.8,10,5.7c3.4,2.1,7.5,4.1,9.3,7.9c0.3,0.5,0.9,0.1,0.7-0.4
				c-1.7-3.5-5.4-5.5-8.6-7.5c-3.5-2.2-7.2-5.3-11.2-6.4C1490.7,1050.2,1490.4,1051,1490.9,1051.2L1490.9,1051.2z"/>
		</g>
	</g>
	<g>
		<g>
			<path class="st17" d="M1497.4,1048.9c3.8,0.9,7.4,2.2,10.9,4.1c2.8,1.5,6.7,3.3,8.3,6.2c0.3,0.5,1,0.1,0.7-0.4
				c-1.5-2.7-4.9-4.5-7.5-5.9c-3.8-2.1-7.8-3.7-12.1-4.7C1497.1,1048,1496.9,1048.8,1497.4,1048.9L1497.4,1048.9z"/>
		</g>
	</g>
	<g>
		<g>
			<path class="st17" d="M1497.6,1044.5c3.3-1.1,7.8,0.3,10.8,1.9c0.5,0.3,0.9-0.5,0.4-0.7c-3.1-1.8-7.9-3.2-11.4-2.1
				C1496.9,1043.8,1497.1,1044.6,1497.6,1044.5L1497.6,1044.5z"/>
		</g>
	</g>
	<g>
		<g>
			<path class="st17" d="M1487.7,1047.4c4.7-0.1,8.3-3.7,12.8-4.7c0.5-0.1,0.3-0.9-0.2-0.8c-4.3,1-8,4.5-12.5,4.7
				C1487.2,1046.6,1487.2,1047.4,1487.7,1047.4L1487.7,1047.4z"/>
		</g>
	</g>
	<g>
		<g>
			<path class="st18" d="M1409.6,988.4c-3.1-5.1-3.7-11.1-3.8-16.9c0-2.7,0.2-5.5,0.2-8.3c0-2.8-0.5-5.5-0.1-8.3
				c-0.4,0.5-0.8,1.1-1.2,1.6c2.6-0.5,5.9,0.9,8.3,1.7c3.6,1.3,6.7,3.5,10,5.3c6.3,3.3,10.4,9.1,15.3,14.1c1.5,1.5,3.9-0.8,2.3-2.3
				c-2.9-2.9-5.5-6.1-8.3-8.9c-2.9-2.9-6.1-4.7-9.7-6.7c-5.3-3.1-12.3-7.4-18.8-6.2c-0.8,0.1-1.1,0.9-1.2,1.6
				c-0.3,3,0.2,5.9,0.1,8.9c-0.1,3.3-0.3,6.5-0.1,9.8c0.2,5.7,1.2,11.5,4.2,16.5C1407.8,991.9,1410.6,990.2,1409.6,988.4
				L1409.6,988.4z"/>
		</g>
	</g>
	<g>
		<g>
			<path class="st18" d="M1475.5,973.4c2.5-6.1,3.3-12.7,6.9-18.3c3.7-5.8,9.8-9.7,16.1-12.3c0.9-0.3,3-1.6,4-1.5
				c0.8,0.1-0.6-0.5,0.1,0.3c0.7,0.8,1,2.2,1.3,3.2c1,3.1,1.3,6.4,2.1,9.5c1.5,6.8,3.7,13.8,3.7,20.8c0,2.1,3.3,2.1,3.3,0
				c-0.1-8.4-2.9-16.4-4.4-24.5c-0.7-3.7-1.2-7.9-3.3-11.1c-1.5-2.2-3.1-1.7-5.3-0.9c-6.9,2.5-13.9,6.2-18.5,12
				c-5.2,6.6-6.1,14.3-9.2,21.9C1471.5,974.5,1474.7,975.4,1475.5,973.4L1475.5,973.4z"/>
		</g>
	</g>
	<g>
		<g>
			<path class="st18" d="M1471.7,972.2c-3.1,0.1-6.2-0.5-9.3-0.9c-3.1-0.4-6.4-0.3-9.5-0.2c-5.1,0.3-10.3,1.2-14.7,3.7
				c-1.9,1.1-0.2,3.9,1.7,2.9c4.5-2.6,10-3.3,15.1-3.4c5.6-0.1,11.1,1.4,16.7,1.2C1473.8,975.4,1473.8,972.1,1471.7,972.2
				L1471.7,972.2z"/>
		</g>
	</g>
	<g>
		<g>
			<path class="st18" d="M1461.6,1053.7c-0.9,1.7-1.5,3.6-3.2,4.8c-1.8,1.3-4,1.1-6.1,1.7c-0.5,0.1-0.3,0.9,0.2,0.8
				c2.2-0.6,4.5-0.5,6.4-1.9c1.7-1.3,2.5-3.2,3.4-5C1462.5,1053.6,1461.8,1053.2,1461.6,1053.7L1461.6,1053.7z"/>
		</g>
	</g>
	<g>
		<g>
			<path class="st18" d="M1461.3,1055.2c3.5,5.9,12,3.7,16.8,0.8c0.5-0.3,0.1-1-0.4-0.7c-4.4,2.6-12.5,4.9-15.7-0.5
				C1461.8,1054.3,1461,1054.7,1461.3,1055.2L1461.3,1055.2z"/>
		</g>
	</g>
	<g>
		<g>
			<path class="st18" d="M1453.2,1059.3c-3,0.3-5.5,0.3-8-1.5c-0.5-0.3-0.9,0.4-0.4,0.7c2.7,1.8,5.3,1.9,8.4,1.6
				C1453.8,1060,1453.8,1059.2,1453.2,1059.3L1453.2,1059.3z"/>
		</g>
	</g>
	<g>
		<g>
			<path class="st18" d="M1450.5,1060.4c6.7,7.1,20.5,4.4,26-3c0.3-0.4-0.4-0.9-0.7-0.4c-5.1,6.9-18.4,9.5-24.7,2.8
				C1450.7,1059.4,1450.1,1060,1450.5,1060.4L1450.5,1060.4z"/>
		</g>
	</g>
</g>
<g id="Calque_6">
	<path class="st19" d="M1445,1022.1c0,0,2.7-8.2-11.5-10c-14.2-1.8-8.2,10-8.2,10s5.8,7.3,12.2,4.5
		C1443.9,1023.6,1445,1022.1,1445,1022.1z"/>
	<path class="st19" d="M1492.1,1013.6c1.8-3.4-2.2-4.4-6-5.7c-3.8-1.3-6.9,2.2-10,5.5c-3.1,3.3,0,6.1,0,6.1c0.3,0.5,0.8,1.3,1.7,1.9
		c1.8,1.4,3.9,1.3,5.7,1.3c2.6-0.1,5-0.3,6.9-2.1C1492.9,1018,1492.3,1014.1,1492.1,1013.6z"/>
	<path class="st20" d="M1454.6,1044.5c1.1,0.3,2-0.9,3.3-0.5c1.1,0.4,1.6,1.7,1.8,2.2c0.9,2.7-0.9,4.6,0,5.5
		c0.8,0.8,3.2,0.5,4.5-0.9c1.8-2.1-0.3-5.2,1.5-6.9c1.1-1.1,2.3-0.2,3.5-1.3c1.5-1.3,2-4.1,1.1-5.8c-2.3-4.1-15-3.8-17.3,1.1
		C1451.9,1040.4,1453,1044,1454.6,1044.5z"/>
	<g>
		<g>
			<path class="st17" d="M1431.2,1047.5c0.4,0,0.7,0,1.1,0c0.9,0,1.7-0.7,1.7-1.7s-0.7-1.7-1.7-1.7c-0.4,0-0.7,0-1.1,0
				c-0.9,0-1.7,0.7-1.7,1.7C1429.6,1046.8,1430.3,1047.5,1431.2,1047.5L1431.2,1047.5z"/>
		</g>
	</g>
	<g>
		<g>
			<path class="st17" d="M1432.1,1044.8c-5.7-0.1-11.3-0.5-17-0.9c-5.5-0.3-10.7,0.1-16.1,0.4c-0.5,0-0.5,0.9,0,0.9
				c5.4-0.3,10.7-0.7,16.1-0.4c5.7,0.3,11.3,0.8,17,0.9C1432.6,1045.6,1432.6,1044.8,1432.1,1044.8L1432.1,1044.8z"/>
		</g>
	</g>
	<g>
		<g>
			<path class="st17" d="M1486.9,1041.8c11-1.8,22.1-3.1,33.2-1.7c0.5,0.1,0.5-0.8,0-0.9c-11.2-1.3-22.4,0-33.5,1.8
				C1486.2,1041.1,1486.4,1041.9,1486.9,1041.8L1486.9,1041.8z"/>
		</g>
	</g>
	<path class="st2" d="M1433.4,1014.1c-0.7-0.1-2.3,2.2-2.5,4.9c-0.2,3,1.4,6.8,3.3,6.9c2.5,0.1,4.9-5.7,3.8-6.9
		c-0.7-0.7-2.3,0.5-3.5-0.5C1433,1017.4,1434.1,1014.2,1433.4,1014.1z"/>
	<path class="st21" d="M1482.1,1010.5c-0.5,0-1.6,2.5-1.1,5.1c0.6,3,3.3,6.1,5.1,5.5c2.2-0.6,2.9-6.1,1.3-7.3
		c-1.1-0.8-2.7,0.5-4-0.5C1482.2,1012.5,1482.6,1010.6,1482.1,1010.5z"/>
	<path class="st7" d="M1612,1071c5.7-11.5,1.2-24.3-2.5-34.9c-1.4-3.9-20.3-55-60.2-54.5c-15.3,0.2-33.4,7.9-42,23.3
		c-15,26.7,4.2,66.6,33.2,80.2C1565.5,1096.9,1601.9,1091.2,1612,1071z"/>
</g>
</svg>
