<?xml version="1.0" encoding="utf-8"?>
<!-- Generator: Adobe Illustrator 21.0.0, SVG Export Plug-In . SVG Version: 6.00 Build 0)  -->
<svg version="1.1" id="Calque_1" xmlns="http://www.w3.org/2000/svg" xmlns:xlink="http://www.w3.org/1999/xlink" x="0px" y="0px"
	 viewBox="0 0 1920 1080" style="enable-background:new 0 0 1920 1080;" xml:space="preserve">
<style type="text/css">
	.st0{fill:none;}
	.st1{font-family:'Mistral';}
	.st2{font-size:36px;}
	.st3{opacity:0.45;fill:#A1D6F5;enable-background:new    ;}
	.st4{opacity:0.64;fill:#A1D6F5;enable-background:new    ;}
	.st5{opacity:0.32;fill:#AAD4B2;enable-background:new    ;}
	.st6{opacity:0.73;fill:#F4A2A2;enable-background:new    ;}
	.st7{opacity:0.61;fill:#C8A3CC;enable-background:new    ;}
	.st8{fill:#FFFFFF;}
	.st9{opacity:0.83;}
	.st10{fill:#9C9B9B;stroke:#000000;stroke-width:0.5;stroke-miterlimit:10;}
	.st11{fill:#5F3311;stroke:#A14216;stroke-width:3;stroke-miterlimit:10;}
	.st12{fill:#212B53;}
	.st13{fill:#FFFFFF;stroke:#000000;stroke-miterlimit:10;}
	.st14{fill:#605D5D;stroke:#000000;stroke-miterlimit:10;}
	.st15{fill:#F9D7C7;}
	.st16{fill:#F9D7C7;stroke:#000000;stroke-miterlimit:10;}
	.st17{fill:#35251E;stroke:#000000;stroke-miterlimit:10;}
	.st18{fill:#605D5D;}
	.st19{fill:#C18F9E;stroke:#000000;stroke-miterlimit:10;}
	.st20{fill:#F5C9D6;}
	.st21{fill:#040505;}
	.st22{fill:#010202;stroke:#000000;stroke-miterlimit:10;}
	.st23{fill:#89162B;stroke:#000000;stroke-miterlimit:10;}
	.st24{fill:#DE1C6B;}
	.st25{fill:#100E0E;}
	.st26{fill:#010202;}
	.st27{fill:#F5F4C5;}
	.st28{fill:#FCEA10;stroke:#010202;stroke-width:0.25;stroke-miterlimit:10;}
	.st29{fill:#A9A9A8;}
</style>
<g id="Calque_10">
	<polygon class="st0" points="1605.3,-9.7 2077,211.5 1842.4,659.9 1370.7,438.6 	"/>
	<text transform="matrix(1 0 0 1 1581.4453 57.0692)" class="st1 st2">Lorem </text>
	<text transform="matrix(1 0 0 1 1558.8453 100.2692)" class="st1 st2">ipsum dolor sit </text>
	<text transform="matrix(1 0 0 1 1536.2454 143.4692)" class="st1 st2">amet, consectetuer adipiscing </text>
	<text transform="matrix(1 0 0 1 1513.6453 186.6692)" class="st1 st2">elit, sed diam nonummy nibh euismod </text>
	<text transform="matrix(1 0 0 1 1491.0453 229.8692)" class="st1 st2">tincidunt ut laoreet dolore magna aliquam erat </text>
	<text transform="matrix(1 0 0 1 1468.4453 273.0692)" class="st1 st2">volutpat. Ut wisi enim ad minim veniam, quis </text>
	<text transform="matrix(1 0 0 1 1445.8453 316.2692)" class="st1 st2">nostrud exerci tation ullamcorper sus</text>
	<polygon class="st0" points="1109.3,893.5 665.5,1248.8 480.8,1025.4 924.7,670.1 	"/>
	<text transform="matrix(1 0 0 1 867.7559 736.9151)" class="st1 st2">Lorem </text>
	<text transform="matrix(1 0 0 1 813.7559 780.1151)" class="st1 st2">ipsum dolor sit </text>
	<text transform="matrix(1 0 0 1 759.8559 823.3151)" class="st1 st2">amet, consectetuer adi</text>
	<text transform="matrix(1 0 0 1 1013.356 823.3151)" class="st1 st2">-</text>
	<text transform="matrix(1 0 0 1 705.856 866.5151)" class="st1 st2">piscing elit, sed diam nonum</text>
	<text transform="matrix(1 0 0 1 1047.4559 866.5151)" class="st1 st2">-</text>
	<text transform="matrix(1 0 0 1 651.856 909.7151)" class="st1 st2">my nibh euismod tincidunt ut </text>
	<text transform="matrix(1 0 0 1 597.9559 952.9151)" class="st1 st2">laoreet dolore magna aliquam erat </text>
	<text transform="matrix(1 0 0 1 543.9559 996.1151)" class="st1 st2">volutpat. Ut wisi enim ad minim </text>
	<text transform="matrix(1 0 0 1 492.2559 1039.3151)" class="st1 st2">veniam, quis nostrud exerci tation </text>
	<text transform="matrix(1 0 0 1 527.9559 1082.5151)" class="st1 st2">ullamcorper suscipit lobortis </text>
	<text transform="matrix(1 0 0 1 563.7559 1125.7151)" class="st1 st2">nisl ut aliquip ex ea </text>
	<text transform="matrix(1 0 0 1 599.4559 1168.915)" class="st1 st2">commodo </text>
	<text transform="matrix(1 0 0 1 635.1559 1212.1151)" class="st1 st2">conse</text>
	<text transform="matrix(1 0 0 1 695.5559 1212.1151)" class="st1 st2">-</text>
	<polygon class="st0" points="1258.2,567 718.4,110.9 870.1,-50.1 1409.9,406.1 	"/>
	<text transform="matrix(1 0 0 1 827.1372 16.7593)" class="st1 st2">Lorem </text>
	<text transform="matrix(1 0 0 1 786.4372 59.9593)" class="st1 st2">ipsum dolor sit </text>
	<text transform="matrix(1 0 0 1 745.7372 103.1593)" class="st1 st2">amet, consectetuer adi</text>
	<text transform="matrix(1 0 0 1 999.2372 103.1593)" class="st1 st2">-</text>
	<text transform="matrix(1 0 0 1 760.3372 146.3593)" class="st1 st2">piscing elit, sed diam no</text>
	<text transform="matrix(1 0 0 1 1048.3372 146.3593)" class="st1 st2">-</text>
	<text transform="matrix(1 0 0 1 811.5372 189.5593)" class="st1 st2">nummy nibh euismod tin</text>
	<text transform="matrix(1 0 0 1 1110.4373 189.5593)" class="st1 st2">-</text>
	<text transform="matrix(1 0 0 1 862.6372 232.7593)" class="st1 st2">cidunt ut laoreet dolore </text>
	<text transform="matrix(1 0 0 1 913.7372 275.9593)" class="st1 st2">magna aliquam erat volut</text>
	<text transform="matrix(1 0 0 1 1215.2372 275.9593)" class="st1 st2">-</text>
	<text transform="matrix(1 0 0 1 964.9372 319.1593)" class="st1 st2">pat. Ut wisi enim ad </text>
	<text transform="matrix(1 0 0 1 1016.0372 362.3593)" class="st1 st2">minim veniam, quis nos</text>
	<text transform="matrix(1 0 0 1 1304.0372 362.3593)" class="st1 st2">-</text>
	<text transform="matrix(1 0 0 1 1067.1372 405.5593)" class="st1 st2">trud exerci tation ullam</text>
	<text transform="matrix(1 0 0 1 1351.7372 405.5593)" class="st1 st2">-</text>
	<text transform="matrix(1 0 0 1 1118.2372 448.7593)" class="st1 st2">corper sus</text>
	
		<rect x="-919" y="70.5" transform="matrix(0.4906 -0.8714 0.8714 0.4906 -207.4888 99.0816)" class="st0" width="1800" height="313"/>
	<text transform="matrix(1 0 0 1 260.4976 -567.2183)" class="st1 st2">Lorem </text>
	<text transform="matrix(1 0 0 1 236.1976 -524.0183)" class="st1 st2">ipsum dolor sit </text>
	<text transform="matrix(1 0 0 1 211.8976 -480.8184)" class="st1 st2">amet, consectetuer adipis</text>
	<text transform="matrix(1 0 0 1 498.7976 -480.8184)" class="st1 st2">-</text>
	<text transform="matrix(1 0 0 1 187.4976 -437.6183)" class="st1 st2">cing elit, sed diam nonummy </text>
	<text transform="matrix(1 0 0 1 163.1976 -394.4183)" class="st1 st2">nibh euismod tincidunt ut </text>
	<text transform="matrix(1 0 0 1 138.8976 -351.2183)" class="st1 st2">laoreet dolore magna aliquam </text>
	<text transform="matrix(1 0 0 1 114.5976 -308.0183)" class="st1 st2">erat volutpat. Ut wisi enim </text>
	<text transform="matrix(1 0 0 1 90.2976 -264.8184)" class="st1 st2">ad minim veniam, quis nos</text>
	<text transform="matrix(1 0 0 1 415.4976 -264.8184)" class="st1 st2">-</text>
	<text transform="matrix(1 0 0 1 65.8976 -221.6183)" class="st1 st2">trud exerci tation ullamcor</text>
	<text transform="matrix(1 0 0 1 386.0976 -221.6183)" class="st1 st2">-</text>
	<text transform="matrix(1 0 0 1 41.5976 -178.4183)" class="st1 st2">per suscipit lobortis nisl ut </text>
	<text transform="matrix(1 0 0 1 17.2976 -135.2183)" class="st1 st2">aliquip ex ea commodo conse</text>
	<text transform="matrix(1 0 0 1 349.7976 -135.2183)" class="st1 st2">-</text>
	<text transform="matrix(1 0 0 1 -7.0024 -92.0183)" class="st1 st2">quat. Duis autem vel eum </text>
	<text transform="matrix(1 0 0 1 -31.3024 -48.8184)" class="st1 st2">iriure dolor in hendrerit in </text>
	<text transform="matrix(1 0 0 1 -55.7024 -5.6184)" class="st1 st2">vulputate velit esse molestie </text>
	<text transform="matrix(1 0 0 1 -80.0024 37.5817)" class="st1 st2">consequat, vel illum dolore eu </text>
	<text transform="matrix(1 0 0 1 -104.3024 80.7817)" class="st1 st2">feugiat nulla facilisis at vero </text>
	<text transform="matrix(1 0 0 1 -128.6024 123.9817)" class="st1 st2">eros et accumsan et iusto </text>
	<text transform="matrix(1 0 0 1 -152.9024 167.1817)" class="st1 st2">odio dignissim qui blandit </text>
	<text transform="matrix(1 0 0 1 -177.3024 210.3817)" class="st1 st2">praesent luptatum zzril dele</text>
	<text transform="matrix(1 0 0 1 146.9976 210.3817)" class="st1 st2">-</text>
	<text transform="matrix(1 0 0 1 -201.6024 253.5817)" class="st1 st2">nit augue duis dolore te feu</text>
	<text transform="matrix(1 0 0 1 112.7976 253.5817)" class="st1 st2">-</text>
	<text transform="matrix(1 0 0 1 -225.9024 296.7817)" class="st1 st2">gait nulla facilisi.</text>
	<text transform="matrix(1 0 0 1 -250.2024 339.9817)" class="st1 st2">Lorem ipsum dolor sit amet, </text>
	<text transform="matrix(1 0 0 1 -274.5024 383.1817)" class="st1 st2">cons ectetuer adipiscing elit, </text>
	<text transform="matrix(1 0 0 1 -298.9024 426.3817)" class="st1 st2">sed diam nonummy nibh </text>
	<text transform="matrix(1 0 0 1 -323.2024 469.5817)" class="st1 st2">euismod tincidunt ut laoreet </text>
	<text transform="matrix(1 0 0 1 -347.5024 512.7817)" class="st1 st2">dolore magna aliquam erat </text>
	<text transform="matrix(1 0 0 1 -371.8024 555.9816)" class="st1 st2">volutpat. Ut wisi enim ad </text>
	<text transform="matrix(1 0 0 1 -396.2024 599.1817)" class="st1 st2">minim veniam, quis nostrud </text>
	<text transform="matrix(1 0 0 1 -420.5024 642.3817)" class="st1 st2">exerci tation ullamcorper </text>
	<text transform="matrix(1 0 0 1 -444.8024 685.5817)" class="st1 st2">suscipit lobortis nisl ut ali</text>
	<text transform="matrix(1 0 0 1 -124.9024 685.5817)" class="st1 st2">-</text>
	<text transform="matrix(1 0 0 1 -469.1024 728.7817)" class="st1 st2">quip ex ea commodo conse</text>
	<text transform="matrix(1 0 0 1 -170.1024 728.7817)" class="st1 st2">-</text>
	<text transform="matrix(1 0 0 1 -493.4024 771.9816)" class="st1 st2">quat.</text>
	<text transform="matrix(1 0 0 1 -517.8024 815.1817)" class="st1 st2">Lorem ipsum dolor sit amet, </text>
	<text transform="matrix(1 0 0 1 -542.1024 858.3817)" class="st1 st2">consectetuer adipiscing elit, </text>
	<text transform="matrix(1 0 0 1 -566.4025 901.5817)" class="st1 st2">sed diam nonummy nibh </text>
	<text transform="matrix(1 0 0 1 -578.6024 944.7817)" class="st1 st2">euismod tincidunt ut laoreet </text>
	<text transform="matrix(1 0 0 1 -501.9024 987.9816)" class="st1 st2">dolore magna ali</text>
	<text transform="matrix(1 0 0 1 -304.1024 987.9816)" class="st1 st2">-</text>
	<text transform="matrix(1 0 0 1 -425.1024 1031.1816)" class="st1 st2">quam erat </text>
	<text transform="matrix(1 0 0 1 -348.4024 1074.3816)" class="st1 st2">vo</text>
	
		<rect x="-454.7" y="146.7" transform="matrix(0.4906 -0.8714 0.8714 0.4906 -37.3596 542.5206)" class="st0" width="1800" height="313"/>
	<text transform="matrix(1 0 0 1 724.8167 -491.0367)" class="st1 st2">Lorem </text>
	<text transform="matrix(1 0 0 1 700.5167 -447.8367)" class="st1 st2">ipsum dolor sit </text>
	<text transform="matrix(1 0 0 1 676.2167 -404.6367)" class="st1 st2">amet, consectetuer adipis</text>
	<text transform="matrix(1 0 0 1 963.1167 -404.6367)" class="st1 st2">-</text>
	<text transform="matrix(1 0 0 1 651.8167 -361.4368)" class="st1 st2">cing elit, sed diam nonummy </text>
	<text transform="matrix(1 0 0 1 627.5167 -318.2367)" class="st1 st2">nibh euismod tincidunt ut </text>
	<text transform="matrix(1 0 0 1 603.2167 -275.0367)" class="st1 st2">laoreet dolore magna aliquam </text>
	<text transform="matrix(1 0 0 1 578.9167 -231.8367)" class="st1 st2">erat volutpat. Ut wisi enim </text>
	<text transform="matrix(1 0 0 1 554.6167 -188.6367)" class="st1 st2">ad minim veniam, quis nos</text>
	<text transform="matrix(1 0 0 1 879.8167 -188.6367)" class="st1 st2">-</text>
	<text transform="matrix(1 0 0 1 530.2167 -145.4368)" class="st1 st2">trud exerci tation ullamcor</text>
	<text transform="matrix(1 0 0 1 850.4167 -145.4368)" class="st1 st2">-</text>
	<text transform="matrix(1 0 0 1 505.9167 -102.2367)" class="st1 st2">per suscipit lobortis nisl ut </text>
	<text transform="matrix(1 0 0 1 481.6167 -59.0367)" class="st1 st2">aliquip ex ea commodo conse</text>
	<text transform="matrix(1 0 0 1 814.1167 -59.0367)" class="st1 st2">-</text>
	<text transform="matrix(1 0 0 1 457.3167 -15.8367)" class="st1 st2">quat. Duis autem vel eum </text>
	<text transform="matrix(1 0 0 1 433.0167 27.3633)" class="st1 st2">iriure dolor in hendrerit in </text>
	<text transform="matrix(1 0 0 1 408.6167 70.5632)" class="st1 st2">vulputate velit esse molestie </text>
	<text transform="matrix(1 0 0 1 384.3167 113.7633)" class="st1 st2">consequat, vel illum dolore eu </text>
	<text transform="matrix(1 0 0 1 360.0167 156.9633)" class="st1 st2">feugiat nulla facilisis at vero </text>
	<text transform="matrix(1 0 0 1 335.7167 200.1633)" class="st1 st2">eros et accumsan et iusto </text>
	<text transform="matrix(1 0 0 1 311.4167 243.3633)" class="st1 st2">odio dignissim qui blandit </text>
	<text transform="matrix(1 0 0 1 287.0167 286.5632)" class="st1 st2">praesent luptatum zzril dele</text>
	<text transform="matrix(1 0 0 1 611.3167 286.5632)" class="st1 st2">-</text>
	<text transform="matrix(1 0 0 1 262.7167 329.7633)" class="st1 st2">nit augue duis dolore te feu</text>
	<text transform="matrix(1 0 0 1 577.1167 329.7633)" class="st1 st2">-</text>
	<text transform="matrix(1 0 0 1 238.4167 372.9633)" class="st1 st2">gait nulla facilisi.</text>
	<text transform="matrix(1 0 0 1 214.1167 416.1633)" class="st1 st2">Lorem ipsum dolor sit amet, </text>
	<text transform="matrix(1 0 0 1 189.8167 459.3633)" class="st1 st2">cons ectetuer adipiscing elit, </text>
	<text transform="matrix(1 0 0 1 165.4167 502.5632)" class="st1 st2">sed diam nonummy nibh </text>
	<text transform="matrix(1 0 0 1 141.1167 545.7633)" class="st1 st2">euismod tincidunt ut laoreet </text>
	<text transform="matrix(1 0 0 1 116.8167 588.9633)" class="st1 st2">dolore magna aliquam erat </text>
	<text transform="matrix(1 0 0 1 92.5167 632.1632)" class="st1 st2">volutpat. Ut wisi enim ad </text>
	<text transform="matrix(1 0 0 1 68.1167 675.3633)" class="st1 st2">minim veniam, quis nostrud </text>
	<text transform="matrix(1 0 0 1 43.8167 718.5632)" class="st1 st2">exerci tation ullamcorper </text>
	<text transform="matrix(1 0 0 1 19.5167 761.7633)" class="st1 st2">suscipit lobortis nisl ut ali</text>
	<text transform="matrix(1 0 0 1 339.4167 761.7633)" class="st1 st2">-</text>
	<text transform="matrix(1 0 0 1 -4.7833 804.9633)" class="st1 st2">quip ex ea commodo conse</text>
	<text transform="matrix(1 0 0 1 294.2167 804.9633)" class="st1 st2">-</text>
	<text transform="matrix(1 0 0 1 -29.0833 848.1632)" class="st1 st2">quat.</text>
	<text transform="matrix(1 0 0 1 -53.4833 891.3633)" class="st1 st2">Lorem ipsum dolor sit amet, </text>
	<text transform="matrix(1 0 0 1 -77.7833 934.5632)" class="st1 st2">consectetuer adipiscing elit, </text>
	<text transform="matrix(1 0 0 1 -102.0833 977.7633)" class="st1 st2">sed diam nonummy nibh </text>
	<text transform="matrix(1 0 0 1 -114.2833 1020.9633)" class="st1 st2">euismod tincidunt ut laoreet </text>
	<text transform="matrix(1 0 0 1 -37.5833 1064.1632)" class="st1 st2">dolore magna ali</text>
	<text transform="matrix(1 0 0 1 160.2167 1064.1632)" class="st1 st2">-</text>
	<text transform="matrix(1 0 0 1 39.2167 1107.3633)" class="st1 st2">quam erat </text>
	<text transform="matrix(1 0 0 1 115.9167 1150.5632)" class="st1 st2">vo</text>
</g>
<g id="Calque_5">
	<circle class="st3" cx="433" cy="943" r="464"/>
	<circle class="st3" cx="54.2" cy="336.2" r="109.2"/>
	<circle class="st3" cx="313.2" cy="303.2" r="426.2"/>
	<circle class="st3" cx="1456.2" cy="116.2" r="219.2"/>
	<circle class="st3" cx="1833.5" cy="885.5" r="361.5"/>
	<circle class="st3" cx="940.8" cy="95.2" r="168.2"/>
	<circle class="st3" cx="1898.2" cy="129.8" r="202.8"/>
	<circle class="st3" cx="1225.1" cy="1151.1" r="149.9"/>
	<circle class="st3" cx="959.4" cy="433.8" r="217.6"/>
</g>
<g id="Calque_6">
	<circle class="st4" cx="716" cy="184" r="145"/>
	<circle class="st4" cx="1197" cy="497" r="220"/>
	<circle class="st4" cx="946.5" cy="937.5" r="230.5"/>
	<circle class="st4" cx="-19" cy="815" r="212"/>
	<circle class="st4" cx="1679" cy="325.8" r="196"/>
	<circle class="st4" cx="1187" cy="-27" r="130"/>
	<circle class="st4" cx="1549" cy="815" r="208"/>
</g>
<g id="Calque_7">
	<circle class="st5" cx="567" cy="27" r="282"/>
	<circle class="st5" cx="859" cy="463" r="352"/>
	<circle class="st5" cx="537.5" cy="796.5" r="422.5"/>
	<circle class="st5" cx="1615" cy="523.1" r="628"/>
	<circle class="st5" cx="1191.9" cy="6.1" r="251.1"/>
	<circle class="st5" cx="235.3" cy="179.3" r="302.3"/>
</g>
<g id="Calque_8">
	<circle class="st6" cx="1737.2" cy="174" r="135"/>
	<circle class="st6" cx="955.8" cy="83.7" r="162.7"/>
	<circle class="st6" cx="1169" cy="797" r="112"/>
	<circle class="st6" cx="191" cy="575.6" r="112"/>
	<circle class="st6" cx="154" cy="110" r="83"/>
	<circle class="st6" cx="1773" cy="1108" r="147"/>
	<circle class="st6" cx="1828.6" cy="465.4" r="91.4"/>
	<circle class="st6" cx="1190" cy="337.3" r="91"/>
</g>
<g id="Calque_9">
	<circle class="st7" cx="921" cy="1111" r="136"/>
	<circle class="st7" cx="1608" cy="347.6" r="267"/>
	<circle class="st7" cx="-29" cy="197" r="132"/>
	<circle class="st7" cx="-42.1" cy="992.4" r="106.9"/>
	<circle class="st7" cx="1594.7" cy="1002" r="187"/>
	<circle class="st7" cx="1882.9" cy="725.7" r="126.1"/>
	<circle class="st7" cx="1390.4" cy="10.4" r="133.4"/>
	<circle class="st7" cx="855.2" cy="453.8" r="121.8"/>
</g>
<g id="Calque_1_1_">
	<path class="st8" d="M823.1,989.4h-690c-34.9,0-63.1-28.3-63.1-63.1V133.8c0-34.9,28.3-63.1,63.1-63.1h690
		c34.9,0,63.1,28.3,63.1,63.1v792.5C886.3,961.2,858,989.4,823.1,989.4z"/>
	<g class="st9">
		<path class="st10" d="M103,101.4c-15.1,0-27.3-12.2-27.3-27.3S87.9,46.8,103,46.8c4.5,0,8.7,1.1,12.4,3c0.8-0.6,1.6-1.1,2.5-1.6
			c-4.4-2.6-9.6-4-15.1-4c-16.6,0-30.1,13.5-30.1,30.1s13.5,30.1,30.1,30.1c5.5,0,10.6-1.5,15.1-4c-0.9-0.5-1.9-1.1-2.7-1.8
			C111.5,100.4,107.4,101.4,103,101.4z"/>
		<path class="st10" d="M133.1,46.8c5.8,0,11.2,1.8,15.6,4.9c0.7-0.6,1.4-1.2,2.1-1.7c-5-3.7-11.2-5.9-17.9-5.9
			c-5.5,0-10.6,1.5-15.1,4c0.9,0.5,1.8,1.1,2.7,1.7C124.3,47.9,128.6,46.8,133.1,46.8z"/>
		<path class="st10" d="M133.1,101.4c-4.4,0-8.6-1.1-12.4-3c-0.9,0.7-1.9,1.3-2.9,1.9c4.4,2.6,9.6,4,15.1,4c6.7,0,12.9-2.2,17.9-5.9
			c-0.8-0.6-1.6-1.2-2.3-1.9C144.2,99.6,138.9,101.4,133.1,101.4z"/>
		<path class="st10" d="M118.1,51.4c0.8-0.5,1.6-1,2.5-1.5c-0.9-0.6-1.7-1.2-2.7-1.7c-0.9,0.5-1.7,1-2.5,1.6
			C116.3,50.3,117.2,50.8,118.1,51.4z"/>
		<path class="st10" d="M118.1,96.9c-0.9,0.6-1.9,1.2-2.9,1.7c0.9,0.6,1.8,1.2,2.7,1.8c1-0.6,2-1.2,2.9-1.9
			C119.8,98,118.9,97.4,118.1,96.9z"/>
		<path class="st10" d="M105.9,74.1c0-9.5,4.9-17.9,12.2-22.7c-0.9-0.6-1.8-1.1-2.7-1.6c-7.6,5.5-12.6,14.4-12.6,24.5
			c0,10,4.9,18.8,12.3,24.3c1-0.5,2-1.1,2.9-1.7C110.7,92,105.9,83.6,105.9,74.1z"/>
		<path class="st10" d="M169,101.4c-5.8,0-11.2-1.8-15.7-5c-0.8,0.7-1.6,1.4-2.5,2c5,3.7,11.2,5.9,17.9,5.9c5.5,0,10.6-1.5,15.1-4
			c-0.9-0.5-1.9-1.1-2.7-1.8C177.5,100.4,173.4,101.4,169,101.4z"/>
		<path class="st10" d="M169,46.8c4.5,0,8.7,1.1,12.4,3c0.8-0.6,1.6-1.1,2.5-1.6c-4.4-2.6-9.6-4-15.1-4c-6.7,0-12.9,2.2-17.9,5.9
			c0.8,0.6,1.5,1.2,2.3,1.9C157.6,48.7,163.1,46.8,169,46.8z"/>
		<path class="st10" d="M151.1,53.6c0.7-0.6,1.4-1.1,2.1-1.6c-0.7-0.7-1.5-1.3-2.3-1.9c-0.7,0.5-1.4,1.1-2.1,1.7
			C149.6,52.3,150.3,52.9,151.1,53.6z"/>
		<path class="st10" d="M151.1,94.7c-0.8,0.7-1.6,1.3-2.5,1.9c0.7,0.7,1.5,1.3,2.3,1.9c0.9-0.6,1.7-1.3,2.5-2
			C152.5,95.9,151.8,95.3,151.1,94.7z"/>
		<path class="st10" d="M141.7,74.1c0-8.2,3.6-15.6,9.4-20.6c-0.7-0.6-1.5-1.2-2.3-1.8c-6.2,5.5-10.1,13.6-10.1,22.5
			s3.8,16.8,9.9,22.3c0.9-0.6,1.7-1.2,2.5-1.9C145.3,89.7,141.7,82.3,141.7,74.1z"/>
		<path class="st10" d="M199.1,46.8c5.8,0,11.2,1.8,15.6,4.9c0.7-0.6,1.4-1.2,2.1-1.7c-5-3.7-11.2-5.9-17.9-5.9
			c-5.5,0-10.6,1.5-15.1,4c0.9,0.5,1.8,1.1,2.7,1.7C190.3,47.9,194.6,46.8,199.1,46.8z"/>
		<path class="st10" d="M199.1,101.4c-4.4,0-8.6-1.1-12.4-3c-0.9,0.7-1.9,1.3-2.9,1.9c4.4,2.6,9.6,4,15.1,4c6.7,0,12.9-2.2,17.9-5.9
			c-0.8-0.6-1.6-1.2-2.3-1.9C210.2,99.6,204.9,101.4,199.1,101.4z"/>
		<path class="st10" d="M184.1,51.4c0.8-0.5,1.6-1,2.5-1.5c-0.9-0.6-1.7-1.2-2.7-1.7c-0.9,0.5-1.7,1-2.5,1.6
			C182.3,50.3,183.2,50.8,184.1,51.4z"/>
		<path class="st10" d="M184.1,96.9c-0.9,0.6-1.9,1.2-2.9,1.7c0.9,0.6,1.8,1.2,2.7,1.8c1-0.6,2-1.2,2.9-1.9
			C185.8,98,184.9,97.4,184.1,96.9z"/>
		<path class="st10" d="M171.8,74.1c0-9.5,4.9-17.9,12.2-22.7c-0.9-0.6-1.8-1.1-2.7-1.6c-7.6,5.5-12.6,14.4-12.6,24.5
			c0,10,4.9,18.8,12.3,24.3c1-0.5,2-1.1,2.9-1.7C176.7,92,171.8,83.6,171.8,74.1z"/>
		<path class="st10" d="M235,46.8c4.5,0,8.7,1.1,12.4,3c0.8-0.6,1.6-1.1,2.5-1.6c-4.4-2.6-9.6-4-15.1-4c-6.7,0-12.9,2.2-17.9,5.9
			c0.8,0.6,1.5,1.2,2.3,1.9C223.6,48.7,229.1,46.8,235,46.8z"/>
		<path class="st10" d="M235,101.4c-5.8,0-11.2-1.8-15.7-5c-0.8,0.7-1.6,1.4-2.5,2c5,3.7,11.2,5.9,17.9,5.9c5.5,0,10.6-1.5,15.1-4
			c-0.9-0.5-1.9-1.1-2.7-1.8C243.5,100.4,239.3,101.4,235,101.4z"/>
		<path class="st10" d="M217.1,53.6c0.7-0.6,1.4-1.1,2.1-1.6c-0.7-0.7-1.5-1.3-2.3-1.9c-0.7,0.5-1.4,1.1-2.1,1.7
			C215.6,52.3,216.3,52.9,217.1,53.6z"/>
		<path class="st10" d="M217.1,94.7c-0.8,0.7-1.6,1.3-2.5,1.9c0.7,0.7,1.5,1.3,2.3,1.9c0.9-0.6,1.7-1.3,2.5-2
			C218.5,95.9,217.8,95.3,217.1,94.7z"/>
		<path class="st10" d="M207.7,74.1c0-8.2,3.6-15.6,9.4-20.6c-0.7-0.6-1.5-1.2-2.3-1.8c-6.2,5.5-10.1,13.6-10.1,22.5
			s3.8,16.8,9.9,22.3c0.9-0.6,1.7-1.2,2.5-1.9C211.3,89.7,207.7,82.3,207.7,74.1z"/>
		<path class="st10" d="M265.1,101.4c-4.4,0-8.6-1.1-12.4-3c-0.9,0.7-1.9,1.3-2.9,1.9c4.4,2.6,9.6,4,15.1,4c6.7,0,12.9-2.2,17.9-5.9
			c-0.8-0.6-1.6-1.2-2.3-1.9C276.2,99.6,270.9,101.4,265.1,101.4z"/>
		<path class="st10" d="M265.1,46.8c5.8,0,11.2,1.8,15.6,4.9c0.7-0.6,1.4-1.2,2.1-1.7c-5-3.7-11.2-5.9-17.9-5.9
			c-5.5,0-10.6,1.5-15.1,4c0.9,0.5,1.8,1.1,2.7,1.7C256.3,47.9,260.6,46.8,265.1,46.8z"/>
		<path class="st10" d="M250.1,51.4c0.8-0.5,1.6-1,2.5-1.5c-0.9-0.6-1.7-1.2-2.7-1.7c-0.9,0.5-1.7,1-2.5,1.6
			C248.3,50.3,249.2,50.8,250.1,51.4z"/>
		<path class="st10" d="M250.1,96.9c-0.9,0.6-1.9,1.2-2.9,1.7c0.9,0.6,1.8,1.2,2.7,1.8c1-0.6,2-1.2,2.9-1.9
			C251.8,98,250.9,97.4,250.1,96.9z"/>
		<path class="st10" d="M237.8,74.1c0-9.5,4.9-17.9,12.2-22.7c-0.9-0.6-1.8-1.1-2.7-1.6c-7.6,5.5-12.6,14.4-12.6,24.5
			c0,10,4.9,18.8,12.3,24.3c1-0.5,2-1.1,2.9-1.7C242.7,92,237.8,83.6,237.8,74.1z"/>
		<path class="st10" d="M301,46.8c4.5,0,8.7,1.1,12.4,3c0.8-0.6,1.6-1.1,2.5-1.6c-4.4-2.6-9.6-4-15.1-4c-6.7,0-12.9,2.2-17.9,5.9
			c0.8,0.6,1.5,1.2,2.3,1.9C289.6,48.7,295.1,46.8,301,46.8z"/>
		<path class="st10" d="M301,101.4c-5.8,0-11.2-1.8-15.7-5c-0.8,0.7-1.6,1.4-2.5,2c5,3.7,11.2,5.9,17.9,5.9c5.5,0,10.6-1.5,15.1-4
			c-0.9-0.5-1.9-1.1-2.7-1.8C309.4,100.4,305.3,101.4,301,101.4z"/>
		<path class="st10" d="M283,94.7c-0.8,0.7-1.6,1.3-2.5,1.9c0.7,0.7,1.5,1.3,2.3,1.9c0.9-0.6,1.7-1.3,2.5-2
			C284.5,95.9,283.8,95.3,283,94.7z"/>
		<path class="st10" d="M283,53.6c0.7-0.6,1.4-1.1,2.1-1.6c-0.7-0.7-1.5-1.3-2.3-1.9c-0.7,0.5-1.4,1.1-2.1,1.7
			C281.6,52.3,282.3,52.9,283,53.6z"/>
		<path class="st10" d="M273.7,74.1c0-8.2,3.6-15.6,9.4-20.6c-0.7-0.6-1.5-1.2-2.3-1.8c-6.2,5.5-10.1,13.6-10.1,22.5
			s3.8,16.8,9.9,22.3c0.9-0.6,1.7-1.2,2.5-1.9C277.3,89.7,273.7,82.3,273.7,74.1z"/>
		<path class="st10" d="M331.1,46.8c5.8,0,11.2,1.8,15.6,4.9c0.7-0.6,1.4-1.2,2.1-1.7c-5-3.7-11.2-5.9-17.9-5.9
			c-5.5,0-10.6,1.5-15.1,4c0.9,0.5,1.8,1.1,2.7,1.7C322.3,47.9,326.6,46.8,331.1,46.8z"/>
		<path class="st10" d="M331.1,101.4c-4.4,0-8.6-1.1-12.4-3c-0.9,0.7-1.9,1.3-2.9,1.9c4.4,2.6,9.6,4,15.1,4c6.7,0,12.9-2.2,17.9-5.9
			c-0.8-0.6-1.6-1.2-2.3-1.9C342.2,99.6,336.8,101.4,331.1,101.4z"/>
		<path class="st10" d="M316,96.9c-0.9,0.6-1.9,1.2-2.9,1.7c0.9,0.6,1.8,1.2,2.7,1.8c1-0.6,2-1.2,2.9-1.9
			C317.8,98,316.9,97.4,316,96.9z"/>
		<path class="st10" d="M316,51.4c0.8-0.5,1.6-1,2.5-1.5c-0.9-0.6-1.7-1.2-2.7-1.7c-0.9,0.5-1.7,1-2.5,1.6
			C314.3,50.3,315.2,50.8,316,51.4z"/>
		<path class="st10" d="M303.8,74.1c0-9.5,4.9-17.9,12.2-22.7c-0.9-0.6-1.8-1.1-2.7-1.6c-7.6,5.5-12.6,14.4-12.6,24.5
			c0,10,4.9,18.8,12.3,24.3c1-0.5,2-1.1,2.9-1.7C308.7,92,303.8,83.6,303.8,74.1z"/>
		<path class="st10" d="M316,96.9c0.9,0.6,1.8,1.1,2.7,1.6"/>
		<path class="st10" d="M318.5,49.9c-0.9,0.4-1.7,0.9-2.5,1.5"/>
		<path class="st10" d="M367,46.8c4.5,0,8.7,1.1,12.4,3c0.8-0.6,1.6-1.1,2.5-1.6c-4.4-2.6-9.6-4-15.1-4c-6.7,0-12.9,2.2-17.9,5.9
			c0.8,0.6,1.5,1.2,2.3,1.9C355.6,48.7,361.1,46.8,367,46.8z"/>
		<path class="st10" d="M367,101.4c-5.8,0-11.2-1.8-15.7-5c-0.8,0.7-1.6,1.4-2.5,2c5,3.7,11.2,5.9,17.9,5.9c5.5,0,10.6-1.5,15.1-4
			c-0.9-0.5-1.9-1.1-2.7-1.8C375.4,100.4,371.3,101.4,367,101.4z"/>
		<path class="st10" d="M349,94.7c-0.8,0.7-1.6,1.3-2.5,1.9c0.7,0.7,1.5,1.3,2.3,1.9c0.9-0.6,1.7-1.3,2.5-2
			C350.5,95.9,349.8,95.3,349,94.7z"/>
		<path class="st10" d="M349,53.6c0.7-0.6,1.4-1.1,2.1-1.6c-0.7-0.7-1.5-1.3-2.3-1.9c-0.7,0.5-1.4,1.1-2.1,1.7
			C347.5,52.3,348.3,52.9,349,53.6z"/>
		<path class="st10" d="M339.7,74.1c0-8.2,3.6-15.6,9.4-20.6c-0.7-0.6-1.5-1.2-2.3-1.8c-6.2,5.5-10.1,13.6-10.1,22.5
			s3.8,16.8,9.9,22.3c0.9-0.6,1.7-1.2,2.5-1.9C343.3,89.7,339.7,82.3,339.7,74.1z"/>
		<path class="st10" d="M349,94.7c0.7,0.6,1.5,1.2,2.3,1.8"/>
		<path class="st10" d="M351.1,51.9c-0.7,0.5-1.4,1.1-2.1,1.6"/>
		<path class="st10" d="M397.1,46.8c5.8,0,11.2,1.8,15.6,4.9c0.7-0.6,1.4-1.2,2.1-1.7c-5-3.7-11.2-5.9-17.9-5.9
			c-5.5,0-10.6,1.5-15.1,4c0.9,0.5,1.8,1.1,2.7,1.7C388.3,47.9,392.6,46.8,397.1,46.8z"/>
		<path class="st10" d="M397.1,101.4c-4.4,0-8.6-1.1-12.4-3c-0.9,0.7-1.9,1.3-2.9,1.9c4.4,2.6,9.6,4,15.1,4c6.7,0,12.9-2.2,17.9-5.9
			c-0.8-0.6-1.6-1.2-2.3-1.9C408.2,99.6,402.8,101.4,397.1,101.4z"/>
		<path class="st10" d="M382,96.9c-0.9,0.6-1.9,1.2-2.9,1.7c0.9,0.6,1.8,1.2,2.7,1.8c1-0.6,2-1.2,2.9-1.9
			C383.8,98,382.9,97.4,382,96.9z"/>
		<path class="st10" d="M382,51.4c0.8-0.5,1.6-1,2.5-1.5c-0.9-0.6-1.7-1.2-2.7-1.7c-0.9,0.5-1.7,1-2.5,1.6
			C380.3,50.3,381.2,50.8,382,51.4z"/>
		<path class="st10" d="M369.8,74.1c0-9.5,4.9-17.9,12.2-22.7c-0.9-0.6-1.8-1.1-2.7-1.6c-7.6,5.5-12.6,14.4-12.6,24.5
			c0,10,4.9,18.8,12.3,24.3c1-0.5,2-1.1,2.9-1.7C374.7,92,369.8,83.6,369.8,74.1z"/>
		<path class="st10" d="M433,46.8c4.5,0,8.7,1.1,12.4,3c0.8-0.6,1.6-1.1,2.5-1.6c-4.4-2.6-9.6-4-15.1-4c-6.7,0-12.9,2.2-17.9,5.9
			c0.8,0.6,1.5,1.2,2.3,1.9C421.6,48.7,427,46.8,433,46.8z"/>
		<path class="st10" d="M433,101.4c-5.8,0-11.2-1.8-15.7-5c-0.8,0.7-1.6,1.4-2.5,2c5,3.7,11.2,5.9,17.9,5.9c5.5,0,10.6-1.5,15.1-4
			c-0.9-0.5-1.9-1.1-2.7-1.8C441.4,100.4,437.3,101.4,433,101.4z"/>
		<path class="st10" d="M415,53.6c0.7-0.6,1.4-1.1,2.1-1.6c-0.7-0.7-1.5-1.3-2.3-1.9c-0.7,0.5-1.4,1.1-2.1,1.7
			C413.5,52.3,414.3,52.9,415,53.6z"/>
		<path class="st10" d="M415,94.7c-0.8,0.7-1.6,1.3-2.5,1.9c0.7,0.7,1.5,1.3,2.3,1.9c0.9-0.6,1.7-1.3,2.5-2
			C416.5,95.9,415.7,95.3,415,94.7z"/>
		<path class="st10" d="M405.7,74.1c0-8.2,3.6-15.6,9.4-20.6c-0.7-0.6-1.5-1.2-2.3-1.8c-6.2,5.5-10.1,13.6-10.1,22.5
			s3.8,16.8,9.9,22.3c0.9-0.6,1.7-1.2,2.5-1.9C409.3,89.7,405.7,82.3,405.7,74.1z"/>
		<path class="st10" d="M463.1,46.8c5.8,0,11.2,1.8,15.6,4.9c0.7-0.6,1.4-1.2,2.1-1.7c-5-3.7-11.2-5.9-17.9-5.9
			c-5.5,0-10.6,1.5-15.1,4c0.9,0.5,1.8,1.1,2.7,1.7C454.3,47.9,458.5,46.8,463.1,46.8z"/>
		<path class="st10" d="M463.1,101.4c-4.4,0-8.6-1.1-12.4-3c-0.9,0.7-1.9,1.3-2.9,1.9c4.4,2.6,9.6,4,15.1,4c6.7,0,12.9-2.2,17.9-5.9
			c-0.8-0.6-1.6-1.2-2.3-1.9C474.1,99.6,468.8,101.4,463.1,101.4z"/>
		<path class="st10" d="M448,51.4c0.8-0.5,1.6-1,2.5-1.5c-0.9-0.6-1.7-1.2-2.7-1.7c-0.9,0.5-1.7,1-2.5,1.6
			C446.3,50.3,447.2,50.8,448,51.4z"/>
		<path class="st10" d="M448,96.9c-0.9,0.6-1.9,1.2-2.9,1.7c0.9,0.6,1.8,1.2,2.7,1.8c1-0.6,2-1.2,2.9-1.9
			C449.8,98,448.9,97.4,448,96.9z"/>
		<path class="st10" d="M435.8,74.1c0-9.5,4.9-17.9,12.2-22.7c-0.9-0.6-1.8-1.1-2.7-1.6c-7.6,5.5-12.6,14.4-12.6,24.5
			c0,10,4.9,18.8,12.3,24.3c1-0.5,2-1.1,2.9-1.7C440.7,92,435.8,83.6,435.8,74.1z"/>
		<path class="st10" d="M498.9,46.8c4.5,0,8.7,1.1,12.4,3c0.8-0.6,1.6-1.1,2.5-1.6c-4.4-2.6-9.6-4-15.1-4c-6.7,0-12.9,2.2-17.9,5.9
			c0.8,0.6,1.5,1.2,2.3,1.9C487.6,48.7,493,46.8,498.9,46.8z"/>
		<path class="st10" d="M498.9,101.4c-5.8,0-11.2-1.8-15.7-5c-0.8,0.7-1.6,1.4-2.5,2c5,3.7,11.2,5.9,17.9,5.9c5.5,0,10.6-1.5,15.1-4
			c-0.9-0.5-1.9-1.1-2.7-1.8C507.4,100.4,503.3,101.4,498.9,101.4z"/>
		<path class="st10" d="M481,53.6c0.7-0.6,1.4-1.1,2.1-1.6c-0.7-0.7-1.5-1.3-2.3-1.9c-0.7,0.5-1.4,1.1-2.1,1.7
			C479.5,52.3,480.3,52.9,481,53.6z"/>
		<path class="st10" d="M481,94.7c-0.8,0.7-1.6,1.3-2.5,1.9c0.7,0.7,1.5,1.3,2.3,1.9c0.9-0.6,1.7-1.3,2.5-2
			C482.5,95.9,481.7,95.3,481,94.7z"/>
		<path class="st10" d="M471.7,74.1c0-8.2,3.6-15.6,9.4-20.6c-0.7-0.6-1.5-1.2-2.3-1.8c-6.2,5.5-10.1,13.6-10.1,22.5
			s3.8,16.8,9.9,22.3c0.9-0.6,1.7-1.2,2.5-1.9C475.3,89.7,471.7,82.3,471.7,74.1z"/>
		<path class="st10" d="M529.1,101.4c-4.4,0-8.6-1.1-12.4-3c-0.9,0.7-1.9,1.3-2.9,1.9c4.4,2.6,9.6,4,15.1,4c6.7,0,12.9-2.2,17.9-5.9
			c-0.8-0.6-1.6-1.2-2.3-1.9C540.1,99.6,534.8,101.4,529.1,101.4z"/>
		<path class="st10" d="M529.1,46.8c5.8,0,11.2,1.8,15.6,4.9c0.7-0.6,1.4-1.2,2.1-1.7c-5-3.7-11.2-5.9-17.9-5.9
			c-5.5,0-10.6,1.5-15.1,4c0.9,0.5,1.8,1.1,2.7,1.7C520.3,47.9,524.5,46.8,529.1,46.8z"/>
		<path class="st10" d="M514,96.9c-0.9,0.6-1.9,1.2-2.9,1.7c0.9,0.6,1.8,1.2,2.7,1.8c1-0.6,2-1.2,2.9-1.9
			C515.8,98,514.9,97.4,514,96.9z"/>
		<path class="st10" d="M514,51.4c0.8-0.5,1.6-1,2.5-1.5c-0.9-0.6-1.7-1.2-2.7-1.7c-0.9,0.5-1.7,1-2.5,1.6
			C512.2,50.3,513.1,50.8,514,51.4z"/>
		<path class="st10" d="M501.8,74.1c0-9.5,4.9-17.9,12.2-22.7c-0.9-0.6-1.8-1.1-2.7-1.6c-7.6,5.5-12.6,14.4-12.6,24.5
			c0,10,4.9,18.8,12.3,24.3c1-0.5,2-1.1,2.9-1.7C506.6,92,501.8,83.6,501.8,74.1z"/>
		<path class="st10" d="M564.9,101.4c-5.8,0-11.2-1.8-15.7-5c-0.8,0.7-1.6,1.4-2.5,2c5,3.7,11.2,5.9,17.9,5.9c5.5,0,10.6-1.5,15.1-4
			c-0.9-0.5-1.9-1.1-2.7-1.8C573.4,100.4,569.3,101.4,564.9,101.4z"/>
		<path class="st10" d="M564.9,46.8c4.5,0,8.7,1.1,12.4,3c0.8-0.6,1.6-1.1,2.5-1.6c-4.4-2.6-9.6-4-15.1-4c-6.7,0-12.9,2.2-17.9,5.9
			c0.8,0.6,1.5,1.2,2.3,1.9C553.6,48.7,559,46.8,564.9,46.8z"/>
		<path class="st10" d="M547,53.6c0.7-0.6,1.4-1.1,2.1-1.6c-0.7-0.7-1.5-1.3-2.3-1.9c-0.7,0.5-1.4,1.1-2.1,1.7
			C545.5,52.3,546.3,52.9,547,53.6z"/>
		<path class="st10" d="M547,94.7c-0.8,0.7-1.6,1.3-2.5,1.9c0.7,0.7,1.5,1.3,2.3,1.9c0.9-0.6,1.7-1.3,2.5-2
			C548.5,95.9,547.7,95.3,547,94.7z"/>
		<path class="st10" d="M537.7,74.1c0-8.2,3.6-15.6,9.4-20.6c-0.7-0.6-1.5-1.2-2.3-1.8c-6.2,5.5-10.1,13.6-10.1,22.5
			s3.8,16.8,9.9,22.3c0.9-0.6,1.7-1.2,2.5-1.9C541.3,89.7,537.7,82.3,537.7,74.1z"/>
		<path class="st10" d="M595.1,46.8c5.8,0,11.2,1.8,15.6,4.9c0.7-0.6,1.4-1.2,2.1-1.7c-5-3.7-11.2-5.9-17.9-5.9
			c-5.5,0-10.6,1.5-15.1,4c0.9,0.5,1.8,1.1,2.7,1.7C586.2,47.9,590.5,46.8,595.1,46.8z"/>
		<path class="st10" d="M595.1,101.4c-4.4,0-8.6-1.1-12.4-3c-0.9,0.7-1.9,1.3-2.9,1.9c4.4,2.6,9.6,4,15.1,4c6.7,0,12.9-2.2,17.9-5.9
			c-0.8-0.6-1.6-1.2-2.3-1.9C606.1,99.6,600.8,101.4,595.1,101.4z"/>
		<path class="st10" d="M580,96.9c-0.9,0.6-1.9,1.2-2.9,1.7c0.9,0.6,1.8,1.2,2.7,1.8c1-0.6,2-1.2,2.9-1.9
			C581.8,98,580.9,97.4,580,96.9z"/>
		<path class="st10" d="M580,51.4c0.8-0.5,1.6-1,2.5-1.5c-0.9-0.6-1.7-1.2-2.7-1.7c-0.9,0.5-1.7,1-2.5,1.6
			C578.2,50.3,579.1,50.8,580,51.4z"/>
		<path class="st10" d="M567.8,74.1c0-9.5,4.9-17.9,12.2-22.7c-0.9-0.6-1.8-1.1-2.7-1.6c-7.6,5.5-12.6,14.4-12.6,24.5
			c0,10,4.9,18.8,12.3,24.3c1-0.5,2-1.1,2.9-1.7C572.6,92,567.8,83.6,567.8,74.1z"/>
		<path class="st10" d="M630.9,101.4c-5.8,0-11.2-1.8-15.7-5c-0.8,0.7-1.6,1.4-2.5,2c5,3.7,11.2,5.9,17.9,5.9c5.5,0,10.6-1.5,15.1-4
			c-0.9-0.5-1.9-1.1-2.7-1.8C639.4,100.4,635.3,101.4,630.9,101.4z"/>
		<path class="st10" d="M630.9,46.8c4.5,0,8.7,1.1,12.4,3c0.8-0.6,1.6-1.1,2.5-1.6c-4.4-2.6-9.6-4-15.1-4c-6.7,0-12.9,2.2-17.9,5.9
			c0.8,0.6,1.5,1.2,2.3,1.9C619.5,48.7,625,46.8,630.9,46.8z"/>
		<path class="st10" d="M613,53.6c0.7-0.6,1.4-1.1,2.1-1.6c-0.7-0.7-1.5-1.3-2.3-1.9c-0.7,0.5-1.4,1.1-2.1,1.7
			C611.5,52.3,612.3,52.9,613,53.6z"/>
		<path class="st10" d="M613,94.7c-0.8,0.7-1.6,1.3-2.5,1.9c0.7,0.7,1.5,1.3,2.3,1.9c0.9-0.6,1.7-1.3,2.5-2
			C614.5,95.9,613.7,95.3,613,94.7z"/>
		<path class="st10" d="M603.6,74.1c0-8.2,3.6-15.6,9.4-20.6c-0.7-0.6-1.5-1.2-2.3-1.8c-6.2,5.5-10.1,13.6-10.1,22.5
			s3.8,16.8,9.9,22.3c0.9-0.6,1.7-1.2,2.5-1.9C607.3,89.7,603.6,82.3,603.6,74.1z"/>
		<path class="st10" d="M661.1,101.4c-4.4,0-8.6-1.1-12.4-3c-0.9,0.7-1.9,1.3-2.9,1.9c4.4,2.6,9.6,4,15.1,4c6.7,0,12.9-2.2,17.9-5.9
			c-0.8-0.6-1.6-1.2-2.3-1.9C672.1,99.6,666.8,101.4,661.1,101.4z"/>
		<path class="st10" d="M661.1,46.8c5.8,0,11.2,1.8,15.6,4.9c0.7-0.6,1.4-1.2,2.1-1.7c-5-3.7-11.2-5.9-17.9-5.9
			c-5.5,0-10.6,1.5-15.1,4c0.9,0.5,1.8,1.1,2.7,1.7C652.2,47.9,656.5,46.8,661.1,46.8z"/>
		<path class="st10" d="M646,96.9c-0.9,0.6-1.9,1.2-2.9,1.7c0.9,0.6,1.8,1.2,2.7,1.8c1-0.6,2-1.2,2.9-1.9
			C647.8,98,646.9,97.4,646,96.9z"/>
		<path class="st10" d="M646,51.4c0.8-0.5,1.6-1,2.5-1.5c-0.9-0.6-1.7-1.2-2.7-1.7c-0.9,0.5-1.7,1-2.5,1.6
			C644.2,50.3,645.1,50.8,646,51.4z"/>
		<path class="st10" d="M633.8,74.1c0-9.5,4.9-17.9,12.2-22.7c-0.9-0.6-1.8-1.1-2.7-1.6c-7.6,5.5-12.6,14.4-12.6,24.5
			c0,10,4.9,18.8,12.3,24.3c1-0.5,2-1.1,2.9-1.7C638.6,92,633.8,83.6,633.8,74.1z"/>
		<path class="st10" d="M696.9,46.8c4.5,0,8.7,1.1,12.4,3c0.8-0.6,1.6-1.1,2.5-1.6c-4.4-2.6-9.6-4-15.1-4c-6.7,0-12.9,2.2-17.9,5.9
			c0.8,0.6,1.5,1.2,2.3,1.9C685.5,48.7,691,46.8,696.9,46.8z"/>
		<path class="st10" d="M696.9,101.4c-5.8,0-11.2-1.8-15.7-5c-0.8,0.7-1.6,1.4-2.5,2c5,3.7,11.2,5.9,17.9,5.9c5.5,0,10.6-1.5,15.1-4
			c-0.9-0.5-1.9-1.1-2.7-1.8C705.4,100.4,701.3,101.4,696.9,101.4z"/>
		<path class="st10" d="M679,53.6c0.7-0.6,1.4-1.1,2.1-1.6c-0.7-0.7-1.5-1.3-2.3-1.9c-0.7,0.5-1.4,1.1-2.1,1.7
			C677.5,52.3,678.3,52.9,679,53.6z"/>
		<path class="st10" d="M679,94.7c-0.8,0.7-1.6,1.3-2.5,1.9c0.7,0.7,1.5,1.3,2.3,1.9c0.9-0.6,1.7-1.3,2.5-2
			C680.5,95.9,679.7,95.3,679,94.7z"/>
		<path class="st10" d="M669.6,74.1c0-8.2,3.6-15.6,9.4-20.6c-0.7-0.6-1.5-1.2-2.3-1.8c-6.2,5.5-10.1,13.6-10.1,22.5
			s3.8,16.8,9.9,22.3c0.9-0.6,1.7-1.2,2.5-1.9C673.3,89.7,669.6,82.3,669.6,74.1z"/>
		<path class="st10" d="M727,101.4c-4.4,0-8.6-1.1-12.4-3c-0.9,0.7-1.9,1.3-2.9,1.9c4.4,2.6,9.6,4,15.1,4c6.7,0,12.9-2.2,17.9-5.9
			c-0.8-0.6-1.6-1.2-2.3-1.9C738.1,99.6,732.8,101.4,727,101.4z"/>
		<path class="st10" d="M727,46.8c5.8,0,11.2,1.8,15.6,4.9c0.7-0.6,1.4-1.2,2.1-1.7c-5-3.7-11.2-5.9-17.9-5.9
			c-5.5,0-10.6,1.5-15.1,4c0.9,0.5,1.8,1.1,2.7,1.7C718.2,47.9,722.5,46.8,727,46.8z"/>
		<path class="st10" d="M712,51.4c0.8-0.5,1.6-1,2.5-1.5c-0.9-0.6-1.7-1.2-2.7-1.7c-0.9,0.5-1.7,1-2.5,1.6
			C710.2,50.3,711.1,50.8,712,51.4z"/>
		<path class="st10" d="M712,96.9c-0.9,0.6-1.9,1.2-2.9,1.7c0.9,0.6,1.8,1.2,2.7,1.8c1-0.6,2-1.2,2.9-1.9
			C713.8,98,712.9,97.4,712,96.9z"/>
		<path class="st10" d="M699.8,74.1c0-9.5,4.9-17.9,12.2-22.7c-0.9-0.6-1.8-1.1-2.7-1.6c-7.6,5.5-12.6,14.4-12.6,24.5
			c0,10,4.9,18.8,12.3,24.3c1-0.5,2-1.1,2.9-1.7C704.6,92,699.8,83.6,699.8,74.1z"/>
		<path class="st10" d="M762.9,101.4c-5.8,0-11.2-1.8-15.7-5c-0.8,0.7-1.6,1.4-2.5,2c5,3.7,11.2,5.9,17.9,5.9c5.5,0,10.6-1.5,15.1-4
			c-0.9-0.5-1.9-1.1-2.7-1.8C771.4,100.4,767.3,101.4,762.9,101.4z"/>
		<path class="st10" d="M762.9,46.8c4.5,0,8.7,1.1,12.4,3c0.8-0.6,1.6-1.1,2.5-1.6c-4.4-2.6-9.6-4-15.1-4c-6.7,0-12.9,2.2-17.9,5.9
			c0.8,0.6,1.5,1.2,2.3,1.9C751.5,48.7,757,46.8,762.9,46.8z"/>
		<path class="st10" d="M745,53.6c0.7-0.6,1.4-1.1,2.1-1.6c-0.7-0.7-1.5-1.3-2.3-1.9c-0.7,0.5-1.4,1.1-2.1,1.7
			C743.5,52.3,744.2,52.9,745,53.6z"/>
		<path class="st10" d="M745,94.7c-0.8,0.7-1.6,1.3-2.5,1.9c0.7,0.7,1.5,1.3,2.3,1.9c0.9-0.6,1.7-1.3,2.5-2
			C746.5,95.9,745.7,95.3,745,94.7z"/>
		<path class="st10" d="M735.6,74.1c0-8.2,3.6-15.6,9.4-20.6c-0.7-0.6-1.5-1.2-2.3-1.8c-6.2,5.5-10.1,13.6-10.1,22.5
			s3.8,16.8,9.9,22.3c0.9-0.6,1.7-1.2,2.5-1.9C739.2,89.7,735.6,82.3,735.6,74.1z"/>
		<path class="st10" d="M793,46.8c5.8,0,11.2,1.8,15.6,4.9c0.7-0.6,1.4-1.2,2.1-1.7c-5-3.7-11.2-5.9-17.9-5.9
			c-5.5,0-10.6,1.5-15.1,4c0.9,0.5,1.8,1.1,2.7,1.7C784.2,47.9,788.5,46.8,793,46.8z"/>
		<path class="st10" d="M793,101.4c-4.4,0-8.6-1.1-12.4-3c-0.9,0.7-1.9,1.3-2.9,1.9c4.4,2.6,9.6,4,15.1,4c6.7,0,12.9-2.2,17.9-5.9
			c-0.8-0.6-1.6-1.2-2.3-1.9C804.1,99.6,798.8,101.4,793,101.4z"/>
		<path class="st10" d="M778,96.9c-0.9,0.6-1.9,1.2-2.9,1.7c0.9,0.6,1.8,1.2,2.7,1.8c1-0.6,2-1.2,2.9-1.9
			C779.7,98,778.8,97.4,778,96.9z"/>
		<path class="st10" d="M778,51.4c0.8-0.5,1.6-1,2.5-1.5c-0.9-0.6-1.7-1.2-2.7-1.7c-0.9,0.5-1.7,1-2.5,1.6
			C776.2,50.3,777.1,50.8,778,51.4z"/>
		<path class="st10" d="M765.8,74.1c0-9.5,4.9-17.9,12.2-22.7c-0.9-0.6-1.8-1.1-2.7-1.6c-7.6,5.5-12.6,14.4-12.6,24.5
			c0,10,4.9,18.8,12.3,24.3c1-0.5,2-1.1,2.9-1.7C770.6,92,765.8,83.6,765.8,74.1z"/>
		<path class="st10" d="M828.9,101.4c-5.8,0-11.2-1.8-15.7-5c-0.8,0.7-1.6,1.4-2.5,2c5,3.7,11.2,5.9,17.9,5.9c5.5,0,10.6-1.5,15.1-4
			c-0.9-0.5-1.9-1.1-2.7-1.8C837.4,100.4,833.3,101.4,828.9,101.4z"/>
		<path class="st10" d="M828.9,46.8c4.5,0,8.7,1.1,12.4,3c0.8-0.6,1.6-1.1,2.5-1.6c-4.4-2.6-9.6-4-15.1-4c-6.7,0-12.9,2.2-17.9,5.9
			c0.8,0.6,1.5,1.2,2.3,1.9C817.5,48.7,823,46.8,828.9,46.8z"/>
		<path class="st10" d="M811,94.7c-0.8,0.7-1.6,1.3-2.5,1.9c0.7,0.7,1.5,1.3,2.3,1.9c0.9-0.6,1.7-1.3,2.5-2
			C812.4,95.9,811.7,95.3,811,94.7z"/>
		<path class="st10" d="M811,53.6c0.7-0.6,1.4-1.1,2.1-1.6c-0.7-0.7-1.5-1.3-2.3-1.9c-0.7,0.5-1.4,1.1-2.1,1.7
			C809.5,52.3,810.2,52.9,811,53.6z"/>
		<path class="st10" d="M801.6,74.1c0-8.2,3.6-15.6,9.4-20.6c-0.7-0.6-1.5-1.2-2.3-1.8c-6.2,5.5-10.1,13.6-10.1,22.5
			s3.8,16.8,9.9,22.3c0.9-0.6,1.7-1.2,2.5-1.9C805.2,89.7,801.6,82.3,801.6,74.1z"/>
		<path class="st10" d="M858.8,44.1c-5.5,0-10.6,1.5-15.1,4c0.9,0.5,1.8,1.1,2.7,1.7c3.8-2,8-3.1,12.6-3.1
			c15.1,0,27.3,12.2,27.3,27.3s-12.2,27.3-27.3,27.3c-4.4,0-8.6-1.1-12.4-3c-0.9,0.7-1.9,1.3-2.9,1.9c4.4,2.6,9.6,4,15.1,4
			c16.6,0,30.1-13.5,30.1-30.1S875.5,44.1,858.8,44.1z"/>
		<path class="st10" d="M844,51.4c0.8-0.5,1.6-1,2.5-1.5c-0.9-0.6-1.7-1.2-2.7-1.7c-0.9,0.5-1.7,1-2.5,1.6
			C842.2,50.3,843.1,50.8,844,51.4z"/>
		<path class="st10" d="M844,96.9c-0.9,0.6-1.9,1.2-2.9,1.7c0.9,0.6,1.8,1.2,2.7,1.8c1-0.6,2-1.2,2.9-1.9
			C845.7,98,844.8,97.4,844,96.9z"/>
		<path class="st10" d="M831.7,74.1c0-9.5,4.9-17.9,12.2-22.7c-0.9-0.6-1.8-1.1-2.7-1.6c-7.6,5.5-12.6,14.4-12.6,24.5
			c0,10,4.9,18.8,12.3,24.3c1-0.5,2-1.1,2.9-1.7C836.6,92,831.7,83.6,831.7,74.1z"/>
		<path class="st10" d="M846.4,49.9c-0.9,0.4-1.7,0.9-2.5,1.5"/>
		<path class="st10" d="M844,96.9c0.9,0.6,1.8,1.1,2.7,1.6"/>
	</g>
</g>
<g id="Calque_2">
	<path class="st11" d="M1485.6,570.3c-29,27.4-28.5,74.1-28.3,81.5c0.5,18.9,5.8,40.2,10.6,40.1c6.6,0,10.8-40.4,13-40.1
		c1.6,0.2,1.7,21.1-1.2,44.9c-2,16.4-4.4,26.9-1.2,28.3c4.9,2.3,16.9-19,22.6-16.5c5.1,2.2,0.9,21.9,3.4,22.4c2,0.4,3-12.7,9.4-15.3
		c12.2-5.1,26.7,35,53.1,39c33,4.9,63.5-49.5,73.5-42.9c5.7,3.7-1.3,22.9-1.5,22.8c-0.5-0.1,44.3-86.7,12-138.4
		C1622.2,549.6,1529.7,528.7,1485.6,570.3z"/>
	<path class="st12" d="M1465.6,939.8c-22.7,12.3-24.4,49.7-26,85c-1.5,33.5-2.9,63,17.7,77.9c16,11.6,42.3,12.6,55.5,1.2
		c5.3-4.6,10.3-16.6,20.3-40.7c0,0,1.7-4,14.2-21.5c1.6-2.2,2.7-3.7,4.2-3.7c3.4,0.1,5.5,8.4,11.5,31c3.7,13.6,7.9,28.6,17.1,34.9
		c1.7,1.2,3.4,1.9,3.4,1.9c6.5,2.5,14.2-1.2,41.4,2.8c20.5,3,22.9,7.5,28.3,4.7c11.2-5.6,7.8-25.3,9.4-79.1c1.3-43.4,4-47-1.2-54.3
		c-14.2-20.1-43.2-5.7-100.4-16.5C1502.4,952.3,1487,928.2,1465.6,939.8z"/>
	<path class="st13" d="M1673.4,723.8"/>
	<path class="st14" d="M1493.9,821.8c0.7,11.1,2.4,19.8-2.3,30.2c-0.4,0.9-1.9,3.3-4.9,8.2c-23.9,38.5-24.3,39.6-26.3,43
		c-13.5,23.6-20.2,35.4-18.5,44.2c8.1,40.4,137.3,28.7,201.5,51.4c3.1,1.1,11.9,4.4,18.2,0.3c11.4-7.5,5.8-34.2,1.9-55.7
		c-6.4-35.4-8.1-54.4-8.6-66.5c-0.2-5.4,0.1-12.2-0.8-22.3c-0.4-4.1-1.7-15.9-6.6-34.7c-8-30.4-13.2-32.4-11.9-43
		c0.1-0.7,0-10,4-27.9l0,0c10.6-22,9.3-31,5.6-35c-4.3-4.6-10.8-1.5-28.9-4.4c-17.6-2.8-17.3-6.8-27.9-7.1
		c-13.4-0.4-25.7,7.4-40.2,15.8c-5.9,3.4-10.4,6.6-17.9,7.5c-9.1,1-11.9-2.5-16.1-0.1c-6.6,3.7-3.1,14.4-7.8,32.7
		c-3.4,13.3-6.2,11.2-9.7,24C1492.6,797.3,1493.2,811.4,1493.9,821.8z"/>
	<path class="st15" d="M1685.1,766.8c4.1-6.3,20.4-0.5,25.2-8.3c1.3-2.1,0.9-3.9,1.7-4.1c2.4-0.3,8.1,15.8,9.3,32.2
		c0.3,4.3,1.1,19-4.3,36.6c-0.1,0.3-0.2,0.6-0.3,1c-4.4,13.8-15.8,34.9-31.4,35.9c-5.3,0.4-10.3-1.6-11.5-2.1
		c-5.5-2.1-8.9-5.3-10.5-6.8c-4.7-4.4-7-9-9.4-14.2c-2.5-5.2-3.9-9.4-4.2-10.5c-5.2-16.4-11.8-20.2-15.2-34.3
		c-4.9-20.1-8.2-32.7-1.2-41.3c3.7-4.5,10.4-8.1,12-16.7c1-5.3-0.6-9,0.3-9.3c2.4-0.8,13,15.7,19.6,35.4c2.1,6.3,3.2,11.2,5.3,20.7
		c1.7,7.5,3.6,17.4,6.3,31.1c3.4,17.5,4.7,20.2,6.1,20.2c3,0.2,6.5-11,7.7-19.9c1.8-13.5-1.2-26.3-2.1-29.9
		C1685.8,772.2,1683.2,769.7,1685.1,766.8z"/>
	<path class="st15" d="M1570.6,743.9c-13.6-3.9-21.1-21.1-17.9-24.9c1.7-2,7.7-1.7,9.3-1.6c1.6,0.1,2.8,0.3,3.1,0.4
		c6.9,1.3,18.2-1.5,26-3.1c11.7-2.4,17.6-3.6,18.9-2c3.8,4.9-8.4,26.3-26.5,31C1581.1,744.3,1576.2,745.5,1570.6,743.9z"/>
	<path class="st16" d="M1513.6,553.8c-35.3,28.9-52.6,92-21.3,133.4c30.1,39.8,88.3,37.3,124,22.4c45.3-18.8,82.4-69.2,72-109.8
		C1673.9,543.7,1569.1,508.3,1513.6,553.8z"/>
	<path class="st11" d="M1586,575c-30.9,1.2-52.9,48.6-61.4,43.7c-2.2-1.3-2.3-5.5-2.4-11.8c-0.2-13.6,5.5-22,4.7-22.4
		c-1.5-0.9-28.4,25.1-34.2,63.8c-4.6,30.4,6.4,51,3.5,51.9c-4.2,1.4-38.4-40-28.3-90.9c9.1-46.2,48.1-66.9,55.5-70.8
		c43.6-23.2,86.6-8,99.2-3.5c30.5,10.8,73.1,38.3,72.9,69.2c0,6.3-1.8,5.1-8.3,29.9c-8.2,31.1-6,35.4-11.4,49.7
		c-11,29.2-33.2,46.4-35.4,44.9c-1.8-1.3,8.6-16,9.9-40.1c0.5-9.3-0.9-10.4-1.5-10.6c-4.7-1.4-16.9,30.5-20.3,29.4
		c-4.7-1.5,25.6-60.6,2.4-101.5C1622.5,591,1604.9,574.3,1586,575z"/>
	<path class="st17" d="M1463.2,547.9c-2.1,4.6-9,23.5-4,26.9c3.1,2.1,9.5-2.8,13.3-5.4c27.4-18.2,70.9-13.5,96.1-2.3
		c6.9,3.1,2.6,2.3,31.5,19.7c19,11.4,28.5,17.2,36.3,20.3c9.6,3.8,43.1,17.1,57.7,3.9c12.7-11.5,9.2-41.5-2.7-60.7
		C1650.7,484,1484.2,500.9,1463.2,547.9z"/>
	<path class="st11" d="M1484.5,582.8c-7.7,6.1-15,2.3-21.3-1.9c-11-7.4-20.3-23.4-16.5-40.6c-1.2,2.6-4.7,10.7-1.1,17
		c4.1,7.1,14.7,7.8,21.1,8.3c13.5,0.9,25.3-9.9,28.4-6.4C1498.4,562.7,1490.3,578.2,1484.5,582.8z"/>
	<path class="st15" d="M1524.2,727.9c-5.1-6.5-25.8,0.1-39.7,7.7c-32.2,17.5-59.6,57.3-48.6,78.2c3.6,6.9,11.1,9.2,26,14.2
		c50.6,17,88.6-3.3,94.4-7.1c6-3.8,9.2-9.1,9.2-9.1c0.5-0.9,4.6-7.5,3.8-10.9c-4.4-17.5-91.1-1.2-92.1-7.1c-0.3-1.9,9-2.7,19.4-11.4
		c9.2-7.6,13.7-16.2,18.9-26.4C1522.9,741.5,1527.6,732.3,1524.2,727.9z"/>
	<path class="st18" d="M1506.8,726.7c-3.7,4.4,1.6,10.4,2.6,22.2c1.7,21.8-13.6,34.5-10.4,37.4c4.4,4,38.2-14.2,38.5-38.5
		c0-1.7,0.2-12.3-7.6-18.9C1522.8,723,1510.9,721.8,1506.8,726.7z"/>
	<path class="st19" d="M1687.7,771.8c40.6-12.8,72.5-33.4,68.7-36c-2-1.4-11.3,4.4-47.2,13.8c-15,4-25.2,6.1-35.4,12.6
		c-7.6,4.9-15.3,12.3-12.1,14.4C1665,778.9,1679.9,774.3,1687.7,771.8z"/>
	<path class="st20" d="M1516.7,772c-5.4,11.4,19.9,24.3,20,51.4c0.1,13.4-5.9,17.4-2.4,23.6c6.8,11.8,42.9,13.2,59-5.9
		c9.5-11.3,8.9-26.1,8.6-34.1c-0.3-7.9-1-21.7-11-32c-11.6-12-28.5-11.5-43.5-11.1C1533.4,764.3,1520.2,764.6,1516.7,772z"/>
	<path class="st15" d="M1577.5,827.7c9.3-11.3-2.5-34.8-19.2-36.6c-14.9-1.6-32.5,14.3-29.1,27.5c2.8,10.7,18.3,14.7,19.5,15
		C1558.2,835.9,1571.6,834.8,1577.5,827.7z"/>
	<path class="st8" d="M1571.7,771.8c7.9,10.6-23,47.7-29.2,44.8c-2-1-1.6-6.4-4.2-6.8c-2.1-0.3-3.6,3.1-5.8,2.6
		c-2.1-0.5-2.1-3.9-3.9-4.2c-2.5-0.4-4.4,5.5-6.5,5.1s-1-6.9-4.2-8.8c-3.7-2.2-10.2,3.4-11,2.4c-1.1-1.4,12.4-9.2,12.6-19.9
		c0.1-6.6-4.8-8.7-3.4-12.4c0.9-2.4,4.2-4.9,35.9-4.9C1568.9,769.6,1570.6,770.4,1571.7,771.8z"/>
	<path class="st21" d="M1589.9,761.6c-4.3-6.9-16.9-0.9-43.7-2.4c-13.6-0.8-20.4-4.7-26,0c-4.3,3.6-6.4,10.7-4,13.8
		c1.9,2.4,6.2,1.8,11.8,1c17.6-2.4,26.5-3.6,30.2-3.7c17.4-0.4,25.4,7.9,30.4,3C1591.5,770.7,1592.1,765.1,1589.9,761.6z"/>
	<path class="st13" d="M1658,733.2"/>
	<path class="st22" d="M1624.9,635.2c1-1.5-6.9-10.2-18.3-14c-4.6-1.5-11.6-3.9-17.3-0.3c-6.1,3.8-8.2,12.8-6.3,14.2
		c1.6,1.2,5-4,11.9-6.3C1609.2,624.1,1623.7,637.1,1624.9,635.2z"/>
	<path class="st22" d="M1495.2,631.5c-1-1.5,6.9-10.2,18.3-14c4.6-1.5,11.6-3.9,17.3-0.3c6.1,3.9,8.2,12.8,6.3,14.2
		c-1.6,1.2-5-4-11.9-6.3C1511,620.4,1496.5,633.4,1495.2,631.5z"/>
	<circle class="st22" cx="1527.3" cy="631.8" r="5.4"/>
	<path class="st23" d="M1538.3,669c0.8-0.6,1.8-0.6,4.9-0.4c8.1,0.7,12.1,2.1,18.9,3.5c3.3,0.7,4.4,0.7,14.8,2.6
		c6,1.1,6.9,1.3,7.7,2.3c3.2,4.3-3.3,16.5-12.6,23.3c-6.1,4.4-18.1,9.7-26,4.6c-3.7-2.4-7.7-7.8-9.4-13.7c-0.1-0.2-0.1-0.4-0.2-0.8
		C1534.7,684.2,1533.7,672.4,1538.3,669z"/>
	<path class="st13" d="M1538.3,669c-3.6,2.3-4.8,8.2-3.3,9.4c1.6,1.3,4.9-3.2,11.4-3.7c3.2-0.2,3.7,0.8,11.5,3.1
		c10.2,3.1,9.9,1.5,17.8,4.2c5,1.7,7.4,3.1,8.9,1.9c1.6-1.3,1.5-4.9-0.1-7c-1.8-2.2-5-2.2-7.7-2.3c-8.9-0.3-16.7-2.1-25.2-4
		C1543.9,668.8,1541.2,667.1,1538.3,669z"/>
	<path class="st24" d="M1546,704.9c-2.2-3.7,3.7-14.1,12.5-16.4c8.5-2.2,18.4,3.6,18.3,7.6c-0.1,2.3-3.7,4.1-11,7.5
		c-6.4,3-9.6,3.3-10.9,3.3C1552.1,707,1547.3,707.2,1546,704.9z"/>
	<path class="st15" d="M1682.6,748.4"/>
	<path class="st15" d="M1673.4,763c0.8,6.1,17.5,13.3,29.5,4.2c8.5-6.5,12.8-19.9,9.4-24.1C1706.2,735.6,1672.1,753.8,1673.4,763z"
		/>
	<g>
		<g>
			<path class="st25" d="M1757.2,735.8c0.5-0.2,1-0.3,1.4-0.3c-0.2-0.2-0.4-0.4-0.6-0.6c-0.1,0.9-0.6,1.7-1.3,2.3
				c-0.6,0.5,0.3,1.4,0.9,0.9c0.9-0.9,1.6-1.9,1.7-3.2c0-0.3-0.3-0.7-0.6-0.6c-0.7,0.1-1.4,0.2-2.1,0.5
				C1755.8,735,1756.5,736.1,1757.2,735.8L1757.2,735.8z"/>
		</g>
	</g>
	<g>
		<g>
			<path class="st25" d="M1757.3,735.6c-0.1,0.7-0.3,1.3-0.9,1.8c0.3,0.3,0.6,0.6,0.9,0.9c0.5-1,0.8-2,1.2-3
				c0.3-0.7-0.7-1.4-1.1-0.6c-0.5,1-0.8,2-1.2,3c-0.2,0.5,0.3,1.3,0.9,0.9c0.8-0.7,1.4-1.5,1.5-2.5
				C1758.6,735.2,1757.4,734.8,1757.3,735.6L1757.3,735.6z"/>
		</g>
	</g>
	<rect x="123.3" y="154.4" class="st0" width="709.8" height="787"/>
	<text transform="matrix(1 0 0 1 132.6499 178.0425)" class="st1 st2">Si j’étais un objet je serai un bloc note car c’est quelque </text>
	<text transform="matrix(1 0 0 1 128.2499 221.2425)" class="st1 st2">chose d&apos;inégalable et utile, le bloc note ne se limite pas a </text>
	<text transform="matrix(1 0 0 1 122.7499 264.4425)" class="st1 st2">noter des petites choses mais aussi a gribouiller ou encore </text>
	<text transform="matrix(1 0 0 1 123.3499 307.6425)" class="st1 st2">dessiner ce qui le rend très polyvalent et surtout pratique </text>
	<text transform="matrix(1 0 0 1 128.3499 350.8425)" class="st1 st2">grâce aux différents choix de formats. Le bloc note est un </text>
	<text transform="matrix(1 0 0 1 118.3499 394.0425)" class="st1 st2">objet qui me plaît beaucoup car il restera toujours le sym</text>
	<text transform="matrix(1 0 0 1 779.2499 394.0425)" class="st1 st2">-</text>
	<text transform="matrix(1 0 0 1 129.6499 437.2425)" class="st1 st2">bole de la prise de note rapide, même avec l’ère du numé</text>
	<text transform="matrix(1 0 0 1 767.8499 437.2425)" class="st1 st2">-</text>
	<text transform="matrix(1 0 0 1 420.4499 480.4425)" class="st1 st2">rique.</text>
	<text transform="matrix(1 0 0 1 132.6499 523.6425)" class="st1 st2">Si j’étais un objet je serai un bloc note car c’est quelque </text>
	<text transform="matrix(1 0 0 1 128.2499 566.8425)" class="st1 st2">chose d&apos;inégalable et utile, le bloc note ne se limite pas a </text>
	<text transform="matrix(1 0 0 1 122.7499 610.0425)" class="st1 st2">noter des petites choses mais aussi a gribouiller ou encore </text>
	<text transform="matrix(1 0 0 1 123.3499 653.2425)" class="st1 st2">dessiner ce qui le rend très polyvalent et surtout pratique </text>
	<text transform="matrix(1 0 0 1 128.3499 696.4425)" class="st1 st2">grâce aux différents choix de formats. Le bloc note est un </text>
	<text transform="matrix(1 0 0 1 118.3499 739.6425)" class="st1 st2">objet qui me plaît beaucoup car il restera toujours le sym</text>
	<text transform="matrix(1 0 0 1 779.2499 739.6425)" class="st1 st2">-</text>
	<text transform="matrix(1 0 0 1 129.6499 782.8425)" class="st1 st2">bole de la prise de note rapide, même avec l’ère du numé</text>
	<text transform="matrix(1 0 0 1 767.8499 782.8425)" class="st1 st2">-</text>
	<text transform="matrix(1 0 0 1 420.4499 826.0425)" class="st1 st2">rique.</text>
	<text transform="matrix(1 0 0 1 132.6499 869.2425)" class="st1 st2">Si j’étais un objet je serai un bloc note car c’est quelque </text>
	<text transform="matrix(1 0 0 1 128.2499 912.4425)" class="st1 st2">chose d&apos;inégalable et utile, le bloc note ne se limite pas a </text>
	<g>
		<g>
			<path class="st26" d="M1527,780.8c1.1,0.2,2,0.3,3.1,0.4c-0.8-0.6-1.6-1.2-2.4-1.8c0.3,1.1,0.7,2,0.9,3.1
				c0.2,1.2,1.9,2.2,3.1,1.7c2-0.8,4-1.8,6.2-2.1s4.4,0.1,6.5-0.3c1.7-0.3,3.1-1.3,4.8-1.8c3.1-0.9,5.4,1,8.2,1.6
				c3.1,0.7,4.5-4.2,1.3-4.8c-2.3-0.5-4.3-2.1-6.6-2.4c-1.9-0.2-3.7,0.5-5.4,1.3c-3.2,1.4-5.8,1-9.1,1.3c-2.6,0.2-4.7,1.4-7.2,2.3
				c1,0.6,2.1,1.2,3.1,1.7c-0.2-1.1-0.6-2-0.9-3.1s-1.3-1.8-2.4-1.8c-0.6-0.1-1.2-0.1-1.7-0.2C1525.2,775.4,1523.9,780.2,1527,780.8
				L1527,780.8z"/>
		</g>
	</g>
	<g>
		<g>
			<path class="st26" d="M1522.9,788.3c2.6,2.9,6.1,0.6,9.2,2.1c0.7,0.4,1.4-0.7,0.6-1.1c-2.9-1.4-6.6,0.7-8.9-1.9
				C1523.3,786.8,1522.4,787.7,1522.9,788.3L1522.9,788.3z"/>
		</g>
	</g>
	<g>
		<g>
			<path class="st26" d="M1538.4,788.3c3-2.8,2.7,0.6,4.3,1.6c0.9,0.5,1.7-0.1,2.6-0.1c3.7-0.2,6.7,2.1,10.3-0.5
				c0.6-0.5,0-1.6-0.6-1.1c-2.8,2-5.6,0.9-8.7,0.4c-1.4-0.3-2.4,0.4-3.4-0.8c-0.8-1-0.2-1.1-1.7-1.5c-1.6-0.4-2.5,0.2-3.6,1.2
				C1536.9,788,1537.8,788.8,1538.4,788.3L1538.4,788.3z"/>
		</g>
	</g>
	<g>
		<g>
			<path class="st26" d="M1523.5,799.8c4.3,2.2,8,2.8,12.6,1.2c3.2-1.1,4.6-1.2,7.9-1.1c2.2,0.1,3.4,0,5.4-0.9
				c0.7-0.3,0.1-1.4-0.6-1.1c-3.4,1.6-6.4-0.1-9.8,0.6c-0.6,0.1-5.2,2-4.6,1.8c-3.8,1-6.7,0.1-10.1-1.6
				C1523.4,798.4,1522.7,799.4,1523.5,799.8L1523.5,799.8z"/>
		</g>
	</g>
	<g>
		<g>
			<path class="st26" d="M1537.1,796c3.7-0.1,8.1,0.1,11.3-2.2c-0.3-0.2-0.6-0.4-0.9-0.5c0.3,2.2,1.1,3.8,3.3,4.7
				c0.8,0.3,1.1-0.9,0.3-1.2c-1.6-0.6-2.2-1.9-2.4-3.5c-0.1-0.4-0.5-0.9-0.9-0.5c-3,2.2-7.1,1.9-10.6,2
				C1536.3,794.7,1536.3,796,1537.1,796L1537.1,796z"/>
		</g>
	</g>
</g>
<g id="Calque_4">
	<g>
		<g>
			<path class="st26" d="M1474.4,481.8c-4-12.6-7.9-25.2-11.9-37.8c-1-3.1-5.8-1.8-4.8,1.3c4,12.6,7.9,25.2,11.9,37.8
				C1470.6,486.2,1475.4,484.9,1474.4,481.8L1474.4,481.8z"/>
		</g>
	</g>
	<g>
		<g>
			<path class="st26" d="M1425,520.7c-8.9-2.8-17.8-5.5-26.8-8.3c-3.1-1-4.4,3.9-1.3,4.8c8.9,2.8,17.8,5.5,26.8,8.3
				C1426.8,526.5,1428.1,521.7,1425,520.7L1425,520.7z"/>
		</g>
	</g>
	<g>
		<g>
			<path class="st26" d="M1509.3,479c0-16.7,0-33.3,0-50c0-3.2-5-3.2-5,0c0,16.7,0,33.3,0,50C1504.3,482.2,1509.3,482.2,1509.3,479
				L1509.3,479z"/>
		</g>
	</g>
	
		<ellipse transform="matrix(0.9873 -0.1587 0.1587 0.9873 -53.244 230.8665)" class="st27" cx="1418.9" cy="448.8" rx="53.5" ry="53.5"/>
	<path class="st28" d="M1450.3,451.1c-0.7,5.3-2.7,4.1-8,18c-5,13-5.5,19.8-11,22c-1.7,0.7-1.8,0.1-10,0c-11.8-0.1-12.4,1.1-15,0
		c-4.7-2.1-5.2-7.2-10-22c-5.7-17.6-6.9-16.4-7-20.5c-0.2-14,13.7-35.3,33.5-33.5C1441.6,416.8,1452,438,1450.3,451.1z"/>
	<rect x="1407.7" y="493.3" class="st29" width="22.4" height="22.4"/>
	<circle class="st8" cx="1420.5" cy="452.6" r="9.5"/>
</g>
</svg>
