<?xml version="1.0" encoding="utf-8"?>
<!-- Generator: Adobe Illustrator 21.0.0, SVG Export Plug-In . SVG Version: 6.00 Build 0)  -->
<svg version="1.1" xmlns="http://www.w3.org/2000/svg" xmlns:xlink="http://www.w3.org/1999/xlink" x="0px" y="0px"
	 viewBox="0 0 1920 1080" style="enable-background:new 0 0 1920 1080;" xml:space="preserve">
<style type="text/css">
	.st0{opacity:0.76;fill:url(#SVGID_1_);}
	.st1{opacity:0.38;fill:#37B6D3;}
	.st2{opacity:0.61;fill:#20B5EF;}
	.st3{opacity:0.63;fill:#FFFFFF;}
	.st4{fill:#605342;}
	.st5{opacity:0.77;fill:#419352;}
	.st6{opacity:0.34;fill:#86F476;}
	.st7{opacity:0.68;fill:#86F476;}
	.st8{opacity:0.34;fill:#419352;}
	.st9{opacity:0.9;fill:#DB5E91;}
	.st10{fill:#515151;stroke:#000102;stroke-miterlimit:10;}
	.st11{opacity:0.78;fill:#F4DBCB;}
	.st12{stroke:#000000;stroke-miterlimit:10;}
	.st13{fill:none;stroke:#000000;stroke-miterlimit:10;}
	.st14{opacity:0.94;fill:#F4CFB5;}
	.st15{fill:#515151;}
	.st16{fill:#0B2A60;stroke:#050200;stroke-miterlimit:10;}
	.st17{fill:#0B2A60;}
	.st18{fill:#5B2D0E;stroke:#8E3D06;stroke-miterlimit:10;}
	.st19{stroke:#050200;stroke-miterlimit:10;}
	.st20{opacity:0.5;fill:#14C114;}
	.st21{fill:#1B8C5E;}
</style>
<g id="Calque_8">
	<linearGradient id="SVGID_1_" gradientUnits="userSpaceOnUse" x1="957.7748" y1="-9.094947e-13" x2="957.7748" y2="1080">
		<stop  offset="7.692308e-03" style="stop-color:#0071BC;stop-opacity:0.5"/>
		<stop  offset="0.1275" style="stop-color:#0274BE;stop-opacity:0.5"/>
		<stop  offset="0.2167" style="stop-color:#097DC4;stop-opacity:0.5"/>
		<stop  offset="0.2959" style="stop-color:#148ECF;stop-opacity:0.5"/>
		<stop  offset="0.3688" style="stop-color:#24A4DD;stop-opacity:0.5"/>
		<stop  offset="0.3872" style="stop-color:#29ABE2;stop-opacity:0.5"/>
		<stop  offset="0.485" style="stop-color:#28AADF;stop-opacity:0.4819"/>
		<stop  offset="0.5627" style="stop-color:#26A9D5;stop-opacity:0.4676"/>
		<stop  offset="0.6335" style="stop-color:#21A6C4;stop-opacity:0.4545"/>
		<stop  offset="0.7002" style="stop-color:#1BA2AC;stop-opacity:0.4422"/>
		<stop  offset="0.764" style="stop-color:#139E8E;stop-opacity:0.4304"/>
		<stop  offset="0.8248" style="stop-color:#099869;stop-opacity:0.4192"/>
		<stop  offset="0.8744" style="stop-color:#009245;stop-opacity:0.41"/>
		<stop  offset="1" style="stop-color:#009245;stop-opacity:0.3"/>
	</linearGradient>
	<rect x="-1.1" class="st0" width="1917.7" height="1080"/>
</g>
<g id="Calque_9">
	<circle class="st1" cx="259.6" cy="129" r="640.7"/>
	<circle class="st1" cx="1409.6" cy="-142.2" r="850.6"/>
</g>
<g id="Calque_1">
	<circle class="st2" cx="139.8" cy="122.6" r="51.1"/>
	<circle class="st2" cx="580.6" cy="249.5" r="144.9"/>
	<circle class="st2" cx="425.2" cy="149.6" r="112.6"/>
	<circle class="st2" cx="66.2" cy="62.5" r="96.1"/>
	<circle class="st2" cx="905" cy="192.4" r="159.9"/>
	<circle class="st2" cx="145.1" cy="312.6" r="102.9"/>
	<circle class="st2" cx="274.2" cy="157.9" r="120.9"/>
	<circle class="st2" cx="1192.6" cy="110.6" r="88.6"/>
	<circle class="st2" cx="737.5" cy="133.1" r="141.2"/>
	<circle class="st2" cx="1409.6" cy="227" r="75.8"/>
	<circle class="st2" cx="1193.3" cy="269" r="114.9"/>
	<circle class="st2" cx="1554.5" cy="125.6" r="145.7"/>
	<circle class="st2" cx="1607.1" cy="266.8" r="105.1"/>
	<circle class="st2" cx="1339.8" cy="88.1" r="124.7"/>
	<circle class="st2" cx="1745.2" cy="106.1" r="75.1"/>
	<circle class="st2" cx="1052.2" cy="97.8" r="131.4"/>
	<circle class="st2" cx="-14.9" cy="525.1" r="75.1"/>
	<circle class="st2" cx="217.9" cy="505.6" r="100.6"/>
	<circle class="st2" cx="25.7" cy="251.8" r="102.1"/>
	<circle class="st2" cx="297.5" cy="17.5" r="57.1"/>
	<circle class="st2" cx="530.3" cy="50.5" r="33"/>
	<circle class="st2" cx="612.9" cy="232.2" r="36"/>
	<circle class="st2" cx="369.6" cy="200.7" r="27"/>
	<circle class="st2" cx="784.8" cy="246.5" r="44.3"/>
	<circle class="st2" cx="1308.2" cy="215.7" r="31.5"/>
	<circle class="st2" cx="1543.3" cy="90.3" r="45.8"/>
	<circle class="st2" cx="1760.3" cy="37" r="70.6"/>
	<circle class="st2" cx="1728" cy="314.1" r="48.8"/>
	<circle class="st2" cx="1023.6" cy="371.1" r="12.8"/>
	<circle class="st2" cx="-9.6" cy="55.8" r="27.8"/>
	<circle class="st2" cx="859.9" cy="7.7" r="24.8"/>
	<circle class="st2" cx="609.9" cy="510.1" r="40.5"/>
	<circle class="st2" cx="414.6" cy="430.5" r="106.6"/>
	<circle class="st2" cx="248.7" cy="359.1" r="26.3"/>
	<circle class="st2" cx="846.4" cy="393.7" r="77.3"/>
	<circle class="st2" cx="1434.6" cy="415.4" r="101.4"/>
	
		<ellipse transform="matrix(1 -5.235641e-03 5.235641e-03 1 -0.7634 5.2424)" class="st2" cx="1000.9" cy="148.4" rx="40.7" ry="39.7"/>
	
		<ellipse transform="matrix(1 -5.235641e-03 5.235641e-03 1 -1.2656 7.0846)" class="st2" cx="1352.5" cy="245.3" rx="115.4" ry="112.7"/>
	
		<ellipse transform="matrix(1 -5.235641e-03 5.235641e-03 1 -0.8641 6.4332)" class="st2" cx="1228.3" cy="168.3" rx="89.7" ry="87.6"/>
	<ellipse transform="matrix(1 -5.235641e-03 5.235641e-03 1 -0.5212 4.9336)" class="st2" cx="942" cy="102" rx="76.6" ry="74.7"/>
	
		<ellipse transform="matrix(1 -5.235641e-03 5.235641e-03 1 -1.0226 8.4355)" class="st2" cx="1610.7" cy="199.5" rx="127.4" ry="124.4"/>
	
		<ellipse transform="matrix(1 -5.235641e-03 5.235641e-03 1 -1.5367 5.2704)" class="st2" cx="1005.9" cy="296.1" rx="81.9" ry="80"/>
	
		<ellipse transform="matrix(1 -5.235641e-03 5.235641e-03 1 -0.9027 5.8041)" class="st2" cx="1108.1" cy="175.3" rx="96.3" ry="94"/>
	
		<ellipse transform="matrix(1 -5.235641e-03 5.235641e-03 1 -0.68 9.6323)" class="st2" cx="1839.4" cy="134.7" rx="70.6" ry="68.9"/>
	
		<ellipse transform="matrix(1 -5.235641e-03 5.235641e-03 1 -0.7866 7.7354)" class="st2" cx="1477" cy="154.1" rx="112.4" ry="109.8"/>
	
		<ellipse transform="matrix(1 -5.235641e-03 5.235641e-03 1 -0.8563 9.635)" class="st2" cx="1839.8" cy="168.4" rx="60.4" ry="59"/>
	
		<ellipse transform="matrix(1 -5.235641e-03 5.235641e-03 1 -1.325 9.6405)" class="st2" cx="1840.6" cy="257.9" rx="91.5" ry="89.3"/>
	
		<ellipse transform="matrix(1 -5.235641e-03 5.235641e-03 1 -0.4388 10.2361)" class="st2" cx="1954.9" cy="88.9" rx="116" ry="113.3"/>
	
		<ellipse transform="matrix(1 -5.235641e-03 5.235641e-03 1 -1.0118 10.4598)" class="st2" cx="1997.3" cy="198.5" rx="83.7" ry="81.8"/>
	
		<ellipse transform="matrix(1 -5.235641e-03 5.235641e-03 1 -0.293 9.3394)" class="st2" cx="1783.6" cy="60.6" rx="99.3" ry="96.9"/>
	
		<ellipse transform="matrix(1 -5.235641e-03 5.235641e-03 1 -0.3531 11.0309)" class="st2" cx="2106.7" cy="73" rx="59.8" ry="58.4"/>
	
		<ellipse transform="matrix(1 -5.235641e-03 5.235641e-03 1 -0.6326 9.0463)" class="st2" cx="1727.5" cy="125.4" rx="104.7" ry="102.2"/>
	
		<ellipse transform="matrix(1 -5.235641e-03 5.235641e-03 1 -2.4071 4.6102)" class="st2" cx="879.3" cy="462.1" rx="59.8" ry="58.4"/>
	
		<ellipse transform="matrix(1 -5.235641e-03 5.235641e-03 1 -2.32 5.5803)" class="st2" cx="1064.7" cy="445.9" rx="80.1" ry="78.2"/>
	
		<ellipse transform="matrix(1 -5.235641e-03 5.235641e-03 1 -1.293 4.7706)" class="st2" cx="910.5" cy="249.3" rx="81.3" ry="79.4"/>
	
		<ellipse transform="matrix(1 -5.235641e-03 5.235641e-03 1 -0.3302 5.8967)" class="st2" cx="1126.1" cy="66" rx="45.5" ry="44.4"/>
	
		<ellipse transform="matrix(1 -5.235641e-03 5.235641e-03 1 -0.4571 6.8684)" class="st2" cx="1311.6" cy="90.7" rx="26.3" ry="25.7"/>
	
		<ellipse transform="matrix(1 -5.235641e-03 5.235641e-03 1 -1.1942 7.2187)" class="st2" cx="1378.2" cy="231.7" rx="28.7" ry="28"/>
	
		<ellipse transform="matrix(1 -5.235641e-03 5.235641e-03 1 -1.0738 6.2031)" class="st2" cx="1184.2" cy="208.2" rx="21.5" ry="21"/>
	
		<ellipse transform="matrix(1 -5.235641e-03 5.235641e-03 1 -1.2467 7.9363)" class="st2" cx="1515.2" cy="242.1" rx="35.3" ry="34.5"/>
	
		<ellipse transform="matrix(1 -5.235641e-03 5.235641e-03 1 -1.1042 10.1179)" class="st2" cx="1931.9" cy="216" rx="25.1" ry="24.5"/>
	
		<ellipse transform="matrix(1 -5.235641e-03 5.235641e-03 1 -0.2955 10.188)" class="st2" cx="1945.7" cy="61.5" rx="36.5" ry="35.6"/>
	
		<ellipse transform="matrix(1 -5.235641e-03 5.235641e-03 1 -7.131986e-02 11.0913)" class="st2" cx="2118.4" cy="19.2" rx="56.2" ry="54.9"/>
	
		<ellipse transform="matrix(1 -5.235641e-03 5.235641e-03 1 -1.2005 10.9655)" class="st2" cx="2093.8" cy="234.8" rx="38.9" ry="38"/>
	<ellipse transform="matrix(1 -5.235641e-03 5.235641e-03 1 -1.7464 8.936)" class="st2" cx="1705.9" cy="338" rx="10.2" ry="9.9"/>
	
		<ellipse transform="matrix(1 -5.235641e-03 5.235641e-03 1 -0.4962 4.6171)" class="st2" cx="881.6" cy="97.1" rx="22.1" ry="21.6"/>
	
		<ellipse transform="matrix(1 -5.235641e-03 5.235641e-03 1 -0.2721 8.2418)" class="st2" cx="1574" cy="56.1" rx="19.7" ry="19.3"/>
	
		<ellipse transform="matrix(1 -5.235641e-03 5.235641e-03 1 -2.3255 7.2151)" class="st2" cx="1376.9" cy="447.8" rx="32.3" ry="31.5"/>
	
		<ellipse transform="matrix(1 -5.235641e-03 5.235641e-03 1 -2.0078 6.3984)" class="st2" cx="1221.1" cy="386.7" rx="84.9" ry="82.9"/>
	
		<ellipse transform="matrix(1 -5.235641e-03 5.235641e-03 1 -1.7228 5.704)" class="st2" cx="1088.6" cy="331.9" rx="20.9" ry="20.4"/>
	
		<ellipse transform="matrix(1 -5.235641e-03 5.235641e-03 1 -1.8439 8.1977)" class="st2" cx="1564.8" cy="356.3" rx="61.6" ry="60.1"/>
	
		<ellipse transform="matrix(1 -5.235641e-03 5.235641e-03 1 -1.4402 9.6396)" class="st2" cx="1840.4" cy="279.9" rx="80.7" ry="78.8"/>
	<ellipse transform="matrix(1 -5.235641e-03 5.235641e-03 1 -1.0499 0.3328)" class="st2" cx="63" cy="200.7" rx="60.4" ry="59"/>
	
		<ellipse transform="matrix(1 -5.235641e-03 5.235641e-03 1 -0.6325 0.9339)" class="st2" cx="178.1" cy="121.3" rx="116" ry="113.3"/>
	
		<ellipse transform="matrix(1 -5.235641e-03 5.235641e-03 1 -1.2055 1.1576)" class="st2" cx="220.5" cy="230.8" rx="83.7" ry="81.8"/>
	
		<ellipse transform="matrix(1 -5.235641e-03 5.235641e-03 1 -0.4867 3.715691e-02)" class="st2" cx="6.9" cy="93" rx="99.3" ry="96.9"/>
	
		<ellipse transform="matrix(1 -5.235641e-03 5.235641e-03 1 -0.5467 1.7287)" class="st2" cx="329.9" cy="105.3" rx="59.8" ry="58.4"/>
	
		<ellipse transform="matrix(1 -5.235641e-03 5.235641e-03 1 -0.4892 0.8858)" class="st2" cx="168.9" cy="93.9" rx="36.5" ry="35.6"/>
	
		<ellipse transform="matrix(1 -5.235641e-03 5.235641e-03 1 -0.265 1.7891)" class="st2" cx="341.6" cy="51.5" rx="56.2" ry="54.9"/>
	<ellipse transform="matrix(1 -5.235641e-03 5.235641e-03 1 -1.3941 1.6633)" class="st2" cx="317" cy="267.1" rx="38.9" ry="38"/>
	
		<ellipse transform="matrix(1 -5.235641e-03 5.235641e-03 1 -1.6339 0.3374)" class="st2" cx="63.6" cy="312.2" rx="80.7" ry="78.8"/>
	<circle class="st2" cx="1724.8" cy="217.2" r="102.9"/>
	<circle class="st2" cx="1564.8" cy="429.7" r="75.1"/>
	<circle class="st2" cx="1797.6" cy="410.2" r="100.6"/>
	<circle class="st2" cx="1994.3" cy="335.1" r="106.6"/>
</g>
<g id="Calque_2">
	<circle class="st3" cx="508.6" cy="193.3" r="57.3"/>
	<circle class="st3" cx="553.3" cy="249.3" r="56"/>
	
		<ellipse transform="matrix(0.7071 -0.7071 0.7071 0.7071 -75.7185 367.5214)" class="st3" cx="405.8" cy="275.2" rx="87.4" ry="87.4"/>
	<circle class="st3" cx="553.3" cy="249.3" r="22.4"/>
	<circle class="st3" cx="510" cy="271.7" r="56"/>
	<circle class="st3" cx="873" cy="252.8" r="49.7"/>
	<circle class="st3" cx="807.2" cy="290.5" r="44.1"/>
	<circle class="st3" cx="921.2" cy="320.6" r="54.6"/>
	
		<ellipse transform="matrix(0.7071 -0.7071 0.7071 0.7071 -69.4261 174.296)" class="st3" cx="175.7" cy="171" rx="32.2" ry="32.2"/>
	<circle class="st3" cx="1369.5" cy="279.4" r="67.8"/>
	<circle class="st3" cx="1459.8" cy="226.9" r="62.9"/>
	<circle class="st3" cx="1499.6" cy="319.9" r="53.9"/>
	<circle class="st3" cx="1681.5" cy="210.8" r="81.8"/>
	<circle class="st3" cx="1619.4" cy="204.8" r="55.8"/>
	<circle class="st3" cx="1740.2" cy="140.9" r="23.1"/>
	<circle class="st3" cx="1081.4" cy="224.8" r="58"/>
	<circle class="st3" cx="1133.8" cy="186.3" r="44.8"/>
	<circle class="st3" cx="746.4" cy="205.9" r="65.7"/>
	<circle class="st3" cx="833.5" cy="181.3" r="52.4"/>
	<circle class="st3" cx="322.9" cy="293" r="55.6"/>
</g>
<g id="Calque_3">
	<path class="st4" d="M491,1079.3c-1.1-5.9,16.7-10.8,34.6-23.5c68.5-49,71.1-166.7,71.7-195.2c1-44,2.5-101.1-32-142.6
		c-16-19.2-25.9-18.5-75.6-52.6c-49.5-34-93-71.4-91-74.8c2.2-3.7,61.2,31.3,106.3,58.1c43.5,25.8,62.5,38.5,65.3,34.6
		c3.1-4.2-27.3-25.2-51.2-65.1c-33.9-56.4-35.9-118.7-30.7-120.4c5.3-1.8,19.8,59.1,71.7,130.1c18.4,25.2,38.4,52.1,52.5,47.1
		c18.9-6.7,16.2-66.7,15.4-84.4c-3.2-72.3-28.5-123.3-25.6-124.6c2.3-1,21.1,31,35.9,76.1c13.9,42.7,14.7,68,24.3,69.2
		c14.1,1.8,29.2-49.6,32-48.4c2,0.9-3,30.3-20.4,60.9c-12,21.1-17.7,21.2-25.6,38.8c-11.5,25.4-15,59.1-5.1,65.1
		c7.5,4.5,16.8-10.4,48.7-24.9c19.7-9,38.7-13.6,39.7-11.1c1.9,4.7-65.2,19.7-88.4,72c-10.6,23.8-6.6,49.1,1.3,99.7
		c8.4,54,15.8,100.9,47.4,145.4c28.5,40.1,56.4,49.4,52.5,62.3c-4.4,14.6-41.7,8.1-130.7,9.7C535.7,1082,492.7,1088.3,491,1079.3z"
		/>
</g>
<g id="Calque_4">
	<circle class="st5" cx="343.2" cy="659.4" r="101"/>
	<circle class="st5" cx="444.9" cy="593" r="66.4"/>
	<circle class="st5" cx="373.9" cy="500.9" r="71.3"/>
	<circle class="st5" cx="476.9" cy="417.1" r="59.6"/>
	<circle class="st5" cx="469.5" cy="516.2" r="78.7"/>
	<circle class="st5" cx="636.4" cy="469.3" r="100"/>
	<circle class="st5" cx="561.8" cy="413" r="84.9"/>
	<circle class="st5" cx="826.1" cy="541.4" r="89.7"/>
	<circle class="st5" cx="751.1" cy="453.1" r="125"/>
	<circle class="st5" cx="746" cy="673" r="87.5"/>
	<circle class="st5" cx="539.5" cy="523.1" r="70"/>
	<circle class="st5" cx="709.6" cy="586.2" r="59.6"/>
	<circle class="st5" cx="876.6" cy="653.7" r="51.1"/>
	<circle class="st5" cx="455.5" cy="695.8" r="64.7"/>
</g>
<g id="Calque_5">
	<circle class="st6" cx="388.6" cy="587.1" r="28.7"/>
	<circle class="st6" cx="476.1" cy="560.3" r="44.1"/>
	<circle class="st6" cx="482.7" cy="683.3" r="37.5"/>
	<circle class="st6" cx="589" cy="466.6" r="49.6"/>
	<circle class="st6" cx="691.9" cy="591.8" r="33.4"/>
	<circle class="st6" cx="746.2" cy="461.9" r="54.3"/>
	<circle class="st6" cx="745.7" cy="684.3" r="20.5"/>
	<circle class="st6" cx="853.7" cy="600.5" r="53.2"/>
	<circle class="st6" cx="368" cy="491.4" r="24.8"/>
	<circle class="st6" cx="319.2" cy="697" r="24"/>
	<circle class="st6" cx="517.7" cy="387.9" r="29.2"/>
	<circle class="st7" cx="766.3" cy="372.7" r="15.2"/>
	<circle class="st6" cx="607.4" cy="559.7" r="18.4"/>
	
		<ellipse transform="matrix(0.996 -8.949611e-02 8.949611e-02 0.996 -59.467 51.6481)" class="st8" cx="546.2" cy="689" rx="89.7" ry="89.7"/>
	
		<ellipse transform="matrix(0.996 -8.949611e-02 8.949611e-02 0.996 -51.7493 58.5809)" class="st8" cx="627.4" cy="606.4" rx="125" ry="125"/>
	
		<ellipse transform="matrix(0.996 -8.949611e-02 8.949611e-02 0.996 -53.9319 39.0011)" class="st8" cx="407.9" cy="620.9" rx="87.5" ry="87.5"/>
	
		<ellipse transform="matrix(0.996 -8.949611e-02 8.949611e-02 0.996 -49.6605 46.2671)" class="st8" cx="491.1" cy="576.9" rx="59.6" ry="59.6"/>
	
		<ellipse transform="matrix(0.996 -8.949611e-02 8.949611e-02 0.996 -65.2951 42.2807)" class="st8" cx="438.8" cy="749.3" rx="51.1" ry="51.1"/>
	
		<ellipse transform="matrix(0.996 -8.949611e-02 8.949611e-02 0.996 -51.4163 57.7455)" class="st6" cx="618.2" cy="602.2" rx="54.3" ry="54.3"/>
	
		<ellipse transform="matrix(0.996 -8.949611e-02 8.949611e-02 0.996 -62.6293 46.7321)" class="st6" cx="489.8" cy="721.8" rx="53.2" ry="53.2"/>
</g>
<g id="Calque_7">
	<circle class="st9" cx="368" cy="625.2" r="18.7"/>
	<circle class="st9" cx="574.2" cy="507.4" r="26"/>
	<circle class="st9" cx="725.6" cy="652.5" r="16"/>
	<circle class="st9" cx="546.9" cy="610.9" r="19.1"/>
	<circle class="st9" cx="753.4" cy="489.6" r="27.7"/>
	<circle class="st9" cx="728" cy="376.2" r="13.6"/>
	<circle class="st9" cx="434.9" cy="509.3" r="17.8"/>
	<circle class="st9" cx="823.1" cy="668.4" r="22.6"/>
	<circle class="st9" cx="412.6" cy="732.3" r="14.2"/>
</g>
<g id="Calque_11">
	<path class="st10" d="M690.7,953.6c4.7-0.8,6.3-3,7.8-2c1.6,1,0.5,3,2.1,6c1.1,2,2.1,1.9,7,5.7c3,2.3,4.5,3.5,6,5.3
		c2.3,2.9,3.3,5.7,3.7,6.7c0.2,0.7,0.8,2.6,1,5c0.4,5.3-1,7.1-0.7,10c0.4,3.7,3.4,5.7,8,9.7c10.5,9,15.8,13.4,16,18
		c0.4,7.1-8.1,15.8-10.3,18c-0.1,0.1-0.2,0.2-0.3,0.3c-5.7,5.7-21.3,14.3-35.4,7.4c-14-7-15.6-24.1-15.7-25c0,0,0,0,0,0
		c-6.8-22.7,2.4-32.6-4.3-44.7c-2.5-4.5-5.8-6.9-5.3-11.5c0.3-2.5,1.7-5.6,4.3-7.2c0.7-0.4,1.6-0.8,12.2-1.3
		C689.5,953.8,689.8,953.8,690.7,953.6z"/>
	<path class="st11" d="M655.1,927.8c-0.4-15.5,16.6-29,31.5-26.5c15.6,2.6,21.1,21.2,21.8,23.3c1.3,4.2,3.8,12.5-0.7,19.6
		c-4.8,7.6-14.7,9-17,9.4c-1,0.1-4.5,0.6-8.6-0.1C672.4,951.8,655.5,943.1,655.1,927.8z"/>
	<path class="st12" d="M698.7,926.6c-0.2-0.3-2.5,1.5-6,1.5c-2.6,0-4.2-0.9-4.3-0.8c-0.1,0.2,2.9,2.4,6.3,1.8
		C697.1,928.7,698.8,926.9,698.7,926.6z"/>
	<path class="st13" d="M699.7,941.4c0.1-0.3,1.4,0.2,3.8,0c2.6-0.2,3.9-1,4-0.8c0.2,0.3-1.7,2.2-4.1,2.3
		C701.3,943,699.6,941.7,699.7,941.4z"/>
	<path class="st13" d="M673.2,964.5"/>
	<path class="st14" d="M676.6,965.9c-3.5,1.2-6.1,4.2-7,7.3c-1.1,3.9,1,5.6,2.3,15.3c0.7,4.9,0.1,4.1,0.7,6.3
		c1.5,6,6.2,13.1,12.7,14c0.8,0.1,1.3,0.1,2,0.1c6.5-0.2,10.8-4.2,13.7-6.1c10.2-6.8,22-1,23-4.4c0.7-2.5-5.2-6.9-10.6-8.2
		c-4.1-1-8.2-0.3-10,0c-2.3,0.4-4.4,1.1-5.3,1.3c-5.6,1.7-7,3.4-8,2.7c-1.6-1.1,1.1-5.3,1.3-12.7c0.1-4.2,0.3-9.2-3-12.7
		C685.5,966,680.7,964.4,676.6,965.9z"/>
	<path class="st15" d="M671.5,981.8c1.7,1,2.8-0.1,8.8-0.9c8.3-1.1,10.6,0.6,12.3-1.3c2.6-2.9,0.6-10.8-4.3-14.7
		c-3.6-2.8-7.7-2.7-8.7-2.7c-1.1,0.1-5,0.2-7.9,3.1C666.9,970.1,667.7,979.5,671.5,981.8z"/>
	<path class="st16" d="M691.2,1038.4c-1.7,1.8,2.9,9.2,7,13.8c6.5,7.2,14,10.1,16.5,11c9.3,3.2,17.2,2.1,20.8,1.5
		c9-1.4,15.1-5.1,19.3-7.7c2.6-1.6,8-5,13.3-11c5-5.7,8.6-12.2,8.7-12.2c0.1,0-3.1,3.5-3.3,8.2c-0.1,2.5,0.5,4.3,1.3,6.3
		c3.7,9.4,5.6,14.2,7.7,15.7c5.1,3.7,14.1,3.8,17.6-0.4c2.2-2.7,0.7-5.4-2.9-21.3c-3.6-15.8-3.9-20.9-9-24.7c-2.5-1.9-4.7-2.3-9-3.2
		c-12.7-2.7-28.5-0.9-38.1,6.8c-5.2,4.2-9.3,9.9-9.3,9.9c-1.5,2.1-1.5,2.4-2.3,3.7c-4.3,6-12.8,8.9-19.7,9
		C699,1044,693,1036.5,691.2,1038.4z"/>
	<path class="st17" d="M742.9,1020.9c3.4-0.8,5.1,6,9.5,6.3c5.8,0.4,7.1-10.8,16.7-14.5c5.7-2.2,12.8-0.8,17.5,2.2
		c5.4,3.5,10.4,11.1,15,18c0.6,1,1.9,2.9,4.3,4.3c1.9,1.1,2.7,0.8,4.3,1.7c3.2,1.8,5.5,6.3,4.3,8c-1.4,2.1-7.1-1.5-12.3,2
		c-1.4,0.9-1.3,1.3-2,1.6c-4.3,1.4-9-16.8-19.3-19.2c-6.5-1.6-8.4,4.7-20.7,7.7c-13.5,3.3-27.5-0.3-28-3.8c-0.2-1.1,1.2-1.4,4.1-4.9
		C740.8,1024.6,740.6,1021.4,742.9,1020.9z"/>
	<path class="st18" d="M689.9,913.9c-1.3-0.7-6,4.1-8.3,9.8c-0.6,1.5-3.4,8.9-0.3,16c1.8,3.9,4.5,5.8,4.3,6
		c-0.4,0.4-7.7-3.9-11.8-11.8c-3.6-6.9-2.7-13.7-2.5-13.8c0.3,0-3.2,18.7,7.3,28.8c6.3,6.1,13.7,4.9,19.8,13.8
		c2.5,3.6,4.4,8.3,3.3,9.3c-1.3,1.1-7.1-8.7-12.5-7.5c-4,0.9-4.7,7-7.6,6.8c-3.1-0.2-4.8-7.6-5.7-7.3c-1,0.3,1.7,11.9,0.7,12.2
		c-0.9,0.3-4-9.3-5.5-9c-1.6,0.4,0.6,12.5-1,12.9c-1,0.2-3.2-4.6-4.6-9.1c-1.7-5.8-1.7-10.2-1.9-12.8c-0.9-12.7-7.8-13.2-9.4-25.3
		c-0.3-2.1-1.8-14.7,6.4-25.2c4.3-5.5,9.5-8.1,11.8-9c10.4-4.5,23.4-3.1,31.3,4c2,1.8,6.3,5.6,5.5,10.3c-1,6.2-10.4,9.1-11,8.3
		c-0.6-0.8,6.3-6,5.4-7.3c-0.6-0.9-4.3,0.8-4.9,1c-6.2,2.7-9.9,7.6-10.3,7.3c-0.2-0.2,1.2-1.5,1.8-4
		C690.5,916.8,690.7,914.3,689.9,913.9z"/>
	<path class="st17" d="M793.6,1057.9"/>
	<path class="st19" d="M782.2,1065.9c-0.4-2.5,5.4-5.7,10-7c9.3-2.7,20.7,0.1,21,3.3c0.3,3.5-12.1,8.9-23,7.3
		C789.1,1069.4,782.6,1068.5,782.2,1065.9z"/>
	<path class="st19" d="M799.4,1051.1c-0.4-2.5,5.4-5.7,10-7c9.3-2.7,20.7,0.1,21,3.3c0.3,3.5-12.1,8.9-23,7.3
		C806.2,1054.6,799.8,1053.6,799.4,1051.1z"/>
</g>
<g id="Calque_6">
	<circle class="st20" cx="343.2" cy="1164.5" r="189.4"/>
	<ellipse class="st20" cx="183.6" cy="1097.9" rx="116.8" ry="133.5"/>
	<circle class="st20" cx="473.3" cy="1067.9" r="103.5"/>
	<circle class="st20" cx="766.8" cy="1084.5" r="54.3"/>
	<circle class="st20" cx="629.4" cy="1066" r="101.5"/>
	<circle class="st20" cx="899" cy="1098.2" r="109.7"/>
	
		<ellipse transform="matrix(0.7071 -0.7071 0.7071 0.7071 -415.1109 1118.702)" class="st20" cx="1142.8" cy="1060.4" rx="96" ry="96"/>
	<circle class="st20" cx="1409.6" cy="1075.3" r="125.9"/>
	<circle class="st20" cx="1599.1" cy="1084.8" r="123.1"/>
	<circle class="st20" cx="1796.5" cy="1094" r="132.4"/>
	<circle class="st20" cx="1917.7" cy="944" r="86.2"/>
	<circle class="st20" cx="1307.1" cy="1092.9" r="81.9"/>
	<circle class="st20" cx="1097.3" cy="1103.9" r="139.5"/>
	<circle class="st20" cx="782.1" cy="1042.1" r="53.7"/>
	<circle class="st20" cx="57.4" cy="1152.8" r="188.3"/>
	<circle class="st20" cx="1693.7" cy="1022" r="53.3"/>
	<circle class="st21" cx="471.7" cy="1105.6" r="39.7"/>
	<circle class="st21" cx="244.3" cy="1077.3" r="78.5"/>
	<circle class="st21" cx="705.9" cy="1093.6" r="47.4"/>
	<circle class="st21" cx="584.6" cy="1053.9" r="22.8"/>
	<circle class="st21" cx="20.4" cy="1059.7" r="46.4"/>
	<circle class="st21" cx="934.5" cy="1095.6" r="53.5"/>
	<circle class="st21" cx="1063.1" cy="1032.7" r="21.1"/>
	<circle class="st21" cx="1217.9" cy="1105.3" r="75.1"/>
	<circle class="st21" cx="1501.8" cy="1107.3" r="67.2"/>
	<circle class="st21" cx="1680.4" cy="1067.5" r="58.6"/>
	<circle class="st21" cx="1891.5" cy="954.5" r="32.5"/>
	<circle class="st21" cx="1878.3" cy="1072.7" r="50.6"/>
	<circle class="st21" cx="1372" cy="1030.3" r="17"/>
</g>
</svg>
