<?xml version="1.0" encoding="utf-8"?>
<!-- Generator: Adobe Illustrator 21.0.0, SVG Export Plug-In . SVG Version: 6.00 Build 0)  -->
<svg version="1.1" xmlns="http://www.w3.org/2000/svg" xmlns:xlink="http://www.w3.org/1999/xlink" x="0px" y="0px"
	 viewBox="0 0 1920 1080" style="enable-background:new 0 0 1920 1080;" xml:space="preserve">
<style type="text/css">
	.st0{fill:none;stroke:#000000;stroke-width:0.25;stroke-miterlimit:10;}
	.st1{fill:#FFFFFF;stroke:#000000;stroke-miterlimit:10;}
	.st2{fill:#13528D;stroke:#000000;stroke-miterlimit:10;}
	.st3{fill:#010202;}
	.st4{fill:#13528D;}
	.st5{fill:#676766;stroke:#000000;stroke-width:0.25;stroke-miterlimit:10;}
	.st6{fill:#F8E6DF;}
	.st7{fill:#F8E6DF;stroke:#000000;stroke-width:0.25;stroke-miterlimit:10;}
	.st8{fill:none;stroke:#000000;stroke-miterlimit:10;}
	.st9{fill:#010202;stroke:#000000;stroke-miterlimit:10;}
	.st10{fill:#911913;}
	.st11{fill:#E72787;}
	.st12{fill:#FFFFFF;}
	.st13{fill:#5F3315;stroke:#A34418;stroke-width:0.25;stroke-miterlimit:10;}
	.st14{fill:#5F3315;}
	.st15{fill:#A34418;}
</style>
<g id="Calque_4">
	<polygon class="st0" points="662.7,321.5 186.5,311.5 -43,-105.9 203.8,-513.3 680,-503.3 909.4,-85.9 	"/>
	<polygon class="st0" points="285,786.8 876.4,614.8 1321.1,1041 1174.4,1639.2 583,1811.2 138.3,1385 	"/>
	<polygon class="st0" points="771.3,602 403.7,-27.9 765.3,-661.3 1494.7,-664.7 1862.3,-34.8 1500.7,598.5 	"/>
	<polygon class="st0" points="299,607.4 -13.7,676.3 -229.7,439.9 -133,134.6 179.7,65.7 395.7,302.1 	"/>
	<polygon class="st0" points="1329.6,742.4 2051.6,661.1 2483,1245.7 2192.4,1911.6 1470.4,1992.9 1039,1408.3 	"/>
</g>
<g id="Calque_5">
	<circle class="st0" cx="1163.3" cy="411.5" r="224.3"/>
	<circle class="st0" cx="594.6" cy="66.2" r="97.6"/>
	<circle class="st0" cx="149" cy="1269" r="218"/>
	<circle class="st0" cx="759.3" cy="1163.7" r="164.7"/>
	<circle class="st0" cx="1888" cy="682.1" r="115"/>
	<circle class="st0" cx="1538" cy="799.5" r="63"/>
</g>
<g id="Calque_1">
	<polygon class="st1" points="444.1,1197.1 49.9,1270.8 -211.1,966.4 -77.9,588.1 316.3,514.3 577.3,818.8 	"/>
	<polygon class="st1" points="415.6,88.6 397.1,117.7 362.6,116.2 346.6,85.6 365.2,56.5 399.7,58 	"/>
	<polygon class="st1" points="595.6,522.1 446.8,437.9 445.3,266.9 592.6,180.1 741.4,264.3 742.9,435.3 	"/>
	<polygon class="st1" points="171.1,169.6 -234.3,340.8 -585.3,75.3 -530.8,-361.4 -125.4,-532.6 225.6,-267.1 	"/>
	<polygon class="st1" points="1314.1,1189.6 1020.2,1203.5 861.3,956 996.1,694.6 1289.9,680.6 1448.9,928.1 	"/>
	<polygon class="st1" points="28.6,363.1 -9.6,507.3 -153.6,546.3 -259.3,441.1 -221.1,296.9 -77.1,257.9 	"/>
	<polygon class="st1" points="1815,796.6 1773.3,820.9 1731.3,797 1731.1,748.6 1772.8,724.2 1814.8,748.2 	"/>
	<polygon class="st1" points="1032.1,366.1 1083.5,349 1124,385 1113.1,438.1 1061.7,455.2 1021.2,419.2 	"/>
	<polygon class="st1" points="981.1,7.6 907.6,57 828.1,18 822.1,-70.4 895.6,-119.7 975.1,-80.7 	"/>
	<polygon class="st1" points="901.6,321.1 938.8,316.6 961.3,346.6 946.6,381.1 909.4,385.6 886.9,355.6 	"/>
	<polygon class="st1" points="747.1,942.1 727.7,963.8 699.2,957.8 690.1,930.1 709.5,908.4 738,914.4 	"/>
	<polygon class="st1" points="1405.6,246.1 1250.4,166.9 1241.4,-7.1 1387.6,-101.9 1542.7,-22.7 1551.7,151.3 	"/>
	<polygon class="st1" points="1390.6,540 1269.6,473.6 1266.6,335.7 1384.6,264.2 1505.5,330.5 1508.5,468.5 	"/>
	<polygon class="st0" points="1773,277 1635.6,283.1 1561.5,167.1 1625,45 1762.4,38.9 1836.5,154.9 	"/>
	<polygon class="st0" points="1891,1185 1687.9,1203.9 1569.9,1037.5 1655.1,852.1 1858.2,833.2 1976.2,999.6 	"/>
</g>
<g id="Calque_3">
	<circle class="st0" cx="647.7" cy="797" r="90.7"/>
	<circle class="st0" cx="481.5" cy="321.5" r="68.5"/>
	<circle class="st0" cx="137" cy="223" r="116"/>
	<circle class="st0" cx="1106.8" cy="605.3" r="34.2"/>
	<circle class="st0" cx="854.4" cy="176.7" r="69.7"/>
	<circle class="st0" cx="229.9" cy="778.2" r="46.8"/>
	<circle class="st0" cx="1357" cy="1059" r="142"/>
	<circle class="st0" cx="400.1" cy="500.9" r="33.1"/>
	<circle class="st0" cx="25.6" cy="528.7" r="126.6"/>
	<circle class="st0" cx="1151.9" cy="94.1" r="45.1"/>
	<circle class="st0" cx="1824" cy="472" r="237"/>
	<circle class="st0" cx="1371" cy="187.2" r="48"/>
	<circle class="st0" cx="1409.7" cy="586.7" r="52.7"/>
</g>
<g id="Calque_2">
	<path class="st2" d="M765.6,763.1c8.4,14.8,12.6,22.2,16.6,23.3c19.7,5.6,55.8-48.8,50.2-54.5c-3-3.1-21.8,4.4-31.2,18.3
		c-2.5,3.7-3.7,6.9-5.1,6.7c-4.9-0.9,5.5-45.4-8.3-52.6c-7.1-3.6-15,5.3-27.8,0.3c-7.1-2.8-9.4-7.5-11.9-6.3
		c-4.8,2.2-1.2,20.6,1.9,31.6C753.7,742,758.4,750.4,765.6,763.1z"/>
	<path class="st2" d="M808.4,742.1c7.5,15.5,8.1,21,11.1,23.4c0.6,0.5,1.1,0.7,1.8,1c4.4,1.8,11,0.6,39.1-26.2
		c11.9-11.4,17.2-17.4,15.9-23.7c-0.2-0.8-0.8-3.6-3.1-5.3c-7.7-5.8-25,6.6-26,7.3c-9.9,7.1-12.7,14.3-14.7,13.4
		c-3.4-1.6,5.1-18,3.2-40.8c-0.6-7.6-2.3-26.8-11.7-30.3c-12.2-4.4-37.5,16.9-37.7,37.7C786.1,710.4,794.2,712.7,808.4,742.1z"/>
	<path class="st3" d="M871.5,694.5c0.9-0.1,4.1-0.2,11.3,8.6c7.7,9.4,16.5,24.6,13,27.7c-2.3,2-9.2-1.5-12.9-4.4
		c-5.2-4-4.7-7.2-10-10.7c-5.3-3.5-8.4-2-10-4.8C860,706,865.2,695.1,871.5,694.5z"/>
	<path class="st4" d="M785.9,709.1c7.4-5.9,21.3-10.1,30.9-5.4c3.8,1.8,8.1,5.7,11.8,4.1c2.3-1.1,3-3.9,3.6-4.9
		c10.7-18.8-4.1-51.9-17.8-53.4c-9.1-1-9.5,12.3-30,25.3c-18.5,11.7-30.5,8.7-36.5,20.4c-4.1,7.9-2.4,16.7-1,23.4
		c0.4,2,3.9,20,12.1,21c2.3,0.3,4.3-0.9,7.2-3.2C779.1,725.8,776.7,716.5,785.9,709.1z"/>
	<path class="st5" d="M728.1,604.7c-6.2,3.4-6.1,14.8-6,24.1c0,0.1,0,0.5,0,1.3c0.2,13.4,0.3,20,0.5,21
		c1.9,11.9,11.5,13.4,14.5,27.8c0.2,1.1,0.8,2.1,1.1,5.3c0.5,5.5-0.2,11.1,3.8,15.9c0.5,1.4,1.5,3.2,3.3,4.5
		c2.4,1.7,6.4,2.7,14.7-0.2c24.8-8.8,43.3-31.5,43.3-31.5c11.4-14,21.1-31.2,17.8-34.2c-1.4-1.3-4.1,1.3-12,1.8
		c-4.6,0.3-10.5,0.7-15.6-2.8c-6.2-4.3-7.7-11.8-7.9-13.2c-1-5.8,1.3-7.5-0.5-11.4c-2-4.2-6.9-6.7-11.1-7.2
		c-7.3-0.9-9.2,5.3-16.8,6.2C742.5,614,734.8,601,728.1,604.7z"/>
	<path class="st6" d="M737.7,615.7c0.6-1,6.1,3.5,14.2,2.4c7.8-1,11.9-6.4,12.8-5.5c1.1,1.1-3.3,11.1-11.4,12.4
		C744.6,626.4,737,617,737.7,615.7z"/>
	<path class="st6" d="M783,621.4c-4.3,0.3-9.3-4-10.6-8.8c-1.5-5.9,3.5-10,9.5-21.6c2-3.8,6.3-12.3,7.5-19.3
		c3.8-22.1-22.4-40.8-19.3-44.2c2.1-2.3,16.1,4.3,24.8,16.2c7.1,9.6,8.4,19.4,8.8,23.1c1.4,12-2,20.4-8.1,35.7
		C791.2,613.8,788.2,621,783,621.4z"/>
	<path class="st6" d="M720.6,540.1c1.2-9-0.1-20-3.4-20.7c-4.3-0.9-11.3,16-12.4,19.2c-6.4,17.2-6.6,32.1-6.6,35.4
		c0,0.1,0,0.3,0,0.4c0.3,35.1,20.1,64.4,24.5,62.9c1.1-0.4,0.4-2.5,2.9-11.2c1.5-5.2,2.5-7.1,3.2-9.4c3.3-10.7-3.4-23.1-7.8-31.4
		c-2.6-4.9-5.8-10.7-7-19.6c-0.1-0.9-0.1-1.8-0.1-2.9C714.3,553.5,719.1,551.6,720.6,540.1z"/>
	<path class="st7" d="M721.7,607.6c3.7,4.6,8,6.7,10.2,7.8c11.7,5.6,22.8,2.5,24.8,1.8c3.5-1.1,6.7-3.2,13-7.4
		c7.3-4.8,9.5-7.5,10.8-9.4c0,0,2.5-3.8,3.7-8.6c3-12.5-12.1-47.3-37.1-45.5c-19.9,1.5-31.7,25-31.8,40.9
		C715.4,590.7,715.4,599.8,721.7,607.6z"/>
	<path class="st8" d="M853,736.5"/>
	<path class="st1" d="M734.3,608.9"/>
	<path class="st9" d="M754.1,573.9c2.6-3.2,9.3-4,13.4-1c2.3,1.7,3.2,4.1,3,4.3c-0.2,0.2-1.7-2.1-4.9-3.2c-1.6-0.5-2.9-0.6-3.5-0.6
		c-2.4,0-4.2,0.7-5.4,1.1c-2.1,0.8-3.2,1.7-3.5,1.4C752.9,575.7,753.6,574.6,754.1,573.9z"/>
	<path class="st9" d="M740.5,577.3c-3.3-2.4-10-1.4-13.2,2.6c-1.7,2.2-2,4.8-1.8,4.9c0.3,0.1,1.1-2.5,3.8-4.4
		c1.4-0.9,2.6-1.3,3.2-1.5c2.3-0.6,4.3-0.4,5.5-0.3c2.3,0.2,3.6,0.8,3.8,0.4C742.1,578.7,741.2,577.8,740.5,577.3z"/>
	<path class="st10" d="M759.8,586.8c4.2,4.4,0.1,19.3-7.7,20.6c-6.4,1.1-12-7.4-12.5-8.2c-1.1-1.7-3.1-4.7-2.1-7.8
		c0.5-1.7,1.8-2.8,2.6-3.5c3.1-2.5,6.8-2.6,10.3-2.7C755.6,585.2,758.2,585.2,759.8,586.8z"/>
	<path class="st11" d="M744.3,602.7c0-2.6,4.7-4.2,6.5-4.9c2.4-0.8,8-2.2,9.1-0.3c1.4,2.3-3.3,9.8-8.9,9.9
		C747.8,607.4,744.2,605.1,744.3,602.7z"/>
	<path class="st12" d="M738.3,590.4c0,1,0.5,2.2,1.5,2.7c2.2,1.1,4.3-2.8,8.9-3.7c5.4-1.1,9.1,3.1,10.9,1.3c1-1,0.8-3.4-0.3-4.6
		c-0.8-1-2.1-1.1-5-1.2c-5.8-0.2-8.7-0.2-10.6,0.5C742.9,585.8,738.3,587.6,738.3,590.4z"/>
	<circle class="st12" cx="608" cy="540" r="0"/>
	<path class="st13" d="M737.4,543.2c1.4-4.4-5.5-7.8-10.7-15.6c-12.5-18.6-2.2-42.6-5.3-43.3c-2.5-0.6-10.8,15.2-10,32.7
		c0.7,14.2,7,23.2,8,23c0,0,0.2,0,0.3,0c0.2,0.1,0.3,0.5,0.6,2.5c0.3,2.5,1.5,4.6,1.9,5.1C724.6,550.6,735.8,548.3,737.4,543.2z"/>
	<g>
		<path class="st14" d="M737.6,540.8c-7-6,17-44.6,22.7-51.7c4.4-5.6,7.6-8.8,7.6-8.8c1.6-1.7,3.5-3.7,5.8-5.8
			c2.4-2.3,5.5-4.3,5.7-7.8c2.3,5.9,7.8,22.3,1.3,39.9C771.6,531.4,743.3,545.6,737.6,540.8z"/>
		<g>
			<path class="st15" d="M738.1,540.3c-3.7-3.7,1.5-13.8,3.2-17.4c3.3-7.4,7.3-14.5,11.5-21.4c3.5-5.8,7.3-11.4,11.7-16.6
				c2.4-2.8,5-5.6,7.7-8.2c3.1-3,7-5.5,7.8-10c-0.4,0-0.8,0-1.2,0c7.2,18.7,5.3,39.3-7.7,55c-5,6.1-11.2,11.4-18.2,15.2
				c-3.5,1.9-11,6.1-15,3.2c-0.6-0.5-1.3,0.6-0.6,1.1c3.6,2.7,9.7,0,13.1-1.6c7.9-3.6,15.1-9.4,20.7-16
				c13.9-16.2,16.4-37.6,8.8-57.3c-0.2-0.5-1.1-0.7-1.2,0c-0.9,5.3-7.9,9.7-11.4,13.5c-2.7,2.9-5.4,6-7.8,9.1
				c-4.1,5.4-7.6,11.3-11,17.2c-4.1,7-8,14.3-10.8,22c-1.2,3.4-3.7,9.8-0.5,12.9C737.8,541.8,738.7,540.9,738.1,540.3z"/>
		</g>
	</g>
	<path class="st13" d="M758.3,555.2c-4.6,0.3-8.7-7.4-9.1-8.2c-2.4-4.5-2.5-8.7-2.5-10.2c-0.2-14.5,3.5-45,6.6-44.6
		c2.1,0.2-2.2,13.8,5.9,28.9c3.6,6.8,6.8,8.3,7.7,14.4C768.2,544.4,763.4,554.8,758.3,555.2z"/>
	<g>
		<path class="st14" d="M734.3,570.1c2.3,1.3,8.3-7.8,14.9-8c0.5,0,2.8,0,5.3-1.2c1.7-0.8,2.6-1.2,2.9-2c1.1-2.8-6.2-5.7-6.3-11.1
			c0-2.4,1.3-2.9,1.3-6.4c0-2.8-0.9-4.9-1.1-5.5c-2.9-8.1,13.3-28,12-29.2c-0.9-0.8-12.3,5.6-19.2,18.6c-3.9,7.4-1.7,8-8,31.1
			C734.5,562.8,732.6,569.1,734.3,570.1z"/>
		<g>
			<path class="st15" d="M734.1,570.7c1.4,0.4,2.4-0.5,3.5-1.2c3.8-2.7,6.7-6.1,11.6-6.8c2.7-0.4,9.8-1.1,8.7-5.3
				c-0.7-2.5-3.9-4.1-5.1-6.3c-2.2-3.8,0.6-7.5,0.2-11.5c-0.4-3.1-1.7-5.2-1-8.5c0.7-3.4,2.4-6.7,4-9.8c1.4-2.6,3-5.2,4.5-7.7
				c1-1.7,2.9-3.8,3.3-5.8c0.4-1.8-0.1-2-1.9-1.6c-5,1.2-10.3,7.4-13.3,11.2c-3.1,3.9-5.9,8.3-7.2,13.1c-1.5,5.4-2.1,11.1-3.4,16.6
				c-1.3,5.6-3.1,11.1-4.3,16.7c-0.4,2-1.5,5.2,0.2,6.8c0.6,0.6,1.5-0.3,0.9-0.9c-1.9-1.9,1-9.3,1.6-11.4c1.1-4.1,2.2-8.2,3.1-12.3
				c1-4.2,1.7-8.4,2.5-12.5c1.9-9.7,8.8-18.6,16.9-24.1c0.5-0.3,3.9-2.3,3.9-2.3c0.3,0.5-2.2,4-2.4,4.4c-2.6,4.3-5.3,8.6-7.4,13.2
				c-1.4,3-2.9,6.6-2.5,10.1c0.4,3.2,1.8,5.8,1,9.2c-0.5,2.2-1.3,3.4-0.7,5.7c0.6,2.3,2.3,3.9,3.8,5.5c1.9,2.1,2.5,3.5-0.4,5.1
				c-1.8,1-3.7,0.9-5.6,1.2c-2.6,0.5-4.7,1.5-6.9,3.1c-1.6,1.1-5.3,5.4-7.3,4.9C733.7,569.2,733.4,570.4,734.1,570.7z"/>
		</g>
	</g>
	<g>
		<path class="st14" d="M718.6,575.1c-2.4,2-5.9,1.3-7.9,0.9c-8.1-1.7-13.1-8.4-15.1-11.5c4.9,4.2,11.6,8.7,16.8,6.6
			c4.1-1.6,5.5-6.6,7.1-6C721.2,565.6,721.9,572.2,718.6,575.1z"/>
		<g>
			<path class="st15" d="M718.3,574.5c-7.8,5.2-18.1-4.2-22.1-10.4c-0.3,0.3-0.7,0.5-1,0.8c4.4,3.6,10.7,8.8,16.8,6.9
				c2.2-0.7,3.7-2.1,5.1-3.9c1-1.2,1.6-2.7,2.8-1.2c1.6,2-0.4,6.5-1.8,7.9c-0.6,0.6,0.3,1.5,0.9,0.9c1.7-1.7,4.8-10.4,0.4-11.1
				c-1.8-0.3-3,2.6-4,3.6c-6.1,6.5-14.2,0.5-19.5-3.9c-0.5-0.4-1.4,0.1-1,0.8c4.4,6.7,15.4,16.4,23.8,10.8
				C719.6,575.2,719,574.1,718.3,574.5z"/>
		</g>
	</g>
	<g>
		<path class="st14" d="M774.1,555.7c4-13.1-4-19.4-1-29.8c1.4-4.7,3-4.1,12.5-15.9c9.7-12,17.4-24.5,16.5-25.2
			c-0.7-0.6-6.8,7.7-20.8,20.6c-6.7,6.2-8.7,7.4-13.1,12.3c-7,7.8-11.2,12.5-11.8,19.8c-0.6,7.1,2.7,12.6,6.2,18.8
			c1.7,3,4,6.9,6.6,6.6C772,562.6,773.6,557.4,774.1,555.7z"/>
		<g>
			<path class="st15" d="M774.7,555.8c2.1-7.8-0.1-13.9-1.3-21.5c-1.1-6.5,0.8-10.6,5-15.1c6-6.5,11.5-13.4,16.6-20.7
				c2.2-3.2,4.4-6.4,6.2-9.7c0.4-0.6,2.1-3.1,1.7-4c-0.8-1.6-2.2,0.2-3,1c-5.1,5-9.7,10.4-14.8,15.3c-5.9,5.7-12.3,10.8-17.8,16.9
				c-4.7,5.2-10.2,10.9-11.2,18.2c-0.7,4.5,0.3,8.8,2.1,12.9c1.8,4.1,4.3,9.6,7.6,12.7C770.5,566.3,773.4,560,774.7,555.8
				c0.2-0.8-1-1.1-1.2-0.3c-0.3,1.1-0.6,2.5-1.3,3.5c-0.8,1.2-4.1,2.5-5.7,1.9c-0.7-0.3-1.7-2.3-2.2-2.9c-2.2-3.4-4.3-7.2-5.8-11
				c-3.5-9-0.4-16.4,5.4-23.4c8.6-10.4,19.2-18.6,28.6-28.2c2.9-2.9,5.8-5.9,8.5-9c1.6-1.8,0.1-0.1-0.5,1.1
				c-1.3,2.5-2.9,4.9-4.5,7.3c-4.6,7-9.7,13.7-15.2,20c-2.2,2.6-5.1,4.9-6.9,7.8c-2.1,3.2-2.4,7.4-2,11c1,7.8,3.7,14,1.5,22.1
				C773.3,556.3,774.5,556.6,774.7,555.8z"/>
		</g>
	</g>
	<g>
		<path class="st14" d="M722,552.2c-1.7-1.1-1.3-4.9-0.8-10.4c0.4-4.1,1.1-7.1,1.2-7.4c2-8.1,6.2-15.4,8.9-23.3
			c4-11.7,2.3-20.1-3.9-30.4c4.3,2.9,12.8,9.6,17,21.3c5.5,15.5,1.1,32.8-8.5,42.8C731.4,549.4,724.5,553.9,722,552.2z"/>
		<g>
			<path class="st15" d="M722.4,551.7c-3.1-3.1-0.3-13.6,0.5-17.2c1.7-7.2,5.4-13.9,8-20.8c4.5-12,3.4-22.4-3-33.4
				c-0.3,0.3-0.6,0.6-0.9,0.9c11.6,8,19.2,20.6,19.1,34.9c0,7.5-2,15-5.7,21.5c-1.9,3.3-4.3,6.3-7.2,8.8c-2.4,2.1-7.5,6.7-10.9,5.2
				c-0.7-0.3-1.4,0.8-0.6,1.1c5.3,2.3,12.6-5.1,15.6-8.5c5.5-6.3,8.8-14.4,9.8-22.6c2.1-16.6-5.7-32.1-19.4-41.5
				c-0.5-0.4-1.2,0.3-0.9,0.9c4.2,7.2,6.9,14.8,5.5,23.3c-1.2,7.3-4.7,13.9-7.5,20.7c-2,4.9-3.5,9.8-4.2,15.1
				c-0.4,3.4-2,9.7,0.8,12.5C722.1,553.2,723,552.3,722.4,551.7z"/>
		</g>
	</g>
	<g>
		<path class="st14" d="M786.2,520.1c2.2-1.7,8-6.4,10.2-14.4c0.8-2.8,0.9-5.3,0.9-6.9c3.5,5.5,3.4,13.8,3.7,20.1
			c0.1,2,0,9-0.2,12.1c-0.8,9.9-8.2,26.9-17.4,27c-10.2,0.1-20.6-21-15.5-29.1C770.9,524.2,776.9,527.3,786.2,520.1z"/>
		<g>
			<path class="st15" d="M786.6,520.6c6.9-5.4,11.3-12.8,11.3-21.7c-0.4,0.1-0.8,0.2-1.2,0.3c4.9,8.5,4.1,21.7,3.4,31.4
				c-0.6,8.5-5.5,24.2-15.1,26.6c-9.4,2.3-16.3-12.1-17.6-19.4c-0.9-5.1,0-9.7,5.5-11.2c5.1-1.4,9.2-2.6,13.5-5.8
				c0.6-0.5,0-1.6-0.6-1.1c-3.5,2.6-7.1,4.2-11.3,5.3c-2,0.5-4.2,0.8-5.8,2.2c-2.8,2.4-3,6.6-2.6,10c1.1,8,7.2,20.7,16.4,21.5
				c10.5,0.9,16.4-15,18.1-22.9c1.2-5.4,1-11.2,0.9-16.7c-0.2-6.9-0.2-14.2-3.8-20.4c-0.3-0.5-1.2-0.3-1.2,0.3
				c0,8.6-4.3,15.7-10.9,20.8C785.1,520.2,786,521.1,786.6,520.6z"/>
		</g>
	</g>
	<g>
		<path class="st14" d="M769.9,563.7c-1.1,3.8,7,11.5,14.5,11.6c7.6,0.2,15.5-7.4,18.2-19c-2.5,1.4-4.7,2.2-6.2,2.6
			c-9.3,2.5-15.2-1.5-23.3,2.2C770.4,562.4,770,563.3,769.9,563.7z"/>
		<g>
			<path class="st15" d="M769.3,563.5c-1,7.4,10.6,13,16.6,12.4c9.5-1,15.1-11,17.2-19.4c0.1-0.5-0.4-1-0.9-0.7
				c-7.7,4.1-14.5,2.5-22.7,3.1C776.5,559.2,770.6,560.1,769.3,563.5c-0.3,0.7,0.9,1.1,1.2,0.3c1.3-3.3,8.2-3.7,11.1-3.7
				c2.6,0,5.1,0.3,7.7,0.3c4.9,0,9.3-1.3,13.6-3.6c-0.3-0.2-0.6-0.5-0.9-0.7c-1.8,7-5.6,14.5-12.6,17.5c-3.7,1.6-7.5,1.1-11.1-0.7
				c-3-1.5-8.2-5.2-7.7-9.1C770.6,563.1,769.4,562.8,769.3,563.5z"/>
		</g>
	</g>
	<g>
		<path class="st14" d="M724.6,570.7c1.7,1-1.8,18.6-14,22.8c-5.7,2-12.3,0.7-16.4-2.2c-5.9-4.1-8.6-12.2-13.1-17.5
			c0,0-0.3-0.3-0.2-0.4c0.4-0.7,12.6,11.2,24.1,9.1c5.1-0.9,10.3-4.7,13.2-6.8C722.7,572.4,724,570.3,724.6,570.7z"/>
		<g>
			<path class="st15" d="M724.2,571.1c1.6,1.6-1.4,8.4-2.1,9.9c-1.9,4.1-4.7,8.1-8.7,10.5c-7.1,4.2-16.4,2.5-21.9-3.5
				c-2.1-2.3-3.7-5.2-5.3-7.9c-1-1.6-2.4-5.2-4.1-6.2c-1.7-1.1,0.5,1.2,1.3,1.8c1.7,1.2,3.4,2.4,5.2,3.4c3.6,2.1,7.6,3.8,11.9,4.2
				c5,0.5,9.6-1.4,13.7-4c2-1.3,4-2.7,5.9-4.2c0.5-0.4,3.7-3.9,4.4-3.8c0.8,0.1,1.1-1.1,0.3-1.2c-2-0.3-5.8,4.3-6.9,5.1
				c-5.3,4-11.2,7.7-18.1,6.8c-5.3-0.7-10.1-3.4-14.4-6.4c-1-0.7-3.2-3.1-4.6-2.8c-0.3,0.1-0.5,0.5-0.4,0.8c0.9,2.7,3.9,5.9,5.5,8.5
				c1.9,3.2,4,6.5,6.9,8.9c5.7,4.7,14.4,5.5,20.8,1.9c5-2.8,8.4-7.9,10.4-13.2c0.7-1.9,3-7.5,1.1-9.5
				C724.5,569.6,723.6,570.5,724.2,571.1z"/>
		</g>
	</g>
	<g>
		<path class="st14" d="M723.5,567.9c-3.5,0.7-6.4-0.8-8.5-1.9c-7.3-3.9-13-12.7-11.8-20.6c0.4-2.4,1.5-5.2,2.7-5.2
			c1.9,0,1.6,6.9,5.6,9.1c4.8,2.6,10.2-4.7,15.4-2.3c4.1,1.8,6.5,8.8,4.3,14.4C729.9,564.3,727.1,567.1,723.5,567.9z"/>
		<g>
			<path class="st15" d="M723.5,567.3c-9.1,1-18-8.3-19.6-16.7c-0.5-2.7,0.4-12.6,3.2-7c0.8,1.7,1,3.3,2.3,4.8
				c2.8,3.2,6.5,1.8,9.9,0.3c3-1.3,5.8-2.8,8.9-0.2c1.4,1.2,2.3,3.2,2.8,5c1.6,6.1-1.6,12.1-7.6,13.8c-0.8,0.2-0.4,1.4,0.3,1.2
				c8.3-2.4,11.9-13,6.3-19.9c-2.2-2.7-5-3.2-8.3-2.2c-2.8,0.9-5.9,3.6-9,2.7c-3.4-1-3.7-4.9-4.9-7.5c-0.6-1.4-1.3-2.6-2.9-1.7
				c-2.9,1.7-2.7,8.3-2.1,11c1.7,9,11.1,18.8,20.8,17.6C724.3,568.4,724.3,567.2,723.5,567.3z"/>
		</g>
	</g>
	<g>
		<path class="st14" d="M776.5,565.8c3.8,0.5,8.6-3.3,9-7c0.4-3.2-2.8-4.1-3.7-9.1c-1.1-6,2.4-10.9,2.7-11.4c3.1-4.3,7.6-5.5,9-5.9
			c-8.2-4.8-16.7-5.5-21.9-1.6c-2.3,1.7-3.3,4-4,5.3C762.6,547.5,769.2,564.8,776.5,565.8z"/>
		<g>
			<path class="st15" d="M776.5,566.4c5,0.1,11.4-4.7,9.2-10.2c-0.9-2.4-2.6-3.9-3.1-6.6c-0.6-3.2,0-6.4,1.5-9.2
				c2-3.7,5.5-6.3,9.6-7.3c0.5-0.1,0.6-0.9,0.1-1.1c-11.3-6.2-25.7-6-28.2,9c-1.3,7.9,1.2,23.3,10.7,25.4c0.8,0.2,1.1-1,0.3-1.2
				c-8-1.7-10.5-14.6-10.1-21.4c0.3-5.4,2.5-11.1,7.6-13.6c6.2-2.9,13.5-0.2,19.1,2.8c0-0.4,0.1-0.8,0.1-1.1
				c-5.2,1.3-9.4,4.9-11.3,9.9c-1.3,3.5-1.5,7.4,0.1,10.8c0.5,1.2,2,2.5,2.3,3.8c1.3,4.9-3.3,8.8-7.9,8.7
				C775.7,565.2,775.7,566.4,776.5,566.4z"/>
		</g>
	</g>
	<path class="st6" d="M660.1,535"/>
	<path class="st13" d="M725,540.9c-2-10,0.4-10-1.6-22c-1-6-2.3-13.4-6.6-21.2c-5.1-9.2-10.8-12.9-10.1-13.7
		c0.9-1.1,13.9,4.8,22.2,16.9c3.8,5.4,5.2,10.6,8,20.7c2.5,9.1,9.9,36.4,1.9,42c-0.8,0.6-1.4,0.7-1.7,0.7
		C732.3,564.5,727.1,551.4,725,540.9z"/>
	<path class="st13" d="M732.3,569.8c-5,0.6-7.5,0.9-10,0.2c-9.8-2.8-14.1-16.6-12.6-17.6c1-0.7,3.8,5.9,10.7,7.4
		c8.6,1.9,14-6.3,19.8-3.4c3.5,1.7,5.5,6.6,4.3,9.3C743.2,568.5,738.9,569,732.3,569.8z"/>
	<path class="st13" d="M766.1,563.4c1.3-1.1-2.9-5.7-1.5-9.3c1.7-4.5,11.2-4,11.1-4.7c-0.1-0.8-12.8-3.8-22.4,3.3
		c-4.3,3.2-7.7,8.2-6.6,9.8c1.4,2.1,8.9-3.2,16.3,0.1C764.1,563.1,765.4,563.9,766.1,563.4z"/>
	<path class="st13" d="M778.1,569.3c-1.5,0.8-0.1,8.3,4.2,14.2c2,2.7,4.2,5.7,7.3,5.9c7.6,0.6,14.1-15.6,12.1-17.3
		c-1.5-1.3-7.5,6.5-13,4.4c-0.4-0.2-2.4-1.6-6.1-4.4C779,569.4,778.5,569,778.1,569.3z"/>
	<path class="st13" d="M734.2,563.5c1,0.7-0.5,3.8-1.4,5.8c-1.4,3.2-2.1,4.7-3.7,5.6c-3.8,2-11.1-0.9-13.7-5.7c-2.1-4-0.8-8.6,0-8.7
		c0.6-0.1,0.6,2.8,3.3,5c0.3,0.2,2.1,1.7,4.7,1.9C729,568,732.9,562.6,734.2,563.5z"/>
</g>
</svg>
