<?xml version="1.0" encoding="utf-8"?>
<!-- Generator: Adobe Illustrator 21.0.0, SVG Export Plug-In . SVG Version: 6.00 Build 0)  -->
<svg version="1.1" id="Calque_1" xmlns="http://www.w3.org/2000/svg" xmlns:xlink="http://www.w3.org/1999/xlink" x="0px" y="0px"
	 viewBox="0 0 1366 768" style="enable-background:new 0 0 1366 768;" xml:space="preserve">
<style type="text/css">
	.st0{opacity:0.16;fill:#FC8C30;enable-background:new    ;}
	.st1{opacity:0.16;fill:#D3052D;enable-background:new    ;}
	.st2{opacity:0.16;fill:#96371E;enable-background:new    ;}
	.st3{opacity:0.15;fill:#FC8C30;enable-background:new    ;}
	.st4{opacity:0.15;fill:#96371E;enable-background:new    ;}
	.st5{opacity:0.39;fill:#FC8C30;enable-background:new    ;}
	.st6{opacity:0.6;fill:#F953D6;enable-background:new    ;}
	.st7{opacity:0.61;fill:#805CE5;enable-background:new    ;}
	.st8{opacity:0.6;fill:#239923;enable-background:new    ;}
	.st9{fill:#87F4C2;}
	.st10{opacity:0.52;fill:#D3052D;enable-background:new    ;}
	.st11{opacity:0.33;fill:#96371E;enable-background:new    ;}
	.st12{opacity:0.27;fill:#96371E;enable-background:new    ;}
	.st13{opacity:0.38;fill:#96371E;enable-background:new    ;}
	.st14{opacity:0.33;fill:#FC8C30;enable-background:new    ;}
	.st15{opacity:0.33;fill:#D3052D;enable-background:new    ;}
	.st16{opacity:0.27;fill:#FC8C30;enable-background:new    ;}
	.st17{opacity:0.47;fill:#FC8C30;enable-background:new    ;}
	.st18{opacity:0.27;fill:#D3052D;enable-background:new    ;}
	.st19{opacity:0.54;fill:#FFDFC0;enable-background:new    ;}
	.st20{opacity:0.86;fill:#471E07;stroke:#602C0A;stroke-width:0.5;stroke-miterlimit:10;enable-background:new    ;}
	.st21{fill:#602C0A;}
	.st22{fill:#605E5E;}
	.st23{stroke:#000000;stroke-width:0.5;stroke-miterlimit:10;}
	.st24{fill:none;stroke:#000000;stroke-width:0.5;stroke-miterlimit:10;}
	.st25{opacity:0.84;}
	.st26{fill:#0B2A60;}
	.st27{fill:none;stroke:#000000;stroke-miterlimit:10;}
	.st28{opacity:0.61;}
	.st29{fill:#E213E2;}
	.st30{opacity:0.64;}
	.st31{fill:#F24955;}
	.st32{fill:#B474E2;}
	.st33{opacity:0.65;}
	.st34{fill:#FFDFC0;}
	.st35{opacity:0.5;}
	.st36{fill:#219B58;}
	.st37{fill:none;stroke:#602C0A;stroke-miterlimit:10;}
	.st38{fill:#13E8E8;}
	.st39{opacity:0.63;fill:#FFDFC0;stroke:#000000;stroke-width:0.5;stroke-miterlimit:10;enable-background:new    ;}
	.st40{opacity:0.7;fill:#FF001F;enable-background:new    ;}
	.st41{fill:#5D79E2;}
	.st42{fill:#B14BBC;}
</style>
<g id="Calque_7">
	
		<ellipse transform="matrix(0.9567 -0.2912 0.2912 0.9567 -98.7572 287.1418)" class="st0" cx="915.4" cy="475.4" rx="132.5" ry="132.5"/>
	
		<ellipse transform="matrix(0.9567 -0.2912 0.2912 0.9567 -113.1786 334.0205)" class="st0" cx="1065.6" cy="547.3" rx="82.4" ry="82.4"/>
	
		<ellipse transform="matrix(0.9567 -0.2912 0.2912 0.9567 -126.9183 283.6842)" class="st0" cx="889.7" cy="568.3" rx="80.9" ry="80.9"/>
	
		<ellipse transform="matrix(0.9567 -0.2912 0.2912 0.9567 -119.609 217.0477)" class="st0" cx="669.4" cy="510.4" rx="128.5" ry="128.5"/>
	
		<ellipse transform="matrix(0.9567 -0.2912 0.2912 0.9567 -84.3659 232.8491)" class="st0" cx="740.1" cy="399.9" rx="133.6" ry="133.6"/>
	
		<ellipse transform="matrix(0.9567 -0.2912 0.2912 0.9567 -78.8645 326.2061)" class="st0" cx="1056.5" cy="428.1" rx="154" ry="154"/>
	
		<ellipse transform="matrix(0.9567 -0.2912 0.2912 0.9567 -109.9885 385.04)" class="st1" cx="1238.7" cy="562.1" rx="103.4" ry="103.4"/>
	
		<ellipse transform="matrix(0.9567 -0.2912 0.2912 0.9567 -43.8974 209.7946)" class="st1" cx="682.9" cy="252.4" rx="77.2" ry="77.2"/>
	
		<ellipse transform="matrix(0.9567 -0.2912 0.2912 0.9567 20.1392 303.8472)" class="st1" cx="1030.9" cy="84.3" rx="55.8" ry="55.8"/>
	
		<ellipse transform="matrix(0.9567 -0.2912 0.2912 0.9567 -149.8377 301.8835)" class="st2" cx="939.3" cy="654.4" rx="42.7" ry="42.7"/>
	
		<ellipse transform="matrix(0.9567 -0.2912 0.2912 0.9567 -196.6404 292.6338)" class="st0" cx="884.9" cy="807" rx="187.3" ry="187.3"/>
	<ellipse class="st3" cx="1105" cy="665.2" rx="103.6" ry="103"/>
	<ellipse class="st3" cx="1210.3" cy="237.4" rx="90.6" ry="90.2"/>
	<ellipse class="st3" cx="1269.8" cy="146.9" rx="134" ry="133.4"/>
	<ellipse class="st3" cx="1247.5" cy="357.1" rx="87.6" ry="87.1"/>
	<ellipse class="st3" cx="929.8" cy="195.5" rx="221.6" ry="220.5"/>
	<ellipse class="st3" cx="845.4" cy="624.5" rx="91.4" ry="90.9"/>
	<ellipse class="st3" cx="1119.2" cy="-145.2" rx="198.7" ry="197.8"/>
	<ellipse class="st4" cx="1144" cy="84.2" rx="63.6" ry="63.3"/>
	<path class="st3" d="M342,687.2c94.3,93.8,247.1,93.8,341.3,0s94.3-245.9,0-339.7s-247.1-93.8-341.3,0S247.7,593.4,342,687.2z"/>
</g>
<g id="Calque_4">
	
		<ellipse transform="matrix(0.2654 -0.9641 0.9641 0.2654 -631.1229 564.8192)" class="st5" cx="55.1" cy="696.6" rx="50.5" ry="50.5"/>
	
		<ellipse transform="matrix(0.2654 -0.9641 0.9641 0.2654 -421.4605 759.2793)" class="st5" cx="287.5" cy="656.2" rx="96.1" ry="96.1"/>
	
		<ellipse transform="matrix(0.2654 -0.9641 0.9641 0.2654 -590.0281 677.7479)" class="st5" cx="149.8" cy="726.1" rx="44.2" ry="44.2"/>
	
		<ellipse transform="matrix(0.2654 -0.9641 0.9641 0.2654 -218.7682 1096.8712)" class="st5" cx="610.4" cy="692" rx="134.8" ry="134.8"/>
	
		<ellipse transform="matrix(0.2654 -0.9641 0.9641 0.2654 -473.0169 896.4374)" class="st5" cx="351.8" cy="758.6" rx="59.8" ry="59.8"/>
	
		<ellipse transform="matrix(0.2654 -0.9641 0.9641 0.2654 -640.3841 520.0377)" class="st5" cx="21.1" cy="680.3" rx="65.3" ry="65.3"/>
	
		<ellipse transform="matrix(0.2654 -0.9641 0.9641 0.2654 -504.7601 743.8593)" class="st5" cx="235.8" cy="703.2" rx="58.7" ry="58.7"/>
	
		<ellipse transform="matrix(0.8694 -0.4941 0.4941 0.8694 -303.3019 330.8475)" class="st5" cx="474.2" cy="739.2" rx="117.7" ry="117.7"/>
	<circle class="st5" cx="654.8" cy="56.3" r="98.4"/>
	
		<ellipse transform="matrix(0.2654 -0.9641 0.9641 0.2654 -504.5109 608.4855)" class="st5" cx="147.1" cy="635.3" rx="42.7" ry="42.7"/>
	
		<ellipse transform="matrix(0.2654 -0.9641 0.9641 0.2654 -471.5749 446.7558)" class="st5" cx="57.4" cy="532.8" rx="108" ry="108"/>
	
		<ellipse transform="matrix(0.2654 -0.9641 0.9641 0.2654 -712.4685 507.3006)" class="st5" cx="-23.3" cy="721.2" rx="44.5" ry="44.5"/>
	
		<ellipse transform="matrix(0.2654 -0.9641 0.9641 0.2654 -521.1641 803.2637)" class="st5" cx="266.6" cy="743.6" rx="93.2" ry="93.2"/>
	<circle class="st5" cx="502.6" cy="184" r="99.1"/>
	<circle class="st5" cx="466.2" cy="93.5" r="153.3"/>
	
		<ellipse transform="matrix(0.2654 -0.9641 0.9641 0.2654 -403.3644 1090.051)" class="st5" cx="513.7" cy="809.7" rx="135.9" ry="135.9"/>
	
		<ellipse transform="matrix(0.2654 -0.9641 0.9641 0.2654 -296.305 600.3641)" class="st5" cx="245.8" cy="494.6" rx="96.9" ry="96.9"/>
	
		<ellipse transform="matrix(0.2654 -0.9641 0.9641 0.2654 -458.1256 648.9578)" class="st5" cx="196.8" cy="625.1" rx="34.5" ry="34.5"/>
	
		<ellipse transform="matrix(0.2654 -0.9641 0.9641 0.2654 -216.8807 855.5272)" class="st5" cx="453" cy="570.1" rx="111.7" ry="111.7"/>
	<circle class="st5" cx="587.6" cy="276.5" r="84.6"/>
	<circle class="st5" cx="-145.9" cy="271.3" r="50.5"/>
	<circle class="st5" cx="67.6" cy="170.7" r="96.1"/>
	<circle class="st5" cx="-46.8" cy="274.6" r="44.2"/>
	<circle class="st5" cx="388.3" cy="119.4" r="134.8"/>
	<circle class="st5" cx="156.7" cy="252.3" r="59.8"/>
	<circle class="st5" cx="-183" cy="264.6" r="65.3"/>
	<circle class="st5" cx="30.1" cy="229.7" r="58.7"/>
	
		<ellipse transform="matrix(0.7071 -0.7071 0.7071 0.7071 -63.2682 249.4677)" class="st5" cx="269.5" cy="201.1" rx="117.7" ry="117.7"/>
	<circle class="st5" cx="479.6" cy="244.2" r="98.4"/>
	<circle class="st5" cx="-73.5" cy="187.7" r="42.7"/>
	<circle class="st5" cx="-187.1" cy="112.8" r="108"/>
	<circle class="st5" cx="-214.9" cy="315.8" r="44.5"/>
	<circle class="st5" cx="70.5" cy="260.5" r="93.2"/>
	<circle class="st5" cx="631.8" cy="116.5" r="99.1"/>
	
		<ellipse transform="matrix(0.2654 -0.9641 0.9641 0.2654 -154.3486 1172.6975)" class="st5" cx="692.4" cy="687.6" rx="153.3" ry="153.3"/>
	<circle class="st5" cx="326.3" cy="258.6" r="135.9"/>
	<circle class="st5" cx="-15.6" cy="25.9" r="96.9"/>
	<circle class="st5" cx="-28.2" cy="164.7" r="34.5"/>
	<circle class="st5" cx="204.2" cy="43.7" r="111.7"/>
	<circle class="st5" cx="546.8" cy="24" r="84.6"/>
	<circle class="st6" cx="940" cy="452" r="4"/>
	<circle class="st6" cx="945" cy="529" r="12"/>
	<circle class="st6" cx="971" cy="505" r="8"/>
	<circle class="st6" cx="1041" cy="471" r="8"/>
	<circle class="st6" cx="1012.5" cy="533.5" r="18.5"/>
	<circle class="st6" cx="874.5" cy="439.5" r="12.5"/>
	<circle class="st6" cx="908.5" cy="571.5" r="10.5"/>
	<circle class="st6" cx="909.5" cy="525.5" r="10.5"/>
	<circle class="st6" cx="1131.5" cy="462.5" r="17.5"/>
	<circle class="st6" cx="1067" cy="463" r="9"/>
	<circle class="st6" cx="1010" cy="503" r="13"/>
	<circle class="st6" cx="958" cy="451" r="13"/>
	<circle class="st6" cx="853.5" cy="449.5" r="7.5"/>
	<circle class="st6" cx="1014.5" cy="443.5" r="4.5"/>
	<circle class="st6" cx="1160" cy="461" r="13"/>
	<circle class="st6" cx="1060.5" cy="504.5" r="14.5"/>
	<circle class="st6" cx="1083" cy="451" r="8"/>
	<circle class="st6" cx="1166" cy="442" r="7"/>
	<circle class="st6" cx="905.5" cy="560.5" r="24.5"/>
	<circle class="st6" cx="909" cy="443" r="16"/>
	<circle class="st6" cx="998.5" cy="453.5" r="11.5"/>
	<circle class="st7" cx="1077.5" cy="292.5" r="16.5"/>
	<circle class="st7" cx="995.5" cy="359.5" r="7.5"/>
	<circle class="st7" cx="956.5" cy="383.5" r="18.5"/>
	<circle class="st7" cx="1214.5" cy="355.5" r="19.5"/>
	<circle class="st7" cx="1205.5" cy="417.5" r="5.5"/>
	<circle class="st7" cx="1130" cy="304" r="12"/>
	<circle class="st7" cx="1027.5" cy="321.5" r="12.5"/>
	<circle class="st7" cx="1008" cy="386" r="5"/>
	<circle class="st7" cx="1240.5" cy="394.5" r="4.5"/>
	<circle class="st7" cx="1171" cy="325" r="12"/>
	<circle class="st7" cx="1090" cy="321" r="8"/>
	<circle class="st7" cx="1039" cy="285" r="8"/>
	<circle class="st7" cx="1060" cy="320" r="4"/>
	<circle class="st7" cx="1005.5" cy="336.5" r="2.5"/>
	<circle class="st8" cx="1215" cy="590" r="8"/>
	<circle class="st8" cx="945" cy="641" r="12"/>
	<circle class="st8" cx="984.5" cy="631.5" r="6.5"/>
	<circle class="st8" cx="1013.5" cy="587.5" r="5.5"/>
	<circle class="st8" cx="967" cy="654" r="4"/>
	<circle class="st8" cx="1243" cy="547" r="9"/>
	<circle class="st8" cx="1243" cy="573" r="9"/>
	<circle class="st8" cx="1001" cy="614" r="7"/>
	<circle class="st8" cx="1033" cy="573" r="3"/>
	<circle class="st8" cx="1194" cy="601" r="5"/>
	<circle class="st8" cx="1225.5" cy="545.5" r="2.5"/>
	<circle class="st8" cx="962" cy="634" r="5"/>
	<circle class="st8" cx="944" cy="666" r="6"/>
	<circle class="st9" cx="964" cy="648" r="14"/>
	<circle class="st9" cx="990.5" cy="620.5" r="6.5"/>
	<circle class="st9" cx="1204" cy="593" r="8"/>
	<circle class="st9" cx="1234" cy="540" r="6"/>
	<circle class="st9" cx="1244.5" cy="561.5" r="8.5"/>
	<circle class="st9" cx="1028.5" cy="582.5" r="5.5"/>
	<circle class="st9" cx="935" cy="638" r="4"/>
	<circle class="st9" cx="1008" cy="613" r="5"/>
	<ellipse class="st9" cx="1002.5" cy="598.5" rx="3.5" ry="2.5"/>
	<circle class="st9" cx="1230.5" cy="580.5" r="2.5"/>
</g>
<g id="Calque_3">
	
		<ellipse transform="matrix(0.2654 -0.9641 0.9641 0.2654 -456.7132 606.069)" class="st10" cx="169.4" cy="602.7" rx="57" ry="57"/>
	
		<ellipse transform="matrix(0.2654 -0.9641 0.9641 0.2654 -439.0678 778.5165)" class="st10" cx="291.4" cy="677.4" rx="25.5" ry="25.5"/>
	
		<ellipse transform="matrix(0.2654 -0.9641 0.9641 0.2654 -253.1244 1006.8915)" class="st10" cx="534.2" cy="669.6" rx="74.5" ry="74.5"/>
	<circle class="st10" cx="374.5" cy="136.5" r="28.5"/>
	<circle class="st10" cx="243" cy="80" r="75"/>
	
		<ellipse transform="matrix(0.2654 -0.9641 0.9641 0.2654 -657.0792 588.6917)" class="st10" cx="57.8" cy="725.5" rx="44" ry="44"/>
	
		<ellipse transform="matrix(0.2654 -0.9641 0.9641 0.2654 -212.2335 782.0919)" class="st10" cx="407.1" cy="530.3" rx="23" ry="23"/>
	<circle class="st10" cx="524.5" cy="68.5" r="86.5"/>
	<circle class="st10" cx="349" cy="291" r="39"/>
	<circle class="st10" cx="33" cy="211" r="56"/>
	<circle class="st10" cx="105.5" cy="52.5" r="40.5"/>
	
		<ellipse transform="matrix(0.2654 -0.9641 0.9641 0.2654 -391.5738 472.7335)" class="st10" cx="114.4" cy="493.3" rx="40" ry="40"/>
	
		<ellipse transform="matrix(0.2654 -0.9641 0.9641 0.2654 -493.7308 895.9088)" class="st10" cx="341.1" cy="772" rx="47.5" ry="47.5"/>
</g>
<g id="Calque_5">
	
		<ellipse transform="matrix(0.2654 -0.9641 0.9641 0.2654 -520.2031 547.3531)" class="st11" cx="99.1" cy="615.1" rx="63.5" ry="63.5"/>
	
		<ellipse transform="matrix(0.2654 -0.9641 0.9641 0.2654 -321.5764 739.1613)" class="st11" cx="324.3" cy="580.6" rx="31.5" ry="31.5"/>
	
		<ellipse transform="matrix(0.2654 -0.9641 0.9641 0.2654 -349.8643 1083.0817)" class="st11" cx="535.8" cy="771.1" rx="68" ry="68"/>
	<circle class="st11" cx="613" cy="276" r="46"/>
	<circle class="st11" cx="592.5" cy="197.5" r="9.5"/>
	<circle class="st12" cx="382" cy="2.3" r="44"/>
	<circle class="st11" cx="75" cy="176" r="31"/>
	<circle class="st13" cx="3.5" cy="38.5" r="26.5"/>
	<circle class="st11" cx="464.5" cy="233.5" r="26.5"/>
	<circle class="st14" cx="467.3" cy="285.2" r="50.5"/>
	<circle class="st14" cx="253.8" cy="385.8" r="96.1"/>
	<circle class="st14" cx="368.2" cy="281.9" r="44.2"/>
	<circle class="st14" cx="164.7" cy="304.2" r="59.8"/>
	<circle class="st14" cx="504.4" cy="291.9" r="65.3"/>
	<circle class="st14" cx="291.3" cy="326.8" r="58.7"/>
	
		<ellipse transform="matrix(0.7071 -0.7071 0.7071 0.7071 -236.0989 140.7842)" class="st14" cx="51.9" cy="355.4" rx="117.7" ry="117.7"/>
	<circle class="st14" cx="394.9" cy="368.8" r="42.7"/>
	<circle class="st14" cx="508.5" cy="443.8" r="108"/>
	<circle class="st14" cx="536.3" cy="240.7" r="44.5"/>
	<circle class="st14" cx="250.9" cy="296" r="93.2"/>
	<circle class="st14" cx="-4.9" cy="297.9" r="135.9"/>
	<circle class="st14" cx="337" cy="530.6" r="96.9"/>
	<circle class="st14" cx="349.6" cy="391.8" r="34.5"/>
	<circle class="st14" cx="117.2" cy="512.8" r="111.7"/>
	<circle class="st15" cx="382" cy="406" r="57"/>
	<circle class="st15" cx="244.5" cy="366.5" r="25.5"/>
	<circle class="st15" cx="12.5" cy="438.5" r="74.5"/>
	<circle class="st15" cx="457" cy="258" r="44"/>
	<circle class="st15" cx="172" cy="539" r="23"/>
	<circle class="st15" cx="464" cy="497" r="40"/>
	<circle class="st15" cx="171.5" cy="288.5" r="47.5"/>
	<circle class="st11" cx="446.5" cy="375.5" r="63.5"/>
	<circle class="st11" cx="238.5" cy="468.5" r="31.5"/>
	<circle class="st16" cx="1357.7" cy="-125.9" r="98.4"/>
	<circle class="st16" cx="1205.6" cy="1.9" r="99.1"/>
	<circle class="st16" cx="1169.2" cy="-88.7" r="153.3"/>
	<circle class="st16" cx="1290.6" cy="94.3" r="84.6"/>
	<circle class="st17" cx="557.1" cy="89.3" r="50.5"/>
	<circle class="st16" cx="770.6" cy="-11.3" r="96.1"/>
	<circle class="st16" cx="1091.3" cy="-62.7" r="134.8"/>
	<circle class="st16" cx="859.7" cy="70.3" r="59.8"/>
	<circle class="st16" cx="520" cy="82.8" r="65.3"/>
	<circle class="st16" cx="733.1" cy="47.8" r="58.7"/>
	
		<ellipse transform="matrix(0.7068 -0.7075 0.7075 0.7068 271.7157 693.6484)" class="st16" cx="972.6" cy="19.1" rx="117.7" ry="117.7"/>
	<circle class="st16" cx="1182.6" cy="62" r="98.4"/>
	<circle class="st16" cx="629.5" cy="5.9" r="42.7"/>
	<circle class="st16" cx="515.9" cy="-69.1" r="108"/>
	<circle class="st16" cx="773.6" cy="78.6" r="93.2"/>
	<circle class="st16" cx="1334.8" cy="-65.8" r="99.1"/>
	<circle class="st16" cx="1029.3" cy="76.6" r="135.9"/>
	<circle class="st16" cx="687.3" cy="-156" r="96.9"/>
	<circle class="st16" cx="674.8" cy="-17.2" r="34.5"/>
	<circle class="st16" cx="907.1" cy="-138.3" r="111.7"/>
	<circle class="st16" cx="1249.7" cy="-158.1" r="84.6"/>
	<circle class="st18" cx="1077.5" cy="-45.6" r="28.5"/>
	<circle class="st18" cx="945.9" cy="-102" r="75"/>
	<circle class="st18" cx="1227.4" cy="-113.7" r="86.5"/>
	<circle class="st18" cx="736" cy="29.1" r="56"/>
	<circle class="st18" cx="808.4" cy="-129.5" r="40.5"/>
	<circle class="st12" cx="1295.5" cy="15.3" r="9.5"/>
	<circle class="st12" cx="1084.9" cy="-180.1" r="44"/>
	<circle class="st12" cx="778" cy="-5.9" r="31"/>
	<circle class="st12" cx="706.4" cy="-143.4" r="26.5"/>
	<circle class="st12" cx="1167.5" cy="51.4" r="26.5"/>
	<circle class="st17" cx="1207.4" cy="109.9" r="65.3"/>
	<circle class="st16" cx="1239.3" cy="58.5" r="44.5"/>
	<circle class="st16" cx="953.9" cy="114" r="93.2"/>
	<circle class="st14" cx="698.1" cy="116" r="135.9"/>
	<circle class="st10" cx="1160" cy="76" r="44"/>
</g>
<g id="Calque_2">
	<path class="st19" d="M1176,391c1.7,15.7-7.4,28.4-10,32c-0.7,0.9-17.6,23.7-45,23c-27-0.7-54.3-24.1-53.5-53
		c0.6-22.6,18.1-41.3,37.5-47C1137.1,336.6,1173,363.2,1176,391z"/>
	<path class="st20" d="M1017.5,359.5c-0.4,2,4.6,5.7,10,7c5.8,1.4,9.9-0.7,12,2c0.8,1,0.9,2,1,4c0.3,4.2-0.8,7.6-2,11
		c-2.1,5.8-3.2,8.7-5,12c-7.9,14-21.3,19.5-20,22c0.9,1.7,6.7-1.7,15,1c3.6,1.2,4.3,2.4,8,3c5.8,0.9,9.1-1.3,10,0
		c1.8,2.6-10.3,13.3-9,15c0.9,1.1,7-3.2,8-2c0.9,1.1-2.8,6.7-8,11c-7.4,6.2-15.2,6.4-15,8c0.1,1.4,5.6,2.4,11,2c6.4-0.5,11-3,20-8
		c4.9-2.7,8.4-4.7,13-8c5.5-4,6.1-5.2,9-6c7.4-1.9,13.1,4.2,15,2c2.7-3-6.3-11.4-3-20c1.2-3,3-3.9,3-7c0-3.8-2.9-5.7-5-9
		c-2.8-4.3-2.5-9.9-2-21c0.5-11.5,0.8-17.2,5-21c0.7-0.6,3.1-2.1,8-5c7.2-4.3,7.8-4.2,8-4c0.6,0.7-1.8,4.3-5,7c-3.5,2.9-6.1,3.1-6,4
		c0.1,1.7,9,3.9,18,2c5.9-1.3,10.4-4,11-3c0.7,1.1-4.8,4.4-4,7c0.6,2.1,4.9,2.4,13,3c7.7,0.6,9.7-0.2,11-1c3.4-2,4.2-5.3,5-5
		c0.9,0.4,0.7,5-2,8c-2,2.3-4.1,2.4-4,3c0.2,1.3,10.9,3,16-2c0.9-0.9,1.8-2.2,3-2c1.6,0.2,2.5,3,3,5c2.8,10.2,4.2,15.9,2,23
		c-2.3,7.3-7.1,10.7-6,12c1,1.2,5.8-0.8,9-3c4-2.7,5.2-5.4,6-5c1.2,0.6-0.3,7.2-3,13c-1.8,3.9-3.4,5.7-3,6c0.8,0.7,8.1-5,14-12
		c6.3-7.6,13.1-15.7,13-27c-0.1-14.6-11.7-29.5-23-31c-5.3-0.7-8.7,1.8-14-1c-3.6-1.9-3.1-3.7-10-9c-2.9-2.2-4.7-3-5-5
		c-0.4-2.4,1.7-3.4,2-7c0.2-2.6-0.7-5.8-2-6c-1.7-0.3-2.4,4.7-6,6s-6.9-1.5-10-3c-9.4-4.6-15.1,3.2-35,5c-3.1,0.3-5.5,0.3-7.5,0.3
		c-4.5-0.1-6.3-0.4-10.5-0.5c-5.6-0.2-8.4-0.3-9.9,0.2c-3.5,1.2-7,4.5-14,11l0,0c-1.7,1.1-4.1,2.7-7,5c-3.7,2.9-3.7,3.4-6,5
		c-3.8,2.7-7.6,3.9-11,5C1020.3,358.5,1017.8,358.2,1017.5,359.5z"/>
	<g>
		<g>
			<path d="M1394.2,388.1c1.8,7.6,3.5,15.2,6.8,22.4c0.8,1.8,3.4,0.2,2.6-1.5c-3.2-6.9-4.8-14.3-6.5-21.6
				C1396.7,385.4,1393.8,386.2,1394.2,388.1L1394.2,388.1z"/>
		</g>
	</g>
	<g>
		<g>
			<path class="st21" d="M1159.5,370.5c11.1,10.5,6.2,27.4-1,38.4c-0.3,0.4,0,1,0.4,1.1c4.6,1.2,9.3-2,12.7-4.6
				c4.8-3.7,7.6-8.7,9.1-14.4c0.2-0.9-1.2-1.3-1.4-0.4c-1.8,6.8-5.6,12.1-11.6,15.7c-1.4,0.9-2.9,1.7-4.5,2.2
				c-3.4,1-2.2,0.1-1.6-1.6c1.1-3,3.2-5.6,4.3-8.7c3.3-9.1,2.1-21.8-5.3-28.7C1159.8,368.8,1158.8,369.9,1159.5,370.5L1159.5,370.5z
				"/>
		</g>
	</g>
	<g>
		<g>
			<path class="st21" d="M1159,368.8c0.3,4.7-14.2,5-17.2,3.9c0.1,0.5,0.1,0.9,0.2,1.4c4.4-3,6.8-8.2,6.6-13.5c0-1-1.5-1-1.5,0
				c0.2,4.8-1.8,9.4-5.8,12.2c-0.6,0.4-0.4,1.1,0.2,1.4c3.8,1.4,19.6,1.1,19.1-5.3C1160.4,367.8,1158.9,367.8,1159,368.8L1159,368.8
				z"/>
		</g>
	</g>
	<g>
		<g>
			<path class="st21" d="M1146.5,362.2c-2.7,3.2-9.6,4.3-13.5,4.8c-5.6,0.8-11,1-16.2-1.4c0,0.4,0,0.9,0,1.3c5.2-3.9,8.2-7.5,9-14.2
				c0.1-1-1.4-1-1.5,0c-0.7,6-3.5,9.4-8.2,12.9c-0.4,0.3-0.6,1,0,1.3c5.6,2.6,11.2,2.5,17.1,1.7c4.3-0.6,11.3-1.7,14.4-5.3
				C1148.2,362.6,1147.1,361.5,1146.5,362.2L1146.5,362.2z"/>
		</g>
	</g>
	<g>
		<g>
			<path class="st21" d="M1123.5,356.5c-3.7,2.9-8.8,3.6-13.3,4c-3.8,0.3-8.4,1.1-12.2,0.2c-0.6-0.1-3.4-0.9-3.4-1.5
				c0-0.2,2.1-1,2.3-1.1c1.3-0.7,2.5-1.3,3.5-2.3c2.6-2.5,4.1-6,5.1-9.3c0.3-0.9-1.2-1.3-1.4-0.4c-0.9,3-2.3,6.4-4.7,8.7
				c-1.9,1.8-4.5,2.5-6.6,3.9c-0.4,0.2-0.6,0.9-0.2,1.2c4.6,3.7,10.8,2.7,16.3,2.3c5.4-0.4,11.2-1.1,15.6-4.6
				C1125.3,356.9,1124.2,355.9,1123.5,356.5L1123.5,356.5z"/>
		</g>
	</g>
	<path class="st22" d="M1209,537c3.5-2.4,2.2-8.9-4-37c-3.2-14.6-4.9-21.9-9-23c-3.9-1.1-5.1,3.5-15,6c-6.7,1.7-10.3,0.6-15,4
		c-0.8,0.6-0.8,0.7-5,5c-5.6,5.8-8.5,8.7-9,9c-4.3,2.5-6.9,0.4-22,0c-1.7,0-5.7-0.1-10,0c-11.6,0.4-17.5,0.6-23,3
		c-11.5,5.1-9.2,14.7-24,24c-4.8,3-7.2,4.5-11,6c-6.9,2.7-10,2.1-12,5c-2.6,3.9-1,10.9,2,12c1.9,0.7,3.4-1.4,7-3
		c5.5-2.4,10.7-1.3,17,0c7.9,1.7,16.4,3.4,18,9c1.2,4.2-1.9,9.2-5,12c-8.8,8-21.9,2.6-25,9c-0.9,1.8,0.3,2.1,0,7
		c-0.5,9.2-5.1,15.3-4,16c0.7,0.4,2.1-2.5,5-3c3.5-0.6,6.3,3,10,6c3,2.4,4.5,2.7,15,7c29.3,11.9,31.1,14.9,39,14
		c4.6-0.5,2.1-1.3,17-6c14-4.4,17.4-4,25-8c5.4-2.8,10.9-5.6,15-12c4.7-7.1,4.9-14.6,5-18c0.1-5,0.2-8.9-2-13
		c-3.5-6.6-9.3-7.1-11-14c-0.8-3.1-0.2-5.4,0-6c0.8-3.1,2.8-4.9,4-6c1.8-1.7,5-3.9,11-5C1202.8,535.2,1205.9,539.1,1209,537z"/>
	<g>
		<g>
			<path class="st21" d="M1108.3,342.8c0.3,4.9-11.6,8.3-15.1,9.5c-7.2,2.6-14.6,4.6-21.4,8.1c0.4,0.2,0.8,0.4,1.1,0.6
				c0.9-7.1,5.2-16,10.6-20.5c0.7-0.6-0.3-1.7-1.1-1.1c-5.9,4.9-10.1,14-11.1,21.6c-0.1,0.6,0.7,0.9,1.1,0.6
				c8.3-4.3,17.5-6.3,26-9.9c3.4-1.4,11.5-4.2,11.2-9.1C1109.7,341.8,1108.2,341.8,1108.3,342.8L1108.3,342.8z"/>
		</g>
	</g>
	<g>
		<g>
			<path class="st21" d="M1083.3,361.3c-4.8,16.7-2.3,32.5,6.3,47.4c0.2-0.4,0.4-0.8,0.6-1.1c-10.9,0.4-20.9-10.4-26.1-19
				c-0.5-0.8-1.8-0.1-1.3,0.8c5.5,8.9,16,20.1,27.4,19.7c0.6,0,0.9-0.6,0.6-1.1c-8.5-14.6-10.9-29.9-6.2-46.2
				C1085,360.8,1083.5,360.4,1083.3,361.3L1083.3,361.3z"/>
		</g>
	</g>
	<g>
		<g>
			<path class="st21" d="M1063.3,331.8c-7.1,1-12.5,8.6-17.5,13.1c-8.2,7.3-18,12.4-28.9,14.1c-0.5,0.1-0.7,0.7-0.4,1.1
				c5.6,8.8,21.4,9.3,30.2,6.2c0.9-0.3,0.5-1.8-0.4-1.4c-5.8,2.1-12.8,1.9-18.7,0.5c-1.2-0.3-9.3-2.7-8.9-4.6
				c0.2-1.1,8.9-2.8,10.5-3.5c6.4-2.7,12.5-6.7,17.7-11.3c4.8-4.3,10-11.7,16.8-12.7C1064.7,333.1,1064.2,331.6,1063.3,331.8
				L1063.3,331.8z"/>
		</g>
	</g>
	<g>
		<g>
			<path class="st21" d="M1038.4,368.9c5.1,7-3,19.6-6.3,26.1c-2.7,5.2-5.6,10.2-10.2,14c-3.9,3.2-8,5.7-10.7,10.2
				c-0.3,0.5,0.2,1.3,0.8,1.1c3.2-1.2,6.3-2.4,9.7-2.4c4,0,8,1.5,12,2.1c6.9,1,13.5,0.2,20-2.2c0.9-0.3,0.5-1.8-0.4-1.4
				c-9.1,3.4-17.2,2.6-26.5,0.7c-5.6-1.1-9.9-0.3-15.3,1.8c0.3,0.4,0.6,0.7,0.8,1.1c3.6-5.8,10-8.5,14.3-13.6
				c3.7-4.4,6.3-9.7,8.8-14.9c3-6.2,8.9-16.7,4.1-23.2C1039.1,367.3,1037.8,368.1,1038.4,368.9L1038.4,368.9z"/>
		</g>
	</g>
	<g>
		<g>
			<path class="st21" d="M1071.3,403.7c4.3,13.5-3.5,30.7-15.9,37.4c0.3,0.3,0.7,0.7,1,1c4.2-6.1,3.9-13.5,1.8-20.3
				c-0.3-0.9-1.7-0.5-1.4,0.4c2,6.5,2.4,13.4-1.7,19.1c-0.5,0.7,0.4,1.4,1,1c12.9-6.9,21-24.9,16.6-39.1
				C1072.4,402.4,1071,402.8,1071.3,403.7L1071.3,403.7z"/>
		</g>
	</g>
	<g>
		<g>
			<path class="st21" d="M1046.3,422c-0.6,6-6.1,9.8-9.3,14.6c-0.3,0.5,0.1,1.1,0.6,1.1c4.4,0.1,7.5-1.8,10.8-4.6
				c-0.4-0.4-0.7-0.7-1.1-1.1c-3.3,4.3-6.1,9.1-10.2,12.7c-4.3,3.7-9.9,5.2-14.7,8c-0.7,0.4-0.3,1.4,0.4,1.4c9,0.4,18.7,0.7,27-3.2
				c8.3-3.9,14.8-11,21.1-17.4c0.7-0.7-0.4-1.7-1.1-1.1c-6,6-11.9,12.5-19.5,16.5c-8.4,4.4-18.4,4.1-27.6,3.7
				c0.1,0.5,0.3,0.9,0.4,1.4c4.5-2.6,9.6-4.1,13.7-7.2c4.8-3.6,7.8-9,11.5-13.7c0.6-0.8-0.3-1.7-1.1-1.1c-3,2.5-5.8,4.2-9.7,4.1
				c0.2,0.4,0.4,0.8,0.6,1.1c3.4-5.1,8.8-8.9,9.5-15.3C1047.8,421,1046.3,421,1046.3,422L1046.3,422z"/>
		</g>
	</g>
	<circle class="st23" cx="1149" cy="383" r="3.5"/>
	<circle class="st23" cx="1114" cy="381" r="3.5"/>
	<line class="st24" x1="1148.5" y1="414.5" x2="1120.5" y2="414.5"/>
	<g>
		<g>
			<path d="M1173.8,402c0.6,18.7-17.8,30.8-34.1,34.4c-16.8,3.7-36.9,5.2-50.7-6.9c-0.7-0.6-1.8,0.4-1.1,1.1
				c14.6,12.9,36,11.3,53.7,7c16.3-4,34.2-16.9,33.6-35.5C1175.2,401,1173.7,401,1173.8,402L1173.8,402z"/>
		</g>
	</g>
	<g>
		<g>
			<path class="st21" d="M1158,361.5c9.3,7.6,20.6,14.9,33.2,14.2c0-0.5,0-1,0-1.5c-7.3,0.6-11.9-8.6-14.5-14.1
				c-0.4-0.9-1.7-0.1-1.3,0.8c2.8,6,7.9,15.6,15.8,14.9c0.9-0.1,1-1.6,0-1.5c-12.1,0.7-23.1-6.4-32.1-13.8
				C1158.3,359.9,1157.2,360.9,1158,361.5L1158,361.5z"/>
		</g>
	</g>
	<g>
		<g>
			<path class="st21" d="M1087.3,409c-0.7,8-0.3,15.7,1.7,23.5c0.8,3.1,0.8,3-2.4,2.2c-1.6-0.4-3.2-1.1-4.7-1.9
				c-3.5-1.8-6.9-4.3-8.8-7.7c-0.5-0.8-1.8-0.1-1.3,0.8c3.3,6.1,11.9,11.1,18.9,10.8c0.5,0,0.9-0.5,0.7-0.9
				c-2.6-8.9-3.5-17.5-2.7-26.7C1088.8,408,1087.3,408,1087.3,409L1087.3,409z"/>
		</g>
	</g>
	<g>
		<g>
			<path class="st21" d="M1069.6,435.1c3.3,2.5,6.7-4.1,7.6-6.4c0.3-0.9-1.1-1.3-1.4-0.4c-0.5,1.5-3.4,7.1-5.4,5.6
				C1069.6,433.3,1068.9,434.6,1069.6,435.1L1069.6,435.1z"/>
		</g>
	</g>
	<g>
		<g>
			<path d="M1160.8,426.8c-1.3,5,6.5,2.8,8.8,3.8c0.9,0.4,1.6-0.9,0.8-1.3c-1.3-0.6-2.9-0.4-4.4-0.5c-1.2,0-4.3,0.2-3.8-1.7
				C1162.5,426.3,1161,425.9,1160.8,426.8L1160.8,426.8z"/>
		</g>
	</g>
	<g>
		<g>
			<path d="M1145.5,437.8c1,0,1-1.5,0-1.5S1144.5,437.8,1145.5,437.8L1145.5,437.8z"/>
		</g>
	</g>
	<g>
		<g>
			<path d="M1169.6,429.6c1.3,0.7,2.7,1.3,4,2c0.9,0.4,1.6-0.9,0.8-1.3c-1.3-0.7-2.7-1.3-4-2
				C1169.5,427.9,1168.8,429.2,1169.6,429.6L1169.6,429.6z"/>
		</g>
	</g>
	<g class="st25">
		<path class="st26" d="M1065,598c-6.9,0.5-11.9,14.8-17,38.2c-5.9,27.1-7.7,47.2-9,59.8c-6.2,60.1-13.6,69.8-5.5,77.5
			c11.6,11.1,25.8-7.5,73-3c44.7,4.3,67,6.5,71,8c0.4,0.2,1.8,0.7,3.3,0.2c5.7-1.9,3.5-17,5.3-28c5.3-32.7,4.7-59.2,5-59.2
			c0.2,0-0.1,8.5-0.1,8.5c0.1,0,6.3-98.8-4.5-100.5c-1.8-0.3-2.1,2.4-8,7c-7.4,5.8-13.1,6.4-27,11c-18.7,6.2-16.3,7.8-22,8
			c-7.1,0.3-6.8-2.3-30-11c-14-5.2-17.2-5.5-24-10C1069,600.2,1067.9,597.8,1065,598z"/>
		<g>
			<path d="M1065,597.3c-4.4,0.6-6.9,4.8-8.7,8.4c-4.1,8.3-6.2,17.7-8.2,26.6c-4.4,19.4-7.3,39.1-9.4,58.9
				c-1.9,18.4-4.3,36.7-7.3,54.9c-1.1,6.9-3.6,15.5-1.8,22.5c1.4,5.4,6.7,9,12.2,9.3c4.3,0.2,8.7-1.1,12.9-2.1
				c7-1.7,13.9-3.4,21.1-4.2c21.4-2.6,43.1,0.9,64.3,3.1c11.6,1.2,23.9,1.5,35.3,4.2c4.1,1,7.1,1.4,8.9-3.2
				c1.5-3.9,1.3-8.7,1.5-12.8c0.3-6.6,1.1-13,2-19.5c1.6-11.4,2.6-22.9,3.2-34.3c0.2-3.9,0.3-7.7,0.4-11.6c0-1.1-0.3-4.8,0.1-5.4
				c-0.5-0.1-0.9-0.1-1.4-0.2c0.7,2.5-0.1,5.7-0.1,8.3c0,0.8,1.3,1.1,1.5,0.2c0.5-3,0.4-6.2,0.6-9.3c0.4-7.5,0.7-15,0.9-22.5
				c0.5-17.8,1.1-35.9-0.8-53.6c-0.5-4.4-0.7-10.7-3.5-14.4c-0.7-0.9-1.6-1.8-2.8-1.7c-0.9,0.1-1.5,0.8-2.1,1.4
				c-2.5,2.3-4.5,4.8-7.3,6.8c-10.5,7.5-24.7,9-36.5,13.9c-5,2.1-9.1,4.9-14.7,3.6c-3.4-0.8-6.5-2.7-9.7-4.1
				c-7.1-3.2-14.4-6-21.8-8.7c-5.4-1.9-11-3.6-16-6.5C1074.2,602.9,1069.8,597.3,1065,597.3c-1,0-1,1.5,0,1.5c2.5,0,4.3,2.1,6.1,3.5
				c2.3,1.8,4.8,3.5,7.3,4.9c3.6,2,7.4,3.3,11.3,4.6c10.9,3.8,21.4,8.5,32.1,13c3.6,1.5,7.6,2.1,11.3,1c2.4-0.7,4.6-2.1,6.9-3.1
				c6.6-2.8,13.5-5,20.4-7.1c4.9-1.5,9.8-2.9,14.3-5.5c2-1.2,3.9-2.6,5.7-4.1c1.5-1.3,3.4-4.5,5.1-5.2c3.8-1.7,4.8,9.1,5.1,11.3
				c2.2,16.5,1.7,33.6,1.3,50.2c-0.2,8.7-0.5,17.5-1,26.2c-0.2,3.5-0.1,8.4-0.6,11.4c0.5,0.1,1,0.1,1.5,0.2c0-2.7,0.7-6,0-8.7
				c-0.2-0.7-1-0.7-1.4-0.2c-1.2,1.8-0.3,6.8-0.4,8.8c-0.2,7.9-0.7,15.8-1.4,23.6c-1,10.9-3.2,21.8-3.9,32.7
				c-0.3,4-0.3,7.9-0.6,11.9c-0.3,4.4-0.5,10.6-6.4,9.6c-7.5-1.2-15-2.4-22.6-3.2c-19-2-38.3-4.6-57.4-5.4
				c-14.8-0.6-29,1.6-43.3,5.1c-7.2,1.8-16.2,4.4-21.6-2.6c-3.6-4.7-2-11.8-1.2-17.1c2-13.6,4.4-27.1,6.1-40.7
				c2.5-19.8,4-39.7,7.5-59.4c2.1-12.2,4.6-24.5,8.1-36.4c1.6-5.4,4.6-18.4,11.7-19.3C1065.9,598.6,1066,597.1,1065,597.3z"/>
		</g>
	</g>
	<line class="st27" x1="1124.5" y1="654.5" x2="1122.5" y2="806.5"/>
	<g class="st28">
		<path class="st29" d="M1193,629c4.3,7.5,12.1,7.5,12,10c-0.2,4.3-24.1,4.7-56.5,10c-10.1,1.7-13.9,2.3-21.2,2.5
			c-12.2,0.4-17-1.5-28.9,2.4c-19.1,6.3-33.6,24.6-45.5,39.9c-12.5,16-26.6,31.6-48.5,31.3c21.1,12.7,41.2,24.5,64.7,31.8
			c15,4.7,16.2-1.9,25.9-13c8.2-9.4,16.6-18.4,26.7-25.7c16.8-12.3,39.6-20.9,60-25.5c37.3-8.4,47.6-16,51.7-21.5
			c0.4-0.5,1.5-2.1,2.7-4.5c13.2-25.7-0.2-61.9-13.2-63.7c-4.4-0.6-4.9,3.3-18,7c-7.5,2.1-10.9,1.9-13,5
			C1189.3,618.9,1190.8,625.1,1193,629z"/>
	</g>
	<g class="st28">
		<path class="st29" d="M1043,657c-3.2,4.6-12.7,9.4-32.1,18c-11.4,5-12.6,8.5-34.6,22c-16.2,9.9-38.5,23.5-66.3,40
			c0.5-5,0.8-12.4-1-21c-1.7-8.2-4.6-14.7-7-19c7.5-0.8,16.9-2.3,27.5-5.5c11.8-3.5,20.2-7.6,27-11s13.6-6.7,21.5-12.5
			c8.1-5.9,13.3-11.3,15.5-13.5c18.6-18.9,56.1-48.4,61-44c1.8,1.6-2.6,6.2-6.5,21.5C1043.6,649.3,1047.3,651,1043,657z"/>
	</g>
	<g class="st30">
		<path class="st31" d="M1145.5,436.5c0,2.6,17.3,7.5,30,0.5c0.7-0.4,1.2-0.7,1.5-0.9c-10.9,8.5-25.6,2.3-37.9,3.8
			c-6,0.7-11.8,5.9-18.2,6.1c-5.9,0.2-11.4-2.6-17-4c-13.8-3.5-25.2-2.3-37.6,4.9c-12.2,7.2-20.2,21.2-33.2,27.1
			c-10.6,4.8-25.9,3.4-36.9,1.7c-14.2-2.1-25.2-1.7-38.9,2.7c-29.2,9.2-50.1,32.6-80.6,39.5c-5.5,1.2-18.5-0.5-22.9,2.6
			c-5.2,3.6-3.6,16-3.6,22.5c0,17.6-0.9,35.8,1.4,53c14.3-4.2,29.4,4.7,42.6,8.2c14.5,3.9,31.2,3.8,46.1,2
			c16.1-2,32.9-6.9,45.4-17.7c14.4-12.5,23.3-29.8,39.3-40.3c14.1-9.3,30.7-10.3,45.3-18.2c16.2-8.7,17.5-24.7,36.2-28
			c7.5-1.3,15.6-1.6,23.3-1c5.5,0.4,16.7,4.8,22,2c6-3.2,7.7-12.2,14.5-16c6.6-3.7,14.4-2.7,21-5c15.7-5.5,24.4-29.2,18.3-40
			c-2.6-4.5-6.8-6.5-6.8-6.5c-5-2.3-7.5,0.4-13.7-1.5c-4.8-1.5-4.4-3.5-10.3-5.5c-2.9-1-6.4-2.2-10.5-1.5s-4.6,2.6-12.5,6.5
			C1146.7,435.9,1145.5,435.8,1145.5,436.5z"/>
	</g>
	<g class="st30">
		<path class="st31" d="M1048.5,419.5c-0.7-1.2-4-0.3-5,0c-23.9,6.4-59,15.8-81.5,14.5c-15.1-0.9-10.1-4.9-43.8-14.3
			c-14.6-4-30.3-6.7-45.4-6.7c-24.9-0.1-38.1,16-55.5,30.1c14.2,6.1,22.4,28.1,29.9,40.7c10.3-4.4,16.5-11.3,28.5-12.7
			c5.3-0.6,12.7-2.1,30.3,1.3c26.6,5.1,29,10.9,42.5,9.3c10.2-1.2,15.3-4.3,21-6c10.8-3.3,14.1,2.4,32.5,3.5c5.6,0.3,15.5,0.9,26-2
			c24-6.7,24.1-24.8,49-32c9.9-2.9,20.2-3,20.5-6.5c0.3-2.7-5.5-6.3-6.5-5.5c-0.6,0.5,0.7,2.3,0,3c-1.2,1.2-5.6-3.9-11-3
			c-0.9,0.1-2,0.8-4,1c-1.6,0.1-2.1-0.1-3,0c-2.4,0.3-3.9,2.6-5,4c-1,1.3-1.1,1-14.5,9.5c-5.5,3.5-5,3.2-5.5,3.5
			c-11.2,6.1-25.2,4.4-25.5,2.5c-0.2-1.4,6.8-1.6,15-8c6.6-5.2,11-11.9,10-13c-1.1-1.2-9.2,5-10,4c-0.4-0.5,1.4-2.6,7-10
			C1047.8,422.2,1049.1,420.4,1048.5,419.5z"/>
	</g>
	<g>
		<g>
			<path class="st21" d="M1161,350.8c13.3-1,29.2,7.7,32.1,21.4c3.5,16.3-6.7,30.5-18.7,40.3c-0.7,0.6,0.3,1.7,1.1,1.1
				c12.9-10.5,23.3-26.1,18.7-43.4c-3.6-13.4-20-21.9-33.2-20.9C1160,349.3,1160,350.8,1161,350.8L1161,350.8z"/>
		</g>
	</g>
	<g class="st28">
		<path class="st32" d="M1206,442c9,4.1,58.9-39.2,48.8-83.8c-3.5-15.6-13.8-33.9-30.4-40.7c-18.1-7.5-28.2-9.6-47.4-7.6
			c-24.4,2.5-31.5-11.6-46.6-27.5c-12.8-13.5-30.8-20.5-48.9-21.4c-15.8-0.8-35.9,3.5-48.2,13.7c-15.8,13.2-24.8,37.3-36.3,54.3
			c-14.1,20.8-29.7,29.4-53.2,35.9c-29.3,8.2,1,31.3,4.3,50.2c7.6-2.7,11.9-7.8,20.6-9.2c7.7-1.2,15.7-3,23.5-3.8
			c12.6-1.3,22.8,1,32.5-3.5c3.5-1.6,5.9-3.5,7.5-5c0.1-0.1,0.3-0.3,0.4-0.4c0,0,0.7-0.7,1.3-1.4c1-1.2,10.2-20.7,5-24
			c-2.2-1.4-5.5,1.1-11.5-1.5c-0.1,0-0.2-0.1-0.3-0.1c-1.9-0.8-10.2-4.6-9.7-6.9c0.3-1.5,4.2-0.9,9.5-2.5c4.9-1.5,9.3-5.3,12-7.2
			c0.2-0.1,0.5-0.4,1-0.8c9.8-7.4,14.6-11.9,17-14l0,0c2.8-2.6,4.1-3.7,5.5-4.4c0.2-0.1,0.7-0.3,1.5-0.6c3.5-1.1,6.7-0.5,10,0
			c1.7,0.3,5.2,0.8,8,1c4.3,0.3,7.6-0.1,10.5-0.5c24.4-3.3,26.4-6.6,33-4c3.4,1.3,7.9,3.9,12,2c3.5-1.6,4.1-6.3,6-6
			c1.4,0.2,2.4,2.6,2.5,4.5c0.2,3.2-2.3,4.1-2,7c0.2,1.8,1.2,3,3,5c2.4,2.8,3.3,2.5,6,5c4.1,3.8,4.3,6.6,7,7c1.4,0.2,1.8-0.7,4-1
			c3.8-0.6,7,0.4,9,1c10.5,3.3,16.5,11.5,16.5,11.5c8.6,11.7,5.4,25.2,5,27c-1.8,6.9-5.6,11.8-8.5,15.5c-1.3,1.6-4.9,6.3-10,10
			c-1.3,1-2.6,2.1-4,3c-3.5,2.4-5.3,3.1-6,5c-0.1,0.4-0.3,1.2-1,2c-0.8,1-1.6,1.2-1.5,1.5c0.2,1,4.3,0.5,8,1c7.5,1.1,7.5,5.1,15,7
			c6.7,1.7,9.3-0.8,14,2C1204.2,438.7,1204.3,441.2,1206,442z"/>
	</g>
	<g>
		<g>
			<path d="M1182.3,494.8c-1.2,7.3-5.1,13.5-3.6,21.2c1.6,8.1,6.1,15.4,8.6,23.2c0.3,0.9,1.7,0.5,1.4-0.4
				c-2.2-6.9-5.9-13.3-7.9-20.3c-2.5-8.7,1.5-15,2.9-23.3C1183.9,494.3,1182.4,493.8,1182.3,494.8L1182.3,494.8z"/>
		</g>
	</g>
	<g class="st33">
		<path class="st34" d="M1095,565c10.6-16.3-41.7-27.8-51.1-6c-12.1,28.2,62.1,16.6,48.1-1"/>
		<g>
			<path d="M1095.6,565.4c5.9-9.8-7.5-15.8-15-17.6c-11.1-2.7-27-2.7-35,7c-5.6,6.8-5.1,16,3.4,19.8c9.4,4.1,21.7,2.6,31.2-0.3
				c6.6-2.1,18.8-8,12.3-16.5c-0.6-0.8-1.9,0-1.3,0.8c5.3,7-4.2,11.8-9.8,13.7c-8.2,2.9-17.7,4.1-26.3,2.6
				c-7.8-1.4-14.3-6.1-10.9-14.8c4.3-11.1,18.6-12.9,28.9-11.9c7,0.7,27.8,5.6,21.1,16.6C1093.8,565.4,1095.1,566.2,1095.6,565.4
				L1095.6,565.4z"/>
		</g>
	</g>
	<g>
		<g>
			<path d="M1090.3,515c0.3,4.8-0.7,9.8-1.7,14.5c-1,4.5-2,10.3-5.1,14c-0.6,0.7,0.4,1.8,1.1,1.1c3-3.6,4.1-8.9,5.2-13.4
				c1.2-5.2,2.4-10.8,2-16.1C1091.7,514,1090.2,514,1090.3,515L1090.3,515z"/>
		</g>
	</g>
	<g class="st35">
		<path class="st36" d="M1216,533c0.7-1.4,3.1-1.5,5.5-1.5c11.1-0.2,16.7-0.3,18,0c11.9,2.7,23.9,18.7,24.5,30.4
			c1,19.7-29.5,43.2-77.8,52.4c-1.6-5.8-8.8-18.8-7-24.5c2.2-7,13.3-6,20.3-7.7c15.9-3.8,29.6-16.2,28.2-22.7
			c-0.6-2.8-3.7-3-5.7-8.4c-1.4-3.7-0.2-4.5-1.5-8.5C1218.6,536.9,1215.1,534.9,1216,533z"/>
	</g>
	<g class="st30">
		<path class="st36" d="M1054.5,575.5c-0.8-2.1-6.5-0.5-10-5c-1.6-2-2.6-5.1-2-8c0.7-3.5,3.4-5.5,3-6c-0.2-0.2-1,0-4,2
			c-6.2,2.7-15.4,7.2-25.1,14.8c-13.6,10.8-19.8,22.3-24.3,26.5c-20.9,20.2-44.3,24.4-70.9,32.3c11.4,15.7,8.6,34.1,11.1,52
			c9.5-0.1,29.5-12.1,38.5-17.1c12-6.7,25.5-15.9,36.2-32c11-16.6,5.5-21.4,16.2-34C1036.4,585.6,1055.9,579.4,1054.5,575.5z"/>
	</g>
	<path class="st37" d="M1139,345c5.7-6.5,5.2-14.6,4.9-22.8c-6.3,7.7-11.4,12.5-20.9,15.8"/>
	<g>
		<g>
			<path class="st21" d="M1164,351.3c-10.4,0.5-14.4-9.1-20.5-15.8c-0.7-0.7-1.7,0.3-1.1,1.1c6.4,7,10.5,16.7,21.5,16.2
				C1165,352.7,1165,351.2,1164,351.3L1164,351.3z"/>
		</g>
	</g>
	<g>
		<g>
			<path class="st21" d="M1137.5,331.5c-9.4-10-26.5-6.3-38.2-3.4c-4.5,1.1-8.8,2.2-13.4,2.1c-4.3-0.1-8.5-0.7-12.7-1.1
				c-6.1-0.5-12.7-0.7-16.8,4.6c-0.6,0.8,0.7,1.5,1.3,0.8c4.8-6.3,15-3.9,21.8-3.2c6.8,0.7,12.6,0.2,19.2-1.4
				c11.4-2.8,28.6-7,37.8,2.8C1137.1,333.2,1138.2,332.2,1137.5,331.5L1137.5,331.5z"/>
		</g>
	</g>
	<circle class="st38" cx="917" cy="704" r="8"/>
	<circle class="st38" cx="949" cy="700" r="8"/>
	<circle class="st38" cx="1080.5" cy="710.5" r="10.5"/>
	<circle class="st38" cx="1116" cy="684" r="22"/>
	<circle class="st38" cx="1192.5" cy="672.5" r="6.5"/>
	<circle class="st38" cx="1224" cy="625" r="4"/>
	<circle class="st38" cx="1011.5" cy="663.5" r="5.5"/>
	<circle class="st38" cx="973.5" cy="685.5" r="6.5"/>
	<circle class="st38" cx="1039" cy="631" r="8"/>
	<circle class="st38" cx="1168.5" cy="678.5" r="9.5"/>
	<circle class="st38" cx="1038.5" cy="730.5" r="9.5"/>
	<circle class="st38" cx="1075.5" cy="691.5" r="6.5"/>
	<circle class="st38" cx="1218" cy="653" r="7"/>
	<circle class="st38" cx="1205" cy="624" r="7"/>
	<path class="st39" d="M1220.5,542.5c2.5,5.4-2.5,12.3-3,13c-4.6,6.1-12,7.2-18,8c-5,0.7-9.4,1.3-14-1c-3.9-1.9-9.5-6.7-9-12.5
		c0.4-4.9,4.8-8,7-9.5c5.4-3.8,11.1-3.9,16-4C1206.7,536.4,1217.6,536.2,1220.5,542.5z"/>
</g>
<g id="Calque_6">
	<circle class="st40" cx="906.5" cy="538.5" r="13"/>
	<circle class="st40" cx="987.5" cy="498.5" r="9"/>
	<circle class="st40" cx="939.5" cy="577.5" r="14"/>
	<circle class="st40" cx="898.5" cy="437.5" r="11"/>
	<circle class="st40" cx="955" cy="466" r="7.5"/>
	<circle class="st40" cx="857" cy="440" r="4.5"/>
	<circle class="st40" cx="1041" cy="504" r="5.5"/>
	<circle class="st40" cx="1104" cy="469" r="10.5"/>
	<circle class="st40" cx="998" cy="449" r="4.5"/>
	<circle class="st40" cx="1133" cy="484" r="10.5"/>
	<circle class="st40" cx="1193" cy="456" r="6.5"/>
	<circle class="st40" cx="1070" cy="479" r="5.5"/>
	<circle class="st40" cx="970" cy="541" r="15.5"/>
	<circle class="st40" cx="876" cy="561" r="9.5"/>
	<circle class="st40" cx="864.5" cy="536.5" r="7"/>
	<circle class="st40" cx="861.5" cy="463.5" r="5"/>
	<circle class="st40" cx="913" cy="466" r="7.5"/>
	<circle class="st40" cx="940.5" cy="435.5" r="4"/>
	<circle class="st40" cx="1026" cy="465" r="8.5"/>
	<circle class="st41" cx="1093.5" cy="278.5" r="9.5"/>
	<circle class="st41" cx="1053.5" cy="316.5" r="7.5"/>
	<circle class="st41" cx="1013" cy="358" r="5"/>
	<circle class="st41" cx="974.5" cy="376.5" r="11.5"/>
	<circle class="st41" cx="1168" cy="339" r="7"/>
	<circle class="st41" cx="1215" cy="340" r="11"/>
	<circle class="st41" cx="1210" cy="413" r="10"/>
	<circle class="st41" cx="1182" cy="420" r="2"/>
	<circle class="st41" cx="1228.5" cy="371.5" r="7.5"/>
	<circle class="st41" cx="1212" cy="386" r="5"/>
	<circle class="st41" cx="1024" cy="331" r="9"/>
	<circle class="st41" cx="1069" cy="281" r="12"/>
	<circle class="st41" cx="1199" cy="428" r="5"/>
	<circle class="st42" cx="1020" cy="647" r="9"/>
	<circle class="st42" cx="1147.5" cy="672.5" r="12.5"/>
	<circle class="st42" cx="1086.5" cy="696.5" r="11.5"/>
	<circle class="st42" cx="939" cy="701" r="10"/>
	<circle class="st42" cx="978.5" cy="681.5" r="3.5"/>
	<circle class="st42" cx="1219" cy="621" r="8"/>
	<circle class="st42" cx="1208" cy="664" r="10"/>
	<circle class="st42" cx="1173.5" cy="661.5" r="7.5"/>
	<circle class="st42" cx="1067" cy="730" r="18"/>
	<circle class="st42" cx="1106" cy="668" r="8"/>
	<circle class="st42" cx="1126.5" cy="691.5" r="3.5"/>
	<ellipse class="st8" cx="1123.6" cy="569" rx="8.9" ry="9"/>
	<ellipse class="st8" cx="1160.2" cy="556" rx="4" ry="4"/>
	<ellipse class="st8" cx="1111.7" cy="558" rx="6.9" ry="7"/>
	<ellipse class="st8" cx="1153.8" cy="571.5" rx="4.5" ry="4.5"/>
	<ellipse class="st8" cx="1138.5" cy="551" rx="4" ry="4"/>
	<ellipse class="st8" cx="1172.1" cy="543" rx="4" ry="4"/>
	<ellipse class="st9" cx="1132" cy="561.5" rx="8.4" ry="8.5"/>
	<ellipse class="st9" cx="1161.2" cy="563" rx="6.9" ry="7"/>
	<ellipse class="st9" cx="1099.4" cy="555.5" rx="4.5" ry="4.5"/>
	<g class="st35">
		<path class="st36" d="M1186,563c0.9,5.6-18.7,15.8-40.1,19c-6.2,0.9-11.5,1.1-15.6,1.1c-22.8-0.3-43.2-8.3-42.8-12.6
			c0.2-1.7,5-1.3,7.9-6c0.5-0.8,1.6-2.6,1.5-4.5c-0.3-6.2-12.1-8.4-11.9-11c0.3-3.8,24.6-2.9,52.1-6c21.4-2.4,45-7.3,45.9-4
			c0.4,1.3-3.2,2.7-4.9,8c-0.4,1.2-1.4,4.4-0.5,7.5C1179.2,560,1185.5,560,1186,563z"/>
	</g>
</g>
</svg>
