<?xml version="1.0" encoding="utf-8"?>
<!-- Generator: Adobe Illustrator 21.0.0, SVG Export Plug-In . SVG Version: 6.00 Build 0)  -->
<svg version="1.1" id="Calque_1" xmlns="http://www.w3.org/2000/svg" xmlns:xlink="http://www.w3.org/1999/xlink" x="0px" y="0px"
	 viewBox="0 0 1920 1080" style="enable-background:new 0 0 1920 1080;" xml:space="preserve">
<style type="text/css">
	.st0{opacity:0.45;fill:#ED6E41;enable-background:new    ;}
	.st1{opacity:0.22;fill:#941E81;enable-background:new    ;}
	.st2{opacity:0.44;fill:#57C2E3;enable-background:new    ;}
	.st3{opacity:0.45;fill:#BC206A;enable-background:new    ;}
	.st4{opacity:0.56;fill:#ED6D41;enable-background:new    ;}
	.st5{opacity:0.34;fill:#ED6D41;enable-background:new    ;}
	.st6{opacity:0.45;fill:#941D81;enable-background:new    ;}
	.st7{opacity:0.59;fill:#55C2E3;enable-background:new    ;}
</style>
<g id="Calque_1_1_">
	<path class="st0" d="M1133.7,80.9c69.1,0,125.2,56.1,125.2,125.2s-56.1,125.2-125.2,125.2c-69.1,0-125.2-56.1-125.2-125.2
		S1064.6,80.9,1133.7,80.9"/>
	<path class="st0" d="M300.4,37.2c27.1,0,49,21.9,49,49s-21.9,49-49,49s-49-21.9-49-49S273.4,37.2,300.4,37.2"/>
	<path class="st1" d="M604.8,31.1c24.1,0,43.6,19.5,43.6,43.6s-19.5,43.6-43.6,43.6s-43.6-19.5-43.6-43.6S580.7,31.1,604.8,31.1"/>
	<path class="st1" d="M1314.5,190.6c47.6,0,86.2,38.6,86.2,86.2s-38.6,86.2-86.2,86.2s-86.2-38.6-86.2-86.2
		S1266.9,190.6,1314.5,190.6"/>
	<path class="st1" d="M1271.7,51.3c23.6,0,42.7,19.1,42.7,42.7s-19.1,42.7-42.7,42.7S1229,117.6,1229,94S1248.1,51.3,1271.7,51.3"/>
	<path class="st2" d="M380.1,101.4c44,0,79.6,35.6,79.6,79.6s-35.6,79.6-79.6,79.6S300.5,225,300.5,181S336.2,101.4,380.1,101.4"/>
	<path class="st1" d="M505.5,53c48.1,0,87.1,39,87.1,87.1s-39,87.1-87.1,87.1s-87.1-39-87.1-87.1S457.4,53,505.5,53"/>
	<path class="st3" d="M1576.5,71.6c60.4,0,109.4,49,109.4,109.4s-49,109.4-109.4,109.4s-109.4-49-109.4-109.4
		S1516.1,71.6,1576.5,71.6"/>
	<circle class="st4" cx="266.3" cy="511.6" r="100.6"/>
	<circle class="st4" cx="300.5" cy="887" r="50"/>
	<circle class="st4" cx="1008.5" cy="777" r="180"/>
	<circle class="st4" cx="1752.5" cy="939" r="102"/>
	<circle class="st5" cx="106.7" cy="206.1" r="49.8"/>
	<circle class="st4" cx="1422.6" cy="527.5" r="62.5"/>
	<circle class="st4" cx="1169.5" cy="816" r="91"/>
	<circle class="st4" cx="625.5" cy="370" r="79"/>
	<circle class="st4" cx="522.5" cy="731" r="70"/>
	<circle class="st4" cx="151.5" cy="874" r="73"/>
	<circle class="st4" cx="1812.6" cy="397.5" r="114.5"/>
	<circle class="st4" cx="680.5" cy="914" r="55"/>
	<circle class="st4" cx="162.3" cy="303.6" r="50.6"/>
	<circle class="st4" cx="1073.5" cy="460" r="65"/>
	<circle class="st4" cx="1397.5" cy="962" r="65"/>
</g>
<g id="Calque_2">
	<circle class="st6" cx="460.5" cy="375.1" r="160.1"/>
	<circle class="st6" cx="1486.2" cy="559.2" r="171.8"/>
	<circle class="st6" cx="1001.7" cy="369.1" r="113.2"/>
	<circle class="st6" cx="224.5" cy="709.9" r="206"/>
	<circle class="st6" cx="730" cy="637" r="38"/>
	<circle class="st6" cx="1510.4" cy="397.5" r="78.1"/>
	<circle class="st6" cx="1820.4" cy="740" r="53"/>
	<circle class="st6" cx="1437" cy="841.5" r="25.5"/>
	<circle class="st6" cx="1264.5" cy="637" r="50"/>
	<circle class="st6" cx="1242.7" cy="365.2" r="45.8"/>
	<circle class="st6" cx="350.5" cy="1027" r="24.5"/>
</g>
<g id="Calque_3">
	<circle class="st7" cx="275.3" cy="326.6" r="60.9"/>
	<circle class="st7" cx="722" cy="538.6" r="73.6"/>
	<circle class="st7" cx="798.3" cy="276.8" r="49.8"/>
	<circle class="st7" cx="1029.9" cy="553.4" r="43.6"/>
	<circle class="st7" cx="505.5" cy="912" r="53"/>
	<circle class="st7" cx="106.7" cy="429" r="53"/>
	<circle class="st7" cx="1176.8" cy="599.3" r="52.3"/>
	<circle class="st7" cx="1469.1" cy="313.5" r="57.6"/>
	<circle class="st7" cx="1547.5" cy="830" r="29"/>
	<circle class="st7" cx="1698.1" cy="559.2" r="70.3"/>
	<circle class="st7" cx="741.5" cy="796.5" r="19.5"/>
	<circle class="st7" cx="961.1" cy="729.6" r="28.6"/>
	<circle class="st7" cx="453.5" cy="303.6" r="23"/>
	<circle class="st7" cx="233.5" cy="656" r="19"/>
	<circle class="st7" cx="479.5" cy="501.5" r="26"/>
	<circle class="st7" cx="965.9" cy="279.7" r="23.8"/>
	<circle class="st7" cx="1363" cy="257.5" r="30.5"/>
	<circle class="st7" cx="1827.2" cy="688.3" r="36.7"/>
	<circle class="st7" cx="1630.8" cy="313.5" r="35.2"/>
	<circle class="st7" cx="1625" cy="678.5" r="22.5"/>
	<circle class="st7" cx="1341" cy="803.5" r="26.5"/>
	<circle class="st7" cx="1586" cy="968.5" r="21.5"/>
	<circle class="st7" cx="162.3" cy="140.1" r="16.2"/>
	<circle class="st7" cx="106.7" cy="701" r="67.7"/>
	<circle class="st7" cx="88.1" cy="1013.6" r="23.6"/>
	<circle class="st7" cx="418.8" cy="636.6" r="24.4"/>
	<circle class="st7" cx="1167.7" cy="991.2" r="29.2"/>
</g>
</svg>
